<svg width="51" height="35" viewBox="0 0 51 35" fill="none" xmlns="http://www.w3.org/2000/svg">
<path d="M4.48242 0.0292969H46.5176C48.9892 0.0292969 51 2.04011 51 4.51172V30.488C51 32.9597 48.9892 34.9705 46.5176 34.9705H4.48242C2.01081 34.9705 0 32.9597 0 30.488V4.51172C0 2.04011 2.01081 0.0292969 4.48242 0.0292969ZM5.06742 3.01758L5.66568 3.51572L23.7216 18.5509C24.7521 19.4089 26.2481 19.4089 27.2784 18.5509L45.3343 3.51572L45.9326 3.01758H5.06742ZM48.0117 5.17492L33.3002 17.4252L48.0117 27.2161V5.17492ZM4.48242 31.9822H46.5176C47.2395 31.9822 47.8434 31.4674 47.9817 30.7858L30.9042 19.4203L29.1905 20.8473C28.1213 21.7376 26.8106 22.1827 25.4999 22.1827C24.1892 22.1827 22.8786 21.7376 21.8093 20.8473L20.0956 19.4203L3.01816 30.7857C3.15662 31.4675 3.76045 31.9822 4.48242 31.9822ZM2.98828 27.2161L17.6998 17.4253L2.98828 5.17492V27.2161Z" fill="white"/>
</svg>
