<svg width="44" height="38" viewBox="0 0 44 38" fill="none" xmlns="http://www.w3.org/2000/svg">
<path d="M0.777171 18.2209L10.9157 21.9743L14.8399 34.4926C15.091 35.2944 16.0794 35.5907 16.7354 35.0587L22.3868 30.4888C22.9792 30.01 23.8229 29.9862 24.442 30.4319L34.6351 37.7725C35.3369 38.2785 36.3311 37.8971 36.5071 37.0559L43.9741 1.42856C44.1662 0.509692 43.256 -0.256854 42.3739 0.0815375L0.765291 16.0033C-0.261524 16.3961 -0.252577 17.8381 0.777171 18.2209ZM14.2075 19.9763L34.0219 7.8711C34.378 7.65419 34.7443 8.13181 34.4385 8.41317L18.0859 23.491C17.5111 24.0217 17.1404 24.7319 17.0353 25.5028L16.4783 29.5976C16.4045 30.1443 15.6303 30.1986 15.4782 29.6695L13.3358 22.2026C13.0904 21.3509 13.448 20.4412 14.2075 19.9763Z" fill="#252994"/>
</svg>
