<svg width="669" height="624" viewBox="0 0 669 624" fill="none" xmlns="http://www.w3.org/2000/svg">
<path d="M590.022 554.045H428.517V554.476H590.022V554.045Z" fill="#E6E6E6"/>
<path d="M625.657 310.824H504.856V545.787H625.657V310.824Z" fill="#F5F5F5"/>
<path d="M625.657 310.824H615.692V545.787H625.657V310.824Z" fill="#F0F0F0"/>
<path d="M236.033 368.284L514.166 368.284V317.53L236.033 317.53V368.284Z" fill="#E0E0E0"/>
<path d="M352.006 545.96H232.757C232.3 545.96 231.861 545.778 231.538 545.455C231.215 545.132 231.033 544.693 231.033 544.236C231.033 543.779 231.215 543.34 231.538 543.017C231.861 542.694 232.3 542.512 232.757 542.512H352.006C369.246 542.512 371.539 537.478 371.539 517.514V265.81C371.539 265.353 371.721 264.914 372.044 264.591C372.367 264.268 372.806 264.086 373.263 264.086C373.72 264.086 374.159 264.268 374.482 264.591C374.806 264.914 374.987 265.353 374.987 265.81V517.514C374.987 538.857 371.677 545.96 352.006 545.96Z" fill="#E0E0E0"/>
<path d="M246.722 329.357L622.933 329.357V311.737L246.722 311.737V329.357Z" fill="#F0F0F0"/>
<path d="M249.445 310.824H128.645V545.787H249.445V310.824Z" fill="#F5F5F5"/>
<path d="M249.428 310.824H239.463V545.787H249.428V310.824Z" fill="#F0F0F0"/>
<path d="M163.901 545.788L163.901 127.373H60.2365L60.2365 545.788H163.901Z" fill="#FAFAFA"/>
<path d="M158.211 231.882V139.596H65.9257V231.882H158.211Z" fill="#F5F5F5"/>
<path d="M91.6306 138.355H132.558C132.558 140.892 131.55 143.326 129.756 145.12C127.962 146.915 125.528 147.923 122.99 147.923H101.268C100.005 147.932 98.7538 147.691 97.585 147.214C96.4162 146.738 95.3532 146.034 94.4574 145.145C93.5616 144.255 92.8506 143.198 92.3655 142.032C91.8803 140.867 91.6306 139.617 91.6306 138.355Z" fill="#E0E0E0"/>
<path d="M158.194 332.443V240.157H65.9084V332.443H158.194Z" fill="#F5F5F5"/>
<path d="M158.211 433.003V340.718H65.9257V433.003H158.211Z" fill="#F5F5F5"/>
<path d="M158.211 533.582V441.296H65.9257V533.582H158.211Z" fill="#F5F5F5"/>
<path d="M91.6306 238.933H132.558C132.554 241.469 131.544 243.9 129.751 245.694C127.957 247.487 125.526 248.496 122.99 248.501H101.268C100.006 248.508 98.7555 248.265 97.5877 247.788C96.4199 247.31 95.3578 246.607 94.4625 245.718C93.5671 244.829 92.8561 243.772 92.3701 242.608C91.8842 241.443 91.6329 240.194 91.6306 238.933Z" fill="#E0E0E0"/>
<path d="M91.6306 339.494H132.558C132.558 342.031 131.55 344.465 129.756 346.259C127.962 348.054 125.528 349.062 122.99 349.062H101.268C100.005 349.071 98.7538 348.83 97.585 348.353C96.4162 347.877 95.3532 347.173 94.4574 346.284C93.5616 345.395 92.8506 344.337 92.3655 343.171C91.8803 342.006 91.6306 340.756 91.6306 339.494Z" fill="#E0E0E0"/>
<path d="M91.6306 440.055H132.558C132.558 442.592 131.55 445.026 129.756 446.82C127.962 448.615 125.528 449.623 122.99 449.623H101.268C100.005 449.632 98.7538 449.391 97.585 448.914C96.4162 448.438 95.3532 447.734 94.4574 446.845C93.5616 445.955 92.8506 444.898 92.3655 443.732C91.8803 442.567 91.6306 441.317 91.6306 440.055Z" fill="#E0E0E0"/>
<path d="M60.2366 545.788L60.2366 127.373H8.46486L8.46486 545.788H60.2366Z" fill="#F0F0F0"/>
<path d="M359.074 310.824H333.025L339.352 260.104H365.419L359.074 310.824Z" fill="#F0F0F0"/>
<path d="M364.85 310.824H338.783L345.128 260.104H371.177L364.85 310.824Z" fill="#F5F5F5"/>
<path d="M420.742 310.824H401.899L398.296 305.083H417.122L420.742 310.824Z" fill="#F0F0F0"/>
<path d="M521.699 310.824H407.657L404.054 305.083H506.321L521.699 310.824Z" fill="#FAFAFA"/>
<path d="M276.443 296.273H284.684C288.543 296.273 292.244 297.806 294.973 300.535C297.701 303.264 299.234 306.965 299.234 310.824H261.858C261.858 308.91 262.236 307.015 262.969 305.247C263.702 303.48 264.777 301.874 266.132 300.523C267.487 299.171 269.095 298.1 270.864 297.371C272.634 296.641 274.529 296.268 276.443 296.273Z" fill="#F0F0F0"/>
<path d="M368.005 285.464H341.955L345.127 260.104H371.177L368.005 285.464Z" fill="#F0F0F0"/>
<path d="M272.202 279.395H456.67C457.033 279.396 457.392 279.319 457.723 279.169C458.054 279.02 458.349 278.802 458.589 278.529C458.829 278.257 459.008 277.936 459.114 277.589C459.22 277.242 459.251 276.876 459.204 276.516L444.999 162.87C444.923 162.251 444.623 161.682 444.156 161.269C443.689 160.856 443.088 160.628 442.464 160.629H258.048C257.687 160.628 257.329 160.705 257 160.853C256.67 161.002 256.376 161.218 256.136 161.489C255.897 161.759 255.717 162.078 255.61 162.423C255.503 162.768 255.47 163.132 255.514 163.491L269.72 277.154C269.794 277.764 270.086 278.326 270.542 278.738C270.998 279.15 271.588 279.383 272.202 279.395Z" fill="#F0F0F0"/>
<path d="M274.995 279.395H459.342C459.705 279.396 460.064 279.319 460.395 279.169C460.726 279.02 461.022 278.802 461.261 278.529C461.501 278.257 461.68 277.936 461.786 277.589C461.892 277.242 461.923 276.876 461.877 276.516L447.671 162.87C447.592 162.253 447.291 161.685 446.825 161.273C446.359 160.861 445.759 160.632 445.137 160.629H260.789C260.428 160.628 260.071 160.705 259.741 160.853C259.411 161.002 259.117 161.218 258.877 161.489C258.638 161.759 258.458 162.078 258.351 162.423C258.244 162.768 258.211 163.132 258.255 163.491L272.461 277.154C272.537 277.773 272.836 278.342 273.303 278.755C273.77 279.168 274.372 279.395 274.995 279.395Z" fill="#F5F5F5"/>
<path d="M455.929 273.102L442.637 166.732C442.612 166.558 442.525 166.399 442.392 166.285C442.258 166.171 442.088 166.109 441.913 166.111H264.91C264.808 166.107 264.707 166.126 264.614 166.166C264.521 166.206 264.437 166.266 264.37 166.341C264.302 166.417 264.252 166.507 264.224 166.604C264.195 166.701 264.188 166.804 264.203 166.904L277.495 273.292C277.516 273.464 277.6 273.623 277.73 273.737C277.861 273.852 278.028 273.914 278.202 273.913H455.222C455.323 273.911 455.423 273.888 455.515 273.845C455.607 273.803 455.689 273.741 455.756 273.665C455.822 273.588 455.872 273.499 455.902 273.402C455.932 273.305 455.941 273.203 455.929 273.102Z" fill="#E0E0E0"/>
<path d="M388.555 310.824H346.11V310.289C346.11 309.169 346.555 308.095 347.347 307.302C348.14 306.51 349.214 306.065 350.334 306.065H384.331C385.452 306.065 386.526 306.51 387.318 307.302C388.11 308.095 388.555 309.169 388.555 310.289V310.824Z" fill="#FAFAFA"/>
<path d="M351.058 310.824H322.267V310.289C322.267 309.169 322.712 308.095 323.504 307.302C324.296 306.51 325.371 306.065 326.491 306.065H346.834C347.954 306.065 349.029 306.51 349.821 307.302C350.613 308.095 351.058 309.169 351.058 310.289V310.824Z" fill="#F0F0F0"/>
<path d="M104.043 80.1179V80.0317C104.44 78.7042 104.819 77.3595 105.147 76.0148C105.73 76.9443 106.524 77.7235 107.465 78.2895C108.405 78.8555 109.465 79.1925 110.56 79.2731H111.025C113.904 78.9973 116.663 76.2044 118.404 71.8082C118.438 71.7292 118.455 71.6441 118.455 71.5582C118.455 71.4723 118.438 71.3873 118.404 71.3083C118.321 71.1508 118.178 71.033 118.008 70.9807C115.941 70.4569 113.787 70.375 111.687 70.7404C109.587 71.1058 107.587 71.9103 105.819 73.1012C106.078 71.8255 106.302 70.5324 106.491 69.2567C106.946 69.3444 107.408 69.3905 107.87 69.3946C112.56 69.3946 116.008 65.2053 116.18 64.9984C116.241 64.9224 116.283 64.8332 116.303 64.738C116.323 64.6428 116.32 64.5443 116.295 64.4503C116.27 64.3564 116.223 64.2697 116.158 64.1972C116.093 64.1247 116.012 64.0684 115.922 64.033C114.832 63.4922 113.641 63.188 112.425 63.1405C111.21 63.0929 109.999 63.3031 108.87 63.7571C107.666 64.3697 106.692 65.3555 106.095 66.5673C105.216 63.8695 103.61 61.4666 101.454 59.6232C99.2969 57.7798 96.6732 56.5675 93.8716 56.1198C93.7846 56.0993 93.6941 56.0995 93.6072 56.1204C93.5203 56.1414 93.4396 56.1825 93.3716 56.2405C93.2993 56.2913 93.2399 56.3583 93.198 56.4361C93.1561 56.5139 93.1329 56.6004 93.1303 56.6887C92.8889 60.947 93.0268 66.1707 96.2162 68.6533C97.5503 69.6371 99.1804 70.1359 100.837 70.067C102.32 70.0312 103.793 69.7993 105.216 69.3774C104.76 72.4584 104.098 75.5053 103.233 78.4973C100.113 74.2462 95.6865 71.1338 90.6305 69.636C90.4706 69.5988 90.3026 69.6246 90.1614 69.7081C90.0201 69.7916 89.9164 69.9263 89.8719 70.0842C88.9065 73.7563 89.4064 76.7389 91.3028 78.7042C92.2672 79.5706 93.3962 80.2338 94.6224 80.6544C95.8487 81.075 97.1471 81.2443 98.4402 81.1523C99.8301 81.1435 101.216 80.9991 102.578 80.7213C101.785 83.2383 100.854 85.7036 99.9745 88.0483C98.0609 86.3243 92.4234 82.0488 86.286 83.8417C86.1212 83.8963 85.9847 84.0142 85.9067 84.1693C85.873 84.2483 85.8557 84.3334 85.8557 84.4193C85.8557 84.5052 85.873 84.5902 85.9067 84.6693C87.6307 88.7379 89.4754 90.9963 91.8545 91.7721C92.4885 91.9812 93.1523 92.086 93.8199 92.0825C95.6416 92.0051 97.417 91.4843 98.9919 90.5653C97.6816 93.6858 96.2852 96.5993 94.9577 99.1853C93.3821 97.5785 91.4024 96.4262 89.2271 95.8498C87.0517 95.2733 84.7612 95.294 82.5966 95.9097C82.4489 95.939 82.3175 96.0224 82.2282 96.1437C82.1389 96.2649 82.0981 96.4151 82.1139 96.5649C82.2665 97.8687 82.7594 99.1094 83.5431 100.163C84.3269 101.216 85.3739 102.044 86.5791 102.564C87.4883 102.955 88.4684 103.155 89.4581 103.151C90.8312 103.133 92.1798 102.784 93.3889 102.133C92.0441 104.633 90.8029 106.719 89.8374 108.305H78.1142C76.2523 105.116 74.0973 101.151 71.994 96.7028C72.9737 96.9953 73.9888 97.1519 75.011 97.1683C76.2682 97.1839 77.5122 96.9098 78.6464 96.3672C79.7806 95.8247 80.7747 95.0283 81.5515 94.0397C82.3284 93.0511 82.8672 91.8969 83.1262 90.6666C83.3851 89.4362 83.3573 88.1628 83.0449 86.9449C83.0046 86.8035 82.914 86.6816 82.7902 86.6023C82.6664 86.5229 82.5179 86.4915 82.3725 86.5139C79.9785 86.7474 77.6758 87.5539 75.6593 88.8653C73.6428 90.1766 71.9717 91.9542 70.7872 94.0478C69.408 90.9446 68.0633 87.6518 66.891 84.2555C68.3832 85.1045 70.0549 85.5889 71.7699 85.6692C72.4505 85.6769 73.1272 85.5661 73.7698 85.3416C77.2178 84.2038 79.2003 80.0489 80.8899 75.7389C80.9279 75.6611 80.9477 75.5756 80.9477 75.489C80.9477 75.4023 80.9279 75.3168 80.8899 75.239C80.8501 75.1598 80.7944 75.0898 80.7261 75.0335C80.6578 74.9771 80.5786 74.9355 80.4934 74.9114C73.5974 72.9805 67.9254 79.6179 66.1669 81.997C65.2474 79.1264 64.482 76.2087 63.874 73.2564C65.3226 73.5399 66.7942 73.6899 68.2702 73.7046C69.737 73.8118 71.2103 73.6162 72.5983 73.1298C73.9863 72.6434 75.2594 71.8766 76.3385 70.8773C78.4245 68.6705 78.9245 65.3605 77.8039 61.3263C77.784 61.2472 77.7484 61.173 77.699 61.1081C77.6497 61.0431 77.5877 60.9889 77.5168 60.9486C77.4459 60.9083 77.3675 60.8828 77.2865 60.8737C77.2055 60.8645 77.1235 60.8719 77.0454 60.8953C71.5437 62.6121 66.7546 66.0813 63.4085 70.7738L63.1499 69.205C63.1317 69.0692 63.0714 68.9426 62.9775 68.8429C62.6932 67.8229 62.1979 66.8738 61.5238 66.0572C60.8497 65.2405 60.0117 64.5744 59.064 64.1019C57.8203 63.6221 56.4891 63.4109 55.158 63.4822C53.8268 63.5535 52.5258 63.9057 51.3405 64.5157C51.2494 64.5551 51.1681 64.6142 51.1026 64.6887C51.037 64.7632 50.9887 64.8513 50.9612 64.9467C50.94 65.0403 50.9415 65.1377 50.9655 65.2306C50.9895 65.3236 51.0353 65.4094 51.0991 65.4811C51.2715 65.7053 55.0644 70.1876 60.1674 70.1876C60.7175 70.1806 61.2657 70.1228 61.8052 70.0153C62.0293 71.4807 62.3052 72.9461 62.6155 74.3942C60.6494 73.1 58.4314 72.2372 56.1075 71.8627C53.7837 71.4883 51.4069 71.6108 49.1338 72.222C48.9634 72.2743 48.8208 72.3921 48.7373 72.5495C48.7031 72.6315 48.6855 72.7194 48.6855 72.8081C48.6855 72.8969 48.7031 72.9848 48.7373 73.0667C50.7199 77.8594 53.7886 80.8937 56.9608 81.1523H57.3918C58.9951 81.1523 61.1673 80.411 63.374 77.4629C64.243 80.815 65.2904 84.1183 66.5117 87.3587C63.5292 85.945 56.8228 83.5142 52.0301 87.2208C51.9642 87.2684 51.9087 87.3289 51.8667 87.3985C51.8248 87.4681 51.7974 87.5456 51.7861 87.6261C51.7749 87.7066 51.78 87.7885 51.8012 87.867C51.8223 87.9455 51.8592 88.0189 51.9094 88.0828C55.0126 92.3066 57.8745 94.3581 60.6846 94.3581C63.012 94.3581 65.2359 92.8927 67.4599 89.9964C68.7357 93.1686 70.1149 96.2028 71.4768 98.9957C68.4943 97.151 65.2187 97.4441 61.3569 99.8749C61.2676 99.9285 61.1937 100.004 61.1423 100.095C61.0909 100.186 61.0639 100.288 61.0639 100.392C61.0568 100.494 61.0771 100.595 61.1226 100.686C61.168 100.777 61.2371 100.854 61.3225 100.909C63.6225 102.567 66.3386 103.552 69.1667 103.754C70.6257 103.783 72.0562 103.348 73.2525 102.513C74.3559 104.633 75.442 106.581 76.4419 108.323H71.1148V111.357H73.0457L74.649 127.424H98.2505L99.8366 111.357H101.785V108.323H91.1821C92.3545 106.374 93.8544 103.771 95.4577 100.72C95.5056 100.658 95.5407 100.588 95.5611 100.513C95.9749 99.737 96.3714 98.944 96.7851 98.1165C97.4863 99.1773 98.4313 100.055 99.541 100.676C100.651 101.297 101.893 101.643 103.164 101.685C103.428 101.702 103.693 101.702 103.957 101.685C105.361 101.526 106.694 100.981 107.808 100.111C108.922 99.2404 109.773 98.0788 110.267 96.7545C110.318 96.6184 110.318 96.4685 110.267 96.3323C110.217 96.1961 110.119 96.0828 109.991 96.0132C108.183 94.9921 106.159 94.4157 104.084 94.3318C102.01 94.2478 99.9452 94.6587 98.0609 95.5305C98.9574 93.6513 99.7849 91.6342 100.681 89.5482C100.749 89.4708 100.791 89.3745 100.802 89.2723C101.043 88.6862 101.268 88.1 101.509 87.5483C103.56 90.1343 105.595 91.4101 107.715 91.4101C110.284 91.4101 112.887 89.5137 115.68 85.6002C115.777 85.4694 115.819 85.3058 115.796 85.1445C115.774 84.9833 115.689 84.8373 115.56 84.7382C111.163 81.4454 105.216 83.7038 102.423 85.014C102.992 83.4624 103.509 81.8936 103.991 80.2903L104.043 80.1179Z" fill="#E0E0E0"/>
<path d="M597.125 72.8426H508.959V169.645H597.125V72.8426Z" fill="#E0E0E0"/>
<path d="M586.246 76.8078C586.172 76.8254 586.095 76.8254 586.022 76.8078C585.815 76.6699 564.989 64.2916 558.438 64.2916C551.886 64.2916 531.974 76.6699 531.767 76.7906C531.72 76.8216 531.667 76.8428 531.612 76.8527C531.556 76.8626 531.499 76.861 531.445 76.8481C531.39 76.8352 531.338 76.8112 531.293 76.7776C531.247 76.744 531.209 76.7014 531.181 76.6526C531.123 76.5563 531.105 76.441 531.131 76.3315C531.157 76.222 531.224 76.1269 531.319 76.0665C532.147 75.5493 551.576 63.4296 558.438 63.4296C565.299 63.4296 585.677 75.4976 586.539 76.0665C586.588 76.0947 586.63 76.1327 586.664 76.1779C586.697 76.2232 586.721 76.2749 586.734 76.3298C586.747 76.3847 586.749 76.4416 586.739 76.4972C586.729 76.5527 586.708 76.6056 586.677 76.6526C586.628 76.7181 586.561 76.7677 586.485 76.7953C586.408 76.8229 586.325 76.8273 586.246 76.8078Z" fill="#EBEBEB"/>
<path d="M606.658 72.8426H515.596V169.645H606.658V72.8426Z" fill="#F5F5F5"/>
<path d="M599.038 162.008V80.4627H523.234V162.008H599.038Z" fill="white"/>
<path d="M575.818 135.926C583.931 127.813 583.931 114.66 575.818 106.547C567.705 98.434 554.551 98.434 546.439 106.547C538.326 114.66 538.326 127.813 546.439 135.926C554.551 144.039 567.705 144.039 575.818 135.926Z" fill="#E0E0E0"/>
<path d="M559.369 428.297H636.638C643.728 428.303 650.537 425.527 655.602 420.565C660.667 415.604 663.582 408.853 663.722 401.765L666.619 260.293C666.671 257.668 666.2 255.058 665.231 252.617C664.263 250.176 662.817 247.953 660.979 246.078C659.141 244.203 656.947 242.713 654.526 241.696C652.105 240.68 649.505 240.156 646.879 240.157H598.434C593.588 240.156 588.911 241.939 585.295 245.166C581.68 248.394 579.379 252.84 578.833 257.655L559.369 428.297Z" fill="#E6E6E6"/>
<path d="M601.538 428.297H519.2C518.176 428.297 517.193 427.89 516.469 427.166C515.745 426.442 515.338 425.459 515.338 424.435V424.073C515.338 421.266 516.453 418.573 518.438 416.588C520.424 414.603 523.116 413.488 525.923 413.488H601.538V428.297Z" fill="#E6E6E6"/>
<path d="M595.038 547.718C594.637 547.727 594.246 547.596 593.931 547.348C593.617 547.099 593.399 546.749 593.314 546.356L569.178 430.021H527.113L502.977 546.356C502.883 546.814 502.612 547.215 502.222 547.472C501.832 547.729 501.357 547.821 500.899 547.727C500.442 547.633 500.041 547.362 499.784 546.972C499.527 546.583 499.435 546.107 499.529 545.65L523.975 427.952C524.056 427.557 524.272 427.202 524.587 426.95C524.902 426.698 525.296 426.565 525.699 426.573H570.523C570.926 426.565 571.32 426.698 571.635 426.95C571.95 427.202 572.167 427.557 572.247 427.952L596.676 545.65C596.768 546.095 596.68 546.559 596.432 546.94C596.183 547.321 595.794 547.589 595.349 547.684C595.247 547.708 595.143 547.719 595.038 547.718Z" fill="#E6E6E6"/>
<path d="M568.817 547.718C568.702 547.735 568.586 547.735 568.472 547.718C568.25 547.673 568.039 547.585 567.852 547.458C567.664 547.331 567.503 547.169 567.378 546.98C567.253 546.791 567.167 546.579 567.124 546.357C567.081 546.135 567.082 545.906 567.127 545.684L591.573 427.987C591.654 427.591 591.871 427.237 592.186 426.985C592.501 426.733 592.894 426.599 593.297 426.607H638.121C638.525 426.599 638.918 426.733 639.233 426.985C639.548 427.237 639.765 427.591 639.845 427.987L664.275 545.684C664.321 545.91 664.322 546.144 664.279 546.371C664.235 546.598 664.147 546.814 664.02 547.007C663.892 547.2 663.728 547.366 663.537 547.495C663.345 547.625 663.13 547.715 662.904 547.762C662.678 547.808 662.444 547.809 662.217 547.766C661.99 547.722 661.774 547.634 661.581 547.506C661.389 547.379 661.223 547.215 661.093 547.024C660.964 546.832 660.873 546.617 660.827 546.391L636.691 430.055H594.59L570.454 546.391C570.367 546.762 570.159 547.094 569.862 547.334C569.566 547.574 569.198 547.71 568.817 547.718Z" fill="#E6E6E6"/>
<path d="M334.266 623.643C518.877 623.643 668.533 614.906 668.533 604.128C668.533 593.349 518.877 584.612 334.266 584.612C149.656 584.612 0 593.349 0 604.128C0 614.906 149.656 623.643 334.266 623.643Z" fill="#F5F5F5"/>
<path d="M363.764 588.198C363.224 588.197 362.701 588.009 362.283 587.667C361.865 587.324 361.578 586.848 361.471 586.319L328.715 425.021H271.668L238.912 586.319C238.756 586.893 238.387 587.387 237.88 587.7C237.373 588.012 236.766 588.12 236.183 588.002C235.599 587.883 235.083 587.547 234.738 587.062C234.393 586.576 234.246 585.978 234.326 585.388L267.461 422.211C267.572 421.683 267.859 421.209 268.276 420.867C268.693 420.525 269.215 420.336 269.754 420.332H330.612C331.152 420.333 331.675 420.521 332.093 420.863C332.51 421.206 332.797 421.682 332.904 422.211L366.057 585.388C366.179 585.996 366.055 586.627 365.713 587.144C365.37 587.661 364.837 588.022 364.23 588.146L363.764 588.198Z" fill="#407BFF"/>
<path d="M272.202 588.198C271.663 588.194 271.141 588.005 270.724 587.663C270.307 587.321 270.02 586.847 269.909 586.319L237.153 425.021H180.106L147.35 586.319C147.307 586.637 147.199 586.942 147.033 587.216C146.867 587.491 146.646 587.728 146.385 587.914C146.123 588.1 145.826 588.23 145.513 588.296C145.199 588.363 144.875 588.364 144.561 588.3C144.246 588.236 143.948 588.109 143.685 587.925C143.422 587.742 143.2 587.506 143.031 587.233C142.863 586.96 142.752 586.656 142.707 586.338C142.661 586.021 142.68 585.697 142.764 585.388L175.917 422.211C176.024 421.682 176.311 421.206 176.729 420.863C177.146 420.521 177.67 420.333 178.21 420.332H239.067C239.605 420.334 240.126 420.522 240.541 420.865C240.956 421.207 241.239 421.683 241.343 422.211L274.495 585.388C274.617 585.996 274.494 586.627 274.151 587.144C273.809 587.661 273.275 588.022 272.668 588.146L272.202 588.198Z" fill="#407BFF"/>
<path d="M285.011 422.694H180.192C170.571 422.696 161.333 418.925 154.461 412.192C147.589 405.458 143.631 396.299 143.437 386.68L139.54 227.382C139.467 223.821 140.105 220.282 141.416 216.971C142.728 213.659 144.687 210.643 147.178 208.099C149.67 205.554 152.644 203.532 155.927 202.151C159.21 200.77 162.735 200.058 166.297 200.057H232.016C238.593 200.061 244.938 202.484 249.844 206.865C254.75 211.246 257.872 217.279 258.617 223.813L285.011 422.694Z" fill="#407BFF"/>
<path d="M227.844 402.523H330.422C334.23 402.523 337.883 404.036 340.576 406.729C343.27 409.423 344.783 413.075 344.783 416.884V417.384C344.783 418.756 344.238 420.071 343.268 421.041C342.298 422.011 340.982 422.556 339.611 422.556H227.844V402.523Z" fill="#407BFF"/>
<g opacity="0.3">
<path opacity="0.3" d="M363.764 588.198C363.224 588.197 362.701 588.009 362.283 587.667C361.865 587.324 361.579 586.848 361.471 586.319L328.715 425.021H271.668L238.912 586.319C238.756 586.893 238.387 587.387 237.88 587.7C237.373 588.012 236.767 588.12 236.183 588.002C235.6 587.883 235.083 587.547 234.738 587.062C234.393 586.576 234.246 585.978 234.326 585.388L267.462 422.211C267.572 421.683 267.859 421.209 268.277 420.867C268.694 420.525 269.215 420.336 269.755 420.332H330.612C331.152 420.333 331.675 420.521 332.093 420.863C332.511 421.206 332.797 421.682 332.905 422.211L366.057 585.388C366.179 585.996 366.056 586.627 365.713 587.144C365.371 587.661 364.837 588.022 364.23 588.146L363.764 588.198Z" fill="black"/>
<path opacity="0.3" d="M272.202 588.198C271.663 588.194 271.141 588.005 270.724 587.663C270.307 587.321 270.02 586.847 269.909 586.319L237.153 425.021H180.106L147.35 586.319C147.307 586.637 147.199 586.942 147.033 587.216C146.867 587.491 146.646 587.728 146.385 587.914C146.123 588.1 145.826 588.23 145.513 588.296C145.199 588.363 144.875 588.364 144.561 588.3C144.246 588.236 143.948 588.109 143.685 587.925C143.422 587.742 143.2 587.506 143.031 587.233C142.863 586.96 142.752 586.656 142.707 586.338C142.661 586.021 142.68 585.697 142.764 585.388L175.917 422.211C176.024 421.682 176.311 421.206 176.729 420.863C177.146 420.521 177.67 420.333 178.21 420.332H239.067C239.605 420.334 240.126 420.522 240.541 420.865C240.956 421.207 241.239 421.683 241.343 422.211L274.495 585.388C274.617 585.996 274.494 586.627 274.151 587.144C273.809 587.661 273.275 588.022 272.668 588.146L272.202 588.198Z" fill="black"/>
<path opacity="0.3" d="M285.011 422.694H180.192C170.571 422.696 161.333 418.925 154.461 412.192C147.589 405.458 143.631 396.299 143.437 386.68L139.54 227.382C139.467 223.821 140.105 220.282 141.416 216.971C142.728 213.659 144.687 210.643 147.178 208.099C149.67 205.554 152.644 203.532 155.927 202.151C159.21 200.77 162.735 200.058 166.297 200.057H232.016C238.593 200.061 244.938 202.484 249.844 206.865C254.75 211.246 257.872 217.279 258.617 223.813L285.011 422.694Z" fill="black"/>
<path opacity="0.3" d="M227.844 402.523H330.422C334.231 402.523 337.883 404.036 340.577 406.729C343.27 409.423 344.783 413.075 344.783 416.884V417.384C344.783 418.756 344.238 420.071 343.268 421.041C342.298 422.011 340.983 422.556 339.611 422.556H227.844V402.523Z" fill="black"/>
</g>
<path d="M255.841 191.264C255.841 191.264 270.495 210.401 261.013 248.501C251.531 286.601 202.604 265.913 199.639 231.571C196.191 191.092 241.636 219.003 249.635 183.006L255.841 191.264Z" fill="#263238"/>
<path d="M245.205 179.903C238.843 184.385 236.326 190.902 243.36 197.281C250.394 203.66 260.427 203.453 263.462 200.832C266.496 198.212 265.893 184.903 265.893 184.903L245.205 179.903Z" fill="#407BFF"/>
<path opacity="0.8" d="M245.205 179.903C238.843 184.385 236.326 190.902 243.36 197.281C250.394 203.66 260.427 203.453 263.462 200.832C266.496 198.212 265.893 184.903 265.893 184.903L245.205 179.903Z" fill="white"/>
<path d="M325.543 264.707C325.715 265.482 326.008 266.689 326.284 267.706L327.112 270.947C327.698 273.12 328.336 275.292 329.008 277.464C330.284 281.843 331.698 286.205 333.18 290.567C334.663 294.928 336.18 299.187 337.835 303.6C338.645 305.755 339.456 307.927 340.318 310.082L341.317 312.668C341.517 313.111 341.779 313.523 342.093 313.892C344.547 316.374 347.537 318.262 350.834 319.409C354.86 321.03 359.012 322.321 363.247 323.271C367.626 324.288 372.125 325.133 376.677 325.84C381.228 326.546 385.9 327.115 390.383 327.564L390.538 336.839C380.703 337.856 370.789 337.856 360.954 336.839C355.814 336.309 350.731 335.322 345.765 333.891C343.076 333.079 340.458 332.047 337.938 330.805C335.037 329.395 332.383 327.526 330.077 325.271C328.739 323.938 327.58 322.437 326.629 320.806C326.37 320.392 326.146 319.926 325.905 319.495L325.457 318.564L324.664 316.84C323.595 314.651 322.526 312.461 321.543 310.237C319.543 305.789 317.595 301.307 315.854 296.738C314.113 292.17 312.406 287.567 310.958 282.946C310.251 280.567 309.561 278.205 308.924 275.775L307.975 272.137C307.699 270.827 307.441 269.741 307.165 268.189L325.543 264.707Z" fill="#E58A7B"/>
<path d="M319.681 245.122C327.077 247.001 332.232 277.412 332.232 277.412L311.872 291.204C311.872 291.204 292.339 260.517 298.08 252.397C303.958 244.053 308.889 242.433 319.681 245.122Z" fill="#407BFF"/>
<path opacity="0.5" d="M319.681 245.122C327.077 247.001 332.232 277.412 332.232 277.412L311.872 291.204C311.872 291.204 292.339 260.517 298.08 252.397C303.958 244.053 308.889 242.433 319.681 245.122Z" fill="white"/>
<path opacity="0.2" d="M317.026 252.777L299.321 266.81C302.769 275.335 306.963 283.538 311.854 291.325L325.974 281.722L317.026 252.777Z" fill="#407BFF"/>
<path d="M319.681 245.122C319.681 245.122 328.301 248.122 311.061 353.337H238.274C239.498 323.702 239.532 305.427 225.378 244.587C235.57 242.488 245.901 241.128 256.29 240.519C267.303 239.734 278.359 239.734 289.373 240.519C303.579 241.881 319.681 245.122 319.681 245.122Z" fill="#407BFF"/>
<path opacity="0.5" d="M319.681 245.122C319.681 245.122 328.301 248.122 311.061 353.337H238.274C239.498 323.702 239.532 305.427 225.378 244.587C235.57 242.488 245.901 241.128 256.29 240.519C267.303 239.734 278.359 239.734 289.373 240.519C303.579 241.881 319.681 245.122 319.681 245.122Z" fill="white"/>
<path d="M387.71 327.477L400.416 314.582L402.14 332.753C402.14 332.753 392.606 339.201 386.021 335.735L387.71 327.477Z" fill="#E58A7B"/>
<path d="M415.415 312.668L415.984 327.943L402.123 332.753L400.451 314.582L415.415 312.668Z" fill="#E58A7B"/>
<path d="M393.675 571.475H411.605L414.363 529.944H396.434L393.675 571.475Z" fill="#E58A7B"/>
<path d="M324.284 571.475H342.214L347.972 529.944H330.042L324.284 571.475Z" fill="#E58A7B"/>
<path d="M343.335 569.389H323.181C322.834 569.382 322.496 569.502 322.232 569.728C321.968 569.954 321.797 570.269 321.75 570.613L319.457 586.56C319.416 586.963 319.46 587.37 319.586 587.755C319.712 588.139 319.917 588.493 320.189 588.794C320.46 589.095 320.791 589.335 321.161 589.499C321.531 589.664 321.931 589.749 322.336 589.75C329.353 589.629 332.68 589.215 341.593 589.215C347.041 589.215 361.023 589.784 368.557 589.784C376.091 589.784 376.487 582.336 373.35 581.664C359.299 578.63 351.058 574.475 346.317 570.492C345.486 569.782 344.428 569.391 343.335 569.389Z" fill="#263238"/>
<path d="M413.002 569.389H392.883C392.536 569.385 392.2 569.507 391.937 569.733C391.674 569.958 391.502 570.27 391.452 570.613L389.159 586.56C389.118 586.963 389.162 587.37 389.288 587.755C389.414 588.139 389.619 588.493 389.89 588.794C390.161 589.094 390.493 589.335 390.863 589.499C391.233 589.664 391.633 589.749 392.038 589.749C399.054 589.629 402.382 589.215 411.295 589.215C416.76 589.215 428.018 589.784 435.552 589.784C443.085 589.784 443.482 582.336 440.344 581.664C426.294 578.63 420.76 574.475 416.036 570.492C415.188 569.776 414.112 569.385 413.002 569.389Z" fill="#263238"/>
<path d="M305.389 167.059C311.837 167.473 315.113 199.815 296.2 197.936C277.288 196.057 305.389 167.059 305.389 167.059Z" fill="#263238"/>
<path d="M414.363 529.944L412.933 551.356H395.003L396.417 529.944H414.363Z" fill="#CF6F64"/>
<path d="M330.043 529.944H347.989L345.007 551.356H327.06L330.043 529.944Z" fill="#CF6F64"/>
<path opacity="0.2" d="M232.654 278.412C234.378 287.239 235.602 294.859 236.533 301.721L240.791 268.775L232.654 278.412Z" fill="#407BFF"/>
<path d="M259.565 203.349C261.651 213.987 263.737 233.485 256.29 240.588C256.29 240.588 259.203 251.38 278.978 251.38C300.717 251.38 289.322 240.588 289.322 240.588C277.443 237.76 277.754 228.951 279.822 220.693L259.565 203.349Z" fill="#E58A7B"/>
<path d="M275.047 253.69L281.667 251.311L280.788 249.501L275.047 253.69Z" fill="#263238"/>
<path d="M287.89 252.311L281.667 251.311L283.011 249.294L287.89 252.311Z" fill="#263238"/>
<path d="M258.703 235.571L254.204 239.95C254.069 240.088 253.993 240.274 253.993 240.467C253.993 240.66 254.069 240.846 254.204 240.984L273.168 262.586C274.07 257.456 276.817 252.832 280.891 249.587C265.203 243.657 261.117 237.519 259.72 235.795C259.688 235.695 259.63 235.605 259.552 235.534C259.474 235.463 259.379 235.414 259.276 235.391C259.173 235.369 259.066 235.373 258.966 235.405C258.865 235.436 258.775 235.494 258.703 235.571Z" fill="#407BFF"/>
<path d="M285.805 238.881L291.39 240.398C291.557 240.445 291.709 240.535 291.83 240.659C291.952 240.783 292.038 240.937 292.08 241.105C293.658 248.19 293.361 255.565 291.218 262.5C290.425 259.569 287.77 252.552 283.012 249.294C288.184 245.725 286.098 241.122 285.356 239.381C285.332 239.316 285.326 239.246 285.339 239.178C285.352 239.11 285.383 239.047 285.429 238.996C285.476 238.944 285.535 238.906 285.601 238.886C285.667 238.866 285.738 238.864 285.805 238.881Z" fill="#407BFF"/>
<path d="M267.858 210.418L279.926 220.676C279.424 222.598 279.084 224.558 278.909 226.537C274.375 225.882 268.151 220.917 267.668 216.193C267.373 214.273 267.437 212.315 267.858 210.418Z" fill="#CF6F64"/>
<path d="M258.41 175.317C256.359 192.988 255.1 200.436 262.341 210.987C273.202 226.865 295.373 225.52 302.665 208.814C309.234 193.781 311.475 167.439 295.614 157.37C292.125 155.143 288.125 153.845 283.993 153.6C279.861 153.355 275.735 154.17 272.007 155.968C268.279 157.766 265.073 160.488 262.693 163.875C260.313 167.261 258.839 171.2 258.41 175.317Z" fill="#E58A7B"/>
<path d="M298.821 146.13C269.599 134.596 247.652 147.613 243.118 166.111C235.998 194.833 258.738 196.85 258.738 196.85L261.582 189.506C265.668 191.971 277.098 190.885 273.65 169.559C271.616 157.491 286.891 174.3 306.268 172.421C311.423 171.921 318.474 153.888 298.821 146.13Z" fill="#263238"/>
<path d="M308.768 153.233C304.924 147.319 297.062 142.251 280.771 139.855C280.771 139.855 289.235 141.768 291.977 147.957C294.718 154.146 313.406 160.353 308.768 153.233Z" fill="#263238"/>
<path d="M252.79 190.609C252.671 192.308 252.888 194.015 253.429 195.63C253.971 197.245 254.826 198.738 255.945 200.022C258.962 203.47 262.927 201.35 264.168 197.212C265.272 193.471 265.048 187.196 261.014 185.299C256.979 183.403 253.118 186.403 252.79 190.609Z" fill="#E58A7B"/>
<path d="M311.113 353.406C311.113 353.406 431.345 364.595 430.172 419.263C428.948 476.155 416.777 547.218 416.777 547.218H391.934C391.934 547.218 389.813 487.085 389.089 431.073C388.727 401.902 272.547 396.058 272.547 396.058L257.548 353.406H311.113Z" fill="#263238"/>
<path d="M291.873 353.406C291.873 353.406 369.574 379.18 371.539 411.074C375.142 469.794 349.334 547.27 349.334 547.27H324.87C324.87 547.27 326.267 495.895 329.18 442.692C332.87 375.836 214.914 441.761 238.274 353.458L291.873 353.406Z" fill="#263238"/>
<path d="M283.977 184.954C283.719 186.368 284.27 187.661 285.201 187.833C286.132 188.006 287.081 186.971 287.339 185.558C287.598 184.144 287.046 182.834 286.115 182.679C285.184 182.524 284.27 183.523 283.977 184.954Z" fill="#263238"/>
<path d="M300.062 187.833C299.803 189.247 300.355 190.54 301.286 190.713C302.217 190.885 303.182 189.851 303.441 188.437C303.7 187.023 303.148 185.713 302.217 185.558C301.286 185.403 300.321 186.403 300.062 187.833Z" fill="#263238"/>
<path d="M301.786 185.558L305.389 185.178C305.389 185.178 303.234 187.54 301.786 185.558Z" fill="#263238"/>
<path d="M295.373 189.506C296.063 192.98 297.223 196.344 298.821 199.505C298.009 199.875 297.127 200.066 296.235 200.066C295.342 200.066 294.461 199.875 293.649 199.505L295.373 189.506Z" fill="#DF5753"/>
<path d="M287.718 204.108C285.826 203.808 284.032 203.066 282.48 201.943C280.929 200.82 279.664 199.347 278.788 197.643C278.759 197.577 278.757 197.501 278.783 197.434C278.809 197.366 278.86 197.311 278.926 197.281C278.995 197.257 279.07 197.26 279.137 197.289C279.204 197.317 279.258 197.37 279.288 197.436C280.117 199.046 281.311 200.44 282.775 201.505C284.239 202.571 285.932 203.279 287.718 203.574C287.79 203.59 287.853 203.633 287.894 203.694C287.936 203.754 287.953 203.828 287.942 203.901C287.93 203.954 287.901 204.002 287.862 204.038C287.822 204.075 287.772 204.099 287.718 204.108Z" fill="#263238"/>
<path d="M280.201 178.593C280.127 178.596 280.052 178.582 279.984 178.552C279.915 178.522 279.854 178.477 279.805 178.42C279.753 178.372 279.711 178.313 279.683 178.248C279.654 178.183 279.639 178.112 279.639 178.041C279.639 177.97 279.654 177.899 279.683 177.834C279.711 177.769 279.753 177.71 279.805 177.662C280.734 176.754 281.867 176.083 283.109 175.705C284.351 175.327 285.666 175.253 286.942 175.49C287.077 175.53 287.192 175.62 287.262 175.742C287.333 175.864 287.354 176.008 287.322 176.145C287.305 176.214 287.276 176.28 287.234 176.338C287.192 176.395 287.139 176.444 287.078 176.481C287.017 176.518 286.949 176.543 286.878 176.553C286.808 176.563 286.736 176.559 286.666 176.541C285.565 176.347 284.433 176.419 283.365 176.752C282.297 177.085 281.325 177.669 280.529 178.455C280.437 178.534 280.322 178.582 280.201 178.593Z" fill="#263238"/>
<path d="M308.854 181.42C308.747 181.424 308.642 181.395 308.552 181.336C308.463 181.277 308.394 181.192 308.354 181.093C307.933 180.058 307.273 179.137 306.428 178.406C305.583 177.675 304.577 177.154 303.493 176.886C303.352 176.861 303.227 176.782 303.144 176.666C303.06 176.55 303.024 176.407 303.045 176.265C303.07 176.121 303.151 175.993 303.271 175.909C303.39 175.825 303.538 175.792 303.682 175.817C304.945 176.11 306.119 176.703 307.104 177.546C308.088 178.39 308.854 179.459 309.337 180.662C309.396 180.794 309.399 180.945 309.348 181.08C309.296 181.216 309.193 181.325 309.061 181.386L308.854 181.42Z" fill="#263238"/>
<path d="M236.257 270.603C234.688 275.775 232.998 280.947 231.499 286.257C229.999 291.566 228.413 296.739 227.051 301.997C225.689 307.255 224.396 312.461 223.43 317.513C222.965 320.064 222.534 322.599 222.292 324.978C222.154 326.167 222.085 327.288 222.068 328.322C222.068 328.564 222.068 328.322 221.896 327.926C221.685 327.458 221.393 327.032 221.034 326.667C220.155 325.909 219.827 326.046 220.224 326.167C220.945 326.343 221.688 326.418 222.43 326.391C224.751 326.312 227.06 326.017 229.326 325.512C234.461 324.381 239.522 322.936 244.48 321.185C254.669 317.737 265.013 313.53 275.081 309.237L279.529 317.358C269.977 323.62 259.993 329.196 249.652 334.046C244.298 336.572 238.773 338.72 233.119 340.476C229.971 341.435 226.738 342.087 223.465 342.424C221.421 342.634 219.358 342.582 217.327 342.269C215.98 342.068 214.664 341.691 213.414 341.149C211.798 340.45 210.334 339.443 209.104 338.183C206.713 335.664 205.343 332.346 205.259 328.874C205.173 327.15 205.156 325.426 205.259 323.874C205.38 320.685 205.673 317.668 206.07 314.72C206.897 308.824 207.966 303.135 209.276 297.48C210.586 291.825 211.983 286.36 213.517 280.878C215.052 275.395 216.707 270.016 218.689 264.534L236.257 270.603Z" fill="#E58A7B"/>
<path d="M349.472 572.406C347.883 572.367 346.304 572.147 344.765 571.751C344.708 571.74 344.655 571.712 344.613 571.671C344.572 571.629 344.544 571.576 344.533 571.519C344.522 571.461 344.528 571.402 344.551 571.348C344.574 571.294 344.613 571.248 344.662 571.217C345.265 570.82 350.644 567.338 352.696 568.251C352.911 568.348 353.095 568.503 353.229 568.697C353.363 568.892 353.441 569.119 353.454 569.355C353.54 569.737 353.525 570.135 353.41 570.51C353.295 570.885 353.085 571.224 352.799 571.492C351.832 572.179 350.654 572.503 349.472 572.406ZM345.593 571.337C348.92 572.027 351.42 571.941 352.386 571.044C352.596 570.84 352.75 570.586 352.835 570.305C352.919 570.024 352.931 569.727 352.868 569.441C352.862 569.305 352.818 569.174 352.742 569.062C352.666 568.949 352.561 568.86 352.437 568.803C351.127 568.217 347.489 570.165 345.593 571.337Z" fill="#407BFF"/>
<path d="M344.835 571.768H344.679C344.631 571.74 344.591 571.7 344.564 571.652C344.537 571.603 344.523 571.548 344.524 571.492C344.524 571.285 344.524 566.182 346.455 564.493C346.681 564.276 346.955 564.115 347.254 564.022C347.553 563.929 347.87 563.908 348.179 563.958C348.49 563.956 348.792 564.061 349.034 564.256C349.276 564.451 349.443 564.723 349.507 565.027C349.869 566.889 346.869 570.699 344.99 571.768H344.835ZM347.869 564.493C347.489 564.496 347.125 564.644 346.852 564.907C345.49 566.113 345.214 569.527 345.128 570.889C346.852 569.648 349.162 566.51 348.869 565.113C348.869 564.889 348.696 564.596 348.076 564.51L347.869 564.493Z" fill="#407BFF"/>
<path d="M419.742 572.406C417.848 572.364 415.961 572.151 414.105 571.768C414.044 571.753 413.989 571.72 413.946 571.674C413.904 571.628 413.875 571.571 413.864 571.51C413.854 571.446 413.866 571.381 413.897 571.325C413.929 571.269 413.977 571.225 414.036 571.199C414.829 570.786 421.915 567.165 424.07 568.337C424.257 568.441 424.415 568.59 424.529 568.771C424.644 568.952 424.711 569.158 424.725 569.372C424.773 569.731 424.733 570.097 424.606 570.436C424.48 570.776 424.272 571.08 424.001 571.32C422.747 572.158 421.244 572.541 419.742 572.406ZM415.105 571.337C417.415 571.734 422.001 572.303 423.587 570.889C423.785 570.704 423.937 570.475 424.029 570.22C424.122 569.966 424.154 569.693 424.121 569.424C424.12 569.307 424.087 569.192 424.027 569.092C423.966 568.992 423.88 568.91 423.777 568.855C422.363 568.096 417.605 570.113 415.105 571.337Z" fill="#407BFF"/>
<path d="M414.174 571.768C414.118 571.785 414.058 571.785 414.001 571.768C413.96 571.735 413.925 571.693 413.902 571.646C413.878 571.598 413.865 571.546 413.864 571.492C413.864 571.285 414.295 566.51 416.501 564.596C416.81 564.333 417.17 564.136 417.559 564.017C417.947 563.898 418.356 563.861 418.76 563.907C419.863 564.01 420.173 564.562 420.26 564.993C420.57 566.975 416.398 570.768 414.295 571.716L414.174 571.768ZM418.432 564.493C417.866 564.49 417.318 564.699 416.898 565.079C415.277 566.424 414.708 569.648 414.536 570.941C416.794 569.682 419.88 566.441 419.708 565.114C419.708 564.976 419.708 564.596 418.76 564.51L418.432 564.493Z" fill="#407BFF"/>
<path d="M274.668 309.513L291.666 305.203L283.564 321.53C283.564 321.53 272.065 322.03 268.272 315.616L274.668 309.513Z" fill="#E58A7B"/>
<path d="M305.406 311.392L297.89 324.702L283.563 321.53L291.666 305.203L305.406 311.392Z" fill="#E58A7B"/>
<path d="M285.684 182.679L289.287 182.299C289.287 182.299 287.063 184.661 285.684 182.679Z" fill="#263238"/>
<path d="M237.188 349.131L236.602 355.648C236.36 356.165 236.947 356.682 237.791 356.682H311.475C312.13 356.682 312.665 356.354 312.716 355.941L313.372 349.424C313.372 348.976 312.837 348.596 312.13 348.596H238.378C238.15 348.577 237.922 348.616 237.714 348.71C237.506 348.803 237.325 348.948 237.188 349.131Z" fill="#407BFF"/>
<path d="M247.101 357.389H245.118C244.722 357.389 244.429 357.182 244.446 356.941L245.377 348.458C245.377 348.217 245.756 348.01 246.153 348.01H248.066C248.463 348.01 248.756 348.217 248.739 348.458L247.808 356.941C247.825 357.182 247.48 357.389 247.101 357.389Z" fill="#263238"/>
<path d="M305.924 357.389H303.941C303.545 357.389 303.252 357.182 303.269 356.941L304.2 348.458C304.2 348.217 304.579 348.01 304.976 348.01H306.941C307.337 348.01 307.63 348.217 307.613 348.458L306.682 356.941C306.682 357.182 306.303 357.389 305.924 357.389Z" fill="#263238"/>
<path d="M276.512 357.389H274.53C274.133 357.389 273.84 357.182 273.857 356.941L274.788 348.458C274.788 348.217 275.167 348.01 275.564 348.01H277.529C277.926 348.01 278.219 348.217 278.202 348.458L277.271 356.941C277.236 357.182 276.909 357.389 276.512 357.389Z" fill="#263238"/>
<path d="M225.378 244.656C218.069 246.88 209.311 271.999 209.311 271.999L232.843 294.98C232.843 294.98 247.946 271.275 244.911 261.845C241.688 252.018 233.705 242.139 225.378 244.656Z" fill="#407BFF"/>
<path opacity="0.5" d="M225.378 244.656C218.069 246.88 209.311 271.999 209.311 271.999L232.843 294.98C232.843 294.98 247.946 271.275 244.911 261.845C241.688 252.018 233.705 242.139 225.378 244.656Z" fill="white"/>
<path d="M616.416 335.494H479.255V602.283H616.416V335.494Z" fill="#407BFF"/>
<path opacity="0.6" d="M616.416 335.494H479.255V602.283H616.416V335.494Z" fill="white"/>
<path d="M350.696 335.494H213.535V602.283H350.696V335.494Z" fill="#407BFF"/>
<path opacity="0.6" d="M350.696 335.494H213.535V602.283H350.696V335.494Z" fill="white"/>
<path d="M621.554 335.494H610.244V602.283H621.554V335.494Z" fill="#407BFF"/>
<path opacity="0.3" d="M621.554 335.494H610.244V602.283H621.554V335.494Z" fill="black"/>
<path d="M352.334 355.51L625.053 355.51V335.494L352.334 335.494V355.51Z" fill="#407BFF"/>
<path opacity="0.3" d="M352.334 355.51L625.053 355.51V335.494L352.334 335.494V355.51Z" fill="black"/>
<path d="M355.851 335.494H344.542V602.283H355.851V335.494Z" fill="#407BFF"/>
<path opacity="0.3" d="M355.851 335.494H344.542V602.283H355.851V335.494Z" fill="black"/>
<path d="M351.679 399.317L615.899 399.317V341.683L351.679 341.683V399.317Z" fill="#407BFF"/>
<path opacity="0.3" d="M351.679 399.317L615.899 399.317V341.683L351.679 341.683V399.317Z" fill="black"/>
<path d="M616.485 610.041H540.336C535.166 610.036 530.209 607.981 526.554 604.325C522.898 600.669 520.842 595.712 520.838 590.543V350.286C520.838 345.714 519.021 341.329 515.788 338.095C512.555 334.862 508.17 333.046 503.598 333.046H480.806V331.322H503.58C508.61 331.322 513.434 333.32 516.99 336.876C520.546 340.433 522.544 345.256 522.544 350.286V590.543C522.549 595.255 524.423 599.774 527.756 603.106C531.088 606.438 535.606 608.312 540.319 608.317H616.485C617.781 608.32 619.045 607.913 620.097 607.155C621.148 606.396 621.933 605.326 622.34 604.095C622.747 602.864 622.755 601.537 622.363 600.301C621.971 599.066 621.199 597.985 620.157 597.214L621.174 595.835C622.505 596.822 623.49 598.204 623.99 599.783C624.491 601.362 624.48 603.059 623.961 604.632C623.442 606.205 622.44 607.574 621.098 608.545C619.756 609.517 618.142 610.04 616.485 610.041Z" fill="#407BFF"/>
<path opacity="0.3" d="M616.485 610.041H540.336C535.166 610.036 530.209 607.981 526.554 604.325C522.898 600.669 520.842 595.712 520.838 590.543V350.286C520.838 345.714 519.021 341.329 515.788 338.095C512.555 334.862 508.17 333.046 503.598 333.046H480.806V331.322H503.58C508.61 331.322 513.434 333.32 516.99 336.876C520.546 340.433 522.544 345.256 522.544 350.286V590.543C522.549 595.255 524.423 599.774 527.756 603.106C531.088 606.438 535.606 608.312 540.319 608.317H616.485C617.781 608.32 619.045 607.913 620.097 607.155C621.148 606.396 621.933 605.326 622.34 604.095C622.747 602.864 622.755 601.537 622.363 600.301C621.971 599.066 621.199 597.985 620.157 597.214L621.174 595.835C622.505 596.822 623.49 598.204 623.99 599.783C624.491 601.362 624.48 603.059 623.961 604.632C623.442 606.205 622.44 607.574 621.098 608.545C619.756 609.517 618.142 610.04 616.485 610.041Z" fill="black"/>
<path d="M627.588 414.212H625.864V447.537H627.588V414.212Z" fill="#407BFF"/>
<path opacity="0.3" d="M627.588 414.212H625.864V447.537H627.588V414.212Z" fill="black"/>
<path d="M627.588 394.541H625.864V403.299H627.588V394.541Z" fill="#407BFF"/>
<path opacity="0.3" d="M627.588 394.541H625.864V403.299H627.588V394.541Z" fill="black"/>
<path d="M501.322 255.845H373.504L354.989 331.322H482.789L501.322 255.845Z" fill="#407BFF"/>
<path opacity="0.4" d="M501.322 255.845H373.504L354.989 331.322H482.789L501.322 255.845Z" fill="white"/>
<path d="M358.902 331.322L358.385 335.494H308.234L308.751 331.322H358.902Z" fill="#407BFF"/>
<path opacity="0.4" d="M358.902 331.322L358.385 335.494H308.234L308.751 331.322H358.902Z" fill="white"/>
<path d="M486.72 331.322L486.202 335.494H358.385L358.902 331.322H486.72Z" fill="#407BFF"/>
<path opacity="0.5" d="M486.72 331.322L486.202 335.494H358.385L358.902 331.322H486.72Z" fill="black"/>
<path d="M505.252 255.845H377.435L358.919 331.322H486.719L505.252 255.845Z" fill="#407BFF"/>
<path opacity="0.5" d="M505.252 255.845H377.435L358.919 331.322H486.719L505.252 255.845Z" fill="black"/>
<path d="M554.611 316.478C554.611 316.478 535.802 284.05 561.834 258.242C561.834 258.242 568.644 262.69 568.54 268.586C568.437 274.482 561.248 276.068 562.782 281.033C564.317 285.998 571.126 290.911 566.661 295.032C562.196 299.152 567.385 302.807 567.075 307.841C566.765 312.875 554.611 316.478 554.611 316.478Z" fill="#407BFF"/>
<path d="M556.041 319.444C556.041 319.444 563.662 282.74 530.768 266.482C530.768 266.482 525.699 272.844 527.682 278.55C529.664 284.257 536.957 283.343 537.06 288.567C537.164 293.79 532.267 300.549 537.802 303.048C543.336 305.548 539.526 310.668 541.439 315.358C543.353 320.047 556.041 319.444 556.041 319.444Z" fill="#407BFF"/>
<path opacity="0.5" d="M556.041 319.444C556.041 319.444 563.662 282.74 530.768 266.482C530.768 266.482 525.699 272.844 527.682 278.55C529.664 284.257 536.957 283.343 537.06 288.567C537.164 293.79 532.267 300.549 537.802 303.048C543.336 305.548 539.526 310.668 541.439 315.358C543.353 320.047 556.041 319.444 556.041 319.444Z" fill="black"/>
<path d="M527.216 311.306C527.216 311.306 527.854 335.442 551.835 335.442C575.816 335.442 576.436 311.306 576.436 311.306H527.216Z" fill="#407BFF"/>
<path opacity="0.5" d="M527.216 311.306C527.216 311.306 527.854 335.442 551.835 335.442C575.816 335.442 576.436 311.306 576.436 311.306H527.216Z" fill="black"/>
<path d="M398.313 153.164L377.832 126.7L357.351 153.164H366.988V187.42H388.676V153.164H398.313Z" fill="#407BFF"/>
<path d="M458.394 184.282C458.394 171.479 463.48 159.201 472.533 150.148C481.586 141.096 493.864 136.01 506.666 136.01V148.578C501.981 148.576 497.34 149.497 493.011 151.288C488.681 153.08 484.747 155.707 481.433 159.019C478.119 162.332 475.49 166.265 473.696 170.593C471.903 174.922 470.979 179.562 470.979 184.247L458.394 184.282Z" fill="#407BFF"/>
<path d="M458.394 184.282H470.979C470.979 193.747 474.739 202.824 481.432 209.516C488.124 216.209 497.202 219.969 506.666 219.969C512.928 219.98 519.081 218.326 524.492 215.176L530.802 226.158C523.464 230.395 515.139 232.625 506.666 232.625C498.192 232.625 489.868 230.394 482.529 226.157C475.191 221.92 469.097 215.826 464.861 208.488C460.624 201.149 458.394 192.825 458.394 184.351V184.282Z" fill="#407BFF"/>
<path opacity="0.5" d="M458.394 184.282H470.979C470.979 193.747 474.739 202.824 481.432 209.516C488.124 216.209 497.202 219.969 506.666 219.969C512.928 219.98 519.081 218.326 524.492 215.176L530.802 226.158C523.464 230.395 515.139 232.625 506.666 232.625C498.192 232.625 489.868 230.394 482.529 226.157C475.191 221.92 469.097 215.826 464.861 208.488C460.624 201.149 458.394 192.825 458.394 184.351V184.282Z" fill="white"/>
<path d="M506.666 148.578V135.975C517.327 135.935 527.7 139.424 536.169 145.899C544.638 152.373 550.726 161.469 553.482 171.767C556.238 182.065 555.507 192.986 551.405 202.825C547.302 212.664 540.058 220.868 530.802 226.158L524.51 215.245C531.364 211.343 536.732 205.279 539.773 198.001C542.814 190.724 543.358 182.644 541.319 175.025C539.28 167.405 534.772 160.677 528.503 155.892C522.233 151.107 514.553 148.535 506.666 148.578Z" fill="#407BFF"/>
<path opacity="0.7" d="M506.666 148.578V135.975C517.327 135.935 527.7 139.424 536.169 145.899C544.638 152.373 550.726 161.469 553.482 171.767C556.238 182.065 555.507 192.986 551.405 202.825C547.302 212.664 540.058 220.868 530.802 226.158L524.51 215.245C531.364 211.343 536.732 205.279 539.773 198.001C542.814 190.724 543.358 182.644 541.319 175.025C539.28 167.405 534.772 160.677 528.503 155.892C522.233 151.107 514.553 148.535 506.666 148.578Z" fill="black"/>
<path d="M461.342 65.8259H417.363C415.795 65.8259 414.291 66.4489 413.182 67.5578C412.073 68.6668 411.45 70.1709 411.45 71.7392V153.06C411.463 154.62 412.092 156.11 413.2 157.208C414.307 158.306 415.804 158.922 417.363 158.922H473.652C475.217 158.917 476.717 158.292 477.822 157.184C478.927 156.075 479.548 154.574 479.548 153.009V84.0485L461.342 65.8259Z" fill="#263238"/>
<path d="M458.757 150.836H422.19C421.505 150.836 420.847 150.564 420.362 150.079C419.877 149.594 419.604 148.936 419.604 148.25C419.609 147.567 419.884 146.914 420.368 146.433C420.852 145.952 421.508 145.682 422.19 145.682H458.774C459.457 145.682 460.112 145.952 460.596 146.433C461.081 146.914 461.355 147.567 461.36 148.25C461.355 148.938 461.079 149.595 460.591 150.08C460.104 150.564 459.444 150.836 458.757 150.836Z" fill="#407BFF"/>
<path d="M441.517 79.1524H422.19C421.508 79.1524 420.852 78.8823 420.368 78.4011C419.884 77.9198 419.609 77.2665 419.604 76.5836C419.604 75.8978 419.877 75.24 420.362 74.755C420.847 74.2701 421.505 73.9976 422.19 73.9976H441.534C442.22 73.9976 442.877 74.2701 443.362 74.755C443.847 75.24 444.12 75.8978 444.12 76.5836C444.118 76.9232 444.048 77.2591 443.916 77.5719C443.784 77.8848 443.592 78.1686 443.35 78.4072C443.108 78.6457 442.822 78.8343 442.507 78.9621C442.193 79.09 441.856 79.1547 441.517 79.1524Z" fill="#407BFF"/>
<path d="M454.153 89.393H422.19C421.508 89.393 420.852 89.1229 420.368 88.6417C419.884 88.1604 419.609 87.5071 419.604 86.8242C419.604 86.1384 419.877 85.4806 420.362 84.9956C420.847 84.5107 421.505 84.2382 422.19 84.2382H454.171C454.854 84.2428 455.507 84.5172 455.988 85.0017C456.469 85.4862 456.739 86.1413 456.739 86.8242C456.739 87.163 456.672 87.4985 456.542 87.8112C456.412 88.124 456.221 88.408 455.981 88.6467C455.741 88.8855 455.455 89.0743 455.142 89.2024C454.828 89.3305 454.492 89.3953 454.153 89.393Z" fill="#407BFF"/>
<path d="M468.842 99.6335H422.19C421.508 99.6335 420.852 99.3634 420.368 98.8822C419.884 98.401 419.609 97.7476 419.604 97.0648C419.604 96.3789 419.877 95.7211 420.362 95.2362C420.847 94.7512 421.505 94.4788 422.19 94.4788H468.859C469.545 94.4788 470.203 94.7512 470.688 95.2362C471.173 95.7211 471.445 96.3789 471.445 97.0648C471.443 97.4044 471.374 97.7402 471.242 98.0531C471.11 98.366 470.917 98.6498 470.676 98.8883C470.434 99.1268 470.148 99.3154 469.833 99.4433C469.518 99.5711 469.182 99.6358 468.842 99.6335Z" fill="#407BFF"/>
<path d="M468.842 109.874H441.706C441.023 109.874 440.368 109.604 439.883 109.123C439.399 108.641 439.124 107.988 439.12 107.305C439.12 106.619 439.392 105.962 439.877 105.477C440.362 104.992 441.02 104.719 441.706 104.719H468.842C469.527 104.719 470.185 104.992 470.67 105.477C471.155 105.962 471.428 106.619 471.428 107.305C471.423 107.988 471.149 108.641 470.664 109.123C470.18 109.604 469.524 109.874 468.842 109.874Z" fill="#407BFF"/>
<path d="M429.259 109.874H422.19C421.508 109.874 420.852 109.604 420.368 109.123C419.884 108.641 419.609 107.988 419.604 107.305C419.604 106.619 419.877 105.962 420.362 105.477C420.847 104.992 421.505 104.719 422.19 104.719H429.276C429.962 104.719 430.62 104.992 431.105 105.477C431.59 105.962 431.862 106.619 431.862 107.305C431.86 107.645 431.791 107.981 431.659 108.294C431.527 108.607 431.334 108.89 431.093 109.129C430.851 109.367 430.564 109.556 430.25 109.684C429.935 109.812 429.599 109.876 429.259 109.874Z" fill="#407BFF"/>
<path d="M468.842 120.115H422.19C421.505 120.115 420.847 119.842 420.362 119.357C419.877 118.872 419.604 118.214 419.604 117.529C419.609 116.846 419.884 116.192 420.368 115.711C420.852 115.23 421.508 114.96 422.19 114.96H468.859C469.542 114.96 470.197 115.23 470.682 115.711C471.166 116.192 471.441 116.846 471.445 117.529C471.445 117.87 471.378 118.207 471.247 118.522C471.116 118.837 470.924 119.123 470.682 119.363C470.44 119.604 470.153 119.794 469.837 119.923C469.521 120.052 469.183 120.117 468.842 120.115Z" fill="#407BFF"/>
<path d="M450.826 130.355H422.19C421.505 130.355 420.847 130.083 420.362 129.598C419.877 129.113 419.604 128.455 419.604 127.769C419.609 127.086 419.884 126.433 420.368 125.952C420.852 125.47 421.508 125.2 422.19 125.2H450.843C451.526 125.2 452.181 125.47 452.666 125.952C453.15 126.433 453.425 127.086 453.429 127.769C453.429 128.11 453.362 128.448 453.231 128.763C453.1 129.078 452.908 129.364 452.666 129.604C452.424 129.844 452.137 130.034 451.821 130.163C451.505 130.292 451.167 130.357 450.826 130.355Z" fill="#407BFF"/>
<path d="M468.842 130.355H461.187C460.504 130.351 459.851 130.076 459.37 129.592C458.888 129.107 458.618 128.452 458.618 127.769C458.618 127.088 458.889 126.435 459.371 125.953C459.853 125.471 460.506 125.2 461.187 125.2H468.842C469.525 125.2 470.18 125.47 470.664 125.952C471.149 126.433 471.423 127.086 471.428 127.769C471.428 128.455 471.155 129.113 470.67 129.598C470.185 130.083 469.528 130.355 468.842 130.355Z" fill="#407BFF"/>
<path d="M468.842 140.596H422.19C421.505 140.596 420.847 140.323 420.362 139.838C419.877 139.353 419.604 138.696 419.604 138.01C419.609 137.327 419.884 136.674 420.368 136.192C420.852 135.711 421.508 135.441 422.19 135.441H468.859C469.542 135.441 470.197 135.711 470.682 136.192C471.166 136.674 471.441 137.327 471.445 138.01C471.445 138.351 471.378 138.688 471.247 139.003C471.116 139.318 470.924 139.604 470.682 139.844C470.44 140.085 470.153 140.275 469.837 140.404C469.521 140.533 469.183 140.598 468.842 140.596Z" fill="#407BFF"/>
<g opacity="0.5">
<path opacity="0.5" d="M458.757 150.836H422.19C421.505 150.836 420.847 150.564 420.362 150.079C419.877 149.594 419.604 148.936 419.604 148.25C419.609 147.567 419.884 146.914 420.368 146.433C420.852 145.952 421.508 145.682 422.19 145.682H458.774C459.457 145.682 460.112 145.952 460.596 146.433C461.081 146.914 461.355 147.567 461.36 148.25C461.355 148.938 461.079 149.595 460.591 150.08C460.104 150.564 459.444 150.836 458.757 150.836Z" fill="white"/>
</g>
<g opacity="0.5">
<path opacity="0.5" d="M441.517 79.1524H422.19C421.508 79.1524 420.852 78.8823 420.368 78.4011C419.884 77.9198 419.609 77.2665 419.604 76.5836C419.604 75.8978 419.877 75.24 420.362 74.755C420.847 74.2701 421.505 73.9976 422.19 73.9976H441.534C442.22 73.9976 442.877 74.2701 443.362 74.755C443.847 75.24 444.12 75.8978 444.12 76.5836C444.118 76.9232 444.048 77.2591 443.916 77.5719C443.784 77.8848 443.592 78.1686 443.35 78.4072C443.108 78.6457 442.822 78.8343 442.507 78.9621C442.193 79.09 441.856 79.1547 441.517 79.1524Z" fill="white"/>
</g>
<g opacity="0.5">
<path opacity="0.5" d="M454.153 89.393H422.19C421.508 89.393 420.852 89.1229 420.368 88.6417C419.884 88.1604 419.609 87.5071 419.604 86.8242C419.604 86.1384 419.877 85.4806 420.362 84.9956C420.847 84.5107 421.505 84.2382 422.19 84.2382H454.171C454.854 84.2428 455.507 84.5172 455.988 85.0017C456.469 85.4862 456.739 86.1413 456.739 86.8242C456.739 87.163 456.672 87.4985 456.542 87.8112C456.412 88.124 456.221 88.408 455.981 88.6467C455.741 88.8855 455.455 89.0743 455.142 89.2024C454.828 89.3305 454.492 89.3953 454.153 89.393Z" fill="white"/>
</g>
<g opacity="0.5">
<path opacity="0.5" d="M468.842 99.6335H422.19C421.508 99.6335 420.852 99.3634 420.368 98.8822C419.884 98.401 419.609 97.7476 419.604 97.0648C419.604 96.3789 419.877 95.7211 420.362 95.2362C420.847 94.7512 421.505 94.4788 422.19 94.4788H468.859C469.545 94.4788 470.203 94.7512 470.688 95.2362C471.173 95.7211 471.445 96.3789 471.445 97.0648C471.443 97.4044 471.374 97.7402 471.242 98.0531C471.11 98.366 470.917 98.6498 470.676 98.8883C470.434 99.1268 470.148 99.3154 469.833 99.4433C469.518 99.5711 469.182 99.6358 468.842 99.6335Z" fill="white"/>
</g>
<g opacity="0.5">
<path opacity="0.5" d="M468.842 109.874H441.706C441.023 109.874 440.368 109.604 439.883 109.123C439.399 108.641 439.124 107.988 439.12 107.305C439.12 106.619 439.392 105.962 439.877 105.477C440.362 104.992 441.02 104.719 441.706 104.719H468.842C469.527 104.719 470.185 104.992 470.67 105.477C471.155 105.962 471.428 106.619 471.428 107.305C471.423 107.988 471.149 108.641 470.664 109.123C470.18 109.604 469.524 109.874 468.842 109.874Z" fill="white"/>
</g>
<g opacity="0.5">
<path opacity="0.5" d="M429.259 109.874H422.19C421.508 109.874 420.852 109.604 420.368 109.123C419.884 108.641 419.609 107.988 419.604 107.305C419.604 106.619 419.877 105.962 420.362 105.477C420.847 104.992 421.505 104.719 422.19 104.719H429.276C429.962 104.719 430.62 104.992 431.105 105.477C431.59 105.962 431.862 106.619 431.862 107.305C431.86 107.645 431.791 107.981 431.659 108.294C431.527 108.607 431.334 108.89 431.093 109.129C430.851 109.367 430.564 109.556 430.25 109.684C429.935 109.812 429.599 109.876 429.259 109.874Z" fill="white"/>
</g>
<g opacity="0.5">
<path opacity="0.5" d="M468.842 120.115H422.19C421.505 120.115 420.847 119.842 420.362 119.357C419.877 118.872 419.604 118.214 419.604 117.529C419.609 116.846 419.884 116.192 420.368 115.711C420.852 115.23 421.508 114.96 422.19 114.96H468.859C469.542 114.96 470.197 115.23 470.682 115.711C471.166 116.192 471.441 116.846 471.445 117.529C471.445 117.87 471.378 118.207 471.247 118.522C471.116 118.837 470.924 119.123 470.682 119.363C470.44 119.604 470.153 119.794 469.837 119.923C469.521 120.052 469.183 120.117 468.842 120.115Z" fill="white"/>
</g>
<g opacity="0.5">
<path opacity="0.5" d="M450.826 130.355H422.19C421.505 130.355 420.847 130.083 420.362 129.598C419.877 129.113 419.604 128.455 419.604 127.769C419.609 127.086 419.884 126.433 420.368 125.952C420.852 125.47 421.508 125.2 422.19 125.2H450.843C451.526 125.2 452.181 125.47 452.666 125.952C453.15 126.433 453.425 127.086 453.429 127.769C453.429 128.11 453.362 128.448 453.231 128.763C453.1 129.078 452.908 129.364 452.666 129.604C452.424 129.844 452.137 130.034 451.821 130.163C451.505 130.292 451.167 130.357 450.826 130.355Z" fill="white"/>
</g>
<g opacity="0.5">
<path opacity="0.5" d="M468.842 130.355H461.187C460.504 130.351 459.851 130.076 459.37 129.592C458.888 129.107 458.618 128.452 458.618 127.769C458.618 127.088 458.889 126.435 459.371 125.953C459.853 125.471 460.506 125.2 461.187 125.2H468.842C469.525 125.2 470.18 125.47 470.664 125.952C471.149 126.433 471.423 127.086 471.428 127.769C471.428 128.455 471.155 129.113 470.67 129.598C470.185 130.083 469.528 130.355 468.842 130.355Z" fill="white"/>
</g>
<g opacity="0.5">
<path opacity="0.5" d="M468.842 140.596H422.19C421.505 140.596 420.847 140.323 420.362 139.838C419.877 139.353 419.604 138.696 419.604 138.01C419.609 137.327 419.884 136.674 420.368 136.192C420.852 135.711 421.508 135.441 422.19 135.441H468.859C469.542 135.441 470.197 135.711 470.682 136.192C471.166 136.674 471.441 137.327 471.445 138.01C471.445 138.351 471.378 138.688 471.247 139.003C471.116 139.318 470.924 139.604 470.682 139.844C470.44 140.085 470.153 140.275 469.837 140.404C469.521 140.533 469.183 140.598 468.842 140.596Z" fill="white"/>
</g>
<path d="M461.342 65.8259V78.1352C461.34 78.9124 461.491 79.6824 461.788 80.4008C462.084 81.1193 462.52 81.7721 463.069 82.3217C463.619 82.8712 464.272 83.3067 464.99 83.6031C465.708 83.8994 466.478 84.0508 467.256 84.0485H479.548L461.342 65.8259Z" fill="#407BFF"/>
<path opacity="0.5" d="M461.342 65.8259V78.1352C461.34 78.9124 461.491 79.6824 461.788 80.4008C462.084 81.1193 462.52 81.7721 463.069 82.3217C463.619 82.8712 464.272 83.3067 464.99 83.6031C465.708 83.8994 466.478 84.0508 467.256 84.0485H479.548L461.342 65.8259Z" fill="white"/>
</svg>
