<svg width="794" height="591" viewBox="0 0 794 591" fill="none" xmlns="http://www.w3.org/2000/svg">
<path d="M793.161 519.362H0V519.758H793.161V519.362Z" fill="#E6E6E6"/>
<path d="M599.09 536.161H544.521V536.557H599.09V536.161Z" fill="#E6E6E6"/>
<path d="M176.145 536.351H145.434V536.748H176.145V536.351Z" fill="#E6E6E6"/>
<path d="M398.167 535.431H335.92V535.828H398.167V535.431Z" fill="#E6E6E6"/>
<path d="M334.333 529.784H306.509V530.18H334.333V529.784Z" fill="#E6E6E6"/>
<path d="M673.489 529.99H589.43V530.387H673.489V529.99Z" fill="#E6E6E6"/>
<path d="M375.958 448.612H69.6553C67.2558 448.608 64.9559 447.651 63.2607 445.953C61.5654 444.255 60.6133 441.953 60.6133 439.554V8.97858C60.6342 6.59279 61.5955 4.31159 63.2885 2.63047C64.9815 0.949347 67.2694 0.00408698 69.6553 0H375.958C378.36 0 380.664 0.954312 382.363 2.653C384.062 4.35168 385.016 6.65559 385.016 9.05789V439.554C385.016 441.956 384.062 444.26 382.363 445.959C380.664 447.657 378.36 448.612 375.958 448.612ZM69.6553 0.317266C67.3609 0.321468 65.162 1.23585 63.5411 2.8597C61.9202 4.48356 61.0099 6.6842 61.0099 8.97858V439.554C61.0099 441.848 61.9202 444.049 63.5411 445.673C65.162 447.297 67.3609 448.211 69.6553 448.215H375.958C378.254 448.211 380.455 447.297 382.078 445.674C383.701 444.05 384.615 441.85 384.619 439.554V8.97858C384.615 6.68274 383.701 4.48214 382.078 2.85874C380.455 1.23533 378.254 0.321459 375.958 0.317266H69.6553Z" fill="#E6E6E6"/>
<path d="M719.095 448.612H412.777C410.376 448.608 408.074 447.652 406.376 445.954C404.679 444.256 403.723 441.955 403.719 439.554V8.97858C403.744 6.59135 404.709 4.31016 406.404 2.62948C408.1 0.948793 410.389 0.00404241 412.777 0H719.095C721.478 0.008256 723.762 0.955361 725.452 2.63603C727.142 4.31671 728.101 6.59553 728.122 8.97858V439.554C728.122 441.951 727.172 444.25 725.48 445.948C723.788 447.645 721.492 448.603 719.095 448.612ZM412.777 0.317266C410.481 0.321459 408.28 1.23533 406.657 2.85874C405.033 4.48214 404.12 6.68274 404.115 8.97858V439.554C404.12 441.85 405.033 444.05 406.657 445.674C408.28 447.297 410.481 448.211 412.777 448.215H719.095C721.391 448.211 723.592 447.297 725.215 445.674C726.839 444.05 727.752 441.85 727.757 439.554V8.97858C727.752 6.68274 726.839 4.48214 725.215 2.85874C723.592 1.23533 721.391 0.321459 719.095 0.317266H412.777Z" fill="#E6E6E6"/>
<path d="M671.062 29.5532H454.878V281.461H671.062V29.5532Z" fill="#E0E0E0"/>
<path d="M676.931 29.5532H457.622V281.461H676.931V29.5532Z" fill="#F5F5F5"/>
<path d="M671.062 281.461H454.878V295.579H671.062V281.461Z" fill="#E0E0E0"/>
<path d="M703.804 281.461H497.344V295.579H703.804V281.461Z" fill="#F5F5F5"/>
<path d="M668.714 270.769V40.2291L465.855 40.2291V270.769H668.714Z" fill="#FAFAFA"/>
<path d="M495.027 270.769L543.315 40.245H606.609L558.322 270.769H495.027Z" fill="white"/>
<path d="M568.569 270.769L616.841 40.245H645.427L597.155 270.769H568.569Z" fill="white"/>
<path d="M448.707 29.1883V118.879H472.502C472.502 118.879 515.126 91.0707 524.85 33.8521C525.081 32.4894 525.012 31.0929 524.648 29.7597C524.284 28.4265 523.634 27.1884 522.743 26.1317C521.853 25.075 520.743 24.2249 519.49 23.6405C518.238 23.0562 516.873 22.7516 515.491 22.7479H455.211C454.36 22.7416 453.517 22.9034 452.729 23.2241C451.941 23.5448 451.225 24.0179 450.62 24.6164C450.016 25.2148 449.536 25.9268 449.208 26.7114C448.879 27.496 448.709 28.3378 448.707 29.1883Z" fill="#E0E0E0"/>
<path d="M448.707 262.647V126.113H472.502C472.502 126.113 486.144 153.683 499.739 185.378C503.355 193.81 504.821 203.009 504.006 212.148C503.19 221.287 500.118 230.081 495.066 237.74C490.014 245.399 483.139 251.684 475.059 256.032C466.979 260.379 457.946 262.652 448.77 262.647H448.707Z" fill="#E0E0E0"/>
<path d="M471.741 118.879H449.58C448.266 118.879 447.2 119.944 447.2 121.258V123.733C447.2 125.047 448.266 126.113 449.58 126.113H471.741C473.055 126.113 474.12 125.047 474.12 123.733V121.258C474.12 119.944 473.055 118.879 471.741 118.879Z" fill="#F5F5F5"/>
<path d="M683.704 29.1883V118.879H659.909C659.909 118.879 617.269 91.0707 607.561 33.8521C607.331 32.4907 607.4 31.0956 607.763 29.7635C608.125 28.4314 608.774 27.1942 609.663 26.1377C610.552 25.0813 611.66 24.2309 612.91 23.6455C614.161 23.0602 615.524 22.7538 616.904 22.7478H677.185C678.036 22.7395 678.881 22.8998 679.671 23.2195C680.461 23.5392 681.179 24.012 681.785 24.6107C682.391 25.2094 682.873 25.9221 683.202 26.7077C683.532 27.4934 683.702 28.3364 683.704 29.1883Z" fill="#E0E0E0"/>
<path d="M683.864 262.679V126.144H660.069C660.069 126.144 646.426 153.699 632.816 185.409C629.225 193.845 627.778 203.038 628.606 212.169C629.433 221.3 632.509 230.083 637.558 237.736C642.607 245.388 649.473 251.671 657.542 256.023C665.611 260.376 674.632 262.662 683.8 262.679H683.864Z" fill="#E0E0E0"/>
<path d="M660.624 126.113H682.785C684.099 126.113 685.164 125.047 685.164 123.733V121.258C685.164 119.944 684.099 118.879 682.785 118.879H660.624C659.31 118.879 658.244 119.944 658.244 121.258V123.733C658.244 125.047 659.31 126.113 660.624 126.113Z" fill="#F5F5F5"/>
<path d="M318.676 140.532H223.449V244.769H318.676V140.532Z" fill="#E0E0E0"/>
<path d="M332.064 140.532H228.604V244.769H332.064V140.532Z" fill="#FAFAFA"/>
<path d="M321.389 234.125V151.224H239.265V234.125H321.389Z" fill="white"/>
<path d="M258.57 192.659C258.575 187.466 260.64 182.487 264.314 178.816C267.988 175.145 272.968 173.084 278.161 173.084H282.571C287.762 173.088 292.738 175.151 296.408 178.822C300.079 182.492 302.142 187.468 302.147 192.659C302.147 195.229 301.64 197.775 300.656 200.15C299.673 202.525 298.231 204.683 296.413 206.501C294.595 208.318 292.437 209.76 290.062 210.744C287.687 211.728 285.142 212.234 282.571 212.234H278.161C275.589 212.236 273.042 211.731 270.665 210.748C268.289 209.766 266.129 208.324 264.309 206.506C262.49 204.688 261.047 202.53 260.062 200.154C259.077 197.778 258.57 195.231 258.57 192.659Z" fill="#F5F5F5"/>
<path d="M146.323 165.406C133.07 165.406 120.36 160.141 110.989 150.77C101.618 141.399 96.3535 128.689 96.3535 115.437C96.3535 102.184 101.618 89.4742 110.989 80.1031C120.36 70.7321 133.07 65.4675 146.323 65.4675H155.349V165.406H146.323Z" fill="#E0E0E0"/>
<path d="M155.349 165.406C182.928 165.406 205.286 143.048 205.286 115.468C205.286 87.8887 182.928 65.5309 155.349 65.5309C127.769 65.5309 105.411 87.8887 105.411 115.468C105.411 143.048 127.769 165.406 155.349 165.406Z" fill="#FAFAFA"/>
<path d="M155.349 153.128C176.147 153.128 193.008 136.267 193.008 115.468C193.008 94.6697 176.147 77.8091 155.349 77.8091C134.55 77.8091 117.689 94.6697 117.689 115.468C117.689 136.267 134.55 153.128 155.349 153.128Z" fill="white"/>
<path d="M170.863 129.555L152.366 116.658L158.236 88.1202L163.47 89.1989L158.315 114.279L173.924 125.161L170.863 129.555Z" fill="#E0E0E0"/>
<path d="M558.925 341.059H490.855V524.977H558.925V341.059Z" fill="#E0E0E0"/>
<path d="M540.745 524.977H558.924V494.52H521.693L540.745 524.977Z" fill="#FAFAFA"/>
<path d="M150.843 341.059H82.7744V524.977H150.843V341.059Z" fill="#E0E0E0"/>
<path d="M558.941 341.059H134.98V514.492H558.941V341.059Z" fill="#FAFAFA"/>
<path d="M153.16 524.977H134.98V494.52H172.211L153.16 524.977Z" fill="#FAFAFA"/>
<path d="M544.838 355.971H149.082V419.804H544.838V355.971Z" fill="#F0F0F0"/>
<path d="M544.838 435.239H149.082V499.073H544.838V435.239Z" fill="#F0F0F0"/>
<path d="M486.81 355.971H149.082V419.804H486.81V355.971Z" fill="#E0E0E0"/>
<path d="M253.082 364.584H232.539C232.539 364.584 236.108 376.91 236.108 384.16C236.108 391.409 220.483 419.82 242.818 419.82C265.154 419.82 249.513 391.409 249.513 384.16C249.513 376.91 253.082 364.584 253.082 364.584Z" fill="#FAFAFA"/>
<path d="M172.211 386V397.215C172.211 409.652 184.235 419.82 198.925 419.82H212.17C226.86 419.82 238.884 409.652 238.884 397.215V386H172.211Z" fill="#F0F0F0"/>
<path d="M486.81 435.239H149.082V499.073H486.81V435.239Z" fill="#E0E0E0"/>
<path d="M338.759 497.93H370.391V445.249H338.759V497.93Z" fill="white"/>
<path d="M365.457 498.74H367.614V446.058H365.457V498.74Z" fill="#E6E6E6"/>
<path d="M367.773 499.136H373.293C373.714 499.136 374.055 498.795 374.055 498.375V446.407C374.055 445.986 373.714 445.645 373.293 445.645H367.773C367.352 445.645 367.011 445.986 367.011 446.407V498.375C367.011 498.795 367.352 499.136 367.773 499.136Z" fill="#EBEBEB"/>
<path d="M367.011 470.36H374.055V457.86H367.011V470.36Z" fill="white"/>
<path d="M367.011 481.94H374.055V474.231H367.011V481.94Z" fill="white"/>
<path d="M337.141 499.136H365.647C366.067 499.136 366.408 498.795 366.408 498.375V446.407C366.408 445.986 366.067 445.645 365.647 445.645H337.141C336.72 445.645 336.379 445.986 336.379 446.407V498.375C336.379 498.795 336.72 499.136 337.141 499.136Z" fill="#EBEBEB"/>
<path d="M323.324 497.788H358.223V439.665H323.324V497.788Z" fill="white"/>
<path d="M352.814 498.708H355.178V440.585H352.814V498.708Z" fill="#E6E6E6"/>
<path d="M355.352 499.152H361.443C361.908 499.152 362.284 498.776 362.284 498.311V440.982C362.284 440.517 361.908 440.141 361.443 440.141H355.352C354.888 440.141 354.511 440.517 354.511 440.982V498.311C354.511 498.776 354.888 499.152 355.352 499.152Z" fill="#F0F0F0"/>
<path d="M354.511 460.953H362.284V458.939H354.511V460.953Z" fill="white"/>
<path d="M354.511 466.775H362.284V464.761H354.511V466.775Z" fill="white"/>
<path d="M354.511 472.597H362.284V470.582H354.511V472.597Z" fill="white"/>
<path d="M321.563 499.152H353.004C353.468 499.152 353.845 498.776 353.845 498.311V440.982C353.845 440.517 353.468 440.141 353.004 440.141H321.563C321.099 440.141 320.722 440.517 320.722 440.982V498.311C320.722 498.776 321.099 499.152 321.563 499.152Z" fill="#F0F0F0"/>
<path d="M280.335 478.895C280.338 480.665 279.816 482.396 278.835 483.87C277.854 485.343 276.458 486.492 274.823 487.172C273.189 487.851 271.389 488.031 269.653 487.687C267.916 487.344 266.32 486.493 265.068 485.243C263.815 483.992 262.961 482.398 262.614 480.662C262.268 478.926 262.444 477.126 263.121 475.49C263.798 473.855 264.944 472.456 266.416 471.473C267.888 470.489 269.618 469.964 271.388 469.964C273.758 469.964 276.032 470.904 277.709 472.579C279.386 474.253 280.331 476.525 280.335 478.895Z" fill="#FAFAFA"/>
<path d="M265.09 483.162C265.09 484.545 264.68 485.898 263.911 487.048C263.142 488.199 262.05 489.096 260.771 489.625C259.493 490.154 258.087 490.293 256.73 490.023C255.372 489.753 254.126 489.087 253.148 488.109C252.169 487.13 251.503 485.884 251.233 484.527C250.963 483.17 251.102 481.763 251.631 480.485C252.161 479.206 253.057 478.114 254.208 477.345C255.358 476.576 256.711 476.166 258.094 476.166C259.948 476.17 261.725 476.909 263.036 478.22C264.347 479.531 265.086 481.308 265.09 483.162Z" fill="#FAFAFA"/>
<path d="M295.643 483.162C295.643 484.931 295.118 486.661 294.135 488.132C293.152 489.604 291.755 490.75 290.12 491.428C288.485 492.105 286.686 492.282 284.95 491.937C283.215 491.592 281.621 490.739 280.37 489.488C279.118 488.237 278.266 486.643 277.921 484.907C277.576 483.172 277.753 481.373 278.43 479.738C279.107 478.103 280.254 476.706 281.725 475.723C283.197 474.74 284.926 474.215 286.696 474.215C289.067 474.219 291.341 475.163 293.018 476.84C294.695 478.517 295.639 480.79 295.643 483.162Z" fill="#FAFAFA"/>
<path d="M310.3 480.544C310.3 482.314 309.775 484.044 308.792 485.515C307.809 486.986 306.412 488.133 304.777 488.81C303.142 489.487 301.343 489.665 299.608 489.319C297.872 488.974 296.278 488.122 295.027 486.871C293.775 485.62 292.923 484.025 292.578 482.29C292.233 480.554 292.41 478.755 293.087 477.121C293.764 475.486 294.911 474.088 296.382 473.105C297.854 472.122 299.584 471.598 301.353 471.598C303.726 471.598 306.002 472.54 307.679 474.218C309.357 475.896 310.3 478.172 310.3 480.544Z" fill="#FAFAFA"/>
<path d="M233.475 481.702C233.475 481.702 234.696 499.152 281.762 499.152C328.828 499.152 330.05 481.702 330.05 481.702H233.475Z" fill="#F5F5F5"/>
<path d="M365.457 402.37C365.457 402.37 367.408 419.82 441.997 419.82C516.586 419.82 518.521 402.37 518.521 402.37H365.457Z" fill="white"/>
<path d="M396.581 591C566.448 591 704.153 582.96 704.153 573.043C704.153 563.125 566.448 555.086 396.581 555.086C226.713 555.086 89.0088 563.125 89.0088 573.043C89.0088 582.96 226.713 591 396.581 591Z" fill="#F5F5F5"/>
<path d="M233.065 335.23C266.617 301.678 266.617 247.28 233.065 213.728C199.513 180.176 145.115 180.176 111.563 213.728C78.0108 247.28 78.0108 301.678 111.563 335.23C145.115 368.782 199.513 368.782 233.065 335.23Z" fill="#407BFF"/>
<path opacity="0.4" d="M233.065 335.23C266.617 301.678 266.617 247.28 233.065 213.728C199.513 180.176 145.115 180.176 111.563 213.728C78.0108 247.28 78.0108 301.678 111.563 335.23C145.115 368.782 199.513 368.782 233.065 335.23Z" fill="black"/>
<path opacity="0.2" d="M243.44 286.61C250.139 247.333 223.73 210.06 184.452 203.361C145.174 196.661 107.902 223.071 101.202 262.348C94.5025 301.626 120.912 338.898 160.19 345.598C199.468 352.298 236.74 325.888 243.44 286.61Z" fill="black"/>
<path d="M246.887 281.389C249.565 243.138 220.727 209.959 182.477 207.282C144.226 204.604 111.047 233.442 108.37 271.692C105.692 309.943 134.53 343.122 172.78 345.799C211.031 348.477 244.21 319.639 246.887 281.389Z" fill="#407BFF"/>
<path opacity="0.4" d="M246.887 281.389C249.565 243.138 220.727 209.959 182.477 207.282C144.226 204.604 111.047 233.442 108.37 271.692C105.692 309.943 134.53 343.122 172.78 345.799C211.031 348.477 244.21 319.639 246.887 281.389Z" fill="black"/>
<path d="M200.845 267.866L205.366 287.457C205.558 288.205 205.592 288.985 205.467 289.747C205.341 290.509 205.058 291.236 204.636 291.883C204.226 292.544 203.688 293.116 203.053 293.566C202.418 294.016 201.7 294.333 200.94 294.501L183.713 298.482L186.885 312.267C187.072 313.012 187.101 313.788 186.97 314.545C186.838 315.302 186.55 316.023 186.124 316.662C185.714 317.312 185.174 317.87 184.538 318.301C183.902 318.733 183.183 319.028 182.428 319.168C181.671 319.358 180.884 319.393 180.112 319.274C179.341 319.154 178.602 318.88 177.938 318.47C177.277 318.081 176.705 317.558 176.257 316.936C175.809 316.313 175.495 315.604 175.337 314.853L172.164 300.909L155.08 304.859C154.343 305.037 153.579 305.064 152.832 304.939C152.085 304.813 151.371 304.538 150.733 304.13C150.07 303.741 149.495 303.218 149.045 302.596C148.594 301.973 148.278 301.264 148.116 300.513C147.935 299.772 147.907 299.001 148.032 298.249C148.158 297.496 148.434 296.777 148.845 296.135C149.238 295.478 149.761 294.909 150.384 294.464C151.006 294.019 151.714 293.707 152.462 293.549L192.437 284.332L190.566 276.194L150.701 285.379C149.963 285.568 149.195 285.604 148.442 285.487C147.69 285.37 146.969 285.101 146.323 284.697C145.661 284.3 145.089 283.769 144.644 283.138C144.199 282.507 143.89 281.79 143.737 281.033L139.232 261.521C138.885 260.021 139.149 258.445 139.964 257.139C140.779 255.833 142.079 254.904 143.579 254.557L160.584 250.639L157.411 236.838C157.228 236.108 157.192 235.349 157.306 234.605C157.421 233.861 157.683 233.148 158.078 232.507C158.496 231.813 159.058 231.216 159.725 230.757C160.393 230.297 161.151 229.985 161.948 229.842C162.682 229.664 163.444 229.637 164.189 229.762C164.933 229.887 165.644 230.163 166.279 230.572C166.93 230.972 167.494 231.501 167.936 232.125C168.377 232.75 168.688 233.457 168.849 234.205L172.022 247.99L189.471 243.992C190.226 243.809 191.01 243.781 191.776 243.909C192.542 244.037 193.274 244.319 193.929 244.738C194.59 245.118 195.166 245.632 195.619 246.246C196.073 246.861 196.394 247.562 196.562 248.307C196.896 249.841 196.617 251.445 195.784 252.776C194.951 254.107 193.63 255.059 192.104 255.43L152.129 264.646L153.874 272.736L193.707 263.551C194.461 263.369 195.245 263.341 196.012 263.469C196.778 263.597 197.51 263.879 198.164 264.297C198.837 264.67 199.423 265.181 199.885 265.796C200.347 266.411 200.674 267.116 200.845 267.866Z" fill="#407BFF"/>
<g opacity="0.7">
<path opacity="0.7" d="M200.845 267.866L205.366 287.457C205.558 288.205 205.592 288.985 205.467 289.747C205.341 290.509 205.058 291.236 204.636 291.883C204.226 292.544 203.688 293.116 203.053 293.566C202.418 294.016 201.7 294.333 200.94 294.501L183.713 298.482L186.885 312.267C187.072 313.012 187.101 313.788 186.97 314.545C186.838 315.302 186.55 316.023 186.124 316.662C185.714 317.312 185.174 317.87 184.538 318.301C183.902 318.733 183.183 319.028 182.428 319.168C181.671 319.358 180.884 319.393 180.112 319.274C179.341 319.154 178.602 318.88 177.938 318.47C177.277 318.081 176.705 317.558 176.257 316.936C175.809 316.313 175.495 315.604 175.337 314.853L172.164 300.909L155.08 304.859C154.343 305.037 153.579 305.064 152.832 304.939C152.085 304.813 151.371 304.538 150.733 304.13C150.07 303.741 149.495 303.218 149.045 302.596C148.594 301.973 148.278 301.264 148.116 300.513C147.935 299.772 147.907 299.001 148.032 298.249C148.158 297.496 148.434 296.777 148.845 296.135C149.238 295.478 149.761 294.909 150.384 294.464C151.006 294.019 151.714 293.707 152.462 293.549L192.437 284.332L190.566 276.194L150.701 285.379C149.963 285.568 149.195 285.604 148.442 285.487C147.69 285.37 146.969 285.101 146.323 284.697C145.661 284.3 145.089 283.769 144.644 283.138C144.199 282.507 143.89 281.79 143.737 281.033L139.232 261.521C138.885 260.021 139.149 258.445 139.964 257.139C140.779 255.833 142.079 254.904 143.579 254.557L160.584 250.639L157.411 236.838C157.228 236.108 157.192 235.349 157.306 234.605C157.421 233.861 157.683 233.148 158.078 232.507C158.496 231.813 159.058 231.216 159.725 230.757C160.393 230.297 161.151 229.985 161.948 229.842C162.682 229.664 163.444 229.637 164.189 229.762C164.933 229.887 165.644 230.163 166.279 230.572C166.93 230.972 167.494 231.501 167.936 232.125C168.377 232.75 168.688 233.457 168.849 234.205L172.022 247.99L189.471 243.992C190.226 243.809 191.01 243.781 191.776 243.909C192.542 244.037 193.274 244.319 193.929 244.738C194.59 245.118 195.166 245.632 195.619 246.246C196.073 246.861 196.394 247.562 196.562 248.307C196.896 249.841 196.617 251.445 195.784 252.776C194.951 254.107 193.63 255.059 192.104 255.43L152.129 264.646L153.874 272.736L193.707 263.551C194.461 263.369 195.245 263.341 196.012 263.469C196.778 263.597 197.51 263.879 198.164 264.297C198.837 264.67 199.423 265.181 199.885 265.796C200.347 266.411 200.674 267.116 200.845 267.866Z" fill="white"/>
</g>
<path d="M355.651 206.155C377.027 180.861 373.85 143.027 348.555 121.652C323.261 100.276 285.428 103.453 264.052 128.748C242.677 154.042 245.854 191.875 271.148 213.251C296.442 234.626 334.276 231.449 355.651 206.155Z" fill="#407BFF"/>
<path opacity="0.4" d="M355.651 206.155C377.027 180.861 373.85 143.027 348.555 121.652C323.261 100.276 285.428 103.453 264.052 128.748C242.677 154.042 245.854 191.875 271.148 213.251C296.442 234.626 334.276 231.449 355.651 206.155Z" fill="black"/>
<path opacity="0.2" d="M348.662 199.487C366.38 178.055 363.369 146.317 341.936 128.6C320.504 110.882 288.767 113.893 271.049 135.326C253.332 156.758 256.343 188.495 277.775 206.213C299.207 223.93 330.945 220.919 348.662 199.487Z" fill="black"/>
<path d="M350.182 200.013C366.392 178.803 362.339 148.469 341.13 132.259C319.92 116.049 289.585 120.101 273.375 141.311C257.165 162.521 261.218 192.855 282.428 209.065C303.637 225.275 333.972 221.222 350.182 200.013Z" fill="#407BFF"/>
<path opacity="0.4" d="M350.182 200.013C366.392 178.803 362.339 148.469 341.13 132.259C319.92 116.049 289.585 120.101 273.375 141.311C257.165 162.521 261.218 192.855 282.428 209.065C303.637 225.275 333.972 221.222 350.182 200.013Z" fill="black"/>
<path d="M329.67 172.37L326.259 185.98C326.136 186.498 325.905 186.984 325.583 187.407C325.261 187.831 324.853 188.182 324.388 188.439C323.917 188.725 323.393 188.914 322.848 188.993C322.303 189.072 321.747 189.04 321.215 188.899L309.333 185.901L306.922 195.419C306.799 195.939 306.57 196.428 306.247 196.854C305.925 197.28 305.517 197.634 305.05 197.894C304.6 198.173 304.098 198.358 303.575 198.437C303.051 198.516 302.517 198.488 302.005 198.354C301.477 198.23 300.979 198.002 300.541 197.683C300.102 197.364 299.731 196.961 299.451 196.498C299.164 196.045 298.974 195.538 298.892 195.008C298.81 194.479 298.838 193.938 298.975 193.42L301.402 183.744L289.504 180.841C288.989 180.717 288.504 180.491 288.078 180.174C287.653 179.858 287.296 179.459 287.03 179.001C286.743 178.551 286.552 178.047 286.471 177.52C286.389 176.993 286.417 176.454 286.554 175.939C286.672 175.417 286.897 174.926 287.213 174.495C287.53 174.063 287.932 173.702 288.394 173.433C288.85 173.154 289.358 172.971 289.887 172.895C290.416 172.819 290.955 172.85 291.471 172.988L319.232 179.952L320.66 174.305L292.978 167.357C292.46 167.241 291.971 167.019 291.542 166.705C291.114 166.391 290.755 165.992 290.488 165.533C290.2 165.08 290.012 164.572 289.936 164.042C289.859 163.511 289.896 162.97 290.044 162.455L293.438 148.892C293.566 148.375 293.795 147.889 294.112 147.461C294.429 147.033 294.828 146.672 295.285 146.399C295.742 146.126 296.249 145.947 296.776 145.871C297.303 145.795 297.84 145.824 298.356 145.957L310.126 148.908L312.538 139.39C312.654 138.853 312.881 138.346 313.203 137.9C313.526 137.455 313.937 137.081 314.41 136.802C314.884 136.524 315.411 136.346 315.957 136.281C316.503 136.216 317.056 136.264 317.582 136.424C318.093 136.542 318.575 136.765 318.995 137.079C319.416 137.393 319.766 137.791 320.025 138.248C320.306 138.7 320.491 139.205 320.57 139.731C320.649 140.258 320.62 140.795 320.485 141.31L318.074 150.827L330.13 153.857C330.659 153.984 331.157 154.216 331.593 154.541C332.029 154.865 332.395 155.275 332.668 155.745C332.957 156.191 333.151 156.691 333.239 157.215C333.326 157.739 333.305 158.275 333.176 158.791C333.043 159.319 332.807 159.816 332.48 160.252C332.153 160.688 331.742 161.054 331.272 161.329C330.804 161.62 330.281 161.813 329.735 161.895C329.189 161.977 328.633 161.946 328.1 161.805L300.323 154.841L298.927 160.456L326.593 167.389C327.121 167.515 327.619 167.747 328.055 168.072C328.492 168.396 328.857 168.806 329.131 169.276C329.436 169.724 329.643 170.231 329.736 170.765C329.829 171.298 329.806 171.846 329.67 172.37Z" fill="#407BFF"/>
<g opacity="0.7">
<path opacity="0.7" d="M329.67 172.37L326.259 185.98C326.136 186.498 325.905 186.984 325.583 187.407C325.261 187.831 324.853 188.182 324.388 188.439C323.917 188.725 323.393 188.914 322.848 188.993C322.303 189.072 321.747 189.04 321.215 188.899L309.333 185.901L306.922 195.419C306.799 195.939 306.57 196.428 306.247 196.854C305.925 197.28 305.517 197.634 305.05 197.894C304.6 198.173 304.098 198.358 303.575 198.437C303.051 198.516 302.517 198.488 302.005 198.354C301.477 198.23 300.979 198.002 300.541 197.683C300.102 197.364 299.731 196.961 299.451 196.498C299.164 196.045 298.974 195.538 298.892 195.008C298.81 194.479 298.838 193.938 298.975 193.42L301.402 183.744L289.504 180.841C288.989 180.717 288.504 180.491 288.078 180.174C287.653 179.858 287.296 179.459 287.03 179.001C286.743 178.551 286.552 178.047 286.471 177.52C286.389 176.993 286.417 176.454 286.554 175.939C286.672 175.417 286.897 174.926 287.213 174.495C287.53 174.063 287.932 173.702 288.394 173.433C288.85 173.154 289.358 172.971 289.887 172.895C290.416 172.819 290.955 172.85 291.471 172.988L319.232 179.952L320.66 174.305L292.978 167.357C292.46 167.241 291.971 167.019 291.542 166.705C291.114 166.391 290.755 165.992 290.488 165.533C290.2 165.08 290.012 164.572 289.936 164.042C289.859 163.511 289.896 162.97 290.044 162.455L293.438 148.892C293.566 148.375 293.795 147.889 294.112 147.461C294.429 147.033 294.828 146.672 295.285 146.399C295.742 146.126 296.249 145.947 296.776 145.871C297.303 145.795 297.84 145.824 298.356 145.957L310.126 148.908L312.538 139.39C312.654 138.853 312.881 138.346 313.203 137.9C313.526 137.455 313.937 137.081 314.41 136.802C314.884 136.524 315.411 136.346 315.957 136.281C316.503 136.216 317.056 136.264 317.582 136.424C318.093 136.542 318.575 136.765 318.995 137.079C319.416 137.393 319.766 137.791 320.025 138.248C320.306 138.7 320.491 139.205 320.57 139.731C320.649 140.258 320.62 140.795 320.485 141.31L318.074 150.827L330.13 153.857C330.659 153.984 331.157 154.216 331.593 154.541C332.029 154.865 332.395 155.275 332.668 155.745C332.957 156.191 333.151 156.691 333.239 157.215C333.326 157.739 333.305 158.275 333.176 158.791C333.043 159.319 332.807 159.816 332.48 160.252C332.153 160.688 331.742 161.054 331.272 161.329C330.804 161.62 330.281 161.813 329.735 161.895C329.189 161.977 328.633 161.946 328.1 161.805L300.323 154.841L298.927 160.456L326.593 167.389C327.121 167.515 327.619 167.747 328.055 168.072C328.492 168.396 328.857 168.806 329.131 169.276C329.436 169.724 329.643 170.231 329.736 170.765C329.829 171.298 329.806 171.846 329.67 172.37Z" fill="white"/>
</g>
<path d="M163.803 529.784H162.217V547.693H163.803V529.784Z" fill="#407BFF"/>
<path opacity="0.1" d="M163.803 529.784H162.217V547.693H163.803V529.784Z" fill="black"/>
<path d="M630.943 387.903H629.356V412.444H630.943V387.903Z" fill="#407BFF"/>
<path d="M630.943 425.309H629.356V438.618H630.943V425.309Z" fill="#407BFF"/>
<path opacity="0.1" d="M630.943 387.903H629.356V412.444H630.943V387.903Z" fill="black"/>
<path opacity="0.1" d="M630.943 425.309H629.356V438.618H630.943V425.309Z" fill="black"/>
<path d="M601.532 281.477H191.643C178.457 281.477 167.769 292.166 167.769 305.351V545.282C167.769 558.468 178.457 569.156 191.643 569.156H601.532C614.718 569.156 625.406 558.468 625.406 545.282V305.351C625.406 292.166 614.718 281.477 601.532 281.477Z" fill="#407BFF"/>
<path opacity="0.2" d="M601.532 281.477H191.643C178.457 281.477 167.769 292.166 167.769 305.351V545.282C167.769 558.468 178.457 569.156 191.643 569.156H601.532C614.718 569.156 625.406 558.468 625.406 545.282V305.351C625.406 292.166 614.718 281.477 601.532 281.477Z" fill="black"/>
<path opacity="0.2" d="M551.326 381.653C567.682 381.653 580.942 368.393 580.942 352.037C580.942 335.68 567.682 322.42 551.326 322.42C534.969 322.42 521.709 335.68 521.709 352.037C521.709 368.393 534.969 381.653 551.326 381.653Z" fill="black"/>
<path d="M513.095 381.653C529.452 381.653 542.712 368.393 542.712 352.037C542.712 335.68 529.452 322.42 513.095 322.42C496.738 322.42 483.479 335.68 483.479 352.037C483.479 368.393 496.738 381.653 513.095 381.653Z" fill="#407BFF"/>
<path d="M293.057 381.653H222.513C216.836 381.653 212.233 386.255 212.233 391.932V438.047C212.233 443.724 216.836 448.326 222.513 448.326H293.057C298.734 448.326 303.336 443.724 303.336 438.047V391.932C303.336 386.255 298.734 381.653 293.057 381.653Z" fill="#407BFF"/>
<path opacity="0.3" d="M293.057 381.653H222.513C216.836 381.653 212.233 386.255 212.233 391.932V438.047C212.233 443.724 216.836 448.326 222.513 448.326H293.057C298.734 448.326 303.336 443.724 303.336 438.047V391.932C303.336 386.255 298.734 381.653 293.057 381.653Z" fill="white"/>
<path d="M341.868 315.155H219.515C215.493 315.155 212.233 318.411 212.233 322.428C212.233 326.445 215.493 329.701 219.515 329.701H341.868C345.889 329.701 349.149 326.445 349.149 322.428C349.149 318.411 345.889 315.155 341.868 315.155Z" fill="#407BFF"/>
<path opacity="0.3" d="M341.868 315.155H219.515C215.493 315.155 212.233 318.411 212.233 322.428C212.233 326.445 215.493 329.701 219.515 329.701H341.868C345.889 329.701 349.149 326.445 349.149 322.428C349.149 318.411 345.889 315.155 341.868 315.155Z" fill="white"/>
<path d="M277.939 481.417H222.909C217.013 481.417 212.233 486.197 212.233 492.093V502.071C212.233 507.967 217.013 512.747 222.909 512.747H277.939C283.835 512.747 288.615 507.967 288.615 502.071V492.093C288.615 486.197 283.835 481.417 277.939 481.417Z" fill="#407BFF"/>
<path opacity="0.3" d="M277.939 481.417H222.909C217.013 481.417 212.233 486.197 212.233 492.093V502.071C212.233 507.967 217.013 512.747 222.909 512.747H277.939C283.835 512.747 288.615 507.967 288.615 502.071V492.093C288.615 486.197 283.835 481.417 277.939 481.417Z" fill="white"/>
<path d="M375.37 481.417H320.341C314.445 481.417 309.665 486.197 309.665 492.093V502.071C309.665 507.967 314.445 512.747 320.341 512.747H375.37C381.267 512.747 386.046 507.967 386.046 502.071V492.093C386.046 486.197 381.267 481.417 375.37 481.417Z" fill="#407BFF"/>
<path opacity="0.3" d="M375.37 481.417H320.341C314.445 481.417 309.665 486.197 309.665 492.093V502.071C309.665 507.967 314.445 512.747 320.341 512.747H375.37C381.267 512.747 386.046 507.967 386.046 502.071V492.093C386.046 486.197 381.267 481.417 375.37 481.417Z" fill="white"/>
<path d="M472.819 481.417H417.789C411.893 481.417 407.113 486.197 407.113 492.093V502.071C407.113 507.967 411.893 512.747 417.789 512.747H472.819C478.715 512.747 483.495 507.967 483.495 502.071V492.093C483.495 486.197 478.715 481.417 472.819 481.417Z" fill="#407BFF"/>
<path opacity="0.3" d="M472.819 481.417H417.789C411.893 481.417 407.113 486.197 407.113 492.093V502.071C407.113 507.967 411.893 512.747 417.789 512.747H472.819C478.715 512.747 483.495 507.967 483.495 502.071V492.093C483.495 486.197 478.715 481.417 472.819 481.417Z" fill="white"/>
<path d="M570.25 481.417H515.221C509.325 481.417 504.545 486.197 504.545 492.093V502.071C504.545 507.967 509.325 512.747 515.221 512.747H570.25C576.147 512.747 580.926 507.967 580.926 502.071V492.093C580.926 486.197 576.147 481.417 570.25 481.417Z" fill="#407BFF"/>
<path opacity="0.3" d="M570.25 481.417H515.221C509.325 481.417 504.545 486.197 504.545 492.093V502.071C504.545 507.967 509.325 512.747 515.221 512.747H570.25C576.147 512.747 580.926 507.967 580.926 502.071V492.093C580.926 486.197 576.147 481.417 570.25 481.417Z" fill="white"/>
<path d="M464.793 177.382C461.033 187.995 456.861 198.258 452.435 208.522C447.956 218.959 442.816 229.1 437.048 238.884C436.271 240.137 435.462 241.391 434.621 242.644L434.002 243.58L433.161 244.738C432.59 245.467 432.051 246.102 431.575 246.721C429.576 248.949 427.458 251.067 425.23 253.066C420.994 256.984 416.68 260.537 412.317 264.043C403.561 270.991 394.614 277.495 385.35 283.666L379.813 276.797L403.132 253.811C406.987 249.988 410.81 246.134 414.379 242.279C416.14 240.359 417.853 238.392 419.265 236.584C419.614 236.14 419.916 235.696 420.185 235.315L420.518 234.776L420.979 233.951C421.597 232.856 422.248 231.793 422.85 230.667C427.705 221.546 431.988 211.631 436.112 201.574C440.237 191.517 444.202 181.38 448.009 171.323L464.793 177.382Z" fill="#E4897B"/>
<path d="M469.251 169.736C472.852 180.27 451.69 211.25 451.69 211.25L431.48 200.003C434.924 190.337 438.994 180.905 443.663 171.767C450.738 158.378 465.301 158.172 469.251 169.736Z" fill="#407BFF"/>
<path opacity="0.7" d="M469.251 169.736C472.852 180.27 451.69 211.25 451.69 211.25L431.48 200.003C434.924 190.337 438.994 180.905 443.663 171.767C450.738 158.378 465.301 158.172 469.251 169.736Z" fill="white"/>
<path opacity="0.31" d="M469.552 171.053C465.015 168.88 459.796 170.704 454.291 179.397C448.787 188.09 444.107 202.605 443.6 206.745L451.706 211.235C451.706 211.235 471.233 182.617 469.552 171.053Z" fill="#407BFF"/>
<path d="M455.561 161.678C455.561 161.678 440.459 197.196 451.341 263.329H514.239C515.016 253.669 510.574 206.571 521.472 161.075C514.548 159.727 507.543 158.837 500.501 158.41C491.599 157.902 482.674 157.902 473.772 158.41C467.627 159.034 461.539 160.126 455.561 161.678Z" fill="#407BFF"/>
<path opacity="0.7" d="M455.561 161.678C455.561 161.678 440.459 197.196 451.341 263.329H514.239C515.016 253.669 510.574 206.571 521.472 161.075C514.548 159.727 507.543 158.837 500.501 158.41C491.599 157.902 482.674 157.902 473.772 158.41C467.627 159.034 461.539 160.126 455.561 161.678Z" fill="white"/>
<path d="M536.51 545.108L527.198 553.452L509.447 534.971L518.775 526.627L536.51 545.108Z" fill="#E4897B"/>
<path d="M504.577 562.462H492.823L491.3 535.241H503.054L504.577 562.462Z" fill="#E4897B"/>
<path d="M509.464 534.971L518.601 544.505L527.929 536.145L518.791 526.627L509.464 534.971Z" fill="#CE6F64"/>
<path d="M503.054 535.241H491.3L492.093 549.28H503.848L503.054 535.241Z" fill="#CE6F64"/>
<path d="M451.341 263.329C451.341 263.329 438.951 349.086 434.732 395.756C431.337 433.209 512.319 544.87 512.319 544.87L527.976 530.133C527.976 530.133 468.838 430.02 473.39 388.332C477.8 347.96 492.744 263.282 492.744 263.282L451.341 263.329Z" fill="#407BFF"/>
<path opacity="0.7" d="M451.341 263.329C451.341 263.329 438.951 349.086 434.732 395.756C431.337 433.209 512.319 544.87 512.319 544.87L527.976 530.133C527.976 530.133 468.838 430.02 473.39 388.332C477.8 347.96 492.744 263.282 492.744 263.282L451.341 263.329Z" fill="black"/>
<path opacity="0.2" d="M473.39 388.379C475.659 367.582 480.735 334.999 485.097 308.317C482.813 303.844 476.404 294.786 476.404 294.786C470.662 314.631 458.177 389.442 475.992 490.475C494.552 520.393 512.318 544.917 512.318 544.917L514.746 506.338C497.597 474.072 470.233 417.203 473.39 388.379Z" fill="black"/>
<path d="M473.708 263.329C473.708 263.329 472.597 353.195 474.501 386.872C476.579 423.738 487.049 545.901 487.049 545.901H508.591C508.591 545.901 507.941 426.721 509.21 390.235C510.621 350.577 514.27 263.329 514.27 263.329H473.708Z" fill="#407BFF"/>
<path opacity="0.7" d="M473.708 263.329C473.708 263.329 472.597 353.195 474.501 386.872C476.579 423.738 487.049 545.901 487.049 545.901H508.591C508.591 545.901 507.941 426.721 509.21 390.235C510.621 350.577 514.27 263.329 514.27 263.329H473.708Z" fill="black"/>
<path d="M492.204 561.114H505.418C505.638 561.105 505.853 561.183 506.017 561.332C506.18 561.48 506.278 561.687 506.29 561.907L506.941 572.361C506.943 572.634 506.891 572.904 506.789 573.157C506.686 573.41 506.535 573.64 506.343 573.835C506.152 574.029 505.924 574.184 505.673 574.29C505.421 574.397 505.152 574.453 504.879 574.455C500.278 574.375 498.073 574.106 492.267 574.106C488.698 574.106 473.501 574.486 468.568 574.486C463.634 574.486 463.809 569.601 465.855 569.156C475.23 567.174 486.858 564.397 490.189 561.828C490.764 561.374 491.472 561.123 492.204 561.114Z" fill="#263238"/>
<path d="M524.629 550.105L535.955 542.474C536.141 542.328 536.37 542.248 536.606 542.248C536.842 542.248 537.071 542.328 537.256 542.474L545.918 551.215C546.087 551.407 546.211 551.634 546.283 551.88C546.354 552.125 546.371 552.383 546.332 552.636C546.292 552.889 546.198 553.13 546.055 553.342C545.912 553.554 545.725 553.733 545.505 553.864C538.272 559.432 533.053 563.636 528.928 568.268C524.169 573.677 521.599 574.455 510.495 574.455C505.355 574.455 502.452 570.124 504.546 569.458C523.043 563.604 518.094 561.05 522.599 552.468C523.069 551.524 523.766 550.711 524.629 550.105Z" fill="#263238"/>
<path d="M382.478 275.322L370.216 275.75L372.786 285.363C372.786 285.363 385.603 286.506 386.745 282.635L382.478 275.322Z" fill="#E4897B"/>
<path d="M356.986 281.477L365.584 286.49L372.786 285.363L370.216 275.75L356.986 281.477Z" fill="#E4897B"/>
<path opacity="0.31" d="M507.417 172.306C506.117 179.794 507.846 197.687 514.27 218.405C514.773 200.655 516.838 182.984 520.441 165.596V165.501C516.317 165.089 508.671 165.279 507.417 172.306Z" fill="#407BFF"/>
<path d="M498.899 128.302C496.916 136.9 494.679 152.668 500.485 158.442C500.485 158.442 497.979 165.564 481.989 165.564C464.412 165.564 473.756 158.442 473.756 158.442C483.432 156.158 483.432 149.035 481.989 142.357L498.899 128.302Z" fill="#E4897B"/>
<path d="M481.544 165.533L476.785 170.593L479.117 175.479L482.908 175.653L486.144 170.99L481.544 165.533Z" fill="#407BFF"/>
<path d="M492.014 134.028L482.004 142.309C482.364 143.873 482.587 145.465 482.67 147.068C486.35 146.544 491.522 142.515 492.045 138.676C492.325 137.139 492.315 135.562 492.014 134.028Z" fill="#CE6F64"/>
<path d="M478.038 99.1451C472.026 101.191 467.219 117.134 474.231 121.354C481.242 125.573 489.46 95.2586 478.038 99.1451Z" fill="#263238"/>
<path d="M502.659 119.291C499.073 130.396 497.551 137.106 490.317 141.659C487.983 143.158 485.284 143.992 482.511 144.068C479.738 144.145 476.997 143.461 474.585 142.093C472.172 140.724 470.179 138.721 468.823 136.302C467.466 133.882 466.797 131.138 466.887 128.365C467.03 117.689 472.867 101.255 485.161 99.1927C487.811 98.6812 490.549 98.8748 493.1 99.7541C495.651 100.633 497.927 102.168 499.698 104.203C501.47 106.238 502.676 108.703 503.196 111.351C503.715 113.999 503.53 116.737 502.659 119.291Z" fill="#E4897B"/>
<path d="M511.541 100.731C507.956 109.393 516.3 102.159 514.143 112.438C512.747 119.133 500.659 135.17 495.995 133.711C491.332 132.252 491.379 120.878 497.328 112.835C500.754 108.219 493.346 102.984 476.706 103.539C460.065 104.094 450.008 94.7351 472.121 87.8664C472.121 87.8664 463.967 92.6253 468.806 94.2117C475.659 96.7656 518.727 83.3771 511.541 100.731Z" fill="#263238"/>
<path d="M508.369 104.697C508.194 104.697 512.097 103.73 514.175 96.7656C514.175 96.8767 513.493 107.14 508.369 104.697Z" fill="#263238"/>
<path d="M477.23 89.4051C466.998 92.5777 471.234 96.147 475.469 97.0353L485.177 93.2281C470.425 95.1793 477.23 89.4051 477.23 89.4051Z" fill="#263238"/>
<path d="M504.625 132.854C502.498 134.922 499.66 136.097 496.694 136.138C492.776 136.138 491.935 132.426 494.045 129.317C495.917 126.525 500.2 123.162 503.658 124.669C507.116 126.176 507.227 130.3 504.625 132.854Z" fill="#E4897B"/>
<path d="M484.59 118.673C484.352 119.593 483.67 120.259 483.003 120.1C482.337 119.942 482.099 119.101 482.337 118.181C482.575 117.261 483.257 116.595 483.923 116.769C484.59 116.944 484.828 117.753 484.59 118.673Z" fill="#263238"/>
<path d="M474.12 116.373C473.882 117.293 473.2 117.959 472.534 117.8C471.867 117.642 471.629 116.817 471.867 115.897C472.105 114.977 472.772 114.31 473.454 114.469C474.136 114.628 474.31 115.452 474.12 116.373Z" fill="#263238"/>
<path d="M477.325 117.562C475.521 120.131 473.388 122.451 470.979 124.463C471.509 125.051 472.162 125.517 472.891 125.827C473.62 126.136 474.408 126.283 475.199 126.255L477.325 117.562Z" fill="#DE5753"/>
<path d="M479.069 129.602C478.413 129.602 477.758 129.527 477.118 129.38C477.048 129.362 476.987 129.317 476.949 129.255C476.911 129.193 476.897 129.119 476.912 129.047C476.931 128.977 476.976 128.916 477.038 128.878C477.1 128.84 477.174 128.826 477.245 128.841C478.413 129.101 479.625 129.094 480.79 128.819C481.955 128.544 483.042 128.009 483.971 127.255C484.024 127.203 484.095 127.175 484.169 127.175C484.243 127.175 484.315 127.203 484.368 127.255C484.419 127.308 484.448 127.379 484.448 127.453C484.448 127.527 484.419 127.598 484.368 127.651C482.895 128.919 481.013 129.612 479.069 129.602Z" fill="#263238"/>
<path d="M488.746 116.024C488.638 116.025 488.532 115.995 488.441 115.935C488.35 115.876 488.28 115.791 488.239 115.69C487.978 115.054 487.568 114.49 487.044 114.045C486.519 113.601 485.895 113.289 485.225 113.136C485.151 113.127 485.081 113.103 485.017 113.065C484.953 113.028 484.898 112.978 484.853 112.919C484.809 112.86 484.777 112.793 484.759 112.721C484.741 112.649 484.737 112.575 484.749 112.502C484.772 112.356 484.851 112.225 484.97 112.136C485.088 112.047 485.236 112.008 485.383 112.026C486.238 112.2 487.037 112.58 487.711 113.133C488.386 113.686 488.915 114.395 489.254 115.199C489.285 115.265 489.302 115.337 489.305 115.41C489.307 115.484 489.295 115.557 489.268 115.625C489.241 115.693 489.201 115.755 489.149 115.808C489.098 115.86 489.036 115.901 488.968 115.928C488.902 115.976 488.826 116.009 488.746 116.024Z" fill="#263238"/>
<path d="M470.583 111.82C470.456 111.819 470.332 111.774 470.234 111.693C470.12 111.597 470.048 111.461 470.033 111.312C470.018 111.164 470.062 111.016 470.155 110.9C470.714 110.204 471.425 109.647 472.233 109.27C473.042 108.893 473.927 108.707 474.819 108.726C474.892 108.732 474.963 108.753 475.028 108.786C475.093 108.82 475.151 108.866 475.198 108.922C475.245 108.978 475.281 109.043 475.303 109.113C475.325 109.183 475.333 109.256 475.326 109.329C475.322 109.403 475.303 109.475 475.27 109.541C475.238 109.608 475.191 109.666 475.135 109.714C475.078 109.762 475.013 109.797 474.942 109.818C474.871 109.839 474.797 109.846 474.723 109.837C474.01 109.829 473.304 109.986 472.661 110.294C472.017 110.602 471.453 111.053 471.011 111.614C470.96 111.678 470.895 111.731 470.821 111.766C470.747 111.802 470.665 111.82 470.583 111.82Z" fill="#263238"/>
<path d="M524.518 169.181C525.755 171.101 526.786 172.798 527.833 174.638C528.88 176.478 529.88 178.255 530.863 180.095C532.798 183.759 534.623 187.503 536.288 191.326C539.782 199.153 542.405 207.34 544.109 215.74L544.268 216.549L544.347 216.945L544.458 217.612C544.593 218.499 544.662 219.395 544.664 220.292C544.648 221.795 544.489 223.293 544.188 224.766C543.651 227.195 542.875 229.565 541.872 231.841C540.091 235.829 537.968 239.656 535.527 243.278C530.913 250.166 525.666 256.608 519.854 262.52L512.953 256.984C516.792 250.29 520.615 243.342 523.82 236.536C525.395 233.282 526.742 229.921 527.849 226.479C528.302 225.043 528.61 223.566 528.769 222.069C528.824 221.579 528.824 221.084 528.769 220.594C528.769 220.451 528.769 220.324 528.674 220.308C528.579 220.292 528.674 220.308 528.674 220.229L528.579 219.912L528.388 219.261C527.386 215.762 526.194 212.32 524.819 208.95C523.423 205.508 521.869 202.082 520.235 198.671C518.601 195.26 516.84 191.897 515.032 188.534C514.143 186.853 513.207 185.187 512.271 183.537L509.479 178.778L524.518 169.181Z" fill="#E4897B"/>
<path d="M488.048 563.144C487.256 563.224 486.464 563.003 485.827 562.526C485.648 562.327 485.522 562.086 485.461 561.825C485.4 561.564 485.406 561.292 485.478 561.034C485.513 560.861 485.591 560.699 485.705 560.563C485.818 560.427 485.964 560.322 486.128 560.257C487.572 559.686 490.887 561.97 491.268 562.224C491.315 562.253 491.352 562.297 491.372 562.348C491.392 562.4 491.394 562.456 491.379 562.51C491.371 562.563 491.347 562.613 491.31 562.652C491.273 562.692 491.226 562.72 491.173 562.732C490.149 562.978 489.101 563.116 488.048 563.144ZM486.668 560.717C486.557 560.699 486.445 560.699 486.335 560.717C486.254 560.746 486.183 560.797 486.13 560.864C486.076 560.932 486.043 561.013 486.033 561.098C485.976 561.264 485.963 561.443 485.996 561.615C486.03 561.788 486.108 561.949 486.224 562.081C486.763 562.621 488.302 562.684 490.411 562.272C489.29 561.494 488.012 560.969 486.668 560.733V560.717Z" fill="white"/>
<path d="M491.11 562.748H490.967C489.793 562.05 488.048 559.575 488.318 558.306C488.365 558.073 488.489 557.863 488.671 557.711C488.852 557.558 489.08 557.471 489.317 557.465C489.527 557.438 489.739 557.458 489.94 557.524C490.14 557.59 490.323 557.7 490.475 557.846C491.665 559.004 491.395 562.383 491.395 562.526C491.39 562.573 491.372 562.618 491.344 562.657C491.317 562.696 491.28 562.727 491.237 562.748H491.11ZM489.524 557.989H489.397C489 557.989 488.905 558.227 488.873 558.385C488.699 559.226 489.857 561.082 490.872 561.939C491.018 560.652 490.751 559.352 490.11 558.227C490.031 558.149 489.936 558.088 489.833 558.047C489.729 558.006 489.619 557.986 489.508 557.989H489.524Z" fill="white"/>
<path d="M517.014 556.482C516.721 556.49 516.429 556.436 516.158 556.323C515.949 556.239 515.763 556.106 515.616 555.935C515.47 555.763 515.367 555.559 515.317 555.34C515.276 555.206 515.271 555.064 515.302 554.928C515.332 554.792 515.398 554.666 515.491 554.562C516.554 553.277 522.122 553.658 522.757 553.706C522.816 553.707 522.873 553.729 522.919 553.766C522.964 553.803 522.997 553.854 523.011 553.912C523.023 553.969 523.017 554.029 522.995 554.083C522.972 554.136 522.933 554.182 522.884 554.213C521.112 555.381 519.111 556.155 517.014 556.482ZM520.377 554.166C518.426 554.166 516.38 554.356 515.92 554.911C515.893 554.954 515.879 555.004 515.879 555.054C515.879 555.104 515.893 555.154 515.92 555.197C515.946 555.334 516.007 555.462 516.095 555.57C516.184 555.678 516.298 555.763 516.427 555.815C517.316 556.18 519.314 555.578 521.837 554.229L520.377 554.166Z" fill="white"/>
<path d="M522.741 554.261C521.154 554.261 517.585 553.039 517.315 551.77C517.315 551.453 517.315 551.009 518.077 550.644C520.805 549.359 522.915 553.674 523.01 553.817C523.03 553.862 523.039 553.91 523.039 553.959C523.039 554.008 523.03 554.057 523.01 554.102C522.984 554.151 522.945 554.191 522.898 554.219C522.85 554.247 522.796 554.262 522.741 554.261ZM519.076 550.977C518.807 550.974 518.541 551.034 518.299 551.152C517.966 551.31 517.807 551.485 517.839 551.643C517.998 552.389 520.567 553.436 522.249 553.658C521.741 552.801 520.52 550.977 519.076 550.977Z" fill="white"/>
<path d="M516.095 254.414L504.451 252.368L510.463 265.931C510.463 265.931 521.139 265.931 520.663 260.347L516.095 254.414Z" fill="#E4897B"/>
<path d="M495.646 259.189L501.151 270.135L510.399 265.931L504.387 252.368L495.646 259.189Z" fill="#E4897B"/>
<path d="M528.928 529.292L511.367 545.822L505.704 539.746L525.803 521.44L528.928 529.292Z" fill="#407BFF"/>
<path opacity="0.6" d="M528.928 529.292L511.367 545.822L505.704 539.746L525.803 521.44L528.928 529.292Z" fill="white"/>
<path d="M509.448 545.901H486.177L484.892 537.715L510.574 539L509.448 545.901Z" fill="#407BFF"/>
<path opacity="0.6" d="M509.448 545.901H486.177L484.892 537.715L510.574 539L509.448 545.901Z" fill="white"/>
<path d="M521.472 161.075C532.576 162.661 543.95 201.241 543.95 201.241L520.156 214.439C520.156 214.439 510.495 196.101 505.879 182.49C501.04 168.229 509.591 159.33 521.472 161.075Z" fill="#407BFF"/>
<path opacity="0.7" d="M521.472 161.075C532.576 162.661 543.95 201.241 543.95 201.241L520.156 214.439C520.156 214.439 510.495 196.101 505.879 182.49C501.04 168.229 509.591 159.33 521.472 161.075Z" fill="white"/>
<path opacity="0.2" d="M481.544 165.533L476.785 170.593L479.117 175.479L482.908 175.653L486.144 170.99L481.544 165.533Z" fill="black"/>
<path d="M479.53 174.606C479.53 174.606 470.504 211.996 470.155 219.769C469.663 230.461 474.137 248.719 474.137 248.719C474.137 248.719 480.482 233.538 481.783 219.436C483.083 205.333 482.116 182.522 482.703 174.606H479.53Z" fill="#407BFF"/>
<path opacity="0.2" d="M479.53 174.606C479.53 174.606 470.504 211.996 470.155 219.769C469.663 230.461 474.137 248.719 474.137 248.719C474.137 248.719 480.482 233.538 481.783 219.436C483.083 205.333 482.116 182.522 482.703 174.606H479.53Z" fill="black"/>
<path d="M481.544 165.533C483.352 168.459 484.399 171.791 484.59 175.225C484.59 175.225 504.387 168.245 503.451 158.013C503.451 158.013 500.643 156.348 498.867 154.999C498.867 154.999 498.2 161.44 481.544 165.533Z" fill="#407BFF"/>
<path opacity="0.6" d="M481.544 165.533C483.352 168.459 484.399 171.791 484.59 175.225C484.59 175.225 504.387 168.245 503.451 158.013C503.451 158.013 500.643 156.348 498.867 154.999C498.867 154.999 498.2 161.44 481.544 165.533Z" fill="white"/>
<path d="M481.544 165.533C479.724 168.303 478.413 171.376 477.673 174.606C477.673 174.606 468.711 168.547 471.407 158.442C473.049 157.78 474.742 157.25 476.468 156.855C476.468 156.855 475.294 163.391 481.544 165.533Z" fill="#407BFF"/>
<path opacity="0.6" d="M481.544 165.533C479.724 168.303 478.413 171.376 477.673 174.606C477.673 174.606 468.711 168.547 471.407 158.442C473.049 157.78 474.742 157.25 476.468 156.855C476.468 156.855 475.294 163.391 481.544 165.533Z" fill="white"/>
</svg>
