<svg width="794" height="592" viewBox="0 0 794 592" fill="none" xmlns="http://www.w3.org/2000/svg">
<path d="M793.345 519.482H0V519.879H793.345V519.482Z" fill="#E0E0E0"/>
<path d="M623.855 531.541H597.103V531.938H623.855V531.541Z" fill="#E0E0E0"/>
<path d="M711.725 531.351H641.022V531.747H711.725V531.351Z" fill="#E0E0E0"/>
<path d="M508.899 534.016H420.885V534.413H508.899V534.016Z" fill="#E0E0E0"/>
<path d="M411.746 534.016H378.87V534.413H411.746V534.016Z" fill="#E0E0E0"/>
<path d="M240.479 530.954H226.04V531.351H240.479V530.954Z" fill="#E0E0E0"/>
<path d="M273.149 530.954H249.285V531.351H273.149V530.954Z" fill="#E0E0E0"/>
<path d="M211.744 538.11H106.134V538.507H211.744V538.11Z" fill="#E0E0E0"/>
<path d="M376.046 448.716H69.6716C67.2715 448.712 64.9711 447.755 63.2754 446.057C61.5798 444.358 60.6274 442.056 60.6274 439.656V8.98066C60.6483 6.59432 61.6099 4.31259 63.3033 2.63108C64.9967 0.949567 67.2851 0.00408793 69.6716 0H376.046C378.448 0 380.753 0.954533 382.452 2.65361C384.151 4.35269 385.106 6.65714 385.106 9.06V439.656C385.106 442.059 384.151 444.363 382.452 446.062C380.753 447.761 378.448 448.716 376.046 448.716ZM69.6716 0.317339C67.3767 0.321542 65.1772 1.23613 63.5559 2.86037C61.9347 4.4846 61.0241 6.68575 61.0241 8.98066V439.656C61.0241 441.951 61.9347 444.152 63.5559 445.776C65.1772 447.4 67.3767 448.315 69.6716 448.319H376.046C378.342 448.315 380.543 447.401 382.167 445.777C383.791 444.153 384.705 441.952 384.709 439.656V8.98066C384.705 6.6843 383.791 4.48318 382.167 2.8594C380.543 1.23562 378.342 0.321533 376.046 0.317339H69.6716Z" fill="#E0E0E0"/>
<path d="M719.262 448.716H412.872C410.471 448.712 408.169 447.756 406.471 446.058C404.773 444.359 403.817 442.057 403.812 439.656V8.98066C403.838 6.59288 404.803 4.31116 406.499 2.63009C408.194 0.949013 410.485 0.00404335 412.872 0H719.262C721.646 0.00825792 723.93 0.955583 725.62 2.63665C727.31 4.31771 728.27 6.59706 728.291 8.98066V439.656C728.291 442.053 727.34 444.353 725.648 446.051C723.956 447.749 721.66 448.707 719.262 448.716ZM412.872 0.317339C410.576 0.321533 408.375 1.23562 406.751 2.8594C405.127 4.48318 404.213 6.6843 404.209 8.98066V439.656C404.213 441.952 405.127 444.153 406.751 445.777C408.375 447.401 410.576 448.315 412.872 448.319H719.262C721.559 448.315 723.76 447.401 725.384 445.777C727.007 444.153 727.921 441.952 727.926 439.656V8.98066C727.921 6.6843 727.007 4.48318 725.384 2.8594C723.76 1.23562 721.559 0.321533 719.262 0.317339H412.872Z" fill="#E0E0E0"/>
<path d="M504.234 326.128H429.088V519.482H504.234V326.128Z" fill="#E0E0E0"/>
<path d="M489.954 519.482H504.234V478.879H474.992L489.954 519.482Z" fill="#F0F0F0"/>
<path d="M223.39 326.128H148.244V519.482H223.39V326.128Z" fill="#E0E0E0"/>
<path d="M504.218 326.128H210.935V494.571H504.218V326.128Z" fill="#F0F0F0"/>
<path d="M362.368 338.362V443.813H493.159V338.362H362.368Z" fill="#E0E0E0"/>
<path d="M222.009 338.377V443.829H352.8V338.377H222.009Z" fill="#E0E0E0"/>
<path d="M493.159 478.879V471.12H362.368V478.879H493.159Z" fill="#E0E0E0"/>
<path d="M352.8 478.879V471.12H222.009V478.879H352.8Z" fill="#E0E0E0"/>
<path d="M493.144 463.885V456.126H362.353V463.885H493.144Z" fill="#E0E0E0"/>
<path d="M352.785 463.901V456.142H221.994V463.901H352.785Z" fill="#E0E0E0"/>
<path d="M300.344 349.722H274.497C268.936 349.723 263.433 348.59 258.323 346.394C253.214 344.198 248.605 340.985 244.778 336.949H330.031C326.209 340.982 321.606 344.195 316.502 346.391C311.398 348.587 305.9 349.72 300.344 349.722Z" fill="#F0F0F0"/>
<path d="M442.02 349.722H416.157C410.596 349.725 405.092 348.593 399.982 346.397C394.872 344.201 390.264 340.986 386.438 336.949H471.739C467.913 340.986 463.305 344.201 458.195 346.397C453.086 348.593 447.582 349.725 442.02 349.722Z" fill="#F0F0F0"/>
<path d="M225.215 519.482H210.935V478.879H240.177L225.215 519.482Z" fill="#F0F0F0"/>
<path d="M502.616 30.1312H108.451V255.282H502.616V30.1312Z" fill="#E0E0E0"/>
<path d="M524.417 23.1815H95.2012C94.6668 23.1815 94.1542 23.3938 93.7763 23.7718C93.3984 24.1497 93.1861 24.6622 93.1861 25.1966C93.184 25.4626 93.2346 25.7263 93.3349 25.9727C93.4352 26.219 93.5833 26.443 93.7707 26.6318C93.958 26.8206 94.1808 26.9705 94.4264 27.0727C94.6719 27.175 94.9352 27.2276 95.2012 27.2276H524.417C524.683 27.2276 524.946 27.175 525.191 27.0727C525.437 26.9705 525.66 26.8206 525.847 26.6318C526.035 26.443 526.183 26.219 526.283 25.9727C526.383 25.7263 526.434 25.4626 526.432 25.1966C526.432 24.6622 526.219 24.1497 525.842 23.7718C525.464 23.3938 524.951 23.1815 524.417 23.1815Z" fill="#E0E0E0"/>
<path d="M511.247 30.1312H112.48V255.282H511.247V30.1312Z" fill="#E6E6E6"/>
<path d="M502.616 255.283H108.451V271.324H502.616V255.283Z" fill="#E0E0E0"/>
<path d="M525.623 255.283H126.856V271.324H525.623V255.283Z" fill="#E6E6E6"/>
<path d="M499.141 243.192V42.2218L124.555 42.2218V243.192L499.141 243.192Z" fill="#F5F5F5"/>
<path d="M309.944 243.192L380.885 42.2218H414.364L343.424 243.192H309.944Z" fill="#FAFAFA"/>
<path d="M350.627 243.192L421.568 42.2218H434.61L363.685 243.192H350.627Z" fill="#FAFAFA"/>
<path d="M499.141 243.192V42.2218H497.602V243.192H499.141Z" fill="#E0E0E0"/>
<path d="M124.698 19.5639H103.896V213.489H124.698V19.5639Z" fill="#EBEBEB"/>
<path d="M132.806 19.5639H116.605V213.489H132.806V19.5639Z" fill="#E0E0E0"/>
<path d="M145.5 19.5639H124.698V213.489H145.5V19.5639Z" fill="#EBEBEB"/>
<path d="M153.608 19.5639H137.408V213.489H153.608V19.5639Z" fill="#E0E0E0"/>
<path d="M166.301 19.5639H145.5V213.489H166.301V19.5639Z" fill="#EBEBEB"/>
<path d="M491.398 19.5639H479.418V213.489H491.398V19.5639Z" fill="#EBEBEB"/>
<path d="M496.095 19.5639H486.749V213.489H496.095V19.5639Z" fill="#E0E0E0"/>
<path d="M503.393 19.5639H491.414V213.489H503.393V19.5639Z" fill="#EBEBEB"/>
<path d="M508.074 19.5639H498.729V213.489H508.074V19.5639Z" fill="#E0E0E0"/>
<path d="M515.373 19.5639H503.393V213.489H515.373V19.5639Z" fill="#EBEBEB"/>
<path d="M624.41 103.69H597.817V176.25H624.41V103.69Z" fill="#E6E6E6"/>
<path d="M587.71 188.356L581.553 205.127H587.71L625.362 188.356H587.71Z" fill="#F0F0F0"/>
<path d="M581.553 188.356V205.127L619.221 188.356H581.553Z" fill="#E0E0E0"/>
<path d="M652.113 188.356L645.957 205.127H652.113L689.766 188.356H652.113Z" fill="#F0F0F0"/>
<path d="M645.957 188.356V205.127L683.625 188.356H645.957Z" fill="#E0E0E0"/>
<path d="M553.929 189.133H594.882V176.361H553.929V189.133Z" fill="#E0E0E0"/>
<path d="M711.726 176.361H594.866V189.133H711.726V176.361Z" fill="#F0F0F0"/>
<path d="M668.71 176.25H603.989L595.977 88.331H660.698L668.71 176.25Z" fill="#E0E0E0"/>
<path d="M672.058 176.25H607.337L599.34 88.331H664.061L672.058 176.25Z" fill="#F0F0F0"/>
<path d="M616.191 166.523L609.955 98.0574H655.207L661.443 166.523H616.191Z" fill="#FAFAFA"/>
<path d="M249.761 297.901C249.761 297.901 221.851 249.808 260.566 211.522C260.566 211.522 270.673 218.106 270.514 226.96C270.356 235.814 259.693 238.067 261.994 245.429C264.295 252.791 274.354 260.074 267.738 266.183C261.121 272.292 268.801 277.718 268.357 285.223C267.912 292.728 249.761 297.901 249.761 297.901Z" fill="#E0E0E0"/>
<path d="M251.872 302.296C251.872 302.296 263.185 247.857 214.378 223.723C214.378 223.723 206.873 233.164 209.808 241.51C212.744 249.856 223.565 248.634 223.724 256.361C223.882 264.089 216.615 274.148 224.803 277.861C232.99 281.574 227.437 289.158 230.229 296.108C233.022 303.058 251.872 302.296 251.872 302.296Z" fill="#E0E0E0"/>
<path d="M209.125 290.237C209.125 290.237 210.046 326.128 245.619 326.128C281.193 326.128 282.113 290.237 282.113 290.237H209.125Z" fill="#F0F0F0"/>
<path d="M628.884 519.482H632.518L642.863 468.454L644.688 459.521L655.969 403.987H699.27L722.737 519.482H726.371L702.459 401.782C702.375 401.381 702.156 401.022 701.838 400.765C701.52 400.508 701.123 400.368 700.714 400.369H654.525C654.117 400.366 653.721 400.505 653.405 400.763C653.089 401.021 652.874 401.381 652.796 401.782L642.879 450.62L641.022 459.553L628.884 519.482Z" fill="#EBEBEB"/>
<path d="M559.372 519.482H563.005L586.472 403.924H629.773L641.023 459.553L642.831 468.454L653.193 519.482H656.89L644.72 459.521L642.879 450.62L632.962 401.782C632.878 401.381 632.659 401.022 632.341 400.765C632.023 400.508 631.626 400.368 631.217 400.369H585.028C584.619 400.368 584.222 400.508 583.904 400.765C583.586 401.022 583.367 401.381 583.283 401.782L559.372 519.482Z" fill="#EBEBEB"/>
<path d="M666.108 402.147H586.552C579.25 402.144 572.241 399.28 567.026 394.169C561.811 389.059 558.807 382.108 558.658 374.808L555.691 253.87C555.651 251.18 556.145 248.508 557.146 246.011C558.147 243.513 559.633 241.239 561.52 239.32C563.406 237.401 565.654 235.876 568.135 234.833C570.615 233.79 573.278 233.249 575.969 233.243H625.838C630.831 233.243 635.65 235.079 639.375 238.404C643.1 241.728 645.472 246.307 646.037 251.268L666.108 402.147Z" fill="#E6E6E6"/>
<path d="M622.712 386.898H700.571C703.462 386.898 706.234 388.047 708.279 390.091C710.323 392.135 711.471 394.908 711.471 397.799V398.18C711.471 399.232 711.053 400.241 710.31 400.985C709.566 401.729 708.557 402.147 707.505 402.147H622.712V386.898Z" fill="#E6E6E6"/>
<path d="M396.673 591.137C566.579 591.137 704.316 583.096 704.316 573.176C704.316 563.256 566.579 555.214 396.673 555.214C226.766 555.214 89.0293 563.256 89.0293 573.176C89.0293 583.096 226.766 591.137 396.673 591.137Z" fill="#F5F5F5"/>
<path d="M295.997 116.273C296.003 113.317 295.764 110.367 295.283 107.451C293.157 94.5627 286.555 82.8368 276.639 74.3341C266.723 65.8314 254.127 61.0961 241.066 60.9606H240.59C231.827 60.9659 223.191 63.0549 215.395 67.0552C207.598 71.0555 200.865 76.8524 195.75 83.9676C194.909 85.1259 194.163 86.3159 193.402 87.506C193.34 87.5845 193.287 87.6696 193.243 87.7598C188.034 96.3744 185.29 106.253 185.31 116.32V116.431C185.342 128.131 189.082 139.52 195.992 148.962C202.902 158.403 212.626 165.412 223.769 168.982C234.911 172.551 246.898 172.498 258.008 168.829C269.118 165.16 278.779 158.065 285.604 148.562C286.429 147.403 287.191 146.229 287.937 145.023C287.999 144.945 288.052 144.86 288.095 144.77C293.298 136.177 296.032 126.317 295.997 116.273ZM187.674 115.019C187.857 105.96 190.389 97.1029 195.02 89.3148H212.331C209.686 97.6297 208.3 106.294 208.221 115.019H187.674ZM214.759 89.3148H239.448V115.019H210.601C210.654 106.288 212.056 97.6174 214.759 89.3148ZM241.828 86.9347V63.2613C245.259 63.5724 248.546 64.7939 251.348 66.7997C257.234 70.8298 262.169 77.9065 265.628 86.9347H241.828ZM266.485 89.3148C268.448 95.2586 269.725 101.407 270.293 107.641C270.531 110.116 270.642 112.576 270.674 115.019H241.828V89.3148H266.485ZM235.957 63.9277C237.096 63.6041 238.266 63.402 239.448 63.3248V86.9823H215.647C220.09 75.0187 227.293 66.3236 235.957 63.8801V63.9277ZM239.448 117.447V143.151H214.806C212.843 137.193 211.576 131.027 211.03 124.777C210.808 122.302 210.681 119.843 210.649 117.399L239.448 117.447ZM239.448 145.531V169.205C236.016 168.891 232.73 167.67 229.927 165.666C224.057 161.636 219.122 154.559 215.647 145.531H239.448ZM245.318 168.586C244.18 168.911 243.009 169.113 241.828 169.189V145.484H265.628C261.185 157.4 253.982 166.111 245.318 168.538V168.586ZM241.828 143.199V117.415H270.674C270.629 126.147 269.226 134.819 266.516 143.119L241.828 143.199ZM273.054 117.415H293.681C293.489 126.473 290.958 135.328 286.334 143.119H268.944C271.589 134.804 272.975 126.14 273.054 117.415ZM293.681 115.035H273.054C273.054 112.528 272.895 109.989 272.657 107.435C272.115 101.285 270.897 95.2133 269.023 89.3307H286.302C289.642 95.0001 291.896 101.242 292.951 107.736C293.329 110.147 293.551 112.58 293.617 115.019L293.681 115.035ZM271.673 73.2575C276.859 76.9931 281.331 81.6314 284.874 86.9506H268.151C264.597 77.129 259.249 69.3542 252.696 64.848L252.189 64.5148C259.185 66.0816 265.792 69.0503 271.61 73.2416L271.673 73.2575ZM229.039 64.5466C222.359 68.9417 216.869 76.9386 213.172 86.9506H196.512L197.67 85.2529C205.205 74.7342 216.349 67.3577 228.975 64.5307L229.039 64.5466ZM187.785 117.415H208.333C208.333 119.922 208.491 122.461 208.729 125.015C209.278 131.164 210.497 137.235 212.363 143.119H194.988C191.643 137.453 189.388 131.21 188.34 124.714C187.945 122.3 187.723 119.861 187.674 117.415H187.785ZM196.575 145.499H213.172C216.726 155.321 222.073 163.096 228.626 167.602L229.15 167.935C215.818 164.907 204.157 156.876 196.575 145.499ZM252.284 167.888C258.948 163.508 264.438 155.496 268.151 145.484H284.779C284.398 146.055 284.018 146.626 283.621 147.181C276.08 157.705 264.922 165.077 252.284 167.888Z" fill="#407BFF"/>
<path opacity="0.8" d="M295.997 116.273C296.003 113.317 295.764 110.367 295.283 107.451C293.157 94.5627 286.555 82.8368 276.639 74.3341C266.723 65.8314 254.127 61.0961 241.066 60.9606H240.59C231.827 60.9659 223.191 63.0549 215.395 67.0552C207.598 71.0555 200.865 76.8524 195.75 83.9676C194.909 85.1259 194.163 86.3159 193.402 87.506C193.34 87.5845 193.287 87.6696 193.243 87.7598C188.034 96.3744 185.29 106.253 185.31 116.32V116.431C185.342 128.131 189.082 139.52 195.992 148.962C202.902 158.403 212.626 165.412 223.769 168.982C234.911 172.551 246.898 172.498 258.008 168.829C269.118 165.16 278.779 158.065 285.604 148.562C286.429 147.403 287.191 146.229 287.937 145.023C287.999 144.945 288.052 144.86 288.095 144.77C293.298 136.177 296.032 126.317 295.997 116.273ZM187.674 115.019C187.857 105.96 190.389 97.1029 195.02 89.3148H212.331C209.686 97.6297 208.3 106.294 208.221 115.019H187.674ZM214.759 89.3148H239.448V115.019H210.601C210.654 106.288 212.056 97.6174 214.759 89.3148ZM241.828 86.9347V63.2613C245.259 63.5724 248.546 64.7939 251.348 66.7997C257.234 70.8298 262.169 77.9065 265.628 86.9347H241.828ZM266.485 89.3148C268.448 95.2586 269.725 101.407 270.293 107.641C270.531 110.116 270.642 112.576 270.674 115.019H241.828V89.3148H266.485ZM235.957 63.9277C237.096 63.6041 238.266 63.402 239.448 63.3248V86.9823H215.647C220.09 75.0187 227.293 66.3236 235.957 63.8801V63.9277ZM239.448 117.447V143.151H214.806C212.843 137.193 211.576 131.027 211.03 124.777C210.808 122.302 210.681 119.843 210.649 117.399L239.448 117.447ZM239.448 145.531V169.205C236.016 168.891 232.73 167.67 229.927 165.666C224.057 161.636 219.122 154.559 215.647 145.531H239.448ZM245.318 168.586C244.18 168.911 243.009 169.113 241.828 169.189V145.484H265.628C261.185 157.4 253.982 166.111 245.318 168.538V168.586ZM241.828 143.199V117.415H270.674C270.629 126.147 269.226 134.819 266.516 143.119L241.828 143.199ZM273.054 117.415H293.681C293.489 126.473 290.958 135.328 286.334 143.119H268.944C271.589 134.804 272.975 126.14 273.054 117.415ZM293.681 115.035H273.054C273.054 112.528 272.895 109.989 272.657 107.435C272.115 101.285 270.897 95.2133 269.023 89.3307H286.302C289.642 95.0001 291.896 101.242 292.951 107.736C293.329 110.147 293.551 112.58 293.617 115.019L293.681 115.035ZM271.673 73.2575C276.859 76.9931 281.331 81.6314 284.874 86.9506H268.151C264.597 77.129 259.249 69.3542 252.696 64.848L252.189 64.5148C259.185 66.0816 265.792 69.0503 271.61 73.2416L271.673 73.2575ZM229.039 64.5466C222.359 68.9417 216.869 76.9386 213.172 86.9506H196.512L197.67 85.2529C205.205 74.7342 216.349 67.3577 228.975 64.5307L229.039 64.5466ZM187.785 117.415H208.333C208.333 119.922 208.491 122.461 208.729 125.015C209.278 131.164 210.497 137.235 212.363 143.119H194.988C191.643 137.453 189.388 131.21 188.34 124.714C187.945 122.3 187.723 119.861 187.674 117.415H187.785ZM196.575 145.499H213.172C216.726 155.321 222.073 163.096 228.626 167.602L229.15 167.935C215.818 164.907 204.157 156.876 196.575 145.499ZM252.284 167.888C258.948 163.508 264.438 155.496 268.151 145.484H284.779C284.398 146.055 284.018 146.626 283.621 147.181C276.08 157.705 264.922 165.077 252.284 167.888Z" fill="#FAFAFA"/>
<path d="M657.35 142.643H158.495V263.517H657.35V142.643Z" fill="#407BFF"/>
<path opacity="0.6" d="M657.35 142.643H158.495V263.517H657.35V142.643Z" fill="#FAFAFA"/>
<path d="M646.1 153.893H147.245V274.767H646.1V153.893Z" fill="#407BFF"/>
<path opacity="0.3" d="M646.1 153.893H147.245V274.767H646.1V153.893Z" fill="black"/>
<path d="M634.851 165.143H135.996V286.017H634.851V165.143Z" fill="#407BFF"/>
<path opacity="0.1" d="M634.851 165.143H135.996V286.017H634.851V165.143Z" fill="#FAFAFA"/>
<path d="M611.051 262.216V188.943L159.796 188.943V262.216H611.051Z" fill="#407BFF"/>
<path opacity="0.9" d="M611.051 262.216V188.943L159.796 188.943V262.216H611.051Z" fill="#FAFAFA"/>
<path d="M535.143 188.943V262.216H537.793V188.943H535.143Z" fill="#407BFF"/>
<path opacity="0.6" d="M535.143 188.943V262.216H537.793V188.943H535.143Z" fill="#FAFAFA"/>
<path d="M171.045 199.05V252.109H173.695V199.05H171.045Z" fill="#407BFF"/>
<path opacity="0.6" d="M171.045 199.05V252.109H173.695V199.05H171.045Z" fill="#FAFAFA"/>
<path d="M571.891 234.83C569.966 234.829 568.07 234.354 566.372 233.446C564.675 232.537 563.227 231.225 562.158 229.624C561.089 228.022 560.431 226.182 560.242 224.266C560.054 222.35 560.341 220.417 561.078 218.639C561.815 216.86 562.979 215.29 564.467 214.069C565.955 212.847 567.722 212.012 569.61 211.636C571.498 211.26 573.45 211.356 575.293 211.914C577.135 212.473 578.812 213.477 580.173 214.838C581.812 216.475 582.928 218.562 583.38 220.835C583.833 223.107 583.601 225.462 582.714 227.602C581.827 229.742 580.326 231.572 578.399 232.858C576.472 234.145 574.208 234.831 571.891 234.83ZM571.891 214.6C569.915 214.6 568.001 215.286 566.475 216.54C564.949 217.794 563.904 219.538 563.52 221.476C563.136 223.413 563.435 225.424 564.368 227.166C565.3 228.907 566.808 230.271 568.634 231.026C570.459 231.78 572.49 231.878 574.38 231.302C576.27 230.727 577.901 229.514 578.997 227.87C580.092 226.226 580.584 224.254 580.387 222.288C580.191 220.322 579.319 218.486 577.92 217.091C577.137 216.283 576.2 215.639 575.165 215.198C574.129 214.756 573.016 214.526 571.891 214.52V214.6Z" fill="#407BFF"/>
<path d="M587.076 239.812C586.866 239.811 586.658 239.769 586.465 239.687C586.271 239.605 586.096 239.486 585.949 239.336L577.936 231.323C577.77 231.181 577.635 231.006 577.54 230.809C577.445 230.613 577.391 230.398 577.383 230.18C577.375 229.961 577.411 229.743 577.491 229.54C577.571 229.336 577.692 229.151 577.847 228.996C578.001 228.842 578.186 228.721 578.39 228.641C578.593 228.561 578.811 228.524 579.03 228.533C579.248 228.541 579.463 228.595 579.66 228.69C579.856 228.785 580.031 228.92 580.174 229.086L588.186 237.099C588.482 237.396 588.648 237.798 588.648 238.218C588.648 238.637 588.482 239.039 588.186 239.336C587.894 239.635 587.494 239.806 587.076 239.812Z" fill="#407BFF"/>
<g opacity="0.6">
<path opacity="0.6" d="M571.891 234.83C569.966 234.829 568.07 234.354 566.372 233.446C564.675 232.537 563.227 231.225 562.158 229.624C561.089 228.022 560.431 226.182 560.242 224.266C560.054 222.35 560.341 220.417 561.078 218.639C561.815 216.86 562.979 215.29 564.467 214.069C565.955 212.847 567.722 212.012 569.61 211.636C571.498 211.26 573.45 211.356 575.293 211.914C577.135 212.473 578.812 213.477 580.173 214.838C581.812 216.475 582.928 218.562 583.38 220.835C583.833 223.107 583.601 225.462 582.714 227.602C581.827 229.742 580.326 231.572 578.399 232.858C576.472 234.145 574.208 234.831 571.891 234.83ZM571.891 214.6C569.915 214.6 568.001 215.286 566.475 216.54C564.949 217.794 563.904 219.538 563.52 221.476C563.136 223.413 563.435 225.424 564.368 227.166C565.3 228.907 566.808 230.271 568.634 231.026C570.459 231.78 572.49 231.878 574.38 231.302C576.27 230.727 577.901 229.514 578.997 227.87C580.092 226.226 580.584 224.254 580.387 222.288C580.191 220.322 579.319 218.486 577.92 217.091C577.137 216.283 576.2 215.639 575.165 215.198C574.129 214.756 573.016 214.526 571.891 214.52V214.6Z" fill="#FAFAFA"/>
<path opacity="0.6" d="M587.075 239.812C586.865 239.811 586.658 239.769 586.464 239.687C586.271 239.606 586.096 239.486 585.949 239.336L577.936 231.324C577.77 231.181 577.635 231.006 577.54 230.809C577.444 230.613 577.391 230.398 577.383 230.18C577.374 229.961 577.411 229.743 577.491 229.54C577.57 229.336 577.691 229.151 577.846 228.996C578.001 228.842 578.186 228.721 578.389 228.641C578.593 228.561 578.811 228.524 579.029 228.533C579.248 228.541 579.462 228.595 579.659 228.69C579.856 228.785 580.031 228.92 580.173 229.086L588.186 237.099C588.482 237.396 588.647 237.799 588.647 238.218C588.647 238.637 588.482 239.039 588.186 239.336C587.893 239.635 587.494 239.806 587.075 239.812Z" fill="#FAFAFA"/>
</g>
<path d="M464.25 69.5764H414.364V70.814H464.25V69.5764Z" fill="#407BFF"/>
<path d="M464.25 74.8283H414.364V76.0659H464.25V74.8283Z" fill="#407BFF"/>
<path d="M464.25 80.0961H414.364V81.3337H464.25V80.0961Z" fill="#407BFF"/>
<path d="M464.25 85.3481H414.364V86.5857H464.25V85.3481Z" fill="#407BFF"/>
<path d="M464.25 90.6H414.364V91.8376H464.25V90.6Z" fill="#407BFF"/>
<path d="M446.891 95.8678H414.364V97.1054H446.891V95.8678Z" fill="#407BFF"/>
<g opacity="0.5">
<path opacity="0.5" d="M464.25 69.5764H414.365V70.814H464.25V69.5764Z" fill="#FAFAFA"/>
<path opacity="0.5" d="M464.25 74.8283H414.364V76.0659H464.25V74.8283Z" fill="#FAFAFA"/>
<path opacity="0.5" d="M464.25 80.0961H414.364V81.3337H464.25V80.0961Z" fill="#FAFAFA"/>
<path opacity="0.5" d="M464.25 85.3481H414.364V86.5857H464.25V85.3481Z" fill="#FAFAFA"/>
<path opacity="0.5" d="M464.25 90.6H414.364V91.8376H464.25V90.6Z" fill="#FAFAFA"/>
<path opacity="0.5" d="M446.891 95.8678H414.364V97.1054H446.891V95.8678Z" fill="#FAFAFA"/>
</g>
<path d="M163.985 296.457H110.831V297.25H163.985V296.457Z" fill="#407BFF"/>
<path d="M163.985 299.821H110.831V300.614H163.985V299.821Z" fill="#407BFF"/>
<path d="M163.985 303.185H110.831V303.978H163.985V303.185Z" fill="#407BFF"/>
<path d="M163.985 306.548H110.831V307.342H163.985V306.548Z" fill="#407BFF"/>
<path d="M163.985 309.912H110.831V310.706H163.985V309.912Z" fill="#407BFF"/>
<path d="M144.246 313.292H110.831V314.085H144.246V313.292Z" fill="#407BFF"/>
<g opacity="0.4">
<path opacity="0.4" d="M163.985 296.457H110.831V297.25H163.985V296.457Z" fill="#FAFAFA"/>
<path opacity="0.4" d="M163.985 299.821H110.831V300.614H163.985V299.821Z" fill="#FAFAFA"/>
<path opacity="0.4" d="M163.985 303.185H110.831V303.978H163.985V303.185Z" fill="#FAFAFA"/>
<path opacity="0.4" d="M163.985 306.548H110.831V307.342H163.985V306.548Z" fill="#FAFAFA"/>
<path opacity="0.4" d="M163.985 309.912H110.831V310.706H163.985V309.912Z" fill="#FAFAFA"/>
<path opacity="0.4" d="M144.246 313.292H110.831V314.085H144.246V313.292Z" fill="#FAFAFA"/>
</g>
<path d="M338.679 77.367C336.02 77.367 333.469 78.4235 331.588 80.3041C329.708 82.1847 328.651 84.7353 328.651 87.3949V120.477C328.651 123.137 329.708 125.688 331.588 127.568C333.469 129.449 336.02 130.505 338.679 130.505C341.339 130.505 343.889 129.449 345.77 127.568C347.651 125.688 348.707 123.137 348.707 120.477V87.3949C348.707 84.7353 347.651 82.1847 345.77 80.3041C343.889 78.4235 341.339 77.367 338.679 77.367Z" fill="#407BFF"/>
<path opacity="0.2" d="M338.679 77.367C336.02 77.367 333.469 78.4235 331.588 80.3041C329.708 82.1847 328.651 84.7353 328.651 87.3949V120.477C328.651 123.137 329.708 125.688 331.588 127.568C333.469 129.449 336.02 130.505 338.679 130.505C341.339 130.505 343.889 129.449 345.77 127.568C347.651 125.688 348.707 123.137 348.707 120.477V87.3949C348.707 84.7353 347.651 82.1847 345.77 80.3041C343.889 78.4235 341.339 77.367 338.679 77.367Z" fill="#FAFAFA"/>
<path d="M363.812 57.6444C361.161 57.657 358.623 58.7191 356.752 60.5983C354.882 62.4775 353.832 65.021 353.832 67.6723V120.477C353.832 123.137 354.889 125.688 356.769 127.568C358.65 129.449 361.2 130.505 363.86 130.505C366.519 130.505 369.07 129.449 370.951 127.568C372.831 125.688 373.888 123.137 373.888 120.477V67.6723C373.888 66.3514 373.627 65.0435 373.12 63.8238C372.613 62.604 371.87 61.4964 370.934 60.5646C369.998 59.6328 368.887 58.8952 367.664 58.3941C366.442 57.8929 365.133 57.6382 363.812 57.6444Z" fill="#407BFF"/>
<path opacity="0.3" d="M363.812 57.6444C361.161 57.657 358.623 58.7191 356.752 60.5983C354.882 62.4775 353.832 65.021 353.832 67.6723V120.477C353.832 123.137 354.889 125.688 356.769 127.568C358.65 129.449 361.2 130.505 363.86 130.505C366.519 130.505 369.07 129.449 370.951 127.568C372.831 125.688 373.888 123.137 373.888 120.477V67.6723C373.888 66.3514 373.627 65.0435 373.12 63.8238C372.613 62.604 371.87 61.4964 370.934 60.5646C369.998 59.6328 368.887 58.8952 367.664 58.3941C366.442 57.8929 365.133 57.6382 363.812 57.6444Z" fill="black"/>
<path d="M388.93 97.0896C386.271 97.0896 383.72 98.1461 381.839 100.027C379.959 101.907 378.902 104.458 378.902 107.117V120.477C378.902 123.137 379.959 125.688 381.839 127.568C383.72 129.449 386.271 130.505 388.93 130.505C390.248 130.507 391.554 130.249 392.773 129.746C393.991 129.243 395.098 128.505 396.031 127.574C396.964 126.642 397.704 125.536 398.209 124.319C398.714 123.101 398.974 121.796 398.974 120.477V107.117C398.974 105.799 398.714 104.494 398.209 103.276C397.704 102.059 396.964 100.952 396.031 100.021C395.098 99.0896 393.991 98.3513 392.773 97.8483C391.554 97.3453 390.248 97.0875 388.93 97.0896Z" fill="#407BFF"/>
<path opacity="0.6" d="M388.93 97.0896C386.271 97.0896 383.72 98.1461 381.839 100.027C379.959 101.907 378.902 104.458 378.902 107.117V120.477C378.902 123.137 379.959 125.688 381.839 127.568C383.72 129.449 386.271 130.505 388.93 130.505C390.248 130.507 391.554 130.249 392.773 129.746C393.991 129.243 395.098 128.505 396.031 127.574C396.964 126.642 397.704 125.536 398.209 124.319C398.714 123.101 398.974 121.796 398.974 120.477V107.117C398.974 105.799 398.714 104.494 398.209 103.276C397.704 102.059 396.964 100.952 396.031 100.021C395.098 99.0896 393.991 98.3513 392.773 97.8483C391.554 97.3453 390.248 97.0875 388.93 97.0896Z" fill="#FAFAFA"/>
<path d="M600.736 323.891H641.276L572.065 252.109L600.736 323.891Z" fill="#407BFF"/>
<g opacity="0.1">
<path opacity="0.1" d="M600.736 323.891H641.276L572.065 252.109L600.736 323.891Z" fill="black"/>
</g>
<g style="mix-blend-mode:multiply">
<path d="M561.768 286.001L572.066 252.109L577.905 286.001H561.768Z" fill="#407BFF"/>
</g>
<path d="M572.065 252.109V352.547L579.237 345.391L600.736 323.891L572.065 252.109Z" fill="#407BFF"/>
<path opacity="0.3" d="M572.065 252.109V352.547L579.237 345.391L600.736 323.891L572.065 252.109Z" fill="#FAFAFA"/>
<path d="M643.752 36.6684H554.898C550.394 36.6851 546.08 38.4803 542.894 41.6631C539.708 44.846 537.909 49.1586 537.888 53.6618V99.5489C537.909 104.049 539.706 108.36 542.889 111.542C546.071 114.724 550.381 116.521 554.882 116.542H620.079L619.603 132.584L636.057 116.542H643.72C648.224 116.526 652.538 114.73 655.724 111.548C658.91 108.365 660.709 104.052 660.73 99.5489V53.6618C660.709 49.1641 658.914 44.8562 655.735 41.6743C652.556 38.4923 648.25 36.6934 643.752 36.6684ZM552.898 56.2164C552.898 54.954 553.4 53.7432 554.292 52.8505C555.185 51.9578 556.396 51.4563 557.658 51.4563H578.111C579.373 51.4563 580.584 51.9578 581.477 52.8505C582.369 53.7432 582.871 54.954 582.871 56.2164C582.871 57.4789 582.369 58.6896 581.477 59.5823C580.584 60.475 579.373 60.9765 578.111 60.9765H557.642C556.383 60.9723 555.176 60.4689 554.287 59.5767C553.398 58.6845 552.898 57.4761 552.898 56.2164ZM638.706 100.644H603.355C602.671 100.764 601.969 100.732 601.298 100.552C600.627 100.372 600.004 100.047 599.472 99.5998C598.94 99.153 598.512 98.5952 598.219 97.9656C597.926 97.3359 597.774 96.6497 597.774 95.9551C597.774 95.2604 597.926 94.5742 598.219 93.9446C598.512 93.3149 598.94 92.7571 599.472 92.3103C600.004 91.8635 600.627 91.5386 601.298 91.3582C601.969 91.1779 602.671 91.1465 603.355 91.2664H638.706C639.391 91.1465 640.093 91.1779 640.764 91.3582C641.434 91.5386 642.058 91.8635 642.59 92.3103C643.121 92.7571 643.549 93.3149 643.842 93.9446C644.136 94.5742 644.288 95.2604 644.288 95.9551C644.288 96.6497 644.136 97.3359 643.842 97.9656C643.549 98.5952 643.121 99.153 642.59 99.5998C642.058 100.047 641.434 100.372 640.764 100.552C640.093 100.732 639.391 100.764 638.706 100.644ZM638.706 80.7942H562.403C561.718 80.9141 561.016 80.8828 560.345 80.7024C559.675 80.5221 559.051 80.1971 558.519 79.7503C557.988 79.3035 557.56 78.7457 557.267 78.1161C556.973 77.4864 556.821 76.8002 556.821 76.1056C556.821 75.4109 556.973 74.7247 557.267 74.0951C557.56 73.4654 557.988 72.9076 558.519 72.4608C559.051 72.014 559.675 71.6891 560.345 71.5087C561.016 71.3284 561.718 71.297 562.403 71.4169H638.706C639.391 71.297 640.093 71.3284 640.764 71.5087C641.434 71.6891 642.058 72.014 642.59 72.4608C643.121 72.9076 643.549 73.4654 643.842 74.0951C644.136 74.7247 644.288 75.4109 644.288 76.1056C644.288 76.8002 644.136 77.4864 643.842 78.1161C643.549 78.7457 643.121 79.3035 642.59 79.7503C642.058 80.1971 641.434 80.5221 640.764 80.7024C640.093 80.8828 639.391 80.9141 638.706 80.7942ZM638.706 60.9448H593.533C592.271 60.9448 591.06 60.4432 590.168 59.5506C589.275 58.6579 588.773 57.4471 588.773 56.1847C588.773 54.9222 589.275 53.7115 590.168 52.8188C591.06 51.9261 592.271 51.4246 593.533 51.4246H638.706C639.969 51.4246 641.18 51.9261 642.072 52.8188C642.965 53.7115 643.467 54.9222 643.467 56.1847C643.467 57.4471 642.965 58.6579 642.072 59.5506C641.18 60.4432 639.969 60.9448 638.706 60.9448Z" fill="#407BFF"/>
<path d="M504.79 182.12C500.995 171.696 495.201 162.113 487.733 153.909H361.575C354.107 162.113 348.313 171.696 344.518 182.12L361.972 269.007C375.324 283.482 393.275 292.888 412.776 295.627C432.277 298.366 452.125 294.27 468.948 284.034C485.771 273.798 498.532 258.053 505.063 239.475C511.594 220.897 511.491 200.631 504.774 182.12H504.79Z" fill="#407BFF"/>
<path opacity="0.1" d="M504.79 182.12C500.995 171.696 495.201 162.113 487.733 153.909H361.575C354.107 162.113 348.313 171.696 344.518 182.12L361.972 269.007C375.324 283.482 393.275 292.888 412.776 295.627C432.277 298.366 452.125 294.27 468.948 284.034C485.771 273.798 498.532 258.053 505.063 239.475C511.594 220.897 511.491 200.631 504.774 182.12H504.79Z" fill="#FAFAFA"/>
<path d="M509.819 215.171C508.918 235.206 500.96 254.276 487.352 269.007H362.003C351.421 257.509 344.198 243.326 341.12 228.006C338.043 212.685 339.229 196.813 344.55 182.12H504.805C508.654 192.695 510.359 203.93 509.819 215.171Z" fill="#407BFF"/>
<path opacity="0.9" d="M509.819 215.171C508.918 235.206 500.96 254.276 487.352 269.007H362.003C351.421 257.509 344.198 243.326 341.12 228.006C338.043 212.685 339.229 196.813 344.55 182.12H504.805C508.654 192.695 510.359 203.93 509.819 215.171Z" fill="#FAFAFA"/>
<path opacity="0.3" d="M509.819 215.171C508.832 236.254 500.043 256.217 485.159 271.181C470.275 286.145 450.359 295.041 429.282 296.141C408.205 297.24 387.471 290.465 371.111 277.131C354.75 263.797 343.931 244.857 340.756 223.992C337.58 203.126 342.275 181.825 353.929 164.228C365.582 146.631 383.361 133.994 403.811 128.774C424.261 123.554 445.922 126.123 464.584 135.982C483.245 145.841 497.576 162.285 504.789 182.12C508.638 192.695 510.348 203.93 509.819 215.171Z" fill="white"/>
<path opacity="0.4" d="M472.707 140.835L350.119 252.633C349.506 251.501 348.903 250.358 348.31 249.205C344.562 241.702 341.957 233.68 340.583 225.405L446.463 128.839C455.832 131.308 464.709 135.366 472.707 140.835Z" fill="white"/>
<path opacity="0.4" d="M505.504 184.167L390.326 289.269C378.378 283.998 367.803 276.05 359.417 266.04L485.273 151.259C494.445 160.537 501.366 171.795 505.504 184.167Z" fill="white"/>
<path d="M509.788 162.08C500.064 145.221 485.559 131.624 468.106 123.011C450.653 114.397 431.038 111.154 411.742 113.692C392.445 116.23 374.335 124.435 359.703 137.268C345.071 150.101 334.574 166.986 329.541 185.786C324.508 204.586 325.164 224.457 331.427 242.884C337.69 261.312 349.279 277.467 364.726 289.306C380.173 301.146 398.785 308.137 418.207 309.396C437.628 310.655 456.987 306.124 473.833 296.378C496.396 283.324 512.856 261.849 519.597 236.668C526.339 211.488 522.81 184.661 509.788 162.08ZM357.465 250.046C349.794 236.76 346.234 221.497 347.237 206.188C348.24 190.878 353.759 176.21 363.098 164.038C372.437 151.865 385.176 142.735 399.704 137.803C414.231 132.87 429.895 132.356 444.715 136.326C459.535 140.295 472.845 148.57 482.962 160.104C493.079 171.638 499.549 185.912 501.553 201.123C503.557 216.334 501.006 231.797 494.222 245.558C487.438 259.319 476.726 270.759 463.44 278.432C454.619 283.527 444.881 286.834 434.782 288.165C424.683 289.496 414.421 288.824 404.581 286.188C394.741 283.552 385.518 279.003 377.436 272.802C369.355 266.601 362.574 258.869 357.481 250.046H357.465Z" fill="#407BFF"/>
<path opacity="0.1" d="M509.788 162.08C500.064 145.221 485.559 131.624 468.106 123.011C450.653 114.397 431.038 111.154 411.742 113.692C392.445 116.23 374.335 124.435 359.703 137.268C345.071 150.101 334.574 166.986 329.541 185.786C324.508 204.586 325.164 224.457 331.427 242.884C337.69 261.312 349.279 277.467 364.726 289.306C380.173 301.146 398.785 308.137 418.207 309.396C437.628 310.655 456.987 306.124 473.833 296.378C496.396 283.324 512.856 261.849 519.597 236.668C526.339 211.488 522.81 184.661 509.788 162.08ZM357.465 250.046C349.794 236.76 346.234 221.497 347.237 206.188C348.24 190.878 353.759 176.21 363.098 164.038C372.437 151.865 385.176 142.735 399.704 137.803C414.231 132.87 429.895 132.356 444.715 136.326C459.535 140.295 472.845 148.57 482.962 160.104C493.079 171.638 499.549 185.912 501.553 201.123C503.557 216.334 501.006 231.797 494.222 245.558C487.438 259.319 476.726 270.759 463.44 278.432C454.619 283.527 444.881 286.834 434.782 288.165C424.683 289.496 414.421 288.824 404.581 286.188C394.741 283.552 385.518 279.003 377.436 272.802C369.355 266.601 362.574 258.869 357.481 250.046H357.465Z" fill="black"/>
<path d="M198.432 312.403L210.586 315.228L200.51 322.749C200.51 322.749 193.291 319.48 192.958 314.355L198.432 312.403Z" fill="#E4897B"/>
<path d="M217.091 323.32L208.332 329.159L200.51 322.749L210.585 315.243L217.091 323.32Z" fill="#E4897B"/>
<path d="M354.578 263.041C341.662 272.562 328.413 281.606 315.101 290.444C301.788 299.281 288.302 307.897 274.751 316.354C261.201 324.811 247.524 333.094 233.799 341.138C226.944 345.232 220.026 349.199 213.172 353.229C209.767 355.396 206.055 357.039 202.16 358.1C200.082 358.651 197.958 359.007 195.813 359.163C193.433 359.357 191.037 359.235 188.689 358.798C187.011 358.466 185.415 357.807 183.992 356.857C182.569 355.908 181.348 354.687 180.397 353.265C179.446 351.842 178.786 350.247 178.452 348.569C178.119 346.891 178.12 345.164 178.455 343.487C178.564 342.947 178.712 342.417 178.899 341.9C179.665 339.651 180.733 337.516 182.073 335.553C183.268 333.789 184.628 332.142 186.135 330.634C189.004 327.793 192.283 325.397 195.861 323.526C202.795 319.575 209.681 315.593 216.663 311.673C230.562 303.819 244.588 296.171 258.646 288.619C272.704 281.066 286.937 273.752 301.249 266.611C315.561 259.471 329.984 252.522 344.708 246.111C346.93 245.129 349.437 245.002 351.747 245.755C354.057 246.508 356.007 248.088 357.223 250.192C358.439 252.295 358.835 254.774 358.335 257.151C357.835 259.529 356.474 261.638 354.514 263.073L354.578 263.041Z" fill="#407BFF"/>
<path opacity="0.1" d="M354.578 263.041C341.662 272.562 328.413 281.606 315.101 290.444C301.788 299.281 288.302 307.897 274.751 316.354C261.201 324.811 247.524 333.094 233.799 341.138C226.944 345.232 220.026 349.199 213.172 353.229C209.767 355.396 206.055 357.039 202.16 358.1C200.082 358.651 197.958 359.007 195.813 359.163C193.433 359.357 191.037 359.235 188.689 358.798C187.011 358.466 185.415 357.807 183.992 356.857C182.569 355.908 181.348 354.687 180.397 353.265C179.446 351.842 178.786 350.247 178.452 348.569C178.119 346.891 178.12 345.164 178.455 343.487C178.564 342.947 178.712 342.417 178.899 341.9C179.665 339.651 180.733 337.516 182.073 335.553C183.268 333.789 184.628 332.142 186.135 330.634C189.004 327.793 192.283 325.397 195.861 323.526C202.795 319.575 209.681 315.593 216.663 311.673C230.562 303.819 244.588 296.171 258.646 288.619C272.704 281.066 286.937 273.752 301.249 266.611C315.561 259.471 329.984 252.522 344.708 246.111C346.93 245.129 349.437 245.002 351.747 245.755C354.057 246.508 356.007 248.088 357.223 250.192C358.439 252.295 358.835 254.774 358.335 257.151C357.835 259.529 356.474 261.638 354.514 263.073L354.578 263.041Z" fill="black"/>
<path d="M216.044 237.242C215.251 238.527 214.346 240.082 213.489 241.542C212.633 243.002 211.792 244.525 210.998 246.064C209.412 249.094 207.825 252.173 206.238 255.298C204.651 258.424 203.366 261.645 202.065 264.819C201.431 266.405 200.764 267.992 200.177 269.579L199.288 272.006C199.114 272.466 199.082 272.657 198.971 272.99C198.86 273.323 198.812 273.641 198.717 273.958C198.098 277.093 197.784 280.282 197.781 283.478C197.702 286.889 197.781 290.364 197.972 293.871C198.162 297.377 198.352 300.9 198.67 304.422C198.987 307.945 199.304 311.531 199.638 315.021L193.513 316.275C192.434 312.737 191.593 309.214 190.752 305.644C189.911 302.074 189.276 298.488 188.658 294.839C188.039 291.189 187.626 287.524 187.357 283.732C187.027 279.761 187.128 275.765 187.658 271.816C187.753 271.26 187.833 270.737 187.975 270.229C188.118 269.721 188.261 269.007 188.388 268.642L189.165 265.945C189.673 264.152 190.26 262.375 190.863 260.614C192.085 257.075 193.418 253.601 194.909 250.173C196.401 246.746 197.987 243.398 199.669 240.098C200.542 238.511 201.462 236.813 202.398 235.179C203.335 233.545 204.271 232.006 205.445 230.276L216.044 237.242Z" fill="#E4897B"/>
<path d="M209.269 564.862C208.198 564.828 207.134 564.679 206.095 564.417C206.04 564.408 205.988 564.382 205.949 564.342C205.909 564.302 205.882 564.251 205.873 564.195C205.863 564.138 205.87 564.079 205.892 564.026C205.915 563.972 205.952 563.926 206 563.894C206.429 563.608 210.173 561.196 211.617 561.847C211.778 561.92 211.915 562.036 212.016 562.181C212.116 562.326 212.176 562.496 212.188 562.672C212.263 562.955 212.258 563.252 212.174 563.532C212.09 563.812 211.93 564.064 211.712 564.259C210.997 564.748 210.129 564.962 209.269 564.862ZM206.841 564.005C208.999 564.433 210.617 564.354 211.236 563.783C211.372 563.652 211.472 563.488 211.525 563.307C211.577 563.126 211.582 562.935 211.538 562.751C211.536 562.67 211.511 562.592 211.466 562.524C211.421 562.457 211.358 562.403 211.284 562.37C210.538 562.037 208.364 563.084 206.841 564.005Z" fill="#407BFF"/>
<path d="M206.08 564.433C206.033 564.447 205.983 564.447 205.937 564.433C205.891 564.409 205.853 564.372 205.828 564.327C205.803 564.282 205.791 564.231 205.794 564.179C205.794 564.037 205.794 560.482 207.143 559.292C207.309 559.143 207.506 559.03 207.719 558.961C207.932 558.893 208.158 558.871 208.38 558.896C208.614 558.899 208.84 558.983 209.019 559.133C209.198 559.283 209.32 559.491 209.364 559.721C209.65 561.101 207.396 563.767 206.191 564.481C206.15 564.474 206.112 564.458 206.08 564.433ZM208.19 559.419C207.949 559.421 207.718 559.512 207.539 559.673C206.759 560.822 206.36 562.188 206.397 563.576C207.571 562.624 208.967 560.625 208.793 559.784C208.793 559.641 208.682 559.483 208.317 559.435L208.19 559.419Z" fill="#407BFF"/>
<path d="M265.469 564.862C264.162 564.842 262.86 564.693 261.582 564.417C261.521 564.41 261.464 564.383 261.421 564.34C261.378 564.297 261.351 564.24 261.344 564.179C261.337 564.119 261.348 564.058 261.376 564.004C261.405 563.95 261.449 563.906 261.502 563.878C262.058 563.592 266.977 561.085 268.484 561.91C268.629 561.985 268.752 562.095 268.841 562.232C268.93 562.368 268.982 562.525 268.992 562.688C269.026 562.949 268.995 563.216 268.901 563.462C268.807 563.709 268.652 563.928 268.452 564.1C267.575 564.689 266.521 564.958 265.469 564.862ZM262.55 564.005C265.295 564.465 267.31 564.338 268.071 563.672C268.198 563.554 268.294 563.407 268.352 563.244C268.41 563.081 268.428 562.907 268.405 562.735C268.404 562.67 268.386 562.607 268.353 562.551C268.319 562.495 268.271 562.449 268.214 562.418C267.389 561.974 264.565 563.037 262.55 564.005Z" fill="#407BFF"/>
<path d="M261.63 564.433C261.604 564.444 261.577 564.449 261.55 564.449C261.523 564.449 261.496 564.444 261.471 564.433C261.425 564.41 261.388 564.373 261.365 564.327C261.343 564.281 261.335 564.23 261.344 564.179C261.344 564.036 261.645 560.704 263.185 559.419C263.627 559.049 264.196 558.867 264.771 558.911C265.58 558.991 265.803 559.403 265.866 559.737C266.088 561.133 263.185 563.798 261.709 564.497L261.63 564.433ZM264.581 559.419C264.208 559.423 263.849 559.558 263.565 559.8C262.655 560.875 262.101 562.205 261.979 563.608C263.47 562.704 265.454 560.609 265.311 559.768C265.311 559.768 265.311 559.483 264.739 559.435L264.581 559.419Z" fill="#407BFF"/>
<path d="M234.83 189.594C235.798 197.003 238.004 212.029 232.641 216.567C232.641 216.567 234.227 224.12 247.746 224.993C262.693 225.96 255.362 218.043 255.362 218.043C247.333 215.568 247.936 209.522 249.729 203.937L234.83 189.594Z" fill="#E4897B"/>
<path d="M262.55 174.536C262.455 174.534 262.362 174.506 262.28 174.457C262.211 174.422 262.15 174.373 262.1 174.313C262.05 174.254 262.013 174.185 261.991 174.111C261.969 174.037 261.962 173.959 261.971 173.882C261.979 173.805 262.004 173.73 262.042 173.663C262.454 172.824 263.064 172.097 263.818 171.544C264.572 170.992 265.449 170.63 266.374 170.49C266.516 170.495 266.651 170.552 266.754 170.65C266.858 170.747 266.922 170.879 266.936 171.02C266.949 171.162 266.911 171.303 266.828 171.419C266.745 171.534 266.623 171.616 266.485 171.648C265.761 171.774 265.077 172.067 264.485 172.501C263.893 172.936 263.41 173.502 263.074 174.155C263.028 174.26 262.956 174.35 262.864 174.417C262.772 174.484 262.663 174.525 262.55 174.536Z" fill="#263238"/>
<path d="M266.818 181.041C267.911 183.22 269.299 185.239 270.943 187.039C270.472 187.449 269.917 187.751 269.316 187.923C268.716 188.096 268.085 188.135 267.468 188.039L266.818 181.041Z" fill="#DE5753"/>
<path d="M265.771 179.423C265.866 180.423 266.469 181.168 267.103 181.105C267.738 181.041 268.214 180.2 268.119 179.201C268.024 178.201 267.421 177.455 266.77 177.519C266.12 177.582 265.675 178.439 265.771 179.423Z" fill="#263238"/>
<path d="M266.564 177.598L268.881 176.694C268.881 176.694 267.77 178.661 266.564 177.598Z" fill="#263238"/>
<path d="M248.047 564.132H260.408L261.233 535.54H248.872L248.047 564.132Z" fill="#E4897B"/>
<path d="M191.926 564.132H204.287L208.253 535.54H195.909L191.926 564.132Z" fill="#E4897B"/>
<path d="M205.048 562.704H191.164C190.927 562.701 190.696 562.785 190.515 562.94C190.334 563.094 190.215 563.309 190.181 563.545L188.594 574.524C188.563 574.802 188.59 575.082 188.675 575.348C188.76 575.614 188.899 575.859 189.085 576.067C189.271 576.275 189.498 576.442 189.752 576.556C190.007 576.67 190.283 576.73 190.562 576.73C195.322 576.651 197.733 576.365 203.842 576.365C207.587 576.365 213.077 576.746 218.265 576.746C223.454 576.746 223.723 571.621 221.565 571.161C211.887 569.082 210.363 566.21 207.095 563.465C206.524 562.977 205.799 562.707 205.048 562.704Z" fill="#263238"/>
<path d="M260.82 562.704H246.953C246.714 562.698 246.481 562.78 246.3 562.936C246.118 563.091 246 563.308 245.969 563.545L244.382 574.525C244.353 574.803 244.383 575.083 244.47 575.349C244.556 575.615 244.697 575.86 244.884 576.068C245.071 576.275 245.3 576.442 245.555 576.556C245.81 576.67 246.086 576.729 246.366 576.73C251.126 576.651 253.537 576.365 259.63 576.365C263.391 576.365 271.15 576.746 276.338 576.746C281.527 576.746 281.796 571.621 279.639 571.161C269.96 569.082 266.152 566.21 262.883 563.465C262.308 562.974 261.577 562.704 260.82 562.704Z" fill="#263238"/>
<path d="M261.217 535.54L260.805 550.28H248.444L248.873 535.54H261.217Z" fill="#CE6F64"/>
<path d="M195.893 535.54H208.253L206.206 550.28H193.846L195.893 535.54Z" fill="#CE6F64"/>
<path d="M221.312 239.146C218.966 242.811 216.249 246.224 213.204 249.332L211.792 248.396L196.147 238.003C196.147 238.003 204.683 218.963 211.109 217.995C217.25 217.012 221.724 223.358 223.803 230.149C224.596 232.609 223.279 235.941 221.312 239.146Z" fill="#407BFF"/>
<path opacity="0.6" d="M221.312 239.146C218.966 242.811 216.249 246.224 213.204 249.332L211.792 248.396L196.147 238.003C196.147 238.003 204.683 218.963 211.109 217.995C217.25 217.012 221.724 223.358 223.803 230.149C224.596 232.609 223.279 235.941 221.312 239.146Z" fill="#FAFAFA"/>
<path d="M221.312 239.146C218.966 242.811 216.249 246.224 213.204 249.332L211.792 248.396C212.49 242.684 214.711 237.02 217.25 235.227C218.805 235.385 220.185 237.036 221.312 239.146Z" fill="#407BFF"/>
<path opacity="0.4" d="M221.312 239.146C218.966 242.811 216.249 246.224 213.204 249.332L211.792 248.396C212.49 242.684 214.711 237.02 217.25 235.227C218.805 235.385 220.185 237.036 221.312 239.146Z" fill="#FAFAFA"/>
<path d="M274.831 248.65C274.085 253.41 273.117 259.011 271.816 265.659C270.229 274.164 268.008 284.367 265.2 296.568L215.14 293.395C217.297 273.069 218.138 260.503 211.109 218.059C218.216 217.066 225.386 216.594 232.561 216.647C240.161 216.597 247.754 217.09 255.283 218.122C264.993 219.709 275.91 222.628 275.91 222.628C275.91 222.628 278.702 223.723 274.831 248.65Z" fill="#407BFF"/>
<path opacity="0.6" d="M274.831 248.65C274.085 253.41 273.117 259.011 271.816 265.659C270.229 274.164 268.008 284.367 265.2 296.568L215.14 293.395C217.297 273.069 218.138 260.503 211.109 218.059C218.216 217.066 225.386 216.594 232.561 216.647C240.161 216.597 247.754 217.09 255.283 218.122C264.993 219.709 275.91 222.628 275.91 222.628C275.91 222.628 278.702 223.723 274.831 248.65Z" fill="#FAFAFA"/>
<path d="M274.831 248.65C274.085 253.41 273.117 259.011 271.816 265.659C269.063 259.804 266.776 253.739 264.978 247.524H274.276L274.831 248.65Z" fill="#407BFF"/>
<path opacity="0.4" d="M274.831 248.65C274.085 253.41 273.117 259.011 271.816 265.659C269.063 259.804 266.776 253.739 264.978 247.524H274.276L274.831 248.65Z" fill="#FAFAFA"/>
<path d="M232.101 179.169C233.989 191.275 234.545 196.448 241.288 202.113C251.427 210.649 265.882 205.667 267.643 193.227C269.23 182.041 265.866 164.111 253.474 160.398C250.748 159.562 247.854 159.437 245.066 160.036C242.278 160.634 239.69 161.936 237.548 163.818C235.406 165.699 233.78 168.098 232.827 170.785C231.874 173.472 231.624 176.358 232.101 179.169Z" fill="#E4897B"/>
<path d="M251.967 295.711C251.967 295.711 251.173 317.75 249.269 345.549C247.683 368.874 245.287 396.228 241.939 418.029L241.844 418.632C235.83 457.221 209.19 547.408 209.19 547.408H192.339C192.339 547.408 206.222 460.299 209.269 422.059C216.996 325.478 197.638 314.545 215.14 293.252L251.967 295.711Z" fill="#407BFF"/>
<path opacity="0.3" d="M251.967 295.711C251.967 295.711 251.173 317.75 249.269 345.549C247.683 368.874 245.287 396.228 241.939 418.029L241.844 418.632C235.83 457.221 209.19 547.408 209.19 547.408H192.339C192.339 547.408 206.222 460.299 209.269 422.059C216.996 325.478 197.638 314.545 215.14 293.252L251.967 295.711Z" fill="black"/>
<path d="M249.269 345.549C247.682 368.874 245.286 396.228 241.939 418.029C236.242 389.707 226.881 348.342 239.447 321.241C242.446 328.937 245.937 337.632 249.269 345.549Z" fill="#407BFF"/>
<path opacity="0.4" d="M249.269 345.549C247.682 368.874 245.286 396.228 241.939 418.029C236.242 389.707 226.881 348.342 239.447 321.241C242.446 328.937 245.937 337.632 249.269 345.549Z" fill="black"/>
<path d="M265.2 296.584C265.2 296.584 279.48 381.218 278.623 418.886C277.782 458.077 263.423 547.408 263.423 547.408H246.731C246.731 547.408 249.364 460.346 247.889 421.869C246.302 379.917 228.531 294.188 228.531 294.188L265.2 296.584Z" fill="#407BFF"/>
<path opacity="0.3" d="M265.2 296.584C265.2 296.584 279.48 381.218 278.623 418.886C277.782 458.077 263.423 547.408 263.423 547.408H246.731C246.731 547.408 249.364 460.346 247.889 421.869C246.302 379.917 228.531 294.188 228.531 294.188L265.2 296.584Z" fill="black"/>
<path d="M243.874 548.201H266.263L268.008 540.696L243.081 540.871L243.874 548.201Z" fill="#263238"/>
<path d="M189.896 548.201H212.284L214.029 540.696L190.054 540.871L189.896 548.201Z" fill="#263238"/>
<path d="M214.568 290.364L212.029 294.712C211.823 295.045 212.22 295.426 212.791 295.458L265.295 298.869C265.739 298.869 266.136 298.71 266.183 298.425L266.929 293.966C266.929 293.665 266.596 293.379 266.104 293.347L215.33 290.047C215.187 290.04 215.045 290.065 214.913 290.12C214.782 290.175 214.664 290.258 214.568 290.364Z" fill="#263238"/>
<path d="M221.01 296.457L219.661 296.362C219.392 296.362 219.185 296.187 219.217 296.029L220.233 290.237C220.233 290.079 220.502 289.952 220.772 289.968L222.137 290.047C222.406 290.047 222.597 290.221 222.581 290.396L221.565 296.172C221.534 296.346 221.28 296.473 221.01 296.457Z" fill="#407BFF"/>
<path opacity="0.3" d="M221.01 296.457L219.661 296.362C219.392 296.362 219.185 296.187 219.217 296.029L220.233 290.237C220.233 290.079 220.502 289.952 220.772 289.968L222.137 290.047C222.406 290.047 222.597 290.221 222.581 290.396L221.565 296.172C221.534 296.346 221.28 296.473 221.01 296.457Z" fill="black"/>
<path d="M253.871 298.583L252.522 298.504C252.252 298.504 252.046 298.329 252.078 298.155L253.093 292.379C253.093 292.205 253.363 292.094 253.649 292.11L254.997 292.189C255.267 292.189 255.473 292.363 255.442 292.538L254.426 298.314C254.442 298.488 254.188 298.599 253.871 298.583Z" fill="#407BFF"/>
<path opacity="0.3" d="M253.871 298.583L252.522 298.504C252.252 298.504 252.046 298.329 252.078 298.155L253.093 292.379C253.093 292.205 253.363 292.094 253.649 292.11L254.997 292.189C255.267 292.189 255.473 292.363 255.442 292.538L254.426 298.314C254.442 298.488 254.188 298.599 253.871 298.583Z" fill="black"/>
<path d="M278.75 235.322C280.654 241.669 282.463 248.095 284.224 254.505L289.539 273.688L290.206 276.068L290.38 276.655L290.459 276.957V277.115C290.516 277.325 290.585 277.532 290.666 277.734C291.055 278.699 291.59 279.598 292.252 280.4C294.147 282.399 296.342 284.091 298.758 285.414C304.293 288.409 310.148 290.773 316.211 292.459L315.291 298.647C308.176 298.28 301.168 296.764 294.537 294.156C290.869 292.719 287.488 290.633 284.557 288C282.878 286.444 281.482 284.608 280.432 282.574C280.148 282.024 279.899 281.457 279.686 280.876L279.511 280.447L279.4 280.146L279.194 279.559L278.353 277.163C276.132 270.816 274.069 264.469 272.117 258.027C270.166 251.585 268.246 245.239 266.5 238.765L278.75 235.322Z" fill="#E4897B"/>
<path d="M275.91 222.565C282.256 224.644 288.92 245.397 288.92 245.397L266.009 255.267C266.009 255.267 256.489 231.974 260.709 226.706C264.93 221.438 268.627 220.185 275.91 222.565Z" fill="#407BFF"/>
<path opacity="0.6" d="M275.91 222.565C282.256 224.644 288.92 245.397 288.92 245.397L266.009 255.267C266.009 255.267 256.489 231.974 260.709 226.706C264.93 221.438 268.627 220.185 275.91 222.565Z" fill="#FAFAFA"/>
<path d="M263.66 159.7C259.614 154.702 228.356 151.132 226.69 164.746C215.583 172.521 226.119 192.608 227.706 197.717C220.042 199.844 195.353 208.285 213.425 224.691C231.498 241.098 258.598 238.305 263.898 221.327C267.611 209.459 255.822 189.594 256.076 182.644C256.329 175.694 270.594 168.189 263.66 159.7Z" fill="#263238"/>
<path d="M229.896 200.224C229.838 200.226 229.78 200.214 229.728 200.189C229.675 200.165 229.629 200.128 229.594 200.082C226.722 196.591 216.726 178.249 220.233 169.522C220.776 168.168 221.699 166.999 222.889 166.155C224.079 165.311 225.487 164.827 226.944 164.762C226.996 164.755 227.048 164.759 227.098 164.773C227.147 164.788 227.194 164.812 227.234 164.844C227.274 164.877 227.307 164.917 227.331 164.963C227.355 165.009 227.369 165.059 227.373 165.111C227.386 165.214 227.359 165.318 227.297 165.401C227.235 165.484 227.142 165.539 227.04 165.555C225.729 165.604 224.46 166.027 223.383 166.775C222.306 167.523 221.466 168.565 220.963 169.776C217.583 178.217 227.389 196.131 230.197 199.558C230.247 199.614 230.28 199.683 230.291 199.758C230.301 199.832 230.29 199.908 230.258 199.976C230.225 200.043 230.174 200.1 230.109 200.139C230.045 200.178 229.971 200.196 229.896 200.193V200.224Z" fill="#263238"/>
<path d="M253.6 181.898C253.954 184.215 255.071 186.348 256.774 187.959C259.027 190.117 261.153 188.642 261.359 185.897C261.55 183.437 260.598 179.359 257.932 178.217C255.266 177.075 253.267 179.153 253.6 181.898Z" fill="#E4897B"/>
<path d="M308.437 290.745L317.449 287.683L316.037 298.52C316.037 298.52 312.483 300.106 307.881 296.108L303.486 293.3L306.945 291.411C307.42 291.141 307.919 290.918 308.437 290.745Z" fill="#E4897B"/>
<path d="M323.748 287.651L320.988 297.124L316.037 298.504L317.449 287.683L323.748 287.651Z" fill="#E4897B"/>
</svg>
