<svg width="794" height="591" viewBox="0 0 794 591" fill="none" xmlns="http://www.w3.org/2000/svg">
<path d="M793.161 519.362H0V519.758H793.161V519.362Z" fill="#EBEBEB"/>
<path d="M713.685 544.886H661.146V545.282H713.685V544.886Z" fill="#EBEBEB"/>
<path d="M525.422 549.2H511.637V549.597H525.422V549.2Z" fill="#EBEBEB"/>
<path d="M659.561 530.164H629.119V530.561H659.561V530.164Z" fill="#EBEBEB"/>
<path d="M151.732 532.83H83.2188V533.226H151.732V532.83Z" fill="#EBEBEB"/>
<path d="M175.908 532.83H165.866V533.226H175.908V532.83Z" fill="#EBEBEB"/>
<path d="M357.16 539.524H208.554V539.92H357.16V539.524Z" fill="#EBEBEB"/>
<path d="M375.958 448.612H69.6553C67.2558 448.608 64.9559 447.651 63.2607 445.953C61.5654 444.255 60.6133 441.953 60.6133 439.554V8.97858C60.6342 6.59279 61.5955 4.31159 63.2885 2.63047C64.9815 0.949347 67.2694 0.00408698 69.6553 0H375.958C378.36 0 380.664 0.954312 382.363 2.653C384.062 4.35168 385.016 6.65559 385.016 9.0579V439.554C385.016 441.956 384.062 444.26 382.363 445.959C380.664 447.658 378.36 448.612 375.958 448.612ZM69.6553 0.317266C67.3609 0.321468 65.162 1.23585 63.5411 2.8597C61.9202 4.48356 61.0099 6.6842 61.0099 8.97858V439.554C61.0099 441.848 61.9202 444.049 63.5411 445.673C65.162 447.297 67.3609 448.211 69.6553 448.215H375.958C378.254 448.211 380.455 447.297 382.078 445.674C383.701 444.05 384.615 441.85 384.619 439.554V8.97858C384.615 6.68274 383.701 4.48214 382.078 2.85874C380.455 1.23533 378.254 0.321459 375.958 0.317266H69.6553Z" fill="#EBEBEB"/>
<path d="M719.095 448.612H412.777C410.376 448.608 408.074 447.652 406.376 445.954C404.679 444.256 403.723 441.955 403.719 439.554V8.97858C403.744 6.59135 404.709 4.31016 406.404 2.62948C408.1 0.948793 410.389 0.00404241 412.777 0H719.095C721.478 0.00825601 723.762 0.955361 725.452 2.63603C727.142 4.31671 728.101 6.59553 728.122 8.97858V439.554C728.122 441.951 727.172 444.25 725.48 445.948C723.788 447.645 721.492 448.603 719.095 448.612ZM412.777 0.317266C410.481 0.321459 408.28 1.23533 406.657 2.85874C405.033 4.48214 404.12 6.68274 404.115 8.97858V439.554C404.12 441.85 405.033 444.05 406.657 445.674C408.28 447.297 410.481 448.211 412.777 448.215H719.095C721.391 448.211 723.592 447.297 725.215 445.674C726.839 444.05 727.752 441.85 727.757 439.554V8.97858C727.752 6.68274 726.839 4.48214 725.215 2.85874C723.592 1.23533 721.391 0.321459 719.095 0.317266H412.777Z" fill="#EBEBEB"/>
<path d="M587.066 382.478V413.491L600.153 423.009H539L558.543 415.775V384.635L587.066 382.478Z" fill="#E0E0E0"/>
<path d="M412.793 422.12V519.822H713.671V422.12H412.793ZM417.711 428.465H659.276V460.398H417.711V428.465Z" fill="#E0E0E0"/>
<path d="M412.793 422.12V519.822H665.843V422.12H412.793ZM417.711 428.465H659.276V460.398H417.711V428.465Z" fill="#EBEBEB"/>
<path d="M417.725 460.382H461.762V428.45H417.725V460.382Z" fill="#E0E0E0"/>
<path d="M595.505 460.382H659.275V444.424H595.505V460.382Z" fill="#E0E0E0"/>
<path d="M550.454 460.382H591.477V450.896H550.454V460.382Z" fill="#E0E0E0"/>
<path d="M492.615 460.398H540.982V440.997H492.615V460.398Z" fill="#E0E0E0"/>
<path d="M611.241 467.33L612.415 471.153H628.104L629.278 467.33H659.275V509.717H581.26V467.33H611.241Z" fill="#E0E0E0"/>
<path d="M529.577 467.33L530.751 471.153H546.44L547.598 467.33H577.595V509.717H499.58V467.33H529.577Z" fill="#E0E0E0"/>
<path d="M447.913 467.33L449.087 471.153H464.76L465.934 467.33H495.931V509.717H417.916V467.33H447.913Z" fill="#E0E0E0"/>
<path d="M458.035 401.006H665.367C668.46 401.006 670.967 398.499 670.967 395.407V274.561C670.967 271.468 668.46 268.961 665.367 268.961H458.035C454.942 268.961 452.435 271.468 452.435 274.561V395.407C452.435 398.499 454.942 401.006 458.035 401.006Z" fill="#E0E0E0"/>
<path d="M452.894 401.006H660.226C663.319 401.006 665.826 398.499 665.826 395.407V274.561C665.826 271.468 663.319 268.961 660.226 268.961H452.894C449.802 268.961 447.295 271.468 447.295 274.561V395.407C447.295 398.499 449.802 401.006 452.894 401.006Z" fill="#E6E6E6"/>
<path d="M659.418 394.582V275.385H453.735V394.582H659.418Z" fill="#F0F0F0"/>
<path d="M692.571 45.2578H513.92V242.945H692.571V45.2578Z" fill="#E9E9E9"/>
<path d="M685.165 53.0942H521.773V235.521H685.165V53.0942Z" fill="#F4F4F4"/>
<path d="M567.951 53.0942L521.773 226.035V132.41L542.903 53.0942H567.951Z" fill="white"/>
<path d="M588.588 53.0942L539.888 235.521H530.703L579.403 53.0942H588.588Z" fill="white"/>
<path d="M685.164 102.841V196.482L674.821 235.521H649.773L685.164 102.841Z" fill="white"/>
<path d="M606.404 45.2578H600.059V242.945H606.404V45.2578Z" fill="#E9E9E9"/>
<path d="M689.13 85.3758H517.014V91.7211H689.13V85.3758Z" fill="#E9E9E9"/>
<path d="M113.216 215.311V264.503H182.808V215.311H113.216Z" fill="#E0E0E0"/>
<path d="M116.483 218.532V261.299H179.54V218.532H116.483Z" fill="#EBEBEB"/>
<path d="M137.359 153.54V202.732H206.951V153.54H137.359Z" fill="#E0E0E0"/>
<path d="M140.627 156.76V199.528H203.683V156.76H140.627Z" fill="#EBEBEB"/>
<path d="M240.312 215.327H196.021V277.987H240.312V215.327Z" fill="#E0E0E0"/>
<path d="M237.425 218.278H198.909V275.052H237.425V218.278Z" fill="#EBEBEB"/>
<path d="M265.502 133.124H216.311V202.716H265.502V133.124Z" fill="#E0E0E0"/>
<path d="M262.283 136.408H219.516V199.464H262.283V136.408Z" fill="#EBEBEB"/>
<path d="M309.841 253.843V215.327H255.351V253.843H309.841Z" fill="#E0E0E0"/>
<path d="M307.271 251.321V217.834H257.904V251.321H307.271Z" fill="#EBEBEB"/>
<path d="M101.525 326.005H273.514C277.23 326.009 280.793 327.488 283.419 330.118C286.046 332.747 287.521 336.312 287.521 340.028L306.557 461.318H106.49L87.4541 340.028C87.452 338.182 87.8149 336.354 88.5218 334.648C89.2288 332.943 90.2659 331.394 91.5735 330.091C92.8811 328.788 94.4335 327.756 96.1413 327.054C97.8491 326.353 99.6787 325.997 101.525 326.005Z" fill="#EBEBEB"/>
<path d="M306.049 372.912L305.842 372.294H372.468V519.822H289.979V389.981C289.917 385.606 291.559 381.379 294.558 378.193C297.557 375.008 301.678 373.114 306.049 372.912Z" fill="#E0E0E0"/>
<path d="M373.166 372.881C377.696 372.889 382.037 374.695 385.237 377.901C388.437 381.107 390.235 385.451 390.235 389.981V519.822H356.065V389.981C356.065 385.446 357.867 381.096 361.074 377.889C364.281 374.682 368.631 372.881 373.166 372.881Z" fill="#F0F0F0"/>
<path d="M114.104 372.912L113.898 372.294H180.524V519.822H98.0349V389.981C97.9726 385.606 99.6147 381.379 102.614 378.193C105.613 375.008 109.734 373.114 114.104 372.912Z" fill="#E0E0E0"/>
<path d="M198.322 519.822H344.914V415.918H198.322V519.822Z" fill="#E0E0E0"/>
<path d="M335.364 441.283L170.387 441.283V405.258H335.364C340.144 405.258 344.727 407.156 348.107 410.536C351.486 413.915 353.385 418.499 353.385 423.278C353.381 428.055 351.48 432.634 348.101 436.01C344.722 439.387 340.141 441.283 335.364 441.283Z" fill="#F5F5F5"/>
<path d="M181.222 372.881C185.751 372.889 190.093 374.695 193.293 377.901C196.493 381.107 198.29 385.451 198.29 389.981V519.822H164.121V389.981C164.121 385.446 165.923 381.096 169.13 377.889C172.337 374.682 176.686 372.881 181.222 372.881Z" fill="#F0F0F0"/>
<path d="M134.504 463.111H106.49L87.4541 340.028C87.452 338.182 87.8149 336.354 88.5218 334.648C89.2288 332.943 90.2659 331.394 91.5735 330.091C92.8811 328.788 94.4335 327.756 96.1413 327.054C97.8491 326.353 99.6787 325.997 101.525 326.005C103.366 326.005 105.19 326.368 106.891 327.072C108.593 327.777 110.138 328.81 111.441 330.112C112.743 331.414 113.776 332.96 114.48 334.662C115.185 336.363 115.548 338.187 115.548 340.028L134.504 463.111Z" fill="#E0E0E0"/>
<path d="M94.1166 32.4879V79.3161C94.1239 79.9224 94.2547 80.5208 94.5012 81.0747C94.7476 81.6287 95.1045 82.1266 95.5499 82.5379C95.9954 82.9492 96.5201 83.2653 97.0919 83.4669C97.6637 83.6684 98.2707 83.7512 98.8756 83.7102H257.222C257.222 83.7102 275.528 75.1758 274.228 63.2467C273.196 53.7287 272.118 45.9716 271.229 40.0705C270.707 36.6054 268.954 33.4444 266.291 31.1663C263.629 28.8882 260.235 27.6454 256.73 27.6655H98.8756C98.2453 27.6654 97.6212 27.7906 97.0396 28.0337C96.4581 28.2768 95.9306 28.633 95.4879 29.0817C95.0451 29.5303 94.6959 30.0625 94.4605 30.6472C94.2251 31.2319 94.1082 31.8576 94.1166 32.4879Z" fill="#F5F5F5"/>
<path d="M94.1162 32.4879V79.3161C94.1235 79.9224 94.2543 80.5208 94.5008 81.0747C94.7472 81.6287 95.1041 82.1266 95.5496 82.5379C95.995 82.9492 96.5197 83.2653 97.0915 83.4669C97.6633 83.6684 98.2703 83.7512 98.8752 83.7102H112.851C112.851 83.7102 131.157 75.1758 129.856 63.2466C128.809 53.7763 127.746 46.0033 126.905 40.1181C126.383 36.653 124.63 33.492 121.968 31.2139C119.305 28.9357 115.911 27.693 112.407 27.713H98.9228C98.2925 27.7067 97.6672 27.8257 97.0833 28.063C96.4994 28.3004 95.9684 28.6513 95.5212 29.0955C95.0741 29.5398 94.7196 30.0684 94.4784 30.6507C94.2372 31.2331 94.1141 31.8576 94.1162 32.4879Z" fill="#E6E6E6"/>
<path d="M270.594 67.0697H132.267C132.267 67.0697 127.699 77.1904 119.941 81.3466H255.096C255.096 81.3466 269.405 74.8109 270.594 67.0697Z" fill="#E0E0E0"/>
<path d="M261.045 76.6035H127.509L129.492 81.3783H261.045V76.6035Z" fill="#EBEBEB"/>
<path d="M265.82 70.6389H132.268L134.266 75.4137H265.82V70.6389Z" fill="#EBEBEB"/>
<path d="M137.042 64.8806H140.421V63.4846H137.042V64.8806Z" fill="#E0E0E0"/>
<path d="M141.801 64.8806H145.18V63.4846H141.801V64.8806Z" fill="#E0E0E0"/>
<path d="M396.581 591C566.448 591 704.153 582.96 704.153 573.043C704.153 563.125 566.448 555.086 396.581 555.086C226.713 555.086 89.0088 563.125 89.0088 573.043C89.0088 582.96 226.713 591 396.581 591Z" fill="#F5F5F5"/>
<path d="M143.88 458.606C144.213 460.938 137.883 462.476 132.775 463.365C133.204 467.6 135.948 471.883 139.898 475.881C144.8 473.12 151.78 469.535 153.08 470.376C154.381 471.217 147.274 475.896 142.769 478.657C145.97 481.443 149.357 484.008 152.906 486.334C155.095 484.288 157.665 482.48 159.251 483.463C160.837 484.447 160.409 487.635 159.616 490.475C164.946 493.568 168.928 495.456 168.928 495.456C170.478 490.509 171.67 485.456 172.497 480.338C172.227 479.815 171.958 479.275 171.704 478.752C170.847 476.769 171.704 475.928 173.1 475.659C173.503 472.039 173.535 468.387 173.195 464.761C167.167 463.491 159.838 461.16 162.582 457.543C164.169 455.369 167.341 455.116 170.419 455.655C169.991 454.935 169.491 454.26 168.928 453.64C157.966 441.553 150.32 453.64 150.32 453.64C143.975 448.326 134.98 449.754 133.045 458.066C136.614 457.099 143.467 455.734 143.88 458.606Z" fill="#407BFF"/>
<path opacity="0.3" d="M143.88 458.606C144.213 460.938 137.883 462.476 132.775 463.365C133.204 467.6 135.948 471.883 139.898 475.881C144.8 473.12 151.78 469.535 153.08 470.376C154.381 471.217 147.274 475.896 142.769 478.657C145.97 481.443 149.357 484.008 152.906 486.334C155.095 484.288 157.665 482.48 159.251 483.463C160.837 484.447 160.409 487.635 159.616 490.475C164.946 493.568 168.928 495.456 168.928 495.456C170.478 490.509 171.67 485.456 172.497 480.338C172.227 479.815 171.958 479.275 171.704 478.752C170.847 476.769 171.704 475.928 173.1 475.659C173.503 472.039 173.535 468.387 173.195 464.761C167.167 463.491 159.838 461.16 162.582 457.543C164.169 455.369 167.341 455.116 170.419 455.655C169.991 454.935 169.491 454.26 168.928 453.64C157.966 441.553 150.32 453.64 150.32 453.64C143.975 448.326 134.98 449.754 133.045 458.066C136.614 457.099 143.467 455.734 143.88 458.606Z" fill="white"/>
<path d="M157.569 547.424L155.983 547.297C155.983 546.472 162.471 465.554 144.307 457.923C143.441 457.522 142.493 457.326 141.538 457.351C140.583 457.375 139.647 457.62 138.803 458.066C132.251 461.477 129.11 475.643 129.079 475.785L127.492 475.452C127.619 474.85 130.823 460.414 138.041 456.654C139.093 456.1 140.257 455.794 141.446 455.761C142.634 455.728 143.814 455.969 144.894 456.464C164.136 464.538 157.839 544.108 157.569 547.424Z" fill="#407BFF"/>
<path d="M159.853 545.695C159.536 542.062 152.112 456.448 165.977 447.343C169.308 445.154 172.322 444.694 174.781 445.963C181.332 449.278 182.189 463.269 182.22 463.872L180.634 463.967C180.634 463.825 179.793 450.277 174.067 447.39C172.084 446.391 169.657 446.819 166.849 448.659C153.778 457.241 161.36 544.664 161.424 545.552L159.853 545.695Z" fill="#407BFF"/>
<path d="M161.932 552.595C161.837 549.803 159.552 484.272 172.164 478.53C173.341 477.981 174.624 477.697 175.923 477.697C177.222 477.697 178.505 477.981 179.683 478.53C188.344 482.337 193.69 498.486 193.96 499.152L192.453 499.644C192.453 499.485 187.091 483.495 179.08 479.973C178.111 479.511 177.052 479.271 175.979 479.271C174.906 479.271 173.846 479.511 172.877 479.973C163.201 484.367 162.868 533.908 163.566 552.532L161.932 552.595Z" fill="#407BFF"/>
<path d="M158.727 549.597L157.141 549.423C159.378 529.911 163.629 477.927 156.681 471.693C156.344 471.286 155.897 470.985 155.393 470.828C154.889 470.67 154.35 470.662 153.841 470.804C149.114 472.724 146.338 489.539 145.64 495.916L144.054 495.741C144.323 493.298 146.862 471.82 153.254 469.377C154.03 469.111 154.868 469.08 155.661 469.289C156.454 469.498 157.168 469.937 157.712 470.551C166.706 478.562 159.06 546.694 158.727 549.597Z" fill="#407BFF"/>
<path d="M132.252 512.62H189.248L184.49 576.453H137.011L132.252 512.62Z" fill="#263238"/>
<path opacity="0.2" d="M149.559 512.62L151.145 576.453H184.489L189.248 512.62H149.559Z" fill="white"/>
<path d="M140.008 489.19C139.422 490.776 134.996 489.523 131.522 488.286C130.332 491.046 130.602 494.631 131.633 498.438C135.583 498.438 141.151 498.565 141.642 499.564C142.134 500.564 136.17 501.04 132.473 501.151C133.492 503.971 134.706 506.716 136.106 509.368C138.152 508.844 140.357 508.622 140.96 509.749C141.563 510.875 140.246 512.715 138.787 514.19C141.008 517.934 142.816 520.536 142.816 520.536C145.473 518.003 147.938 515.278 150.193 512.382C150.193 511.969 150.193 511.541 150.193 511.113C150.351 509.527 151.16 509.352 152.128 509.669C153.615 507.572 154.885 505.329 155.919 502.975C152.636 500.136 148.908 496.186 151.842 494.885C153.619 494.123 155.57 494.996 157.315 496.471C157.306 495.878 157.231 495.287 157.093 494.71C154.476 483.495 145.624 488.365 145.624 488.365C143.514 482.908 137.486 480.735 133.457 485.192C136.059 485.763 140.754 487.27 140.008 489.19Z" fill="#407BFF"/>
<path opacity="0.3" d="M140.008 489.19C139.422 490.776 134.996 489.523 131.522 488.286C130.332 491.046 130.602 494.631 131.633 498.438C135.583 498.438 141.151 498.565 141.642 499.564C142.134 500.564 136.17 501.04 132.473 501.151C133.492 503.971 134.706 506.716 136.106 509.368C138.152 508.844 140.357 508.622 140.96 509.749C141.563 510.875 140.246 512.715 138.787 514.19C141.008 517.934 142.816 520.536 142.816 520.536C145.473 518.003 147.938 515.278 150.193 512.382C150.193 511.969 150.193 511.541 150.193 511.113C150.351 509.527 151.16 509.352 152.128 509.669C153.615 507.572 154.885 505.329 155.919 502.975C152.636 500.136 148.908 496.186 151.842 494.885C153.619 494.123 155.57 494.996 157.315 496.471C157.306 495.878 157.231 495.287 157.093 494.71C154.476 483.495 145.624 488.365 145.624 488.365C143.514 482.908 137.486 480.735 133.457 485.192C136.059 485.763 140.754 487.27 140.008 489.19Z" fill="white"/>
<path d="M182.332 496.772C180.559 496.92 178.811 497.287 177.129 497.867C176.67 496.658 176.408 495.383 176.351 494.092C175.987 482.607 184.283 487.445 188.566 484.066C189.557 483.204 190.715 482.555 191.968 482.162C193.221 481.769 194.542 481.64 195.847 481.782C195.472 482.418 195.144 483.081 194.864 483.765C194.759 484.014 194.714 484.285 194.73 484.555C194.746 484.825 194.823 485.088 194.956 485.324C195.089 485.559 195.275 485.762 195.498 485.915C195.721 486.068 195.976 486.168 196.244 486.208C197.315 486.419 198.426 486.286 199.417 485.827C199.711 485.666 199.987 485.475 200.242 485.256C200.936 486.46 201.47 487.751 201.828 489.095C202.257 490.701 202.508 492.351 202.573 494.012C201.916 494.151 201.269 494.337 200.638 494.567C200.389 494.676 200.168 494.839 199.991 495.045C199.814 495.252 199.686 495.495 199.618 495.758C199.549 496.021 199.541 496.296 199.594 496.562C199.647 496.829 199.76 497.08 199.924 497.296C200.616 497.984 201.421 498.547 202.304 498.962C202.005 500.8 201.516 502.602 200.844 504.339L200.257 504.434C199.845 504.514 199.432 504.625 199.02 504.736L198.338 504.99C198.056 505.113 197.809 505.306 197.62 505.55C197.432 505.794 197.308 506.081 197.259 506.386C197.233 506.686 197.282 506.988 197.401 507.265C197.52 507.541 197.705 507.784 197.941 507.972C198.211 508.17 198.498 508.346 198.798 508.495C197.701 510.391 196.133 511.97 194.245 513.08C192.578 512.325 190.957 511.472 189.391 510.526C189.74 510.066 190.089 509.606 190.406 509.13C190.78 508.605 190.954 507.964 190.898 507.322C190.796 506.694 190.462 506.128 189.962 505.735C189.708 505.538 189.417 505.393 189.107 505.309C188.797 505.225 188.473 505.202 188.154 505.243C187.526 505.346 186.96 505.68 186.567 506.179C186.187 506.75 185.758 507.29 185.346 507.766C183.151 506.147 181.187 504.237 179.508 502.087H179.683C180.723 501.816 181.784 501.635 182.855 501.547C183.395 501.37 183.856 501.009 184.159 500.528C184.462 500.047 184.587 499.476 184.514 498.912C184.441 498.348 184.173 497.828 183.757 497.44C183.342 497.053 182.804 496.822 182.237 496.788L182.332 496.772Z" fill="#407BFF"/>
<path opacity="0.5" d="M182.332 496.772C180.559 496.92 178.811 497.287 177.129 497.867C176.67 496.658 176.408 495.383 176.351 494.092C175.987 482.607 184.283 487.445 188.566 484.066C189.557 483.204 190.715 482.555 191.968 482.162C193.221 481.769 194.542 481.64 195.847 481.782C195.472 482.418 195.144 483.081 194.864 483.765C194.759 484.014 194.714 484.285 194.73 484.555C194.746 484.825 194.823 485.088 194.956 485.324C195.089 485.559 195.275 485.762 195.498 485.915C195.721 486.068 195.976 486.168 196.244 486.208C197.315 486.419 198.426 486.286 199.417 485.827C199.711 485.666 199.987 485.475 200.242 485.256C200.936 486.46 201.47 487.751 201.828 489.095C202.257 490.701 202.508 492.351 202.573 494.012C201.916 494.151 201.269 494.337 200.638 494.567C200.389 494.676 200.168 494.839 199.991 495.045C199.814 495.252 199.686 495.495 199.618 495.758C199.549 496.021 199.541 496.296 199.594 496.562C199.647 496.829 199.76 497.08 199.924 497.296C200.616 497.984 201.421 498.547 202.304 498.962C202.005 500.8 201.516 502.602 200.844 504.339L200.257 504.434C199.845 504.514 199.432 504.625 199.02 504.736L198.338 504.99C198.056 505.113 197.809 505.306 197.62 505.55C197.432 505.794 197.308 506.081 197.259 506.386C197.233 506.686 197.282 506.988 197.401 507.265C197.52 507.541 197.705 507.784 197.941 507.972C198.211 508.17 198.498 508.346 198.798 508.495C197.701 510.391 196.133 511.97 194.245 513.08C192.578 512.325 190.957 511.472 189.391 510.526C189.74 510.066 190.089 509.606 190.406 509.13C190.78 508.605 190.954 507.964 190.898 507.322C190.796 506.694 190.462 506.128 189.962 505.735C189.708 505.538 189.417 505.393 189.107 505.309C188.797 505.225 188.473 505.202 188.154 505.243C187.526 505.346 186.96 505.68 186.567 506.179C186.187 506.75 185.758 507.29 185.346 507.766C183.151 506.147 181.187 504.237 179.508 502.087H179.683C180.723 501.816 181.784 501.635 182.855 501.547C183.395 501.37 183.856 501.009 184.159 500.528C184.462 500.047 184.587 499.476 184.514 498.912C184.441 498.348 184.173 497.828 183.757 497.44C183.342 497.053 182.804 496.822 182.237 496.788L182.332 496.772Z" fill="white"/>
<path d="M185.599 457.146C186.58 456.443 187.646 455.868 188.772 455.433C188.482 454.598 188.059 453.816 187.519 453.117C182.665 446.914 180.476 453.117 176.7 453.212C175.813 453.199 174.933 453.368 174.115 453.709C173.296 454.05 172.556 454.556 171.941 455.195C172.412 455.37 172.873 455.571 173.321 455.798C173.487 455.883 173.632 456.006 173.743 456.156C173.855 456.306 173.93 456.48 173.964 456.664C173.998 456.848 173.989 457.037 173.938 457.217C173.887 457.397 173.795 457.562 173.67 457.701C173.2 458.298 172.548 458.727 171.814 458.923C171.582 458.939 171.349 458.939 171.116 458.923C171.293 459.858 171.58 460.769 171.973 461.635C172.454 462.667 173.05 463.641 173.749 464.538C174.154 464.325 174.573 464.139 175.003 463.983C175.181 463.927 175.37 463.913 175.555 463.941C175.74 463.97 175.916 464.041 176.069 464.148C176.223 464.255 176.349 464.396 176.439 464.56C176.529 464.724 176.581 464.907 176.589 465.094C176.532 465.76 176.354 466.41 176.066 467.013C177.044 467.856 178.107 468.595 179.238 469.218L179.587 468.996L180.38 468.615C180.533 468.546 180.692 468.493 180.856 468.457C181.057 468.394 181.271 468.385 181.477 468.429C181.682 468.474 181.873 468.571 182.03 468.71C182.188 468.857 182.305 469.043 182.369 469.249C182.433 469.455 182.442 469.674 182.395 469.884C182.341 470.105 182.272 470.323 182.189 470.535C183.593 471.05 185.107 471.192 186.583 470.947C187.132 469.821 187.609 468.66 188.011 467.473L186.868 467.188C186.445 467.073 186.075 466.815 185.821 466.458C185.583 466.08 185.504 465.625 185.599 465.189C185.642 464.973 185.729 464.769 185.854 464.589C185.98 464.409 186.142 464.256 186.329 464.142C186.706 463.904 187.162 463.824 187.598 463.92C188.042 464.047 188.502 464.142 188.946 464.253C189.397 462.444 189.595 460.58 189.533 458.717H189.422C188.744 459.033 188.097 459.41 187.487 459.843C187.303 459.962 187.097 460.043 186.881 460.082C186.665 460.121 186.444 460.117 186.23 460.071C186.015 460.025 185.812 459.937 185.632 459.812C185.452 459.687 185.298 459.528 185.179 459.343C185.06 459.159 184.979 458.953 184.94 458.737C184.901 458.521 184.904 458.3 184.951 458.086C184.997 457.871 185.085 457.668 185.21 457.488C185.335 457.308 185.494 457.154 185.679 457.035L185.599 457.146Z" fill="#407BFF"/>
<path opacity="0.3" d="M185.599 457.146C186.58 456.443 187.646 455.868 188.772 455.433C188.482 454.598 188.059 453.816 187.519 453.117C182.665 446.914 180.476 453.117 176.7 453.212C175.813 453.199 174.933 453.368 174.115 453.709C173.296 454.05 172.556 454.556 171.941 455.195C172.412 455.37 172.873 455.571 173.321 455.798C173.487 455.883 173.632 456.006 173.743 456.156C173.855 456.306 173.93 456.48 173.964 456.664C173.998 456.848 173.989 457.037 173.938 457.217C173.887 457.397 173.795 457.562 173.67 457.701C173.2 458.298 172.548 458.727 171.814 458.923C171.582 458.939 171.349 458.939 171.116 458.923C171.293 459.858 171.58 460.769 171.973 461.635C172.454 462.667 173.05 463.641 173.749 464.538C174.154 464.325 174.573 464.139 175.003 463.983C175.181 463.927 175.37 463.913 175.555 463.941C175.74 463.97 175.916 464.041 176.069 464.148C176.223 464.255 176.349 464.396 176.439 464.56C176.529 464.724 176.581 464.907 176.589 465.094C176.532 465.76 176.354 466.41 176.066 467.013C177.044 467.856 178.107 468.595 179.238 469.218L179.587 468.996L180.38 468.615C180.533 468.546 180.692 468.493 180.856 468.457C181.057 468.394 181.271 468.385 181.477 468.429C181.682 468.474 181.873 468.571 182.03 468.71C182.188 468.857 182.305 469.043 182.369 469.249C182.433 469.455 182.442 469.674 182.395 469.884C182.341 470.105 182.272 470.323 182.189 470.535C183.593 471.05 185.107 471.192 186.583 470.947C187.132 469.821 187.609 468.66 188.011 467.473L186.868 467.188C186.445 467.073 186.075 466.815 185.821 466.458C185.583 466.08 185.504 465.625 185.599 465.189C185.642 464.973 185.729 464.769 185.854 464.589C185.98 464.409 186.142 464.256 186.329 464.142C186.706 463.904 187.162 463.824 187.598 463.92C188.042 464.047 188.502 464.142 188.946 464.253C189.397 462.444 189.595 460.58 189.533 458.717H189.422C188.744 459.033 188.097 459.41 187.487 459.843C187.303 459.962 187.097 460.043 186.881 460.082C186.665 460.121 186.444 460.117 186.23 460.071C186.015 460.025 185.812 459.937 185.632 459.812C185.452 459.687 185.298 459.528 185.179 459.343C185.06 459.159 184.979 458.953 184.94 458.737C184.901 458.521 184.904 458.3 184.951 458.086C184.997 457.871 185.085 457.668 185.21 457.488C185.335 457.308 185.494 457.154 185.679 457.035L185.599 457.146Z" fill="white"/>
<path d="M139.184 468.647C138.851 470.979 145.18 472.518 150.288 473.406C149.86 477.641 147.115 481.925 143.15 485.906C138.264 483.162 131.268 479.561 129.983 480.402C128.698 481.242 135.742 486.001 140.215 488.714C137.017 491.494 133.63 494.049 130.078 496.36C127.889 494.314 125.319 492.521 123.733 493.489C122.147 494.456 122.575 497.677 123.368 500.5C118.038 503.673 114.056 505.497 114.056 505.497C112.507 500.55 111.314 495.498 110.487 490.38C110.757 489.84 111.027 489.317 111.265 488.793C112.137 486.81 111.265 485.97 109.884 485.621C109.473 482.001 109.441 478.349 109.789 474.723C115.817 473.469 123.146 471.122 120.402 467.505C118.815 465.332 115.722 465.078 112.565 465.633C112.994 464.908 113.493 464.228 114.056 463.603C125.018 451.515 132.664 463.603 132.664 463.603C139.009 458.288 147.988 459.732 149.923 468.028C146.449 467.124 139.596 465.76 139.184 468.647Z" fill="#407BFF"/>
<path opacity="0.5" d="M139.184 468.647C138.851 470.979 145.18 472.518 150.288 473.406C149.86 477.641 147.115 481.925 143.15 485.906C138.264 483.162 131.268 479.561 129.983 480.402C128.698 481.242 135.742 486.001 140.215 488.714C137.017 491.494 133.63 494.049 130.078 496.36C127.889 494.314 125.319 492.521 123.733 493.489C122.147 494.456 122.575 497.677 123.368 500.5C118.038 503.673 114.056 505.497 114.056 505.497C112.507 500.55 111.314 495.498 110.487 490.38C110.757 489.84 111.027 489.317 111.265 488.793C112.137 486.81 111.265 485.97 109.884 485.621C109.473 482.001 109.441 478.349 109.789 474.723C115.817 473.469 123.146 471.122 120.402 467.505C118.815 465.332 115.722 465.078 112.565 465.633C112.994 464.908 113.493 464.228 114.056 463.603C125.018 451.515 132.664 463.603 132.664 463.603C139.009 458.288 147.988 459.732 149.923 468.028C146.449 467.124 139.596 465.76 139.184 468.647Z" fill="white"/>
<path d="M611.448 576.453L641.826 374.594V576.453H649.98V373.341L680.39 576.453H689.131L651.059 322.198L649.98 322.356V314.092H641.826V322.325L640.7 322.198L602.533 576.453H611.448Z" fill="#407BFF"/>
<path opacity="0.3" d="M611.448 576.453L641.826 374.594V576.453H649.98V373.341L680.39 576.453H689.131L651.059 322.198L649.98 322.356V314.092H641.826V322.325L640.7 322.198L602.533 576.453H611.448Z" fill="white"/>
<path d="M687.703 350.403H603.66L610.465 280.176H680.898L687.703 350.403Z" fill="#407BFF"/>
<g opacity="0.5">
<path opacity="0.5" d="M687.703 350.403H603.66L610.465 280.176H680.898L687.703 350.403Z" fill="white"/>
</g>
<path d="M475.897 259.221H448.263C447.674 259.221 447.109 258.987 446.692 258.57C446.276 258.154 446.042 257.589 446.042 257V191.564C446.346 191.42 446.604 191.197 446.791 190.917C446.977 190.637 447.084 190.313 447.1 189.977C447.117 189.641 447.041 189.308 446.883 189.011C446.724 188.715 446.488 188.468 446.2 188.295C445.912 188.122 445.582 188.031 445.246 188.031C444.91 188.031 444.58 188.123 444.292 188.295C444.004 188.468 443.768 188.716 443.61 189.012C443.451 189.309 443.376 189.642 443.393 189.978C443.408 190.314 443.515 190.64 443.702 190.92C443.89 191.199 444.15 191.422 444.456 191.564V256.984C444.454 257.485 444.551 257.981 444.741 258.444C444.932 258.906 445.212 259.327 445.566 259.681C445.92 260.035 446.341 260.315 446.803 260.506C447.266 260.696 447.762 260.793 448.263 260.791H475.897C476.486 260.791 477.05 261.025 477.467 261.442C477.883 261.858 478.117 262.423 478.117 263.012V300.465H479.704V263.028C479.704 262.528 479.605 262.033 479.414 261.571C479.223 261.109 478.942 260.689 478.589 260.336C478.235 259.982 477.815 259.702 477.353 259.511C476.892 259.319 476.397 259.221 475.897 259.221Z" fill="#407BFF"/>
<path opacity="0.4" d="M475.897 259.221H448.263C447.674 259.221 447.109 258.987 446.692 258.57C446.276 258.154 446.042 257.589 446.042 257V191.564C446.346 191.42 446.604 191.197 446.791 190.917C446.977 190.637 447.084 190.313 447.1 189.977C447.117 189.641 447.041 189.308 446.883 189.011C446.724 188.715 446.488 188.468 446.2 188.295C445.912 188.122 445.582 188.031 445.246 188.031C444.91 188.031 444.58 188.123 444.292 188.295C444.004 188.468 443.768 188.716 443.61 189.012C443.451 189.309 443.376 189.642 443.393 189.978C443.408 190.314 443.515 190.64 443.702 190.92C443.89 191.199 444.15 191.422 444.456 191.564V256.984C444.454 257.485 444.551 257.981 444.741 258.444C444.932 258.906 445.212 259.327 445.566 259.681C445.92 260.035 446.341 260.315 446.803 260.506C447.266 260.696 447.762 260.793 448.263 260.791H475.897C476.486 260.791 477.05 261.025 477.467 261.442C477.883 261.858 478.117 262.423 478.117 263.012V300.465H479.704V263.028C479.704 262.528 479.605 262.033 479.414 261.571C479.223 261.109 478.942 260.689 478.589 260.336C478.235 259.982 477.815 259.702 477.353 259.511C476.892 259.319 476.397 259.221 475.897 259.221Z" fill="white"/>
<path d="M508.955 298.895H448.722C446.366 298.895 444.455 300.805 444.455 303.162V366.758C444.455 369.114 446.366 371.025 448.722 371.025H508.955C511.312 371.025 513.222 369.114 513.222 366.758V303.162C513.222 300.805 511.312 298.895 508.955 298.895Z" fill="#407BFF"/>
<path opacity="0.4" d="M508.955 298.895H448.722C446.366 298.895 444.455 300.805 444.455 303.162V366.758C444.455 369.114 446.366 371.025 448.722 371.025H508.955C511.312 371.025 513.222 369.114 513.222 366.758V303.162C513.222 300.805 511.312 298.895 508.955 298.895Z" fill="white"/>
<path opacity="0.2" d="M483.463 340.377H474.215V349.625H483.463V340.377Z" fill="white"/>
<path opacity="0.2" d="M493.504 310.253H484.256V319.501H493.504V310.253Z" fill="white"/>
<path opacity="0.2" d="M473.422 350.418H464.174V359.667H473.422V350.418Z" fill="white"/>
<path opacity="0.2" d="M493.504 320.294H484.256V329.542H493.504V320.294Z" fill="white"/>
<path opacity="0.2" d="M493.504 330.336H484.256V339.584H493.504V330.336Z" fill="white"/>
<path opacity="0.2" d="M483.463 320.294H474.215V329.542H483.463V320.294Z" fill="white"/>
<path opacity="0.2" d="M483.463 299.688H474.215V309.46H483.463V299.688Z" fill="white"/>
<path opacity="0.2" d="M473.422 340.377H464.174V349.625H473.422V340.377Z" fill="white"/>
<path opacity="0.2" d="M483.463 310.253H474.215V319.501H483.463V310.253Z" fill="white"/>
<path opacity="0.2" d="M483.463 350.418H474.215V359.667H483.463V350.418Z" fill="white"/>
<path opacity="0.2" d="M493.504 350.418H484.256V359.667H493.504V350.418Z" fill="white"/>
<path opacity="0.2" d="M483.463 330.336H474.215V339.584H483.463V330.336Z" fill="white"/>
<path opacity="0.2" d="M493.504 299.688H484.256V309.46H493.504V299.688Z" fill="white"/>
<path opacity="0.2" d="M453.338 340.377H445.248V349.625H453.338V340.377Z" fill="white"/>
<path opacity="0.2" d="M453.338 310.253H445.248V319.501H453.338V310.253Z" fill="white"/>
<path opacity="0.2" d="M453.338 330.336H445.248V339.584H453.338V330.336Z" fill="white"/>
<path opacity="0.2" d="M453.338 320.294H445.248V329.542H453.338V320.294Z" fill="white"/>
<path opacity="0.2" d="M493.504 340.377H484.256V349.625H493.504V340.377Z" fill="white"/>
<path opacity="0.2" d="M504.339 309.46H512.381V303.114C512.381 302.193 512.015 301.309 511.364 300.658C510.712 300.006 509.829 299.64 508.907 299.64H504.291L504.339 309.46Z" fill="white"/>
<path opacity="0.2" d="M503.547 310.253H494.299V319.501H503.547V310.253Z" fill="white"/>
<path opacity="0.2" d="M453.338 350.418H445.248V359.667H453.338V350.418Z" fill="white"/>
<path opacity="0.2" d="M503.547 320.294H494.299V329.542H503.547V320.294Z" fill="white"/>
<path opacity="0.2" d="M503.547 330.336H494.299V339.584H503.547V330.336Z" fill="white"/>
<path opacity="0.2" d="M503.547 340.377H494.299V349.625H503.547V340.377Z" fill="white"/>
<path opacity="0.2" d="M503.547 350.418H494.299V359.667H503.547V350.418Z" fill="white"/>
<path opacity="0.2" d="M512.43 350.418H504.34V359.667H512.43V350.418Z" fill="white"/>
<path opacity="0.2" d="M503.547 299.688H494.299V309.46H503.547V299.688Z" fill="white"/>
<path opacity="0.2" d="M483.463 360.476H474.215V370.247H483.463V360.476Z" fill="white"/>
<path opacity="0.2" d="M493.504 360.476H484.256V370.247H493.504V360.476Z" fill="white"/>
<path opacity="0.2" d="M512.43 330.336H504.34V339.584H512.43V330.336Z" fill="white"/>
<path opacity="0.2" d="M503.547 360.476H494.299V370.247H503.547V360.476Z" fill="white"/>
<path opacity="0.2" d="M512.43 340.377H504.34V349.625H512.43V340.377Z" fill="white"/>
<path opacity="0.2" d="M453.322 360.476H445.248V366.821C445.252 367.74 445.62 368.619 446.271 369.267C446.922 369.915 447.803 370.279 448.722 370.279H453.322V360.476Z" fill="white"/>
<path opacity="0.2" d="M504.34 360.476V370.232H508.956C509.875 370.232 510.756 369.868 511.407 369.22C512.058 368.572 512.426 367.692 512.43 366.773V360.428L504.34 360.476Z" fill="white"/>
<path opacity="0.2" d="M453.322 309.46V299.688H448.722C447.801 299.688 446.917 300.054 446.266 300.705C445.614 301.357 445.248 302.241 445.248 303.162V309.507L453.322 309.46Z" fill="white"/>
<path opacity="0.2" d="M512.43 320.294H504.34V329.542H512.43V320.294Z" fill="white"/>
<path opacity="0.2" d="M512.43 310.253H504.34V319.501H512.43V310.253Z" fill="white"/>
<path opacity="0.2" d="M463.365 330.336H454.117V339.584H463.365V330.336Z" fill="white"/>
<path opacity="0.2" d="M463.365 350.418H454.117V359.667H463.365V350.418Z" fill="white"/>
<path opacity="0.2" d="M473.422 299.688H464.174V309.46H473.422V299.688Z" fill="white"/>
<path opacity="0.2" d="M463.365 340.377H454.117V349.625H463.365V340.377Z" fill="white"/>
<path opacity="0.2" d="M473.422 320.294H464.174V329.542H473.422V320.294Z" fill="white"/>
<path opacity="0.2" d="M473.422 310.253H464.174V319.501H473.422V310.253Z" fill="white"/>
<path opacity="0.2" d="M473.422 360.476H464.174V370.247H473.422V360.476Z" fill="white"/>
<path opacity="0.2" d="M463.365 360.476H454.117V370.247H463.365V360.476Z" fill="white"/>
<path opacity="0.2" d="M463.365 299.688H454.117V309.46H463.365V299.688Z" fill="white"/>
<path opacity="0.2" d="M473.422 330.336H464.174V339.584H473.422V330.336Z" fill="white"/>
<path opacity="0.2" d="M463.365 320.294H454.117V329.542H463.365V320.294Z" fill="white"/>
<path opacity="0.2" d="M463.365 310.253H454.117V319.501H463.365V310.253Z" fill="white"/>
<path d="M495.266 324.324C495.129 323.6 494.933 322.889 494.68 322.198C493.687 319.372 491.958 316.863 489.669 314.932C487.38 313 484.617 311.716 481.665 311.213C478.713 310.709 475.68 311.005 472.88 312.069C470.081 313.133 467.617 314.927 465.745 317.264C464.858 318.364 464.116 319.575 463.54 320.865C462.558 323.033 462.05 325.386 462.049 327.766V342.17C462.047 343.544 462.217 344.914 462.556 346.246C462.803 347.265 463.16 348.255 463.619 349.197C464.02 350.078 464.498 350.922 465.047 351.719C465.475 352.29 465.904 352.83 466.364 353.306C466.928 353.931 467.538 354.515 468.188 355.051C468.719 355.484 469.276 355.887 469.854 356.256C470.854 356.892 471.917 357.424 473.026 357.842C473.566 358.033 474.105 358.207 474.613 358.35C475.308 358.522 476.012 358.654 476.722 358.747C477.249 358.814 477.778 358.851 478.309 358.858H478.737C479.602 358.858 480.467 358.795 481.323 358.667C481.862 358.572 482.401 358.461 482.909 358.334C484.859 357.824 486.701 356.97 488.35 355.812C488.947 355.397 489.514 354.942 490.047 354.448C491.505 353.114 492.719 351.536 493.633 349.784C494.109 348.882 494.497 347.937 494.791 346.96C495.232 345.536 495.472 344.057 495.504 342.566C495.504 342.566 495.504 342.233 495.504 342.074V327.671C495.539 326.55 495.46 325.428 495.266 324.324ZM491.507 350.577C490.608 351.938 489.493 353.143 488.207 354.146C487.74 354.519 487.247 354.858 486.732 355.162C485.373 355.998 483.89 356.613 482.338 356.986C481.83 357.097 481.307 357.192 480.752 357.256C480.115 357.338 479.474 357.38 478.832 357.382H478.118C477.563 357.382 477.04 357.382 476.532 357.224C475.868 357.117 475.211 356.969 474.565 356.78C474.01 356.621 473.47 356.415 472.979 356.209C471.856 355.728 470.792 355.121 469.806 354.4C469.274 354.002 468.771 353.567 468.299 353.099C467.721 352.553 467.19 351.959 466.713 351.323C466.253 350.715 465.839 350.073 465.475 349.403C464.929 348.399 464.503 347.334 464.206 346.231C463.835 344.903 463.649 343.532 463.651 342.154V327.75C463.655 324.406 464.771 321.158 466.824 318.518C468.191 316.732 469.935 315.27 471.932 314.234C474.081 313.113 476.471 312.53 478.896 312.537C482.349 312.538 485.7 313.713 488.398 315.869C491.096 318.025 492.981 321.034 493.744 324.403C493.987 325.491 494.109 326.603 494.108 327.718V342.249C494.094 343.186 493.999 344.12 493.823 345.041C493.575 346.275 493.176 347.474 492.633 348.61C492.312 349.295 491.935 349.953 491.507 350.577Z" fill="white"/>
<path d="M480.751 336.681C479.053 342.059 476.848 349.134 478.117 357.303C478.197 357.827 478.292 358.35 478.403 358.889C477.873 358.883 477.343 358.846 476.817 358.778C476.706 358.223 476.61 357.684 476.547 357.192C475.341 348.785 477.578 341.63 479.275 336.189C481.084 330.415 481.829 327.591 479.101 326.433C478.673 326.254 478.205 326.192 477.745 326.254C477.285 326.315 476.85 326.497 476.484 326.782C472.153 329.654 468.282 342.043 466.744 351.291C466.617 352.021 466.506 352.719 466.41 353.385C465.95 352.861 465.522 352.322 465.094 351.799C465.205 351.037 465.348 350.212 465.506 349.435C467.251 340.266 470.979 328.607 475.611 325.545C476.195 325.116 476.881 324.845 477.601 324.759C478.321 324.672 479.051 324.774 479.72 325.053C483.828 326.782 482.48 331.145 480.751 336.681Z" fill="white"/>
<path d="M477.99 336.3C476.404 341.392 474.072 348.848 474.532 356.78C474.532 357.335 474.532 357.89 474.659 358.461C474.104 358.318 473.564 358.144 473.072 357.953C473.072 357.367 472.993 356.795 472.977 356.209C472.66 348.277 474.96 340.885 476.546 335.824C477.161 334.155 477.608 332.427 477.879 330.669C475.96 332.382 469.947 346.342 469.836 354.464C469.805 355.12 469.832 355.779 469.916 356.431C469.338 356.061 468.781 355.659 468.25 355.225C468.25 354.575 468.25 353.877 468.329 353.163C468.996 344.755 474.056 332.081 476.816 329.574C477.018 329.333 477.288 329.158 477.59 329.07C477.892 328.982 478.214 328.987 478.514 329.082C480.084 329.638 479.338 332.001 477.99 336.3Z" fill="white"/>
<path d="M482.336 356.922C482.53 357.421 482.753 357.908 483.002 358.382C482.495 358.509 481.955 358.62 481.416 358.715C481.161 358.201 480.938 357.671 480.75 357.129C479.449 353.734 478.767 348.578 481.13 341.535C485.747 327.797 484.938 324.53 481.511 322.721C480.636 322.209 479.646 321.923 478.632 321.889C477.619 321.856 476.612 322.077 475.705 322.531C470.946 324.879 466.838 333.365 464.189 346.12C463.982 347.087 463.792 348.071 463.618 349.086C463.158 348.144 462.801 347.154 462.555 346.135C462.888 344.549 463.253 342.963 463.633 341.376C466.394 330.463 470.344 323.372 475.007 321.071C476.135 320.492 477.39 320.206 478.656 320.239C479.923 320.273 481.162 320.624 482.257 321.262C487.016 323.8 487.127 328.638 482.638 341.979C480.337 348.832 481.051 353.718 482.32 356.811L482.336 356.922Z" fill="white"/>
<path d="M490.174 354.559C489.641 355.053 489.074 355.508 488.477 355.923L487.826 355.717C487.444 355.58 487.081 355.393 486.748 355.162C484.955 353.977 483.697 352.138 483.242 350.038C482.417 347.071 483.765 342.788 485.209 338.267C486.652 333.746 488.144 329.019 487.43 325.577C487.237 324.34 486.76 323.164 486.036 322.143C485.312 321.122 484.361 320.283 483.258 319.691C480.482 318.311 476.786 318.549 472.867 320.373C468.949 322.198 465.586 328.035 463.651 332.556C462.969 334.143 462.429 335.602 462.064 336.665V332.207C462.524 331.129 463.048 329.955 463.651 328.781C465.697 324.768 468.568 320.627 472.185 318.946C476.563 316.899 480.751 316.662 483.972 318.28C485.291 318.974 486.431 319.967 487.301 321.178C488.171 322.39 488.748 323.787 488.984 325.259C489.777 329.067 488.223 333.968 486.716 338.711C485.352 343.01 484.067 347.055 484.765 349.578C484.956 350.548 485.368 351.461 485.967 352.248C486.566 353.034 487.338 353.673 488.223 354.115L488.397 354.194C488.961 354.428 489.564 354.552 490.174 354.559Z" fill="white"/>
<path d="M494.932 347.071C494.638 348.048 494.25 348.993 493.774 349.895C493.077 350.259 492.318 350.49 491.537 350.577H491.093H490.696C489.824 350.507 488.996 350.162 488.332 349.592C487.668 349.022 487.202 348.256 487 347.404C486.302 345.041 487.444 340.599 488.586 335.904C489.489 332.932 490.085 329.876 490.363 326.782C490.363 321.896 489.094 316.662 479.719 314.996C474.96 314.139 468.107 317.185 464.094 323.689C463.3 324.958 464.331 320.088 463.459 320.802C464.03 319.501 464.918 319.564 465.791 318.47C467.552 317.328 472.453 312.49 479.988 313.425C490.791 314.758 491.949 321.96 491.949 326.782C491.685 330.013 491.068 333.204 490.109 336.3C489.062 340.377 487.888 345.009 488.523 346.96C488.638 347.498 488.922 347.984 489.333 348.349C489.744 348.714 490.26 348.939 490.807 348.991C491.411 349.029 492.015 348.92 492.568 348.673C493.458 348.308 494.262 347.762 494.932 347.071Z" fill="white"/>
<path d="M495.631 338.442V342.17C495.631 342.328 495.631 342.503 495.631 342.661C495.631 342.82 495.631 342.661 495.631 342.661C495.204 343.596 494.569 344.421 493.775 345.073C493.226 345.47 492.564 345.681 491.887 345.675H491.427C491.186 345.646 490.957 345.556 490.76 345.415C490.563 345.274 490.405 345.085 490.301 344.866C489.587 343.55 490.475 340.885 491.062 339.409C493.124 334.7 494.027 329.565 493.695 324.434C493.695 323.53 493.79 322.975 493.79 322.943C493.81 322.736 493.908 322.544 494.064 322.405C494.22 322.267 494.423 322.193 494.631 322.198C494.884 322.889 495.081 323.6 495.218 324.323C495.218 325.497 495.028 326.671 494.917 327.845C494.695 330.098 494.425 332.35 493.997 334.587C493.886 335.19 494.393 334.952 494.266 335.555C493.878 336.747 493.412 337.913 492.87 339.045C492.49 339.917 492.061 340.774 491.76 341.678C491.57 342.217 490.872 344.755 492.299 344.2C492.835 343.923 493.281 343.5 493.584 342.979C493.727 342.756 493.87 342.534 493.997 342.296C494.459 341.436 494.851 340.539 495.171 339.616C495.361 339.235 495.504 338.838 495.631 338.442Z" fill="white"/>
<path d="M378.671 69.3698V109.821C378.671 110.41 378.437 110.975 378.021 111.391C377.604 111.808 377.039 112.042 376.45 112.042H335.317C335.177 111.735 334.954 111.474 334.674 111.286C334.394 111.099 334.068 110.992 333.731 110.979C333.395 110.963 333.061 111.038 332.765 111.196C332.469 111.354 332.221 111.59 332.048 111.879C331.876 112.167 331.784 112.496 331.784 112.832C331.784 113.168 331.875 113.498 332.048 113.786C332.22 114.075 332.468 114.311 332.764 114.469C333.061 114.628 333.394 114.703 333.73 114.687C334.065 114.67 334.39 114.563 334.67 114.377C334.949 114.191 335.173 113.932 335.317 113.628H376.45C377.459 113.624 378.425 113.222 379.138 112.509C379.851 111.795 380.253 110.829 380.258 109.821V69.3698H378.671Z" fill="#407BFF"/>
<path opacity="0.4" d="M378.671 69.3698V109.821C378.671 110.41 378.437 110.975 378.021 111.391C377.604 111.808 377.039 112.042 376.45 112.042H335.317C335.177 111.735 334.954 111.474 334.674 111.286C334.394 111.099 334.068 110.992 333.731 110.979C333.395 110.963 333.061 111.038 332.765 111.196C332.469 111.354 332.221 111.59 332.048 111.879C331.876 112.167 331.784 112.496 331.784 112.832C331.784 113.168 331.875 113.498 332.048 113.786C332.22 114.075 332.468 114.311 332.764 114.469C333.061 114.628 333.394 114.703 333.73 114.687C334.065 114.67 334.39 114.563 334.67 114.377C334.949 114.191 335.173 113.932 335.317 113.628H376.45C377.459 113.624 378.425 113.222 379.138 112.509C379.851 111.795 380.253 110.829 380.258 109.821V69.3698H378.671Z" fill="white"/>
<path d="M415.521 77.698V17.4654C415.521 15.1087 413.611 13.1982 411.254 13.1982L347.659 13.1982C345.302 13.1982 343.391 15.1087 343.391 17.4654V77.698C343.391 80.0547 345.302 81.9652 347.659 81.9652H411.254C413.611 81.9652 415.521 80.0547 415.521 77.698Z" fill="#407BFF"/>
<path opacity="0.4" d="M415.521 77.698V17.4654C415.521 15.1087 413.611 13.1982 411.254 13.1982L347.659 13.1982C345.302 13.1982 343.391 15.1087 343.391 17.4654V77.698C343.391 80.0547 345.302 81.9652 347.659 81.9652H411.254C413.611 81.9652 415.521 80.0547 415.521 77.698Z" fill="white"/>
<path opacity="0.2" d="M374.039 42.9576H364.791V52.2058H374.039V42.9576Z" fill="white"/>
<path opacity="0.2" d="M404.163 52.999H394.915V62.2472H404.163V52.999Z" fill="white"/>
<path opacity="0.2" d="M363.998 32.9003H354.75V42.1486H363.998V32.9003Z" fill="white"/>
<path opacity="0.2" d="M394.122 52.999H384.874V62.2472H394.122V52.999Z" fill="white"/>
<path opacity="0.2" d="M384.08 52.999H374.832V62.2472H384.08V52.999Z" fill="white"/>
<path opacity="0.2" d="M394.122 42.9576H384.874V52.2058H394.122V42.9576Z" fill="white"/>
<path opacity="0.2" d="M414.744 42.9576H404.973V52.2058H414.744V42.9576Z" fill="white"/>
<path opacity="0.2" d="M374.039 32.9003H364.791V42.1486H374.039V32.9003Z" fill="white"/>
<path opacity="0.2" d="M404.163 42.9576H394.915V52.2058H404.163V42.9576Z" fill="white"/>
<path opacity="0.2" d="M363.998 42.9576H354.75V52.2058H363.998V42.9576Z" fill="white"/>
<path opacity="0.2" d="M363.998 52.999H354.75V62.2472H363.998V52.999Z" fill="white"/>
<path opacity="0.2" d="M384.08 42.9576H374.832V52.2058H384.08V42.9576Z" fill="white"/>
<path opacity="0.2" d="M414.744 52.999H404.973V62.2472H414.744V52.999Z" fill="white"/>
<path opacity="0.2" d="M374.039 13.9913H364.791V22.0816H374.039V13.9913Z" fill="white"/>
<path opacity="0.2" d="M404.163 13.9913H394.915V22.0816H404.163V13.9913Z" fill="white"/>
<path opacity="0.2" d="M384.08 13.9913H374.832V22.0816H384.08V13.9913Z" fill="white"/>
<path opacity="0.2" d="M394.122 13.9913H384.874V22.0816H394.122V13.9913Z" fill="white"/>
<path opacity="0.2" d="M374.039 52.999H364.791V62.2472H374.039V52.999Z" fill="white"/>
<path opacity="0.2" d="M404.973 73.0818V81.1721H411.318C412.237 81.1679 413.116 80.8 413.764 80.1489C414.412 79.4979 414.776 78.6167 414.776 77.698V73.0818H404.973Z" fill="white"/>
<path opacity="0.2" d="M404.163 63.0404H394.915V72.2887H404.163V63.0404Z" fill="white"/>
<path opacity="0.2" d="M363.998 13.9913H354.75V22.0816H363.998V13.9913Z" fill="white"/>
<path opacity="0.2" d="M394.122 63.0404H384.874V72.2887H394.122V63.0404Z" fill="white"/>
<path opacity="0.2" d="M384.08 63.0404H374.832V72.2887H384.08V63.0404Z" fill="white"/>
<path opacity="0.2" d="M374.039 63.0404H364.791V72.2887H374.039V63.0404Z" fill="white"/>
<path opacity="0.2" d="M363.998 63.0404H354.75V72.2887H363.998V63.0404Z" fill="white"/>
<path opacity="0.2" d="M363.998 73.0818H354.75V81.1721H363.998V73.0818Z" fill="white"/>
<path opacity="0.2" d="M414.744 63.0404H404.973V72.2887H414.744V63.0404Z" fill="white"/>
<path opacity="0.2" d="M353.956 42.9576H344.185V52.2058H353.956V42.9576Z" fill="white"/>
<path opacity="0.2" d="M353.956 52.999H344.185V62.2472H353.956V52.999Z" fill="white"/>
<path opacity="0.2" d="M384.08 73.0818H374.832V81.1721H384.08V73.0818Z" fill="white"/>
<path opacity="0.2" d="M353.956 63.0404H344.185V72.2887H353.956V63.0404Z" fill="white"/>
<path opacity="0.2" d="M374.039 73.0818H364.791V81.1721H374.039V73.0818Z" fill="white"/>
<path opacity="0.2" d="M353.957 22.0657V13.9913H347.611C346.709 14.016 345.852 14.3908 345.222 15.0362C344.591 15.6817 344.236 16.5471 344.232 17.4495V22.0657H353.957Z" fill="white"/>
<path opacity="0.2" d="M353.957 73.0818H344.232V77.7297C344.232 78.6511 344.598 79.5347 345.25 80.1863C345.901 80.8378 346.785 81.2038 347.706 81.2038H354.052L353.957 73.0818Z" fill="white"/>
<path opacity="0.2" d="M404.972 22.0657H414.728V17.4495C414.724 16.5336 414.358 15.6564 413.711 15.0088C413.063 14.3612 412.186 13.9955 411.27 13.9913H404.925L404.972 22.0657Z" fill="white"/>
<path opacity="0.2" d="M394.122 73.0818H384.874V81.1721H394.122V73.0818Z" fill="white"/>
<path opacity="0.2" d="M404.163 73.0818H394.915V81.1721H404.163V73.0818Z" fill="white"/>
<path opacity="0.2" d="M384.08 22.8589H374.832V32.1071H384.08V22.8589Z" fill="white"/>
<path opacity="0.2" d="M363.998 22.8589H354.75V32.1071H363.998V22.8589Z" fill="white"/>
<path opacity="0.2" d="M414.744 32.9003H404.973V42.1486H414.744V32.9003Z" fill="white"/>
<path opacity="0.2" d="M374.039 22.8589H364.791V32.1071H374.039V22.8589Z" fill="white"/>
<path opacity="0.2" d="M394.122 32.9003H384.874V42.1486H394.122V32.9003Z" fill="white"/>
<path opacity="0.2" d="M404.163 32.9003H394.915V42.1486H404.163V32.9003Z" fill="white"/>
<path opacity="0.2" d="M353.956 32.9003H344.185V42.1486H353.956V32.9003Z" fill="white"/>
<path opacity="0.2" d="M353.956 22.8589H344.185V32.1071H353.956V22.8589Z" fill="white"/>
<path opacity="0.2" d="M414.744 22.8589H404.973V32.1071H414.744V22.8589Z" fill="white"/>
<path opacity="0.2" d="M384.08 32.9003H374.832V42.1486H384.08V32.9003Z" fill="white"/>
<path opacity="0.2" d="M394.122 22.8589H384.874V32.1071H394.122V22.8589Z" fill="white"/>
<path opacity="0.2" d="M404.163 22.8589H394.915V32.1071H404.163V22.8589Z" fill="white"/>
<path d="M358.509 47.2882C358.509 47.2882 367.868 58.3925 379.432 58.3925C390.997 58.3925 400.34 47.2882 400.34 47.2882C400.34 47.2882 390.981 36.184 379.432 36.184C367.884 36.184 358.509 47.2882 358.509 47.2882Z" stroke="white" stroke-linecap="round" stroke-linejoin="round"/>
<path d="M386.746 45.7019C386.749 47.1465 386.323 48.5595 385.522 49.7619C384.722 50.9643 383.582 51.9021 382.248 52.4564C380.914 53.0106 379.446 53.1564 378.029 52.8754C376.612 52.5943 375.31 51.899 374.289 50.8776C373.267 49.8561 372.572 48.5544 372.291 47.1375C372.01 45.7205 372.156 44.252 372.71 42.918C373.264 41.584 374.202 40.4445 375.404 39.6439C376.607 38.8433 378.02 38.4176 379.464 38.4207C381.395 38.4207 383.247 39.1878 384.613 40.5533C385.978 41.9188 386.746 43.7708 386.746 45.7019V45.7019Z" stroke="white" stroke-miterlimit="10"/>
<path d="M380.273 42.4976C380.27 42.0294 380.406 41.5709 380.664 41.1801C380.922 40.7893 381.29 40.4839 381.722 40.3026C382.153 40.1212 382.629 40.0722 383.088 40.1616C383.548 40.251 383.971 40.4748 384.303 40.8047C384.635 41.1347 384.862 41.5558 384.954 42.0147C385.047 42.4736 385.001 42.9497 384.822 43.3825C384.644 43.8153 384.341 44.1854 383.952 44.4458C383.563 44.7063 383.105 44.8453 382.637 44.8453C382.013 44.8453 381.414 44.5985 380.971 44.1586C380.529 43.7188 380.278 43.1217 380.273 42.4976Z" stroke="white" stroke-miterlimit="10"/>
<path d="M379.465 36.1681V28.7124" stroke="white" stroke-linecap="round" stroke-linejoin="round"/>
<path d="M385.952 36.7075L388.617 30.6477" stroke="white" stroke-linecap="round" stroke-linejoin="round"/>
<path d="M392.187 39.4677L395.914 35.0418" stroke="white" stroke-linecap="round" stroke-linejoin="round"/>
<path d="M397.184 42.8783L400.785 40.4829" stroke="white" stroke-linecap="round" stroke-linejoin="round"/>
<path d="M372.961 36.7075L370.296 30.6477" stroke="white" stroke-linecap="round" stroke-linejoin="round"/>
<path d="M366.726 39.4677L362.998 35.0418" stroke="white" stroke-linecap="round" stroke-linejoin="round"/>
<path d="M361.73 42.8783L358.129 40.4829" stroke="white" stroke-linecap="round" stroke-linejoin="round"/>
<path d="M271.641 114.548C271.307 114.559 270.983 114.66 270.704 114.842C270.424 115.024 270.199 115.279 270.055 115.579H227.874C226.866 115.584 225.9 115.986 225.187 116.699C224.474 117.412 224.071 118.378 224.067 119.387V162.677C224.067 163.266 223.833 163.831 223.417 164.248C223 164.664 222.435 164.898 221.846 164.898H204.904V166.484H221.846C222.855 166.48 223.821 166.078 224.534 165.365C225.247 164.652 225.649 163.686 225.653 162.677V119.387C225.653 118.798 225.887 118.233 226.304 117.816C226.72 117.4 227.285 117.166 227.874 117.166H269.959C270.096 117.47 270.313 117.733 270.587 117.924C270.861 118.116 271.181 118.23 271.514 118.255C271.848 118.28 272.182 118.214 272.481 118.065C272.78 117.916 273.033 117.689 273.213 117.407C273.394 117.126 273.495 116.801 273.507 116.467C273.518 116.133 273.439 115.803 273.278 115.51C273.117 115.217 272.88 114.973 272.592 114.804C272.304 114.635 271.975 114.546 271.641 114.548Z" fill="#407BFF"/>
<path opacity="0.4" d="M271.641 114.548C271.307 114.559 270.983 114.66 270.704 114.842C270.424 115.024 270.199 115.279 270.055 115.579H227.874C226.866 115.584 225.9 115.986 225.187 116.699C224.474 117.412 224.071 118.378 224.067 119.387V162.677C224.067 163.266 223.833 163.831 223.417 164.248C223 164.664 222.435 164.898 221.846 164.898H204.904V166.484H221.846C222.855 166.48 223.821 166.078 224.534 165.365C225.247 164.652 225.649 163.686 225.653 162.677V119.387C225.653 118.798 225.887 118.233 226.304 117.816C226.72 117.4 227.285 117.166 227.874 117.166H269.959C270.096 117.47 270.313 117.733 270.587 117.924C270.861 118.116 271.181 118.23 271.514 118.255C271.848 118.28 272.182 118.214 272.481 118.065C272.78 117.916 273.033 117.689 273.213 117.407C273.394 117.126 273.495 116.801 273.507 116.467C273.518 116.133 273.439 115.803 273.278 115.51C273.117 115.217 272.88 114.973 272.592 114.804C272.304 114.635 271.975 114.546 271.641 114.548Z" fill="white"/>
<path d="M200.638 129.618H140.405C138.048 129.618 136.138 131.529 136.138 133.886V197.481C136.138 199.838 138.048 201.748 140.405 201.748H200.638C202.994 201.748 204.905 199.838 204.905 197.481V133.886C204.905 131.529 202.994 129.618 200.638 129.618Z" fill="#407BFF"/>
<path opacity="0.4" d="M200.638 129.618H140.405C138.048 129.618 136.138 131.529 136.138 133.886V197.481C136.138 199.838 138.048 201.748 140.405 201.748H200.638C202.994 201.748 204.905 199.838 204.905 197.481V133.886C204.905 131.529 202.994 129.618 200.638 129.618Z" fill="white"/>
<path opacity="0.2" d="M175.146 171.101H165.897V180.349H175.146V171.101Z" fill="white"/>
<path opacity="0.2" d="M185.187 140.976H175.938V150.225H185.187V140.976Z" fill="white"/>
<path opacity="0.2" d="M165.088 181.158H155.84V190.406H165.088V181.158Z" fill="white"/>
<path opacity="0.2" d="M185.187 151.018H175.938V160.266H185.187V151.018Z" fill="white"/>
<path opacity="0.2" d="M185.187 161.059H175.938V170.307H185.187V161.059Z" fill="white"/>
<path opacity="0.2" d="M175.146 151.018H165.897V160.266H175.146V151.018Z" fill="white"/>
<path opacity="0.2" d="M175.146 130.412H165.897V140.183H175.146V130.412Z" fill="white"/>
<path opacity="0.2" d="M165.088 171.101H155.84V180.349H165.088V171.101Z" fill="white"/>
<path opacity="0.2" d="M175.146 140.976H165.897V150.225H175.146V140.976Z" fill="white"/>
<path opacity="0.2" d="M175.146 181.158H165.897V190.406H175.146V181.158Z" fill="white"/>
<path opacity="0.2" d="M185.187 181.158H175.938V190.406H185.187V181.158Z" fill="white"/>
<path opacity="0.2" d="M175.146 161.059H165.897V170.307H175.146V161.059Z" fill="white"/>
<path opacity="0.2" d="M185.187 130.412H175.938V140.183H185.187V130.412Z" fill="white"/>
<path opacity="0.2" d="M145.021 171.101H136.931V180.349H145.021V171.101Z" fill="white"/>
<path opacity="0.2" d="M145.021 140.976H136.931V150.225H145.021V140.976Z" fill="white"/>
<path opacity="0.2" d="M145.021 161.059H136.931V170.307H145.021V161.059Z" fill="white"/>
<path opacity="0.2" d="M145.021 151.018H136.931V160.266H145.021V151.018Z" fill="white"/>
<path opacity="0.2" d="M185.187 171.101H175.938V180.349H185.187V171.101Z" fill="white"/>
<path opacity="0.2" d="M196.021 140.183H204.112V133.838C204.112 132.917 203.746 132.033 203.094 131.381C202.443 130.73 201.559 130.364 200.638 130.364H196.021V140.183Z" fill="white"/>
<path opacity="0.2" d="M195.228 140.976H185.979V150.225H195.228V140.976Z" fill="white"/>
<path opacity="0.2" d="M145.021 181.158H136.931V190.406H145.021V181.158Z" fill="white"/>
<path opacity="0.2" d="M195.228 151.018H185.979V160.266H195.228V151.018Z" fill="white"/>
<path opacity="0.2" d="M195.228 161.059H185.979V170.307H195.228V161.059Z" fill="white"/>
<path opacity="0.2" d="M195.228 171.101H185.979V180.349H195.228V171.101Z" fill="white"/>
<path opacity="0.2" d="M195.228 181.158H185.979V190.406H195.228V181.158Z" fill="white"/>
<path opacity="0.2" d="M204.112 181.158H196.021V190.406H204.112V181.158Z" fill="white"/>
<path opacity="0.2" d="M195.228 130.412H185.979V140.183H195.228V130.412Z" fill="white"/>
<path opacity="0.2" d="M175.146 191.199H165.897V200.971H175.146V191.199Z" fill="white"/>
<path opacity="0.2" d="M185.187 191.199H175.938V200.971H185.187V191.199Z" fill="white"/>
<path opacity="0.2" d="M204.112 161.059H196.021V170.307H204.112V161.059Z" fill="white"/>
<path opacity="0.2" d="M195.228 191.199H185.979V200.971H195.228V191.199Z" fill="white"/>
<path opacity="0.2" d="M204.112 171.101H196.021V180.349H204.112V171.101Z" fill="white"/>
<path opacity="0.2" d="M145.005 191.199H136.931V197.545C136.935 198.461 137.301 199.338 137.948 199.985C138.596 200.633 139.473 200.999 140.389 201.003H145.005V191.199Z" fill="white"/>
<path opacity="0.2" d="M196.021 191.199V200.955H200.638C201.556 200.955 202.438 200.591 203.089 199.943C203.74 199.295 204.108 198.416 204.112 197.497V191.152L196.021 191.199Z" fill="white"/>
<path opacity="0.2" d="M145.005 140.183V130.412H140.389C139.47 130.416 138.591 130.784 137.943 131.435C137.294 132.086 136.931 132.967 136.931 133.886V140.231L145.005 140.183Z" fill="white"/>
<path opacity="0.2" d="M204.112 151.018H196.021V160.266H204.112V151.018Z" fill="white"/>
<path opacity="0.2" d="M204.112 140.976H196.021V150.225H204.112V140.976Z" fill="white"/>
<path opacity="0.2" d="M155.047 161.059H145.799V170.307H155.047V161.059Z" fill="white"/>
<path opacity="0.2" d="M155.047 181.158H145.799V190.406H155.047V181.158Z" fill="white"/>
<path opacity="0.2" d="M165.088 130.412H155.84V140.183H165.088V130.412Z" fill="white"/>
<path opacity="0.2" d="M155.047 171.101H145.799V180.349H155.047V171.101Z" fill="white"/>
<path opacity="0.2" d="M165.088 151.018H155.84V160.266H165.088V151.018Z" fill="white"/>
<path opacity="0.2" d="M165.088 140.976H155.84V150.225H165.088V140.976Z" fill="white"/>
<path opacity="0.2" d="M165.088 191.199H155.84V200.971H165.088V191.199Z" fill="white"/>
<path opacity="0.2" d="M155.047 191.199H145.799V200.971H155.047V191.199Z" fill="white"/>
<path opacity="0.2" d="M155.047 130.412H145.799V140.183H155.047V130.412Z" fill="white"/>
<path opacity="0.2" d="M165.088 161.059H155.84V170.307H165.088V161.059Z" fill="white"/>
<path opacity="0.2" d="M155.047 151.018H145.799V160.266H155.047V151.018Z" fill="white"/>
<path opacity="0.2" d="M155.047 140.976H145.799V150.225H155.047V140.976Z" fill="white"/>
<path d="M170.513 189.692C166.062 189.688 161.794 187.919 158.644 184.773C155.495 181.627 153.722 177.36 153.714 172.909V158.474C153.714 154.018 155.484 149.745 158.634 146.595C161.785 143.444 166.058 141.674 170.513 141.674C174.968 141.674 179.241 143.444 182.392 146.595C185.542 149.745 187.312 154.018 187.312 158.474V172.909C187.304 177.36 185.531 181.627 182.382 184.773C179.232 187.919 174.964 189.688 170.513 189.692ZM170.513 143.277C166.482 143.281 162.618 144.883 159.766 147.731C156.915 150.58 155.309 154.443 155.3 158.474V172.909C155.3 176.944 156.903 180.813 159.756 183.666C162.609 186.519 166.478 188.122 170.513 188.122C174.548 188.122 178.417 186.519 181.27 183.666C184.123 180.813 185.726 176.944 185.726 172.909V158.474C185.717 154.443 184.111 150.58 181.26 147.731C178.408 144.883 174.544 143.281 170.513 143.277Z" fill="white"/>
<path d="M178.096 163.724C179.077 163.724 179.873 162.645 179.873 161.313C179.873 159.981 179.077 158.902 178.096 158.902C177.115 158.902 176.319 159.981 176.319 161.313C176.319 162.645 177.115 163.724 178.096 163.724Z" fill="white"/>
<path d="M164.708 161.313C164.708 162.63 163.915 163.708 162.931 163.708C161.947 163.708 161.154 162.63 161.154 161.313C161.154 159.996 161.947 158.902 162.931 158.902C163.915 158.902 164.708 159.981 164.708 161.313Z" fill="white"/>
<path d="M170.609 163.708L167.262 172.29H170.609V163.708Z" fill="white"/>
<path d="M169.91 178.239C168.397 178.319 166.884 178.081 165.469 177.541L166.151 176.113L165.802 176.827L166.151 176.113C166.151 176.113 168.99 177.367 175.05 176.113L175.383 177.7C173.583 178.072 171.749 178.253 169.91 178.239Z" fill="white"/>
<path d="M631.325 24.2549H458.495C454.001 24.2549 450.357 27.8983 450.357 32.3927V205.222C450.357 209.717 454.001 213.36 458.495 213.36H631.325C635.819 213.36 639.463 209.717 639.463 205.222V32.3927C639.463 27.8983 635.819 24.2549 631.325 24.2549Z" fill="#407BFF"/>
<path opacity="0.5" d="M611.767 140.818H478.056C473.999 140.818 470.711 144.106 470.711 148.162V172.624C470.711 176.68 473.999 179.968 478.056 179.968H611.767C615.823 179.968 619.111 176.68 619.111 172.624V148.162C619.111 144.106 615.823 140.818 611.767 140.818Z" fill="white"/>
<path d="M497.234 160.409L501.565 162.757L499.693 166.009L495.235 163.391L495.315 168.15H491.587V163.296L487.209 165.913L485.416 162.757L489.747 160.409L485.416 158.029L487.32 154.762L491.698 157.395V152.541H495.426L495.346 157.395L499.725 154.762L501.676 158.029L497.234 160.409Z" fill="white"/>
<path d="M522.948 160.409L527.278 162.757L525.343 166.009L520.965 163.391V168.15H517.237V163.296L512.875 165.913L510.955 162.661L515.286 160.314L510.955 157.934L512.875 154.666L517.237 157.3V152.446H520.965V157.3L525.343 154.666L527.278 157.934L522.948 160.409Z" fill="white"/>
<path d="M548.677 160.409L553.008 162.757L551.057 166.009L546.694 163.391L546.774 168.15H543.03V163.296L538.652 165.913L536.748 162.661L541.079 160.314L536.748 157.934L538.652 154.666L543.03 157.3V152.446H546.774L546.694 157.3L551.057 154.666L553.008 157.934L548.677 160.409Z" fill="white"/>
<path d="M574.407 160.409L578.738 162.757L576.787 166.009L572.409 163.391L572.488 168.15H568.76V163.296L564.398 165.913L562.494 162.661L566.825 160.314L562.494 157.934L564.398 154.666L568.76 157.3V152.446H572.488L572.409 157.3L576.787 154.666L578.738 157.934L574.407 160.409Z" fill="white"/>
<path d="M600.122 160.409L604.39 162.757L602.454 166.009L598.14 163.391L598.219 168.15H594.491V163.296L590.113 166.009L588.193 162.757L592.524 160.409L588.193 158.029L590.113 154.762L594.475 157.395V152.541H598.203L598.124 157.395L602.502 154.762L604.437 158.029L600.122 160.409Z" fill="white"/>
<path opacity="0.5" d="M574.883 112.752C591.442 96.1926 591.442 69.3449 574.883 52.7857C558.323 36.2266 531.476 36.2266 514.917 52.7857C498.357 69.3449 498.357 96.1926 514.917 112.752C531.476 129.311 558.323 129.311 574.883 112.752Z" fill="white"/>
<path d="M561.558 80.3948H528.404C527.806 80.3927 527.213 80.509 526.66 80.7371C526.106 80.9651 525.604 81.3004 525.18 81.7236C524.757 82.1468 524.422 82.6495 524.194 83.2028C523.966 83.7561 523.849 84.3491 523.852 84.9476V105.141C523.852 106.349 524.331 107.507 525.185 108.361C526.039 109.214 527.197 109.694 528.404 109.694H561.558C562.766 109.694 563.924 109.214 564.778 108.361C565.632 107.507 566.111 106.349 566.111 105.141V84.9476C566.113 84.3491 565.997 83.7561 565.769 83.2028C565.541 82.6495 565.206 82.1468 564.782 81.7236C564.359 81.3004 563.856 80.9651 563.303 80.7371C562.75 80.509 562.157 80.3927 561.558 80.3948ZM548.027 102.873H541.936L543.205 94.6082C542.388 94.2069 541.731 93.5409 541.341 92.7187C540.951 91.8964 540.851 90.9663 541.057 90.0798C541.263 89.1934 541.763 88.4028 542.475 87.8367C543.188 87.2707 544.071 86.9626 544.981 86.9626C545.891 86.9626 546.775 87.2707 547.487 87.8367C548.2 88.4028 548.7 89.1934 548.906 90.0798C549.112 90.9663 549.012 91.8964 548.622 92.7187C548.232 93.5409 547.575 94.2069 546.758 94.6082L548.027 102.873Z" fill="#407BFF"/>
<path d="M535.352 77.1587L534.733 73.9861C534.201 71.3292 534.746 68.5698 536.248 66.3148C537.751 64.0598 540.087 62.494 542.744 61.9617C545.401 61.4295 548.16 61.9746 550.415 63.4769C552.67 64.9792 554.236 67.3158 554.768 69.9727L555.387 73.066L561.24 71.8921L560.606 68.7195C560.225 66.6018 559.426 64.5814 558.256 62.7762C557.085 60.9711 555.566 59.4176 553.787 58.2067C552.009 56.9957 550.007 56.1516 547.898 55.7237C545.79 55.2959 543.617 55.2928 541.507 55.7148C539.397 56.1367 537.393 56.9752 535.611 58.1811C533.829 59.3871 532.306 60.9363 531.13 62.7381C529.954 64.5399 529.15 66.5582 528.763 68.6747C528.377 70.7913 528.416 72.9637 528.879 75.0648L529.498 78.2374L535.352 77.1587Z" fill="#407BFF"/>
<path opacity="0.2" d="M568.538 194.071H521.266C520.71 194.071 520.178 193.85 519.785 193.457C519.392 193.065 519.172 192.532 519.172 191.977C519.176 191.424 519.399 190.896 519.791 190.506C520.183 190.117 520.713 189.899 521.266 189.899H568.538C569.091 189.899 569.621 190.117 570.013 190.506C570.406 190.896 570.628 191.424 570.632 191.977C570.632 192.532 570.412 193.065 570.019 193.457C569.626 193.85 569.094 194.071 568.538 194.071Z" fill="black"/>
<path d="M411.951 193.198L428.195 179.397C428.195 179.397 442.028 164.74 444.947 164.422C447.865 164.105 454.163 165.358 455.829 167.452C457.494 169.546 445.01 183.157 442.075 185.663C439.141 188.169 433.287 187.757 433.287 187.757L417.805 202.716L411.951 193.198Z" fill="#EBB376"/>
<path d="M286.632 561.732H270.927C270.672 561.739 270.427 561.83 270.229 561.991C270.031 562.151 269.892 562.373 269.833 562.621L267.279 574.137C267.175 574.634 267.272 575.151 267.549 575.576C267.825 576.001 268.258 576.299 268.754 576.406H269.166C274.243 576.327 277.955 576.009 284.332 576.009C288.266 576.009 300.116 576.422 305.541 576.422C310.966 576.422 311.68 571.06 309.459 570.568C299.497 568.395 292.009 565.397 288.837 562.526C288.23 561.989 287.441 561.706 286.632 561.732Z" fill="#263238"/>
<path d="M353.226 561.336H337.521C337.265 561.337 337.017 561.426 336.818 561.588C336.619 561.749 336.481 561.974 336.426 562.224L333.872 573.725C333.769 574.221 333.866 574.738 334.142 575.163C334.419 575.588 334.852 575.887 335.348 575.993H335.76C340.852 575.914 344.548 575.597 350.925 575.597C354.86 575.597 366.709 576.009 372.135 576.009C377.56 576.009 378.274 570.648 376.053 570.156C366.091 567.983 358.603 564.984 355.431 562.113C354.821 561.583 354.033 561.305 353.226 561.336Z" fill="#263238"/>
<path d="M278.305 270.658H346.913C353.433 306.271 372.088 450.436 357.446 562.748L334.54 565.254C334.54 565.254 338.125 392.662 317.629 337.538C315.266 367.043 312.458 398.421 310.031 415.125C304.066 456.242 290.614 563.366 290.614 563.366L267.391 564.001C267.391 564.001 272.483 460.081 274.704 419.646C277.162 375.816 278.209 279.653 278.305 270.658Z" fill="#263238"/>
<path opacity="0.2" d="M278.305 270.658H346.913C353.433 306.271 372.088 450.436 357.446 562.748L334.54 565.254C334.54 565.254 338.125 392.662 317.629 337.538C315.266 367.043 312.458 398.421 310.031 415.125C304.066 456.242 290.614 563.366 290.614 563.366L267.391 564.001C267.391 564.001 272.483 460.081 274.704 419.646C277.162 375.816 278.209 279.653 278.305 270.658Z" fill="white"/>
<path opacity="0.2" d="M317.629 337.538C321.004 347.201 323.567 357.128 325.291 367.218C327.21 340.964 319.532 313.124 319.532 313.124L317.629 337.538Z" fill="black"/>
<path d="M340.646 151.954C351.481 153.27 372.817 202.526 380.971 206.92C389.124 211.314 421.454 183.696 421.454 183.696L429.607 193.737C429.607 193.737 392.9 232.967 378.464 228.637C364.029 224.306 343.565 187.218 337.363 175.606C331.16 163.994 340.646 151.954 340.646 151.954Z" fill="#407BFF"/>
<path opacity="0.5" d="M429.607 193.737C429.607 193.737 392.9 232.951 378.464 228.637C372.119 226.717 364.726 218.579 357.842 209.061C350.338 198.347 343.504 187.179 337.378 175.622C336.04 172.975 335.315 170.061 335.254 167.095C335.194 164.13 335.8 161.189 337.029 158.489C337.956 156.184 339.177 154.009 340.662 152.017C351.497 153.334 372.833 202.605 380.986 206.999C389.14 211.393 421.469 183.775 421.469 183.775L429.607 193.737Z" fill="white"/>
<path opacity="0.2" d="M357.826 208.982C350.322 198.268 343.488 187.1 337.363 175.542C336.025 172.895 335.299 169.981 335.238 167.016C335.178 164.051 335.785 161.11 337.014 158.41C343.184 166.009 355.732 184.251 357.826 208.982Z" fill="black"/>
<path d="M340.646 151.954C340.646 151.954 297.007 149.892 264.503 158.093C264.503 158.093 276.686 252.495 276.147 293.612L353.876 289.424C353.876 289.424 351.989 194.372 340.646 151.954Z" fill="#407BFF"/>
<path opacity="0.6" d="M276.147 293.612C276.4 274.497 273.894 243.865 271.15 216.549C270.103 206.127 269.024 196.18 267.977 187.551C265.994 170.181 264.439 158.109 264.439 158.109C296.943 149.907 340.583 151.97 340.583 151.97C351.925 194.388 353.892 289.44 353.892 289.44L276.147 293.612Z" fill="white"/>
<path opacity="0.2" d="M271.15 216.533C270.103 206.111 269.025 196.165 267.978 187.535L272.974 183.696C272.974 183.696 277.384 200.892 271.15 216.533Z" fill="black"/>
<path opacity="0.2" d="M340.075 253.811L335.808 254.018L324.228 254.557L317.121 254.89L302.321 255.588C302.321 255.588 302.321 254.858 302.242 253.526C302.115 250.655 301.861 244.976 301.433 237.821C301.131 232.491 300.719 226.336 300.211 219.896C299.846 215.454 299.45 210.886 298.99 206.365C298.308 199.654 297.514 193.024 296.579 187.059C296.087 183.886 295.547 180.857 294.992 178.128L331.811 175.733C331.811 175.733 332.287 178.065 333 182.078C333.476 184.711 334.047 188.074 334.666 192.008C337.985 212.449 339.793 233.106 340.075 253.811Z" fill="black"/>
<path opacity="0.2" d="M324.228 254.589L317.121 254.922C322.181 242.057 324.164 223.925 320.769 218.278C316.169 210.632 310.522 225.289 306.492 242.866C305.737 246.659 304.284 250.278 302.209 253.542C302.083 250.671 301.829 244.992 301.4 237.837C303.671 234.069 305.386 229.992 306.492 225.734C312.156 205.857 317.184 202.304 323.656 207.523C329.621 212.297 331.366 235.458 324.228 254.589Z" fill="black"/>
<path opacity="0.2" d="M335.808 254.049C337.251 237.187 335.03 208.776 330.081 200.035C324.418 190.01 311.918 189.788 305.906 207.967C304.586 212.209 302.668 216.242 300.211 219.944C299.846 215.502 299.449 210.933 298.989 206.412C300.681 204.295 302.193 202.039 303.51 199.67C310.363 187.535 320.96 181.888 331.43 188.947C332.653 189.824 333.725 190.896 334.602 192.119C337.937 212.521 339.766 233.141 340.075 253.812L335.808 254.049Z" fill="black"/>
<path opacity="0.2" d="M332.985 182.141C324.752 175.923 313.631 177.605 306.525 183.49C303.81 185.946 300.235 187.229 296.579 187.059C296.087 183.886 295.547 180.857 294.992 178.128L331.811 175.733C331.811 175.733 332.271 178.065 332.985 182.141Z" fill="black"/>
<path d="M289.979 154.825C296.245 160.52 311.601 158.41 311.601 158.41C311.601 158.41 321.119 155.793 319.168 152.795C313.52 151.859 310.792 149.225 309.65 145.862C309.022 143.771 308.828 141.575 309.079 139.406C309.168 138.198 309.327 136.995 309.555 135.805L290.519 121.75C293.073 131.03 296.119 148.099 289.979 154.825Z" fill="#EBB376"/>
<path opacity="0.2" d="M294.96 130.681C295.721 142.071 305.081 145.212 309.665 145.862C309.037 143.771 308.843 141.575 309.094 139.406L294.96 130.681Z" fill="black"/>
<path d="M322.705 92.2446C322.705 92.2446 328.003 109.377 319.707 117.515C311.41 125.653 306.524 93.0219 306.524 93.0219L322.705 92.2446Z" fill="#263238"/>
<path d="M294.786 135.488C297.167 138.084 300.336 139.826 303.804 140.445C307.272 141.064 310.848 140.526 313.98 138.914C318.077 136.914 321.255 133.424 322.864 129.158C323.09 128.566 323.286 127.962 323.451 127.35C326.417 115.96 325.037 97.0036 312.679 91.6735C309.95 90.4866 306.962 90.0176 304 90.3111C301.039 90.6046 298.201 91.6508 295.758 93.3503C293.314 95.0497 291.346 97.3459 290.04 100.021C288.735 102.695 288.135 105.659 288.298 108.631C288.789 121.354 288.472 128.873 294.786 135.488Z" fill="#EBB376"/>
<path d="M307.556 112.629C307.461 113.644 308.063 114.517 308.746 114.517C309.428 114.517 309.983 113.692 310.015 112.661C310.046 111.629 309.491 110.773 308.825 110.773C308.159 110.773 307.588 111.534 307.556 112.629Z" fill="#263238"/>
<path d="M319.278 112.819C319.183 113.834 319.802 114.707 320.468 114.707C321.134 114.707 321.705 113.882 321.737 112.851C321.769 111.82 321.214 110.963 320.547 110.963C319.881 110.963 319.31 111.836 319.278 112.819Z" fill="#263238"/>
<path d="M315.551 113.248C316.71 116.448 318.312 119.47 320.31 122.226C319.584 122.719 318.76 123.048 317.894 123.191C317.029 123.333 316.142 123.286 315.297 123.051L315.551 113.248Z" fill="#D58745"/>
<path d="M303.987 108.711C304.098 108.729 304.212 108.718 304.317 108.679C304.423 108.64 304.517 108.575 304.59 108.489C305.047 107.877 305.641 107.381 306.324 107.039C307.007 106.697 307.76 106.52 308.524 106.522C308.685 106.535 308.846 106.484 308.97 106.38C309.095 106.276 309.174 106.128 309.19 105.966C309.196 105.887 309.187 105.807 309.163 105.732C309.138 105.656 309.099 105.586 309.048 105.526C308.996 105.465 308.933 105.416 308.862 105.38C308.791 105.344 308.714 105.322 308.635 105.316C307.669 105.287 306.711 105.491 305.841 105.911C304.972 106.33 304.216 106.953 303.638 107.727C303.538 107.85 303.491 108.006 303.506 108.164C303.52 108.321 303.596 108.466 303.717 108.568C303.801 108.626 303.891 108.674 303.987 108.711Z" fill="#263238"/>
<path d="M324.403 108.869C324.516 108.908 324.638 108.908 324.752 108.869C324.825 108.838 324.891 108.793 324.946 108.736C325.002 108.679 325.045 108.612 325.075 108.539C325.104 108.465 325.119 108.386 325.118 108.307C325.117 108.227 325.1 108.149 325.069 108.076C324.681 107.187 324.085 106.405 323.332 105.794C322.578 105.184 321.688 104.764 320.738 104.57C320.58 104.548 320.42 104.588 320.292 104.683C320.165 104.779 320.08 104.92 320.056 105.078C320.037 105.235 320.08 105.393 320.174 105.52C320.269 105.647 320.408 105.733 320.564 105.76C321.31 105.935 322.005 106.283 322.592 106.777C323.179 107.27 323.642 107.894 323.943 108.6C323.996 108.674 324.064 108.737 324.144 108.784C324.223 108.83 324.311 108.859 324.403 108.869Z" fill="#263238"/>
<path d="M297.958 92.9268L298.799 98.5106C297.864 98.9918 297.144 99.8072 296.783 100.795C296.421 101.782 296.444 102.87 296.848 103.841C298.783 108.6 296.308 115.913 292.771 118.927C292.771 118.927 292.596 116.896 290.883 117.42C289.17 117.943 289.931 128.524 293.453 133.584C288.978 128.96 285.781 123.254 284.173 117.023C281.238 106.759 281.54 99.1451 283.554 95.0842L297.958 92.9268Z" fill="#263238"/>
<path d="M316.265 126.16C315.734 127.634 315.315 129.145 315.012 130.681C314.737 130.697 314.461 130.697 314.187 130.681C310.443 130.523 308.761 129.206 308.032 127.794C307.694 127.098 307.525 126.331 307.54 125.557C307.536 125.118 307.595 124.68 307.714 124.257C309.973 125.394 312.452 126.028 314.98 126.113C315.773 126.16 316.265 126.16 316.265 126.16Z" fill="#263238"/>
<path d="M314.98 126.081L314.583 127.413C311.062 127.239 308.603 126.652 307.54 125.526C307.537 125.086 307.595 124.648 307.715 124.225C309.973 125.363 312.452 125.996 314.98 126.081Z" fill="white"/>
<path d="M314.186 130.649C310.442 130.491 308.761 129.174 308.031 127.762C309.455 127.855 310.852 128.198 312.156 128.778C313.014 129.17 313.725 129.826 314.186 130.649Z" fill="#DE5753"/>
<path d="M306.35 96.4008C306.758 95.8452 307.347 95.4483 308.015 95.2777C308.683 95.107 309.389 95.1732 310.014 95.4649C312.695 96.2422 315.059 98.9389 317.819 102.365C320.579 105.792 326.036 105.808 327.337 103.777C328.638 101.747 326.084 98.9072 326.084 98.9072C326.084 98.9072 328.431 85.8835 314.234 82.9012C300.036 79.9189 292.565 86.2007 292.565 86.2007C292.565 86.2007 280.778 86.5973 279.874 97.4953C279.567 101.921 279.834 106.368 280.667 110.725C280.667 110.725 277.495 114.707 283.459 114.469C290.233 114.199 298.371 110.519 298.767 103.936C299.164 97.3526 306.35 96.4008 306.35 96.4008Z" fill="#263238"/>
<path d="M282.523 118.974C283.881 121.881 286.333 124.134 289.345 125.24C293.342 126.668 295.69 123.162 294.802 119.228C294.008 115.722 291.01 110.662 286.87 110.963C282.73 111.265 280.905 115.357 282.523 118.974Z" fill="#EBB376"/>
<path d="M264.503 158.093C253.129 161.408 237.234 238.805 239.328 248.846C241.422 258.888 281.366 301.195 281.366 301.195L292.47 292.772C292.47 292.772 258.523 244.706 258.11 234.665C257.698 224.623 273.164 187.392 273.164 187.392C273.164 187.392 272.752 174.844 271.07 168.563C269.89 164.533 267.617 160.909 264.503 158.093Z" fill="#407BFF"/>
<path opacity="0.5" d="M264.503 158.093C253.129 161.408 237.234 238.805 239.328 248.846C241.422 258.888 281.366 301.195 281.366 301.195L292.47 292.772C292.47 292.772 258.523 244.706 258.11 234.665C257.698 224.623 273.164 187.392 273.164 187.392C273.164 187.392 272.752 174.844 271.07 168.563C269.89 164.533 267.617 160.909 264.503 158.093Z" fill="white"/>
</svg>
