<svg width="794" height="591" viewBox="0 0 794 591" fill="none" xmlns="http://www.w3.org/2000/svg">
<path d="M793.161 519.362H0V519.758H793.161V519.362Z" fill="#E6E6E6"/>
<path d="M198.004 543.363H145.465V543.759H198.004V543.363Z" fill="#E6E6E6"/>
<path d="M128.842 543.363H98.4004V543.759H128.842V543.363Z" fill="#E6E6E6"/>
<path d="M334 549.2H303.559V549.597H334V549.2Z" fill="#E6E6E6"/>
<path d="M492.728 558.052H424.215V558.449H492.728V558.052Z" fill="#E6E6E6"/>
<path d="M410.096 558.052H400.055V558.449H410.096V558.052Z" fill="#E6E6E6"/>
<path d="M719.159 549.2H570.553V549.597H719.159V549.2Z" fill="#E6E6E6"/>
<path d="M375.958 448.612H69.6553C67.2558 448.608 64.9559 447.651 63.2607 445.953C61.5654 444.255 60.6133 441.953 60.6133 439.554V8.97858C60.6342 6.59279 61.5955 4.31159 63.2885 2.63047C64.9815 0.949347 67.2694 0.00408698 69.6553 0H375.958C378.36 0 380.664 0.954312 382.363 2.653C384.062 4.35168 385.016 6.65559 385.016 9.0579V439.554C385.016 441.956 384.062 444.26 382.363 445.959C380.664 447.658 378.36 448.612 375.958 448.612ZM69.6553 0.317266C67.3609 0.321468 65.162 1.23585 63.5411 2.8597C61.9202 4.48356 61.0099 6.6842 61.0099 8.97858V439.554C61.0099 441.848 61.9202 444.049 63.5411 445.673C65.162 447.297 67.3609 448.211 69.6553 448.215H375.958C378.254 448.211 380.455 447.297 382.078 445.674C383.701 444.05 384.615 441.85 384.619 439.554V8.97858C384.615 6.68274 383.701 4.48214 382.078 2.85874C380.455 1.23533 378.254 0.321459 375.958 0.317266H69.6553Z" fill="#E6E6E6"/>
<path d="M719.095 448.612H412.777C410.376 448.608 408.074 447.652 406.376 445.954C404.679 444.256 403.723 441.955 403.719 439.554V8.97858C403.744 6.59135 404.709 4.31016 406.404 2.62948C408.1 0.948793 410.389 0.00404241 412.777 0H719.095C721.478 0.00825601 723.762 0.955361 725.452 2.63603C727.141 4.31671 728.101 6.59553 728.122 8.97858V439.554C728.122 441.951 727.172 444.25 725.48 445.948C723.788 447.645 721.492 448.603 719.095 448.612ZM412.777 0.317266C410.481 0.321459 408.28 1.23533 406.657 2.85874C405.033 4.48214 404.12 6.68274 404.115 8.97858V439.554C404.12 441.85 405.033 444.05 406.657 445.674C408.28 447.297 410.481 448.211 412.777 448.215H719.095C721.391 448.211 723.592 447.297 725.215 445.674C726.839 444.05 727.752 441.85 727.757 439.554V8.97858C727.752 6.68274 726.839 4.48214 725.215 2.85874C723.592 1.23533 721.391 0.321459 719.095 0.317266H412.777Z" fill="#E6E6E6"/>
<path d="M424.182 383.858H389.299V522.233H424.182V383.858Z" fill="#E0E0E0"/>
<path d="M417.552 522.233H424.182V503.387H410.604L417.552 522.233Z" fill="#FAFAFA"/>
<path d="M271.325 383.858H236.441V522.233H271.325V383.858Z" fill="#E0E0E0"/>
<path d="M424.183 383.858H265.551V510.669H424.183V383.858Z" fill="#FAFAFA"/>
<path d="M418.424 390.092V423.643H271.261V390.092H418.376H418.424ZM418.995 389.474H270.689V424.246H419.042V389.474H418.995Z" fill="#E0E0E0"/>
<path d="M272.166 522.233H265.551V503.387H279.114L272.166 522.233Z" fill="#FAFAFA"/>
<path d="M341.361 406.86C341.361 407.553 341.567 408.231 341.952 408.808C342.337 409.384 342.885 409.833 343.526 410.099C344.166 410.364 344.871 410.433 345.551 410.298C346.231 410.163 346.856 409.829 347.346 409.339C347.836 408.848 348.17 408.224 348.306 407.544C348.441 406.864 348.371 406.159 348.106 405.518C347.841 404.878 347.391 404.33 346.815 403.945C346.238 403.56 345.56 403.354 344.867 403.354C343.937 403.354 343.046 403.723 342.388 404.381C341.731 405.038 341.361 405.93 341.361 406.86Z" fill="#E6E6E6"/>
<path d="M418.424 430.48V464.031H271.261V430.48H418.376H418.424ZM418.995 429.877H270.689V464.65H419.042V429.893L418.995 429.877Z" fill="#E0E0E0"/>
<path d="M341.361 447.343C341.361 448.036 341.567 448.714 341.952 449.29C342.337 449.867 342.885 450.316 343.526 450.582C344.166 450.847 344.871 450.916 345.551 450.781C346.231 450.646 346.856 450.312 347.346 449.822C347.836 449.331 348.17 448.707 348.306 448.027C348.441 447.347 348.371 446.642 348.106 446.001C347.841 445.361 347.391 444.813 346.815 444.428C346.238 444.043 345.56 443.837 344.867 443.837C343.937 443.837 343.046 444.206 342.388 444.864C341.731 445.521 341.361 446.413 341.361 447.343Z" fill="#E6E6E6"/>
<path d="M418.424 470.884V504.45H271.261V470.884H418.376H418.424ZM418.995 470.265H270.689V505.053H419.042V470.265H418.995Z" fill="#E0E0E0"/>
<path d="M341.361 487.667C341.364 488.36 341.573 489.036 341.96 489.61C342.347 490.185 342.896 490.632 343.536 490.895C344.177 491.157 344.882 491.225 345.561 491.088C346.24 490.951 346.863 490.615 347.352 490.124C347.84 489.634 348.173 489.009 348.307 488.329C348.441 487.65 348.37 486.946 348.104 486.306C347.839 485.666 347.389 485.12 346.813 484.735C346.237 484.351 345.56 484.145 344.867 484.145C344.405 484.145 343.948 484.237 343.522 484.414C343.095 484.591 342.708 484.851 342.383 485.178C342.057 485.505 341.799 485.893 341.624 486.321C341.448 486.748 341.359 487.205 341.361 487.667Z" fill="#E6E6E6"/>
<path d="M250.02 303.495H215.137V522.249H250.02V303.495Z" fill="#E0E0E0"/>
<path d="M243.389 522.233H250.02V503.387H236.457L243.389 522.233Z" fill="#FAFAFA"/>
<path d="M119.657 303.495H84.7734V522.249H119.657V303.495Z" fill="#E0E0E0"/>
<path d="M250.019 303.495H113.865V510.685H250.019V303.495Z" fill="#FAFAFA"/>
<path d="M244.151 309.333V356.24H119.736V309.333H244.151ZM244.881 308.619H118.975V356.922H244.849V308.635L244.881 308.619Z" fill="#E0E0E0"/>
<path d="M244.151 361.967V486.382H184.886V361.967H244.151ZM244.88 361.237H184.172V487.112H244.88V361.237Z" fill="#E0E0E0"/>
<path d="M179.001 361.967V486.382H119.736V361.967H179.001ZM179.715 361.237H118.975V487.112H179.683V361.237H179.715Z" fill="#E0E0E0"/>
<path d="M120.496 522.233H113.865V503.387H127.444L120.496 522.233Z" fill="#FAFAFA"/>
<path d="M178.43 332.81C178.427 333.507 178.63 334.19 179.015 334.771C179.401 335.352 179.949 335.806 180.593 336.075C181.236 336.344 181.944 336.416 182.629 336.282C183.313 336.148 183.942 335.814 184.436 335.322C184.93 334.83 185.267 334.203 185.404 333.519C185.541 332.835 185.472 332.127 185.206 331.482C184.94 330.838 184.489 330.287 183.91 329.899C183.33 329.511 182.649 329.305 181.951 329.305C181.02 329.304 180.127 329.673 179.467 330.33C178.807 330.987 178.434 331.879 178.43 332.81Z" fill="#E6E6E6"/>
<path d="M190.992 421.216C190.992 421.913 191.199 422.595 191.587 423.174C191.975 423.754 192.525 424.205 193.17 424.471C193.814 424.737 194.523 424.806 195.207 424.669C195.89 424.532 196.518 424.195 197.01 423.701C197.502 423.206 197.836 422.577 197.97 421.893C198.104 421.209 198.032 420.501 197.763 419.857C197.494 419.214 197.04 418.665 196.459 418.28C195.878 417.895 195.195 417.691 194.498 417.694C194.036 417.694 193.579 417.786 193.153 417.963C192.726 418.14 192.339 418.4 192.013 418.727C191.688 419.054 191.43 419.442 191.255 419.87C191.079 420.297 190.99 420.754 190.992 421.216Z" fill="#E6E6E6"/>
<path d="M165.881 421.216C165.884 421.909 166.092 422.585 166.479 423.159C166.867 423.734 167.415 424.181 168.056 424.444C168.697 424.706 169.401 424.774 170.08 424.637C170.759 424.5 171.382 424.164 171.871 423.673C172.36 423.183 172.692 422.558 172.826 421.878C172.96 421.199 172.89 420.495 172.624 419.855C172.358 419.215 171.909 418.669 171.333 418.284C170.757 417.9 170.079 417.694 169.387 417.694C168.925 417.694 168.468 417.786 168.041 417.963C167.615 418.14 167.228 418.4 166.902 418.727C166.576 419.054 166.318 419.442 166.143 419.87C165.968 420.297 165.879 420.754 165.881 421.216Z" fill="#E6E6E6"/>
<path d="M161.916 242.501H147.21C148.566 249.634 149.419 256.854 149.764 264.107C149.764 272.038 138.565 303.495 154.523 303.495C170.482 303.495 159.282 272.118 159.282 264.107C159.654 256.852 160.534 249.632 161.916 242.501Z" fill="#E0E0E0"/>
<path d="M105.967 274.672V284.19C105.984 289.292 108.018 294.181 111.626 297.788C115.234 301.396 120.122 303.431 125.225 303.447H134.743C139.845 303.431 144.734 301.396 148.342 297.788C151.95 294.181 153.984 289.292 154.001 284.19V274.672H105.967Z" fill="#F5F5F5"/>
<path d="M310.396 363.68C310.396 374.784 322.817 383.858 337.998 383.858H351.704C366.885 383.858 379.306 374.784 379.306 363.68H310.396Z" fill="#E0E0E0"/>
<path d="M673.568 347.404C665.256 354.194 653.771 366.615 643.269 384.096C636.258 395.74 632.038 407.891 630.182 424.04C630.182 405.797 630.293 386.206 630.357 367.709C632.467 362.95 637.289 351.973 640.747 343.312C652.28 314.393 656.61 307.27 666.969 282.334C680.818 249.021 694.999 209.585 690.938 212.742C682.658 219.166 650.931 278.574 647.505 287.077C638.165 309.768 632.391 333.767 630.388 358.223C630.388 340.774 630.515 324.91 630.579 312.601C630.801 272.451 631.483 259.49 631.816 255.493C633.101 253.462 634.608 251.099 635.496 249.83C642.952 239.043 645.823 229.874 652.835 213.789C662.797 191.025 671.363 150.59 668.857 152.62C658.419 161.123 650.202 179.365 639.383 202.637C628.564 225.908 631.658 239.281 629.516 259.142C629.072 263.044 628.723 277.765 628.469 298.149C625.677 276.417 620.41 262.108 610.813 249.1C599.011 233.094 587.589 222.291 579.214 216.644C570.838 210.997 593.681 250.306 604.595 267.406C614.319 282.698 623.282 296.166 628.39 309.444C628.12 337.093 627.993 372.088 627.993 404.623C625.487 389.807 621.394 373.833 615.937 361.475C609.37 346.627 599.281 323.848 591.238 316.122C589.319 314.266 599.646 358.572 606.276 370.343C612.907 382.113 617.777 393.233 621.949 399.912C622.917 401.498 626.153 407.478 627.993 410.937C627.993 450.706 628.215 485.795 628.564 497.74H630.277C630.166 494.663 630.135 474.421 630.182 447.644C634.323 433.113 643.777 416.52 651.582 401.387C660.084 385 681.88 340.663 673.568 347.404Z" fill="#E0E0E0"/>
<path d="M654.262 522.233H604.547L600.787 473.501H658.022L654.262 522.233Z" fill="#F0F0F0"/>
<path d="M661.719 479.18H597.076L595.236 462.73H663.575L661.719 479.18Z" fill="#F5F5F5"/>
<path d="M197.116 32.5196H108.203V130.158H197.116V32.5196Z" fill="#E0E0E0"/>
<path d="M206.745 32.5196H114.896V130.158H206.745V32.5196Z" fill="#F5F5F5"/>
<path d="M199.051 122.464V40.2133L122.59 40.2133V122.464H199.051Z" fill="white"/>
<path d="M180.508 102.508V60.1375H141.119V102.508H180.508Z" fill="#F5F5F5"/>
<path d="M650.471 43.8935H567.871V134.599H650.471V43.8935Z" fill="#E0E0E0"/>
<path d="M659.418 43.8935H574.105V134.599H659.418V43.8935Z" fill="#F5F5F5"/>
<path d="M652.279 127.445V51.0478L581.26 51.0478V127.445H652.279Z" fill="white"/>
<path d="M616.762 111.407C629.002 111.407 638.923 101.486 638.923 89.2465C638.923 77.0073 629.002 67.0855 616.762 67.0855C604.523 67.0855 594.602 77.0073 594.602 89.2465C594.602 101.486 604.523 111.407 616.762 111.407Z" fill="#F5F5F5"/>
<path d="M289.489 90.7376H223.529V163.169H289.489V90.7376Z" fill="#E0E0E0"/>
<path d="M296.627 90.7376H228.494V163.169H296.627V90.7376Z" fill="#F5F5F5"/>
<path d="M290.916 157.458V96.4484H234.205V157.458H290.916Z" fill="white"/>
<path d="M262.569 111.518L247.055 138.391H278.083L262.569 111.518Z" fill="#F5F5F5"/>
<path d="M396.58 591C566.447 591 704.152 582.96 704.152 573.043C704.152 563.125 566.447 555.086 396.58 555.086C226.712 555.086 89.0078 563.125 89.0078 573.043C89.0078 582.96 226.712 591 396.58 591Z" fill="#F5F5F5"/>
<path d="M554.024 172.005L538.288 165.66C538.288 165.66 517.523 203.525 511.574 205.445C503.484 208.046 486.732 215.28 476.802 216.549C475.454 218.135 473.249 223.069 473.455 224.861C486.796 229.319 516.111 223.402 522.393 218.738C536.686 208.157 554.024 172.005 554.024 172.005Z" fill="#E58A7B"/>
<path d="M558.863 163.391C561.798 174.226 545.903 196.022 545.903 196.022L525.074 184.346C525.074 184.346 528.977 175.384 533.736 166.262C541.366 151.525 555.516 151.034 558.863 163.391Z" fill="#407BFF"/>
<path opacity="0.2" d="M558.863 163.391C561.798 174.226 545.903 196.022 545.903 196.022L525.074 184.346C525.074 184.346 528.977 175.384 533.736 166.262C541.366 151.525 555.516 151.034 558.863 163.391Z" fill="black"/>
<path opacity="0.2" d="M533.338 189.01L541.539 193.611L542.983 168.436C538.208 172.1 534.845 183.141 533.338 189.01Z" fill="black"/>
<path d="M545.156 155.237C545.156 155.237 528.944 191.31 538.398 258.475H602.279C603.295 248.672 599.932 200.828 612.099 154.635C605.091 153.265 598.001 152.359 590.874 151.922C581.834 151.398 572.771 151.398 563.732 151.922C557.465 152.558 551.256 153.667 545.156 155.237Z" fill="#407BFF"/>
<path opacity="0.2" d="M545.156 155.237C545.156 155.237 528.944 191.31 538.398 258.475H602.279C603.295 248.672 599.932 200.828 612.099 154.635C605.091 153.265 598.001 152.359 590.874 151.922C581.834 151.398 572.771 151.398 563.732 151.922C557.465 152.558 551.256 153.667 545.156 155.237Z" fill="black"/>
<g style="mix-blend-mode:multiply">
<path d="M530.34 574.471C530.245 576.184 554.468 577.564 584.434 577.564C614.399 577.564 638.797 576.184 638.892 574.471C638.987 572.757 614.78 571.393 584.799 571.393C554.817 571.393 530.451 572.773 530.34 574.471Z" fill="#E8ECF1"/>
</g>
<path d="M572.981 529.455L561.65 533.841L571.41 559.054L582.74 554.668L572.981 529.455Z" fill="#E58A7B"/>
<path d="M623.505 562.272H611.56L607.182 534.622H619.127L623.505 562.272Z" fill="#E58A7B"/>
<path d="M610.735 560.892H624.155C624.388 560.892 624.613 560.976 624.79 561.127C624.967 561.278 625.085 561.487 625.122 561.717L626.852 572.329C626.888 572.595 626.867 572.866 626.789 573.123C626.711 573.381 626.579 573.618 626.402 573.82C626.224 574.022 626.005 574.183 625.76 574.292C625.514 574.402 625.248 574.457 624.98 574.455C620.3 574.375 618.047 574.09 612.146 574.09C608.514 574.09 601.042 574.471 595.998 574.471C590.953 574.471 590.62 569.521 592.698 569.061C602.026 567.047 605.642 564.302 608.752 561.637C609.3 561.156 610.005 560.891 610.735 560.892Z" fill="#263238"/>
<path d="M571.076 556.799L583.767 553.087C583.993 553.023 584.235 553.039 584.451 553.131C584.668 553.223 584.846 553.387 584.957 553.595L589.716 563.112C589.826 563.354 589.883 563.617 589.881 563.882C589.88 564.148 589.82 564.41 589.707 564.65C589.594 564.89 589.429 565.103 589.225 565.273C589.021 565.443 588.783 565.566 588.526 565.635C583.91 566.904 580.816 567.681 575.042 569.363C571.061 570.521 567 572.408 563.065 573.662C560.337 574.534 553.928 574.566 550.613 574.566C545.711 574.566 544.617 569.394 546.726 569.156C552.041 568.569 552.754 568.839 555.689 567.364C560.491 565.265 564.843 562.259 568.507 558.512C569.197 557.725 570.084 557.134 571.076 556.799Z" fill="#263238"/>
<path d="M478.8 216.485L465.665 210.981L460.256 225.543C465.639 226.363 471.116 226.363 476.5 225.543L478.8 216.485Z" fill="#E58A7B"/>
<path d="M455.894 210.6L455.545 220.277L460.256 225.511L465.666 210.949L455.894 210.6Z" fill="#E58A7B"/>
<path d="M574.535 531.596L563.17 535.984L568.203 549.022L579.569 544.634L574.535 531.596Z" fill="#CF6F64"/>
<path d="M619.127 534.622H607.182L609.45 548.883H621.395L619.127 534.622Z" fill="#CF6F64"/>
<path opacity="0.2" d="M536.367 240.312C536.605 243.183 536.875 246.118 537.224 249.132L584.718 233.713C592.135 231.515 598.581 226.854 602.993 220.499C603.183 216.263 603.421 211.806 603.786 207.158C603.944 204.905 604.135 202.589 604.341 200.241C604.547 197.894 604.833 195.292 605.134 192.786L536.367 240.312Z" fill="black"/>
<path d="M551.881 188.281L550.295 188.09C551.231 180.159 557.148 173.908 563.382 174.067V175.653C557.925 175.542 552.722 181.174 551.881 188.281Z" fill="white"/>
<path d="M560.338 202.922H560.068V201.336C565.525 201.542 570.649 195.847 571.49 188.756L573.076 188.947C572.235 196.704 566.509 202.922 560.338 202.922Z" fill="white"/>
<path d="M589.986 121.354C587.749 130.094 585.116 146.1 590.874 151.922C590.874 151.922 586.845 160.79 570.617 160.79C555.785 160.79 563.732 151.922 563.732 151.922C573.599 149.606 573.774 142.404 572.473 135.583L589.986 121.354Z" fill="#E58A7B"/>
<path d="M582.847 127.16L572.488 135.583C572.809 137.15 572.995 138.743 573.043 140.342C576.073 143.356 582.149 135.726 582.768 131.823C583.082 130.287 583.109 128.706 582.847 127.16Z" fill="#CF6F64"/>
<path d="M554.673 121.243C555.394 122.492 556.365 123.579 557.525 124.436C558.685 125.293 560.009 125.902 561.415 126.224C565.222 127.064 567.126 123.559 566.079 120.037C565.143 116.864 562.018 112.597 558.147 113.327C557.318 113.498 556.542 113.865 555.884 114.397C555.226 114.929 554.705 115.612 554.365 116.387C554.024 117.162 553.875 118.007 553.929 118.852C553.982 119.697 554.238 120.517 554.673 121.243Z" fill="#CF6F64"/>
<path d="M560.972 93.2757C555.04 95.9883 552.946 119.561 560.401 123.051C567.857 126.541 572.204 88.1202 560.972 93.2757Z" fill="#263238"/>
<path d="M591.795 108.203C590.367 120.037 590.209 127.001 583.863 133.061C581.897 135.072 579.413 136.5 576.687 137.188C573.96 137.876 571.096 137.798 568.411 136.961C565.726 136.124 563.324 134.561 561.471 132.445C559.618 130.329 558.386 127.742 557.911 124.97C555.992 114.342 558.641 96.7815 570.507 92.0701C573 90.9705 575.741 90.5576 578.448 90.8745C581.154 91.1913 583.727 92.2262 585.898 93.872C588.07 95.5177 589.762 97.7144 590.799 100.234C591.836 102.754 592.18 105.505 591.795 108.203Z" fill="#E58A7B"/>
<path d="M572.299 99.3989C581.087 97.1622 587.543 95.6393 585.227 102.952C582.166 112.724 578.486 122.178 583.419 122.607C586.433 122.876 599.758 117.229 598.061 111.503C596.585 106.521 602.82 105.157 603.93 102.635C608.039 93.4978 596.284 94.7034 598.378 89.1513C600.472 83.5991 588.86 74.6523 582.515 79.1099C572.188 86.3118 554.469 86.2007 563.78 74.3509C570.459 65.8958 558.545 67.6249 558.545 67.6249C558.545 67.6249 565.747 71.8921 553.628 78.4912C540.81 85.5345 552.565 104.459 572.299 99.3989Z" fill="#263238"/>
<path d="M596.458 121.243C594.723 123.753 592.116 125.528 589.145 126.224C585.227 127.064 583.72 123.559 585.195 120.037C586.512 116.864 590.128 112.597 593.872 113.327C597.616 114.057 598.472 118.133 596.458 121.243Z" fill="#E58A7B"/>
<path d="M538.399 258.475C538.399 258.475 527.676 354.448 526.835 390.87C525.978 428.751 563.178 546.948 563.178 546.948L582.213 539.016C582.213 539.016 560.005 431.019 563.178 393.82C566.541 353.258 580.437 258.539 580.437 258.539L538.399 258.475Z" fill="#407BFF"/>
<path opacity="0.2" d="M565.049 284.824C556.499 302.559 562.257 337.633 566.889 358.414C568.65 343.74 570.744 327.813 572.727 313.076C572.536 290.424 570.776 272.927 565.049 284.824Z" fill="black"/>
<path d="M581.371 532.734C581.466 532.734 583.624 538.794 583.624 538.794L561.669 548.027L558.211 541.586L581.371 532.734Z" fill="#407BFF"/>
<path d="M561.066 258.475C561.066 258.475 569.268 349.752 574.693 383.937C580.657 421.39 604.04 546.123 604.04 546.123H625.915C625.915 546.123 612.812 424.42 610.338 387.332C607.641 347.103 602.279 258.475 602.279 258.475H561.066Z" fill="#407BFF"/>
<path d="M626.249 540.428C626.344 540.428 626.979 546.535 626.979 546.535H602.93L601.217 539.524L626.249 540.428Z" fill="#407BFF"/>
<path opacity="0.2" d="M617.873 533.194C617.824 533.195 617.775 533.178 617.738 533.146C617.7 533.114 617.675 533.069 617.667 533.02C617.54 531.91 605.722 421.977 603.501 388.665C601.09 352.528 596.236 272.371 596.188 271.562C596.186 271.536 596.189 271.51 596.198 271.485C596.206 271.46 596.22 271.437 596.238 271.417C596.256 271.398 596.278 271.383 596.302 271.372C596.326 271.362 596.352 271.356 596.379 271.356C596.431 271.356 596.481 271.376 596.519 271.411C596.557 271.446 596.581 271.495 596.585 271.547C596.585 272.356 601.487 352.449 603.898 388.649C606.119 421.962 617.937 531.814 618.048 533.004C618.052 533.03 618.051 533.057 618.045 533.083C618.038 533.109 618.026 533.133 618.01 533.154C617.993 533.175 617.973 533.192 617.949 533.205C617.926 533.217 617.9 533.224 617.873 533.226V533.194Z" fill="black"/>
<path d="M573.647 111.503C573.647 112.47 573.045 113.248 572.41 113.248C571.775 113.248 571.315 112.47 571.379 111.503C571.442 110.535 571.982 109.758 572.616 109.758C573.251 109.758 573.711 110.551 573.647 111.503Z" fill="#263238"/>
<path d="M562.764 111.503C562.764 112.47 562.145 113.248 561.527 113.248C560.908 113.248 560.432 112.47 560.48 111.503C560.527 110.535 561.098 109.758 561.733 109.758C562.368 109.758 562.828 110.551 562.764 111.503Z" fill="#263238"/>
<path d="M566.191 111.994C564.867 114.949 563.161 117.717 561.115 120.227C562.702 121.814 565.668 121.084 565.668 121.084L566.191 111.994Z" fill="#DF5753"/>
<path d="M566.477 125.129C566.44 125.129 566.404 125.122 566.37 125.107C566.336 125.093 566.306 125.071 566.281 125.045C566.255 125.018 566.236 124.986 566.223 124.952C566.211 124.917 566.205 124.88 566.207 124.844C566.212 124.766 566.245 124.694 566.301 124.641C566.357 124.587 566.432 124.558 566.509 124.558C567.722 124.566 568.922 124.303 570.02 123.787C571.118 123.271 572.086 122.515 572.854 121.576C572.909 121.528 572.98 121.501 573.052 121.501C573.125 121.501 573.196 121.528 573.251 121.576C573.302 121.629 573.331 121.7 573.331 121.774C573.331 121.848 573.302 121.919 573.251 121.972C572.429 122.971 571.394 123.773 570.222 124.319C569.05 124.865 567.77 125.142 566.477 125.129Z" fill="#263238"/>
<path d="M575.581 108.584C575.505 108.623 575.421 108.643 575.335 108.643C575.25 108.643 575.166 108.623 575.09 108.584C574.496 108.2 573.821 107.961 573.118 107.887C572.415 107.813 571.705 107.905 571.044 108.155C570.98 108.188 570.91 108.207 570.838 108.211C570.766 108.216 570.694 108.206 570.626 108.182C570.558 108.159 570.495 108.122 570.442 108.074C570.389 108.025 570.345 107.967 570.315 107.902C570.256 107.76 570.254 107.602 570.311 107.46C570.367 107.317 570.477 107.203 570.616 107.14C571.446 106.801 572.344 106.668 573.236 106.751C574.128 106.834 574.987 107.13 575.74 107.616C575.801 107.657 575.853 107.71 575.893 107.772C575.933 107.834 575.961 107.903 575.974 107.975C575.987 108.047 575.986 108.121 575.97 108.193C575.955 108.265 575.925 108.333 575.883 108.393C575.803 108.484 575.698 108.55 575.581 108.584Z" fill="#263238"/>
<path d="M558.561 105.411C558.476 105.391 558.399 105.347 558.339 105.284C558.286 105.232 558.244 105.171 558.215 105.103C558.187 105.035 558.172 104.961 558.172 104.888C558.172 104.814 558.187 104.741 558.215 104.673C558.244 104.604 558.286 104.543 558.339 104.491C558.946 103.809 559.704 103.277 560.551 102.936C561.399 102.594 562.313 102.454 563.224 102.524C563.297 102.535 563.367 102.561 563.43 102.601C563.492 102.64 563.546 102.692 563.588 102.753C563.629 102.814 563.658 102.883 563.672 102.955C563.686 103.028 563.685 103.102 563.669 103.174C563.635 103.321 563.548 103.451 563.425 103.538C563.303 103.626 563.152 103.666 563.002 103.65C562.282 103.605 561.56 103.724 560.892 103.999C560.224 104.274 559.628 104.697 559.148 105.237C559.075 105.317 558.982 105.376 558.879 105.406C558.775 105.437 558.665 105.439 558.561 105.411Z" fill="#263238"/>
<path d="M618.238 170.244L601.74 165.85C601.74 165.85 585.56 205.682 579.833 208.268C572.06 211.822 552.374 224.131 543.998 229.953C543.538 231.936 543.903 237.187 544.95 238.63C559.227 236.029 586.559 225.511 592.27 220.166C605.294 207.967 618.238 170.244 618.238 170.244Z" fill="#E58A7B"/>
<path d="M606.721 562.986C605.916 563.049 605.114 562.831 604.453 562.367C604.249 562.182 604.096 561.948 604.009 561.686C603.923 561.425 603.907 561.146 603.961 560.876C603.971 560.707 604.026 560.544 604.121 560.405C604.216 560.265 604.347 560.154 604.5 560.083C605.833 559.401 609.561 561.764 609.989 562.034C610.036 562.063 610.072 562.106 610.093 562.158C610.113 562.209 610.115 562.266 610.1 562.319C610.087 562.375 610.059 562.426 610.02 562.467C609.981 562.509 609.932 562.54 609.878 562.557C608.844 562.811 607.786 562.955 606.721 562.986ZM605.135 560.511C605.015 560.484 604.89 560.484 604.77 560.511C604.709 560.542 604.659 560.59 604.625 560.649C604.591 560.708 604.575 560.776 604.58 560.844C604.537 561.029 604.544 561.221 604.6 561.402C604.656 561.583 604.758 561.746 604.897 561.875C605.516 562.43 607.07 562.494 609.117 562.097C607.898 561.295 606.526 560.754 605.087 560.511H605.135Z" fill="#407BFF"/>
<path d="M609.799 562.557C609.757 562.571 609.713 562.571 609.672 562.557C608.482 561.891 606.245 559.274 606.578 557.941C606.628 557.73 606.748 557.541 606.917 557.406C607.087 557.271 607.297 557.197 607.514 557.195C607.727 557.167 607.944 557.185 608.149 557.248C608.354 557.311 608.544 557.417 608.704 557.56C610.021 558.687 610.1 562.145 610.1 562.319C610.108 562.371 610.098 562.425 610.072 562.471C610.046 562.517 610.006 562.553 609.957 562.573C609.904 562.584 609.849 562.578 609.799 562.557ZM607.673 557.719H607.562C607.197 557.719 607.149 557.925 607.134 558.005C606.943 558.782 608.355 560.765 609.529 561.701C609.524 560.361 609.108 559.054 608.339 557.957C608.155 557.796 607.917 557.711 607.673 557.719Z" fill="#407BFF"/>
<path d="M564.605 561.003C563.635 561.341 562.578 561.341 561.607 561.003C561.387 560.883 561.2 560.71 561.064 560.5C560.928 560.289 560.848 560.047 560.83 559.797C560.81 559.64 560.83 559.481 560.888 559.334C560.946 559.187 561.041 559.057 561.163 558.956C562.432 557.814 567.619 558.956 568.206 559.178C568.262 559.193 568.311 559.226 568.346 559.272C568.38 559.318 568.398 559.375 568.397 559.432C568.399 559.492 568.384 559.551 568.353 559.601C568.322 559.652 568.276 559.693 568.222 559.718C567.054 560.245 565.844 560.675 564.605 561.003ZM562.02 559.115C561.838 559.151 561.669 559.233 561.528 559.353C561.477 559.391 561.438 559.442 561.416 559.501C561.394 559.56 561.388 559.624 561.401 559.686C561.411 559.853 561.463 560.014 561.552 560.155C561.64 560.296 561.763 560.413 561.908 560.495C562.749 560.939 564.7 560.59 567.223 559.527C565.524 559.099 563.765 558.959 562.02 559.115Z" fill="#407BFF"/>
<path d="M568.174 559.718H568.048C566.461 559.432 563.289 557.608 563.193 556.244C563.193 555.926 563.336 555.482 564.098 555.228C564.355 555.137 564.628 555.098 564.9 555.114C565.173 555.131 565.439 555.202 565.684 555.324C567.397 556.164 568.301 559.21 568.349 559.353C568.36 559.401 568.359 559.451 568.345 559.498C568.331 559.545 568.305 559.588 568.27 559.623C568.246 559.661 568.213 559.694 568.174 559.718ZM564.415 555.704H564.256C563.764 555.879 563.764 556.085 563.764 556.149C563.764 556.973 566.065 558.48 567.667 558.988C567.298 557.714 566.517 556.598 565.446 555.815C565.127 555.653 564.761 555.614 564.415 555.704Z" fill="#407BFF"/>
<path d="M545.346 229.017L528.8 236.632L526.881 241.391L532.988 245.499C532.988 245.499 544.41 244.262 547.662 236.917L545.346 229.017Z" fill="#E58A7B"/>
<path d="M546.044 238.9C545.675 235.721 544.625 232.659 542.967 229.921L545.584 227.954C547.553 231.108 548.809 234.655 549.264 238.345L546.044 238.9Z" fill="#263238"/>
<path d="M548.868 231.27C549.217 231.82 549.389 232.465 549.36 233.116C549.33 233.767 549.101 234.393 548.703 234.91C548.304 235.426 547.757 235.807 547.135 236.001C546.512 236.195 545.845 236.193 545.224 235.994C544.603 235.796 544.058 235.411 543.664 234.892C543.27 234.372 543.045 233.745 543.02 233.093C542.995 232.442 543.172 231.798 543.525 231.251C543.879 230.703 544.393 230.278 544.997 230.032C545.675 229.687 546.462 229.623 547.187 229.855C547.912 230.087 548.516 230.595 548.868 231.27Z" fill="#263238"/>
<path d="M517.617 242.787L519.822 245.007L534.67 238.662L528.801 236.632L517.617 242.787Z" fill="#E58A7B"/>
<path opacity="0.2" d="M581.371 532.734C581.466 532.734 583.624 538.794 583.624 538.794L561.669 548.027L558.211 541.586L581.371 532.734Z" fill="black"/>
<path opacity="0.2" d="M626.249 540.428C626.344 540.428 626.979 546.535 626.979 546.535H602.93L601.217 539.524L626.249 540.428Z" fill="black"/>
<path d="M622.537 165.675C626.899 179.746 609.846 198.988 609.846 198.988L586.289 189.375C589.081 181.242 592.301 173.263 595.934 165.469C603.168 149.876 618.127 151.478 622.537 165.675Z" fill="#407BFF"/>
<path opacity="0.2" d="M622.537 165.675C626.899 179.746 609.846 198.988 609.846 198.988L586.289 189.375C589.081 181.242 592.301 173.263 595.934 165.469C603.168 149.876 618.127 151.478 622.537 165.675Z" fill="black"/>
<path d="M388.459 24.699H378.322V26.3329H388.459V24.699Z" fill="#407BFF"/>
<path d="M519.676 89.3678L518.449 116.593L520.081 116.667L521.308 89.4414L519.676 89.3678Z" fill="#407BFF"/>
<path d="M516.522 32.0278H329.336L311.918 421.819H499.104L516.522 32.0278Z" fill="#407BFF"/>
<path opacity="0.56" d="M510.938 37.3896H323.752L306.334 427.181H493.52L510.938 37.3896Z" fill="#FAFAFA"/>
<path opacity="0.07" d="M505.354 42.7355H318.168L300.734 432.526H487.92L505.354 42.7355Z" fill="#407BFF"/>
<path d="M484.05 212.742H324.276L322.943 242.564H482.718L484.05 212.742Z" fill="white"/>
<path d="M412.142 190.977H325.243L324.656 204.318H411.555L412.142 190.977Z" fill="#407BFF"/>
<path d="M480.449 293.232H320.674L319.342 323.054H479.116L480.449 293.232Z" fill="white"/>
<path opacity="0.47" d="M451.149 363.331H343.708L342.105 399.071H449.547L451.149 363.331Z" fill="#407BFF"/>
<path d="M443.963 404.623H336.522C336.475 404.635 336.426 404.635 336.379 404.623C336.363 404.577 336.363 404.527 336.379 404.48L337.965 368.725C337.965 368.7 337.97 368.676 337.98 368.654C337.99 368.632 338.004 368.612 338.022 368.595C338.04 368.579 338.061 368.566 338.084 368.559C338.107 368.551 338.131 368.548 338.156 368.55H445.597C445.617 368.54 445.639 368.535 445.661 368.535C445.683 368.535 445.704 368.54 445.724 368.55C445.735 368.569 445.741 368.591 445.741 368.614C445.741 368.636 445.735 368.658 445.724 368.677L444.17 404.512C444.15 404.549 444.121 404.58 444.084 404.6C444.047 404.62 444.005 404.628 443.963 404.623ZM336.712 404.242H443.773L445.359 368.867H338.298L336.712 404.242Z" fill="white"/>
<path d="M393.375 271.467H321.642L321.055 284.824H392.772L393.375 271.467Z" fill="#407BFF"/>
<path d="M449.103 116.404C448.693 125.084 445.606 133.423 440.267 140.278C436.314 145.456 431.228 149.66 425.399 152.567C419.569 155.473 413.151 157.005 406.637 157.046C401.373 157.086 396.156 156.048 391.309 153.996C386.461 151.944 382.085 148.921 378.45 145.113C374.815 141.306 371.998 136.794 370.172 131.857C368.347 126.92 367.552 121.661 367.835 116.404C368.393 105.497 373.097 95.2144 380.985 87.6599C388.872 80.1054 399.348 75.8496 410.269 75.7628C415.537 75.7136 420.759 76.7453 425.613 78.7939C430.466 80.8426 434.848 83.8647 438.488 87.6736C442.127 91.4825 444.947 95.9973 446.773 100.939C448.598 105.881 449.391 111.144 449.103 116.404Z" fill="white"/>
<path d="M452.926 84.2654C452.822 86.5732 452.002 88.7913 450.578 90.6107C449.525 91.986 448.171 93.1025 446.62 93.875C445.07 94.6475 443.363 95.0557 441.631 95.0683C439.953 95.0785 438.297 94.6775 436.81 93.9005C435.322 93.1235 434.047 91.994 433.097 90.6107C431.838 88.7415 431.215 86.5165 431.32 84.2654C431.473 81.3694 432.726 78.641 434.821 76.6366C436.917 74.6321 439.699 73.5026 442.599 73.4784C443.998 73.4657 445.385 73.7395 446.674 74.2831C447.963 74.8266 449.127 75.6284 450.095 76.639C451.062 77.6496 451.812 78.8476 452.299 80.1593C452.786 81.4709 452.999 82.8683 452.926 84.2654Z" fill="#407BFF"/>
<path d="M341.488 227.653C341.412 228.931 340.854 230.133 339.926 231.016C338.999 231.899 337.771 232.398 336.491 232.412C335.873 232.419 335.259 232.3 334.689 232.061C334.119 231.822 333.604 231.468 333.176 231.022C332.747 230.576 332.415 230.047 332.2 229.468C331.984 228.888 331.89 228.27 331.922 227.653C331.991 226.372 332.547 225.166 333.476 224.281C334.405 223.397 335.636 222.9 336.919 222.894C337.537 222.889 338.149 223.01 338.718 223.25C339.287 223.49 339.802 223.843 340.229 224.289C340.657 224.734 340.989 225.263 341.206 225.841C341.422 226.42 341.518 227.036 341.488 227.653Z" fill="#263238"/>
<path d="M362.87 227.653C362.798 228.933 362.241 230.137 361.313 231.021C360.385 231.904 359.155 232.402 357.873 232.412C357.257 232.417 356.645 232.296 356.077 232.056C355.508 231.816 354.995 231.462 354.569 231.016C354.142 230.571 353.811 230.042 353.597 229.464C353.382 228.885 353.288 228.269 353.321 227.653C353.389 226.375 353.943 225.171 354.868 224.287C355.794 223.402 357.022 222.904 358.302 222.894C358.92 222.887 359.533 223.006 360.103 223.245C360.674 223.484 361.189 223.838 361.617 224.284C362.045 224.73 362.377 225.259 362.593 225.838C362.809 226.418 362.903 227.036 362.87 227.653Z" fill="#263238"/>
<path d="M384.27 227.653C384.198 228.933 383.641 230.137 382.713 231.021C381.785 231.904 380.555 232.402 379.273 232.412C378.656 232.417 378.044 232.296 377.474 232.056C376.905 231.816 376.391 231.463 375.963 231.017C375.536 230.572 375.203 230.043 374.987 229.465C374.77 228.887 374.674 228.27 374.705 227.653C374.777 226.373 375.334 225.169 376.262 224.286C377.19 223.402 378.42 222.904 379.702 222.894C380.32 222.887 380.933 223.006 381.503 223.245C382.074 223.484 382.589 223.838 383.017 224.284C383.445 224.73 383.777 225.259 383.993 225.838C384.208 226.418 384.303 227.036 384.27 227.653Z" fill="#263238"/>
<path d="M337.885 308.143C337.809 309.421 337.251 310.623 336.324 311.506C335.397 312.389 334.169 312.888 332.889 312.902C332.271 312.907 331.659 312.786 331.09 312.546C330.52 312.306 330.006 311.953 329.578 311.507C329.151 311.062 328.819 310.533 328.602 309.955C328.386 309.376 328.29 308.76 328.32 308.143C328.392 306.863 328.949 305.659 329.877 304.775C330.805 303.892 332.035 303.394 333.317 303.384C333.934 303.379 334.547 303.5 335.116 303.74C335.685 303.98 336.199 304.333 336.627 304.779C337.055 305.224 337.387 305.753 337.603 306.331C337.82 306.91 337.916 307.526 337.885 308.143Z" fill="#263238"/>
<path d="M359.269 308.143C359.196 309.42 358.642 310.622 357.717 311.505C356.792 312.389 355.567 312.888 354.288 312.902C353.669 312.909 353.056 312.79 352.486 312.551C351.916 312.312 351.401 311.958 350.973 311.512C350.544 311.066 350.212 310.537 349.997 309.958C349.781 309.378 349.687 308.76 349.719 308.143C349.792 306.863 350.349 305.659 351.277 304.775C352.205 303.892 353.434 303.394 354.716 303.384C355.333 303.379 355.944 303.5 356.513 303.74C357.081 303.98 357.594 304.334 358.021 304.78C358.447 305.225 358.778 305.754 358.993 306.332C359.207 306.911 359.301 307.527 359.269 308.143Z" fill="#263238"/>
<path d="M380.717 308.143C380.644 309.423 380.087 310.627 379.159 311.511C378.231 312.394 377.001 312.892 375.72 312.902C375.103 312.905 374.492 312.782 373.924 312.541C373.355 312.301 372.842 311.947 372.415 311.502C371.988 311.057 371.655 310.53 371.438 309.952C371.221 309.375 371.123 308.759 371.151 308.143C371.227 306.865 371.785 305.663 372.713 304.78C373.64 303.897 374.868 303.398 376.148 303.384C376.766 303.377 377.38 303.496 377.95 303.735C378.52 303.974 379.035 304.328 379.463 304.774C379.892 305.22 380.224 305.749 380.439 306.328C380.655 306.908 380.749 307.526 380.717 308.143Z" fill="#263238"/>
<path d="M402.068 308.143C401.992 309.421 401.434 310.623 400.507 311.506C399.579 312.389 398.352 312.888 397.071 312.902C396.454 312.905 395.843 312.782 395.275 312.541C394.707 312.301 394.194 311.947 393.767 311.502C393.339 311.057 393.007 310.53 392.79 309.952C392.572 309.375 392.475 308.759 392.503 308.143C392.579 306.865 393.137 305.663 394.064 304.78C394.992 303.897 396.219 303.398 397.5 303.384C398.117 303.379 398.729 303.5 399.299 303.74C399.868 303.98 400.382 304.333 400.81 304.779C401.237 305.224 401.57 305.753 401.786 306.331C402.002 306.91 402.099 307.526 402.068 308.143Z" fill="#263238"/>
<path d="M423.548 308.143C423.472 309.421 422.914 310.623 421.987 311.506C421.06 312.389 419.832 312.888 418.551 312.902C417.933 312.909 417.32 312.79 416.75 312.551C416.18 312.312 415.664 311.958 415.236 311.512C414.808 311.066 414.476 310.537 414.26 309.958C414.045 309.378 413.95 308.76 413.983 308.143C414.055 306.863 414.612 305.659 415.54 304.775C416.468 303.892 417.698 303.394 418.98 303.384C419.597 303.379 420.21 303.5 420.779 303.74C421.348 303.98 421.862 304.333 422.29 304.779C422.718 305.224 423.05 305.753 423.266 306.331C423.483 306.91 423.579 307.526 423.548 308.143Z" fill="#263238"/>
<path d="M420.301 114.288C426.941 107.795 427.293 97.3874 421.088 91.0421C414.883 84.6969 404.47 84.8167 397.831 91.3096C391.191 97.8025 390.839 108.21 397.044 114.555C403.249 120.9 413.661 120.781 420.301 114.288Z" fill="#407BFF"/>
<path d="M440.266 140.278C436.314 145.456 431.228 149.66 425.398 152.567C419.568 155.473 413.15 157.005 406.636 157.046C400.32 157.099 394.087 155.598 388.488 152.674C382.889 149.75 378.095 145.493 374.529 140.278C382.239 132.601 394.438 127.588 407.953 127.588C421.469 127.588 433.239 132.601 440.266 140.278Z" fill="#407BFF"/>
<path opacity="0.1" d="M420.301 114.288C426.941 107.795 427.293 97.3874 421.088 91.0421C414.883 84.6969 404.47 84.8167 397.831 91.3096C391.191 97.8025 390.839 108.21 397.044 114.555C403.249 120.9 413.661 120.781 420.301 114.288Z" fill="white"/>
<path opacity="0.1" d="M440.266 140.278C436.314 145.456 431.228 149.66 425.398 152.567C419.568 155.473 413.15 157.005 406.636 157.046C400.32 157.099 394.087 155.598 388.488 152.674C382.889 149.75 378.095 145.493 374.529 140.278C382.239 132.601 394.438 127.588 407.953 127.588C421.469 127.588 433.239 132.601 440.266 140.278Z" fill="white"/>
<path d="M206.872 249.75C205.365 253.05 203.779 256.683 202.399 260.204C201.019 263.726 199.607 267.359 198.385 270.975C195.891 278.103 193.992 285.425 192.706 292.867L192.357 295.199C192.324 295.599 192.362 296.001 192.468 296.388C192.843 297.703 193.432 298.947 194.213 300.069C196.251 302.973 198.614 305.634 201.257 308C204.043 310.592 206.966 313.033 210.013 315.313C213.059 317.661 216.263 319.945 219.42 322.103L216.454 327.671C208.916 324.386 201.761 320.285 195.118 315.44C191.573 312.855 188.375 309.827 185.6 306.43C183.955 304.407 182.672 302.116 181.808 299.656C181.306 298.12 181.049 296.514 181.047 294.897C181.047 294.516 181.047 293.961 181.047 293.692V292.914L181.206 291.328C182.115 283.063 183.853 274.911 186.393 266.994C187.63 263.091 188.947 259.205 190.454 255.414C191.961 251.622 193.515 247.91 195.435 244.056L206.872 249.75Z" fill="#E58A7B"/>
<path d="M217.185 321.119L228.4 315.44L225.497 327.75C225.497 327.75 217.804 329.907 214.234 326.164L217.185 321.119Z" fill="#E58A7B"/>
<path d="M238.663 317.455L235.68 327.639L225.496 327.75L228.399 315.44L238.663 317.455Z" fill="#E58A7B"/>
<path d="M254.495 190.359C255.094 192.557 255.929 194.684 256.985 196.704C256.677 197.054 256.279 197.313 255.835 197.456C255.391 197.598 254.917 197.618 254.463 197.513L254.495 190.359Z" fill="#DF5753"/>
<path d="M254.162 190.454C254.819 190.454 255.352 189.637 255.352 188.63C255.352 187.622 254.819 186.805 254.162 186.805C253.505 186.805 252.973 187.622 252.973 188.63C252.973 189.637 253.505 190.454 254.162 190.454Z" fill="#263238"/>
<path d="M253.812 186.869L256.224 186.187C256.224 186.187 255.05 188.058 253.812 186.869Z" fill="#263238"/>
<path d="M223.513 202.002C224.956 209.379 226.4 222.91 221.229 227.843C221.229 227.843 223.259 235.331 236.981 235.331C252.067 235.331 244.183 227.843 244.183 227.843C235.95 225.876 236.156 219.769 237.599 214.027L223.513 202.002Z" fill="#E58A7B"/>
<path d="M219.501 185.187C220.262 197.513 220.326 202.748 226.544 209.077C235.919 218.595 250.894 214.978 253.829 202.732C256.478 191.628 254.797 173.353 242.725 168.451C240.075 167.36 237.19 166.962 234.344 167.296C231.498 167.63 228.783 168.685 226.458 170.361C224.133 172.036 222.274 174.277 221.057 176.872C219.839 179.466 219.304 182.328 219.501 185.187Z" fill="#E58A7B"/>
<path d="M220.721 171.323C214.535 173.575 206.286 171.894 209.522 190.977C212.948 211.187 207.682 217.834 207.682 217.834C207.682 217.834 231.143 222.831 255.097 217.532C255.097 217.532 247.784 204.747 249.83 195.324C252.448 183.426 250.385 179.032 250.385 179.032C250.385 179.032 229.414 168.15 220.721 171.323Z" fill="#263238"/>
<path d="M246.896 191.612C246.903 193.955 247.574 196.249 248.832 198.227C250.513 200.797 252.496 199.813 252.988 197.085C253.432 194.689 253.099 190.454 250.957 188.804C248.816 187.154 246.928 188.772 246.896 191.612Z" fill="#E58A7B"/>
<path d="M215.345 173.401C213.568 168.404 222.039 160.71 239.965 163.883C257.89 167.056 258.667 181.983 258.667 181.983L255.05 177.668L255.209 182.205L236.792 185.742L215.345 173.401Z" fill="#263238"/>
<path d="M216.867 228.684C216.762 227.96 216.943 227.223 217.372 226.63C217.802 226.038 218.446 225.636 219.168 225.511C224.751 224.591 237.442 222.72 243.819 223.608C248.578 224.274 249.815 227.034 250.022 229.303C250.054 229.7 250.001 230.1 249.866 230.474C249.731 230.849 249.517 231.191 249.239 231.477C248.961 231.762 248.625 231.985 248.254 232.13C247.883 232.275 247.485 232.338 247.087 232.317L219.517 231.079C218.867 231.047 218.248 230.79 217.765 230.354C217.282 229.917 216.965 229.328 216.867 228.684Z" fill="#407BFF"/>
<path opacity="0.6" d="M216.867 228.684C216.762 227.96 216.943 227.223 217.372 226.63C217.802 226.038 218.446 225.636 219.168 225.511C224.751 224.591 237.442 222.72 243.819 223.608C248.578 224.274 249.815 227.034 250.022 229.303C250.054 229.7 250.001 230.1 249.866 230.474C249.731 230.849 249.517 231.191 249.239 231.477C248.961 231.762 248.625 231.985 248.254 232.13C247.883 232.275 247.485 232.338 247.087 232.317L219.517 231.079C218.867 231.047 218.248 230.79 217.765 230.354C217.282 229.917 216.965 229.328 216.867 228.684Z" fill="black"/>
<path d="M232.809 505.814L243.04 512.921L260.157 489.713L249.925 482.622L232.809 505.814Z" fill="#E58A7B"/>
<path d="M208.951 505.355L219.754 511.509L234.903 486.969L224.101 480.814L208.951 505.355Z" fill="#E58A7B"/>
<path d="M260.142 489.713L251.322 501.674L241.09 494.583L249.91 482.622L260.142 489.713Z" fill="#CF6F64"/>
<path d="M224.084 480.814L234.903 486.985L227.098 499.628L216.279 493.457L224.084 480.814Z" fill="#CF6F64"/>
<path d="M241.44 306.16C241.44 306.16 281.383 356.494 273.88 404.639C267.836 443.52 232.779 496.17 232.779 496.17L216.297 487.984C227.914 464.705 237.828 440.615 245.961 415.902C248.469 408.229 249.201 400.087 248.102 392.09C247.002 384.094 244.101 376.451 239.616 369.74C219.374 340.187 186.95 357.779 208.762 306.16H241.44Z" fill="#407BFF"/>
<path opacity="0.6" d="M241.44 306.16C241.44 306.16 281.383 356.494 273.88 404.639C267.836 443.52 232.779 496.17 232.779 496.17L216.297 487.984C227.914 464.705 237.828 440.615 245.961 415.902C248.469 408.229 249.201 400.087 248.102 392.09C247.002 384.094 244.101 376.451 239.616 369.74C219.374 340.187 186.95 357.779 208.762 306.16H241.44Z" fill="black"/>
<path opacity="0.4" d="M261.031 338.489L255.225 332.715C255.225 333.175 266.472 402.608 269.628 422.12C271.491 416.42 272.918 410.587 273.896 404.671C277.608 381.05 269.851 356.922 261.031 338.489Z" fill="black"/>
<path d="M259.27 306.16C259.27 306.16 307.367 369.423 308.731 407.352C309.857 439.078 256.383 500.548 256.383 500.548L240.837 490.491C240.837 490.491 272.135 446.835 280.019 411.175C276.973 375.831 212.568 306.16 212.568 306.16H259.27Z" fill="#407BFF"/>
<path opacity="0.6" d="M259.27 306.16C259.27 306.16 307.367 369.423 308.731 407.352C309.857 439.078 256.383 500.548 256.383 500.548L240.837 490.491C240.837 490.491 272.135 446.835 280.019 411.175C276.973 375.831 212.568 306.16 212.568 306.16H259.27Z" fill="black"/>
<path d="M199.766 230.667C194.627 231.889 189.693 250.575 189.693 250.575L209.792 263.996C209.792 263.996 216.486 249.211 214.139 242.739C211.712 235.997 206.223 229.128 199.766 230.667Z" fill="#407BFF"/>
<path opacity="0.2" d="M203.701 242.707L202.305 258.999L209.776 264.012C211.839 259.367 213.367 254.503 214.329 249.513L203.701 242.707Z" fill="black"/>
<path d="M265.217 231.032C265.217 231.032 271.15 233.11 259.269 306.144H208.728C209.585 285.522 209.601 272.831 199.766 230.667C206.842 229.209 214.015 228.265 221.229 227.843C228.87 227.295 236.541 227.295 244.183 227.843C254.05 228.748 265.217 231.032 265.217 231.032Z" fill="#407BFF"/>
<path d="M270.358 242.707C271.5 245.88 272.706 249.29 273.975 252.574C275.244 255.858 276.45 259.237 277.735 262.568L281.621 272.53L282.605 275.021L283.112 276.258L283.35 276.877C283.35 276.988 283.35 276.988 283.35 276.972C283.06 276.563 282.68 276.227 282.24 275.988C281.612 275.619 280.905 275.407 280.178 275.37C279.573 275.351 278.972 275.464 278.417 275.703C277.687 276.036 277.687 276.179 277.703 276.163C277.835 276.057 277.952 275.934 278.052 275.798C278.93 274.645 279.69 273.407 280.32 272.102C281.066 270.642 281.78 269.088 282.494 267.517C283.89 264.345 285.175 261.061 286.459 257.746C287.744 254.43 288.966 251.083 290.156 247.704L293.772 237.583L299.88 239.17C298.674 246.403 297.12 253.447 295.248 260.617C294.343 264.186 293.281 267.724 292.075 271.293C291.472 273.085 290.806 274.862 290.045 276.686C289.251 278.666 288.274 280.567 287.126 282.365C286.704 282.97 286.237 283.543 285.73 284.078C284.92 284.953 283.937 285.65 282.843 286.125C281.872 286.542 280.821 286.737 279.765 286.696C278.583 286.652 277.431 286.308 276.418 285.697C275.223 284.951 274.231 283.921 273.531 282.698C273.293 282.286 273.087 281.873 272.944 281.572L272.643 280.969L272.04 279.732L270.834 277.273C269.248 273.974 267.662 270.642 266.281 267.295C264.901 263.948 263.442 260.553 262.078 257.143C260.713 253.732 259.492 250.322 258.334 246.641L270.358 242.707Z" fill="#E58A7B"/>
<path d="M265.219 231.032C271.294 232.475 278.131 250.433 278.131 250.433L260.063 265.804C260.063 265.804 248.372 246.229 250.735 239.773C253.194 233.047 257.287 229.144 265.219 231.032Z" fill="#407BFF"/>
<path d="M296.644 231.904L302.989 226.606L307.399 233.475L304.147 239.201C304.147 239.201 298.976 243.96 294.407 241.533C293.682 239.903 293.508 238.082 293.912 236.344C294.316 234.606 295.275 233.048 296.644 231.904Z" fill="#E58A7B"/>
<path d="M314.442 226.622L313.966 228.351L303.925 230.033L302.941 226.606L314.442 226.622Z" fill="#E58A7B"/>
<path d="M257.62 501.357L239.504 489.65L242.756 484.003L263.108 496.519L257.62 501.357Z" fill="#407BFF"/>
<path d="M226.845 510.685C225.255 510.49 223.728 509.949 222.371 509.098C222.315 509.079 222.267 509.042 222.233 508.994C222.198 508.946 222.18 508.888 222.18 508.829C222.18 508.769 222.198 508.711 222.233 508.663C222.267 508.615 222.315 508.578 222.371 508.559C222.863 508.4 227.13 507.084 228.368 508.099C228.507 508.214 228.612 508.365 228.674 508.535C228.735 508.705 228.75 508.889 228.717 509.067C228.695 509.352 228.6 509.627 228.442 509.866C228.284 510.105 228.067 510.299 227.812 510.431C227.515 510.593 227.183 510.68 226.845 510.685ZM223.276 508.94C225.258 509.955 226.845 510.32 227.606 509.939C227.772 509.847 227.912 509.714 228.012 509.553C228.111 509.392 228.169 509.208 228.177 509.019C228.177 508.765 228.177 508.654 228.035 508.591C227.368 508.051 224.989 508.464 223.244 508.94H223.276Z" fill="#263238"/>
<path d="M222.483 509.209C222.399 509.208 222.319 509.174 222.261 509.114C222.237 509.07 222.225 509.021 222.225 508.971C222.225 508.922 222.237 508.872 222.261 508.829C222.261 508.686 223.292 505.243 224.91 504.466C225.116 504.372 225.341 504.323 225.568 504.323C225.795 504.323 226.02 504.372 226.226 504.466C226.449 504.537 226.642 504.679 226.774 504.872C226.906 505.065 226.97 505.296 226.956 505.529C226.845 506.957 223.942 508.924 222.61 509.257L222.483 509.209ZM225.56 504.879C225.406 504.883 225.254 504.921 225.116 504.99C224.132 505.466 223.323 507.322 222.927 508.448C224.323 507.861 226.242 506.306 226.306 505.434C226.306 505.291 226.306 505.117 225.941 504.958C225.822 504.894 225.693 504.851 225.56 504.831V504.879Z" fill="#263238"/>
<path d="M249.482 517.537C247.69 517.537 245.199 515.237 243.835 513.825C243.8 513.777 243.781 513.719 243.781 513.659C243.781 513.599 243.8 513.541 243.835 513.492C243.866 513.441 243.911 513.399 243.964 513.372C244.017 513.344 244.076 513.331 244.136 513.334C244.771 513.334 250.275 514.159 251.053 515.713C251.135 515.853 251.178 516.011 251.178 516.173C251.178 516.335 251.135 516.494 251.053 516.633C250.936 516.875 250.76 517.084 250.541 517.239C250.322 517.395 250.066 517.492 249.799 517.522L249.482 517.537ZM244.882 514.048C246.881 515.983 248.641 517.062 249.641 516.935C249.816 516.912 249.983 516.846 250.126 516.744C250.27 516.642 250.387 516.506 250.466 516.348C250.501 516.293 250.52 516.23 250.52 516.165C250.52 516.101 250.501 516.037 250.466 515.983C250.053 515.126 247.119 514.397 244.882 514.048Z" fill="#263238"/>
<path d="M245.055 513.968C244.699 513.978 244.343 513.952 243.993 513.889C243.944 513.882 243.897 513.862 243.858 513.831C243.819 513.8 243.789 513.76 243.77 513.714C243.747 513.668 243.734 513.616 243.734 513.564C243.734 513.511 243.747 513.46 243.77 513.413C243.866 513.302 246.007 510.716 248.038 510.542C248.612 510.497 249.182 510.679 249.624 511.049C250.243 511.589 250.211 512.065 250.052 512.366C249.656 513.445 246.911 513.968 245.055 513.968ZM244.643 513.381C246.42 513.476 249.259 512.889 249.624 512.112C249.624 512.112 249.751 511.858 249.338 511.509C249.174 511.367 248.983 511.259 248.775 511.194C248.568 511.128 248.349 511.106 248.133 511.129C246.765 511.51 245.547 512.302 244.643 513.397V513.381Z" fill="#263238"/>
<path d="M222.911 507.496L209.459 503.689C209.227 503.619 208.977 503.636 208.758 503.739C208.538 503.841 208.364 504.021 208.269 504.244L203.732 514.444C203.625 514.705 203.575 514.986 203.585 515.268C203.595 515.55 203.664 515.827 203.789 516.08C203.913 516.333 204.09 516.557 204.307 516.737C204.524 516.918 204.777 517.05 205.049 517.125C209.808 518.362 212.092 518.711 218.009 520.409C221.657 521.424 226.861 523.312 231.889 524.739C236.918 526.167 238.599 521.265 236.648 520.218C227.828 515.555 227.13 512.287 224.719 508.797C224.287 508.165 223.647 507.705 222.911 507.496Z" fill="#407BFF"/>
<path d="M244.199 511.969L232.714 504.038C232.519 503.896 232.279 503.831 232.039 503.854C231.8 503.877 231.577 503.988 231.413 504.165L223.799 512.35C223.613 512.562 223.475 512.81 223.393 513.08C223.311 513.349 223.287 513.632 223.323 513.911C223.359 514.191 223.454 514.459 223.602 514.698C223.749 514.938 223.946 515.143 224.179 515.301C228.225 518.013 230.319 519.108 235.379 522.614C238.552 524.771 244.691 529.562 248.974 532.544C253.257 535.526 256.445 531.434 254.922 529.816C248.101 522.534 246.61 517.966 245.484 513.825C245.288 513.074 244.833 512.417 244.199 511.969Z" fill="#407BFF"/>
<path d="M234.887 497.217L214.186 486.921L216.327 481.306L238.44 492.156L234.887 497.217Z" fill="#407BFF"/>
<path d="M207.967 303.178L206.222 307.746C206.048 308.095 206.46 308.46 207.047 308.46H259.522C259.982 308.46 260.363 308.238 260.395 307.953L260.839 303.416C260.839 303.114 260.474 302.845 259.982 302.845H208.792C208.638 302.83 208.482 302.853 208.339 302.911C208.195 302.969 208.068 303.06 207.967 303.178Z" fill="#407BFF"/>
<path opacity="0.4" d="M207.967 303.178L206.222 307.746C206.048 308.095 206.46 308.46 207.047 308.46H259.522C259.982 308.46 260.363 308.238 260.395 307.953L260.839 303.416C260.839 303.114 260.474 302.845 259.982 302.845H208.792C208.638 302.83 208.482 302.853 208.339 302.911C208.195 302.969 208.068 303.06 207.967 303.178Z" fill="white"/>
<path d="M216.232 308.904H214.852C214.582 308.904 214.376 308.762 214.391 308.587L215.042 302.702C215.042 302.543 215.296 302.4 215.565 302.4H216.945C217.215 302.4 217.421 302.543 217.406 302.702L216.755 308.587C216.739 308.762 216.501 308.904 216.232 308.904Z" fill="#407BFF"/>
<path d="M248.593 308.904H247.228C246.959 308.904 246.753 308.762 246.768 308.587L247.403 302.702C247.403 302.543 247.673 302.4 247.942 302.4H249.307C249.576 302.4 249.798 302.543 249.767 302.702L249.132 308.587C249.053 308.762 248.878 308.904 248.593 308.904Z" fill="#407BFF"/>
<g style="mix-blend-mode:multiply">
<path d="M215.027 577.548C238.498 577.548 257.524 576.17 257.524 574.471C257.524 572.771 238.498 571.393 215.027 571.393C191.556 571.393 172.529 572.771 172.529 574.471C172.529 576.17 191.556 577.548 215.027 577.548Z" fill="#F5F5F5"/>
</g>
<path d="M240.916 570.124C233.397 567.935 225.053 565.127 220.008 562.192C219.865 562.097 219.707 562.05 219.564 561.97V527.928H234.777C235.932 527.859 237.017 527.353 237.81 526.511C238.604 525.669 239.046 524.556 239.046 523.399C239.046 522.242 238.604 521.129 237.81 520.287C237.017 519.445 235.932 518.938 234.777 518.87H219.643V363.696H210.506V518.87H195.389C194.771 518.833 194.153 518.923 193.572 519.134C192.99 519.346 192.459 519.673 192.009 520.097C191.559 520.522 191.2 521.033 190.955 521.601C190.71 522.169 190.583 522.781 190.583 523.399C190.583 524.017 190.71 524.629 190.955 525.197C191.2 525.765 191.559 526.276 192.009 526.7C192.459 527.125 192.99 527.452 193.572 527.663C194.153 527.874 194.771 527.964 195.389 527.928H210.506V561.923C210.363 561.923 210.221 562.05 210.078 562.145C204.954 565.127 196.673 567.935 189.154 570.076C188.646 570.23 188.21 570.56 187.925 571.008C187.639 571.455 187.524 571.99 187.598 572.515C187.673 573.041 187.934 573.522 188.332 573.872C188.731 574.222 189.242 574.417 189.773 574.423H240.297C240.804 574.388 241.284 574.181 241.657 573.835C242.029 573.49 242.272 573.027 242.344 572.524C242.417 572.02 242.315 571.508 242.055 571.071C241.795 570.634 241.393 570.3 240.916 570.124Z" fill="#E0E0E0"/>
<path d="M243.248 347.896H186.838C182.3 347.896 178.621 351.575 178.621 356.113V372.881C178.621 377.419 182.3 381.098 186.838 381.098H243.248C247.786 381.098 251.465 377.419 251.465 372.881V356.113C251.465 351.575 247.786 347.896 243.248 347.896Z" fill="#407BFF"/>
<path d="M186.314 381.114V384.001C186.314 386.38 188.9 388.316 192.073 388.316H238.076C241.249 388.316 243.834 386.38 243.834 384.001V381.114H186.314Z" fill="#407BFF"/>
<path opacity="0.3" d="M186.314 381.114V384.001C186.314 386.38 188.9 388.316 192.073 388.316H238.076C241.249 388.316 243.834 386.38 243.834 384.001V381.114H186.314Z" fill="white"/>
</svg>
