<svg width="794" height="591" viewBox="0 0 794 591" fill="none" xmlns="http://www.w3.org/2000/svg">
<path d="M793.161 519.362H0V519.758H793.161V519.362Z" fill="#EBEBEB"/>
<path d="M135.758 534.464H83.2188V534.86H135.758V534.464Z" fill="#EBEBEB"/>
<path d="M285.269 530.165H271.483V530.561H285.269V530.165Z" fill="#EBEBEB"/>
<path d="M167.785 549.201H137.344V549.597H167.785V549.201Z" fill="#EBEBEB"/>
<path d="M713.686 546.535H645.173V546.932H713.686V546.535Z" fill="#EBEBEB"/>
<path d="M631.038 546.535H620.997V546.932H631.038V546.535Z" fill="#EBEBEB"/>
<path d="M588.351 539.841H439.744V540.238H588.351V539.841Z" fill="#EBEBEB"/>
<path d="M375.958 448.612H69.6712C67.2689 448.612 64.965 447.658 63.2663 445.959C61.5676 444.26 60.6133 441.956 60.6133 439.554V8.97858C60.6342 6.59005 61.5977 4.30646 63.2942 2.62489C64.9906 0.943326 67.2826 -9.15719e-05 69.6712 6.66659e-09H375.958C378.36 6.66662e-09 380.664 0.954312 382.363 2.653C384.062 4.35168 385.016 6.65559 385.016 9.0579V439.554C385.016 441.956 384.062 444.26 382.363 445.959C380.664 447.658 378.36 448.612 375.958 448.612ZM69.6712 0.317266C67.3753 0.321459 65.1747 1.23533 63.5513 2.85874C61.9279 4.48214 61.0141 6.68275 61.0099 8.97858V439.554C61.0141 441.85 61.9279 444.05 63.5513 445.674C65.1747 447.297 67.3753 448.211 69.6712 448.215H375.958C378.254 448.211 380.455 447.297 382.078 445.674C383.701 444.05 384.615 441.85 384.619 439.554V8.97858C384.615 6.68275 383.701 4.48214 382.078 2.85874C380.455 1.23533 378.254 0.321459 375.958 0.317266H69.6712Z" fill="#EBEBEB"/>
<path d="M719.095 448.612H412.777C410.376 448.608 408.074 447.652 406.376 445.954C404.679 444.256 403.723 441.955 403.719 439.554V8.97858C403.744 6.59135 404.709 4.31016 406.404 2.62948C408.1 0.948793 410.389 0.00404241 412.777 0H719.095C721.478 0.00825601 723.762 0.955361 725.452 2.63604C727.141 4.31671 728.101 6.59553 728.122 8.97858V439.554C728.122 441.951 727.172 444.25 725.48 445.948C723.788 447.645 721.492 448.603 719.095 448.612ZM412.777 0.317266C410.481 0.321459 408.28 1.23533 406.657 2.85874C405.033 4.48214 404.12 6.68275 404.115 8.97858V439.554C404.12 441.85 405.033 444.05 406.657 445.674C408.28 447.297 410.481 448.211 412.777 448.215H719.095C721.391 448.211 723.592 447.297 725.215 445.674C726.839 444.05 727.752 441.85 727.757 439.554V8.97858C727.752 6.68275 726.839 4.48214 725.215 2.85874C723.592 1.23533 721.391 0.321459 719.095 0.317266H412.777Z" fill="#EBEBEB"/>
<path d="M403.354 29.6325H97.3848V370.676H403.354V29.6325Z" fill="#EBEBEB"/>
<path d="M413.285 29.6325H102.017V370.676H413.285V29.6325Z" fill="#F5F5F5"/>
<path d="M403.354 370.676H97.3848V389.156H403.354V370.676Z" fill="#EBEBEB"/>
<path d="M460.525 370.676H149.257V389.156H460.525V370.676Z" fill="#F0F0F0"/>
<path d="M399.372 356.748V43.5445L115.944 43.5445V356.748H399.372Z" fill="#FAFAFA"/>
<path d="M127.461 356.748L209.188 43.5445H247.768L166.04 356.748H127.461Z" fill="white"/>
<path d="M122.401 223.671C122.136 223.671 121.882 223.566 121.694 223.379C121.507 223.191 121.401 222.937 121.401 222.672V52.6024C121.432 52.3611 121.55 52.1392 121.732 51.9783C121.915 51.8175 122.15 51.7287 122.393 51.7287C122.636 51.7287 122.871 51.8175 123.054 51.9783C123.236 52.1392 123.354 52.3611 123.384 52.6024V222.609C123.393 222.744 123.374 222.879 123.329 223.007C123.283 223.134 123.212 223.251 123.12 223.351C123.028 223.45 122.917 223.53 122.794 223.585C122.67 223.64 122.536 223.669 122.401 223.671Z" fill="#F1F1F1"/>
<path d="M174.321 356.748L256.049 43.5445H271.087L189.375 356.748H174.321Z" fill="white"/>
<path d="M399.389 356.764V43.5604H397.628V356.764H399.389Z" fill="#EBEBEB"/>
<path d="M416.584 58.5829H110.614L109.329 48.9539H415.315L416.584 58.5829Z" fill="#EBEBEB"/>
<path d="M416.584 65.642H110.614L109.329 56.013H415.315L416.584 65.642Z" fill="#EBEBEB"/>
<path d="M416.584 74.0971H110.614L109.329 64.4681H415.315L416.584 74.0971Z" fill="#EBEBEB"/>
<path d="M416.584 83.504H110.614L109.329 73.875H415.315L416.584 83.504Z" fill="#EBEBEB"/>
<path d="M416.584 94.7827H110.614L109.329 85.1537H415.315L416.584 94.7827Z" fill="#EBEBEB"/>
<path d="M416.584 107.473H110.614L109.329 97.8443H415.315L416.584 107.473Z" fill="#EBEBEB"/>
<path d="M123.21 349.372H157.411V352.75H155.238L153.461 370.676H127.144L125.367 352.75H123.21V349.372Z" fill="#EBEBEB"/>
<path d="M120.687 317.978C120.243 316.487 119.847 314.98 119.466 313.473C117.229 316.376 115.056 317.106 113.438 317.106H112.914C109.742 316.788 106.569 313.679 104.681 308.778C104.638 308.689 104.615 308.591 104.615 308.492C104.615 308.393 104.638 308.295 104.681 308.206C104.723 308.118 104.785 308.04 104.862 307.98C104.939 307.919 105.029 307.877 105.125 307.857C107.427 307.272 109.826 307.178 112.165 307.582C114.505 307.987 116.733 308.881 118.704 310.205C118.403 308.778 118.165 307.35 117.959 305.922C117.436 306.024 116.905 306.077 116.372 306.081C111.138 306.081 107.283 301.401 107.108 301.179C107.041 301.094 106.995 300.995 106.973 300.889C106.951 300.783 106.954 300.673 106.982 300.568C107.009 300.464 107.061 300.367 107.133 300.286C107.204 300.205 107.294 300.141 107.394 300.1C108.615 299.48 109.956 299.13 111.325 299.075C112.694 299.021 114.058 299.262 115.325 299.783C116.697 300.471 117.81 301.584 118.498 302.956C119.482 299.951 121.274 297.276 123.678 295.222C126.081 293.169 129.004 291.816 132.125 291.312C132.222 291.288 132.323 291.287 132.421 291.307C132.518 291.328 132.61 291.37 132.69 291.431C132.769 291.492 132.833 291.57 132.878 291.659C132.923 291.749 132.948 291.847 132.95 291.947C133.219 296.706 133.076 302.527 129.507 305.303C128.022 306.397 126.211 306.956 124.368 306.89C122.713 306.85 121.07 306.594 119.482 306.128C119.992 309.561 120.723 312.958 121.671 316.297C125.157 311.555 130.099 308.085 135.741 306.414C135.918 306.37 136.105 306.397 136.262 306.489C136.419 306.581 136.534 306.73 136.582 306.906C137.661 310.998 137.106 314.33 134.996 316.519C133.926 317.485 132.672 318.226 131.309 318.698C129.947 319.169 128.503 319.362 127.064 319.263C125.514 319.244 123.968 319.079 122.448 318.771C123.321 321.579 124.304 324.323 125.351 326.941C127.493 325.053 133.774 320.247 140.611 322.261C140.706 322.286 140.793 322.332 140.867 322.395C140.941 322.458 141 322.537 141.04 322.626C141.079 322.714 141.099 322.808 141.099 322.904C141.099 322.999 141.079 323.094 141.04 323.181C139.184 327.718 137.074 330.225 134.409 331.113C133.701 331.338 132.962 331.45 132.22 331.446C130.207 331.349 128.245 330.778 126.493 329.78C127.984 333.239 129.523 336.491 131.014 339.378C132.601 337.649 137.011 334.064 144.799 335.729C144.963 335.763 145.109 335.857 145.208 335.991C145.307 336.126 145.354 336.292 145.339 336.459C145.166 337.913 144.615 339.296 143.741 340.47C142.867 341.645 141.701 342.57 140.358 343.153C139.355 343.584 138.276 343.805 137.185 343.804C135.647 343.778 134.137 343.392 132.775 342.677C136.233 349.022 138.993 353.084 139.12 353.179C139.194 353.33 139.211 353.502 139.168 353.664C139.124 353.826 139.024 353.967 138.886 354.062C138.747 354.156 138.579 354.197 138.412 354.178C138.246 354.159 138.091 354.08 137.978 353.956C135.229 349.794 132.703 345.489 130.411 341.059C130.363 340.998 130.325 340.928 130.3 340.853C129.84 339.98 129.396 339.092 128.936 338.172C128.152 339.354 127.096 340.33 125.857 341.02C124.617 341.71 123.231 342.093 121.814 342.138C121.523 342.154 121.232 342.154 120.941 342.138C119.374 341.958 117.887 341.348 116.644 340.377C115.402 339.406 114.451 338.11 113.898 336.633C113.841 336.481 113.842 336.313 113.9 336.161C113.958 336.009 114.071 335.883 114.215 335.808C116.23 334.672 118.487 334.031 120.798 333.94C123.11 333.849 125.41 334.31 127.508 335.285C126.525 333.175 125.526 330.938 124.574 328.607C124.52 328.519 124.483 328.422 124.463 328.321C124.193 327.655 123.923 326.988 123.67 326.322C121.385 329.209 119.101 330.621 116.737 330.621C113.85 330.621 110.947 328.495 107.838 324.133C107.731 323.988 107.686 323.806 107.713 323.628C107.74 323.449 107.836 323.289 107.981 323.181C112.867 319.517 119.577 322.023 122.623 323.483C122.004 321.77 121.417 320.009 120.878 318.216L120.687 317.978Z" fill="#EBEBEB"/>
<path d="M156.522 336.427C155.433 336.765 154.3 336.942 153.159 336.951C151.759 336.968 150.373 336.662 149.11 336.058C147.846 335.453 146.739 334.566 145.874 333.464C145.009 332.363 144.409 331.077 144.121 329.707C143.833 328.336 143.864 326.917 144.212 325.561C144.25 325.402 144.346 325.264 144.481 325.173C144.617 325.082 144.781 325.045 144.942 325.069C147.613 325.334 150.181 326.235 152.43 327.698C154.68 329.161 156.546 331.143 157.871 333.477C159.457 330.018 160.9 326.354 162.201 322.547C160.538 323.497 158.673 324.041 156.76 324.133C156.005 324.134 155.254 324.011 154.539 323.768C150.764 322.483 148.495 317.867 146.608 313.061C146.568 312.971 146.548 312.873 146.548 312.775C146.548 312.677 146.568 312.58 146.608 312.49C146.648 312.403 146.708 312.326 146.782 312.266C146.856 312.206 146.943 312.163 147.036 312.141C154.793 309.983 161.075 317.391 163.026 320.072C164.052 316.879 164.904 313.633 165.58 310.348C163.964 310.653 162.323 310.812 160.678 310.824C159.039 310.94 157.394 310.718 155.844 310.172C154.294 309.626 152.873 308.768 151.668 307.651C149.352 305.192 148.797 301.512 150.082 297.007C150.104 296.919 150.143 296.836 150.198 296.764C150.252 296.691 150.321 296.63 150.399 296.585C150.477 296.539 150.564 296.509 150.654 296.497C150.744 296.485 150.835 296.491 150.922 296.515C157.069 298.459 162.411 302.358 166.135 307.62L166.421 305.859C166.441 305.71 166.508 305.571 166.611 305.462C166.923 304.343 167.462 303.299 168.193 302.396C168.924 301.493 169.833 300.75 170.863 300.211C173.163 299.117 176.066 299.275 179.476 300.671C179.578 300.713 179.668 300.778 179.74 300.861C179.812 300.945 179.863 301.044 179.889 301.15C179.915 301.257 179.916 301.368 179.891 301.475C179.866 301.582 179.817 301.682 179.746 301.766C179.54 302.004 175.32 307.001 169.625 307.001C169.018 306.991 168.413 306.927 167.817 306.811C167.563 308.397 167.262 310.078 166.897 311.696C169.089 310.25 171.563 309.286 174.155 308.867C176.748 308.449 179.399 308.586 181.935 309.269C182.03 309.296 182.118 309.342 182.194 309.405C182.27 309.467 182.332 309.546 182.375 309.634C182.419 309.722 182.443 309.819 182.446 309.918C182.45 310.016 182.432 310.114 182.395 310.205C180.174 315.567 176.764 318.93 173.226 319.231H172.75C170.958 319.231 168.546 318.407 166.088 315.107C165.102 318.865 163.927 322.572 162.566 326.211C165.897 324.625 173.385 321.912 178.731 326.053C178.87 326.165 178.96 326.326 178.984 326.503C179.007 326.68 178.962 326.86 178.858 327.004C175.415 331.763 172.211 334 169.086 334C166.484 334 163.994 332.414 161.519 329.13C160.091 332.683 158.569 336.062 157.046 339.187C160.361 337.125 164.025 337.442 168.34 340.171C168.434 340.231 168.511 340.313 168.566 340.41C168.621 340.507 168.653 340.615 168.658 340.726C168.66 340.84 168.635 340.952 168.586 341.054C168.536 341.156 168.463 341.245 168.372 341.313C165.768 343.078 162.726 344.088 159.584 344.232C157.952 344.259 156.353 343.77 155.015 342.836C152.072 348.549 148.788 354.079 145.18 359.397C145.109 359.499 145.014 359.583 144.903 359.641C144.793 359.699 144.67 359.73 144.545 359.73C144.391 359.729 144.241 359.679 144.117 359.587C144.035 359.53 143.964 359.457 143.91 359.373C143.856 359.289 143.819 359.194 143.801 359.096C143.783 358.997 143.785 358.896 143.807 358.798C143.828 358.7 143.869 358.607 143.927 358.525C148.689 351.495 152.901 344.107 156.522 336.427Z" fill="#EBEBEB"/>
<path d="M678.025 151.652H606.244V230.477H678.025V151.652Z" fill="#EBEBEB"/>
<path d="M670.57 156.681C670.503 156.702 670.431 156.702 670.364 156.681C670.174 156.57 651.027 145.18 644.983 145.18C638.939 145.18 620.617 156.57 620.442 156.681C620.351 156.735 620.243 156.752 620.139 156.729C620.036 156.705 619.946 156.643 619.887 156.554C619.859 156.511 619.839 156.462 619.83 156.411C619.821 156.36 619.822 156.308 619.834 156.257C619.846 156.207 619.868 156.159 619.899 156.117C619.93 156.076 619.969 156.041 620.014 156.015C620.776 155.539 638.669 144.387 644.983 144.387C651.296 144.387 670.031 155.491 670.824 155.999C670.913 156.057 670.975 156.148 670.999 156.251C671.022 156.354 671.005 156.463 670.951 156.554C670.906 156.609 670.846 156.649 670.779 156.672C670.711 156.694 670.639 156.697 670.57 156.681Z" fill="#EBEBEB"/>
<path d="M685.799 151.652H611.654V230.477H685.799V151.652Z" fill="#F5F5F5"/>
<path d="M679.596 224.274V157.871H617.872V224.274H679.596Z" fill="white"/>
<path d="M650.392 199.083C649.399 199.089 648.41 199.2 647.441 199.417C647.689 198.566 647.817 197.685 647.822 196.799C647.824 194.651 647.065 192.572 645.68 190.93C646.373 191.151 647.095 191.269 647.822 191.279C649.547 191.296 651.228 190.729 652.59 189.67C653.952 188.611 654.916 187.122 655.325 185.446C655.735 183.77 655.565 182.004 654.843 180.437C654.122 178.869 652.892 177.592 651.353 176.812C649.813 176.032 648.056 175.796 646.365 176.142C644.675 176.488 643.151 177.395 642.041 178.717C640.932 180.038 640.302 181.696 640.254 183.421C640.206 185.146 640.743 186.836 641.778 188.217C640.53 187.761 639.197 187.583 637.872 187.696C636.548 187.808 635.264 188.207 634.111 188.867C632.957 189.526 631.961 190.429 631.192 191.513C630.423 192.597 629.899 193.836 629.658 195.143C629.417 196.45 629.464 197.794 629.796 199.081C630.128 200.368 630.736 201.567 631.579 202.594C632.422 203.622 633.478 204.453 634.676 205.03C635.873 205.608 637.181 205.917 638.51 205.936C637.281 208.028 636.635 210.411 636.638 212.837C636.638 215.557 637.445 218.216 638.956 220.478C640.467 222.74 642.615 224.502 645.128 225.543C647.642 226.584 650.407 226.857 653.075 226.326C655.743 225.795 658.193 224.485 660.117 222.562C662.04 220.638 663.35 218.188 663.881 215.52C664.411 212.852 664.139 210.087 663.098 207.574C662.057 205.06 660.294 202.912 658.033 201.401C655.771 199.89 653.112 199.083 650.392 199.083Z" fill="#F5F5F5"/>
<path d="M637.098 169.61C637.101 171.107 636.66 172.571 635.831 173.818C635.001 175.064 633.821 176.036 632.438 176.612C631.056 177.187 629.534 177.339 628.065 177.049C626.596 176.759 625.247 176.039 624.187 174.982C623.127 173.924 622.405 172.576 622.111 171.107C621.818 169.639 621.967 168.117 622.539 166.733C623.112 165.35 624.081 164.167 625.326 163.335C626.571 162.503 628.034 162.059 629.532 162.059C631.534 162.063 633.454 162.859 634.872 164.274C636.29 165.689 637.09 167.607 637.098 169.61Z" fill="#F5F5F5"/>
<path d="M580.8 76.8732H499.676V165.945H580.8V76.8732Z" fill="#EBEBEB"/>
<path d="M570.79 80.5217C570.723 80.5379 570.652 80.5379 570.584 80.5217C570.394 80.3948 551.231 69.005 545.203 69.005C539.175 69.005 520.853 80.3948 520.679 80.5058C520.634 80.5348 520.584 80.5545 520.532 80.5638C520.479 80.5731 520.426 80.5718 520.374 80.5599C520.322 80.5481 520.273 80.526 520.23 80.4949C520.187 80.4638 520.151 80.4244 520.123 80.3789C520.07 80.2903 520.053 80.1842 520.077 80.0834C520.101 79.9826 520.163 79.8951 520.25 79.8396C521.012 79.3637 538.89 68.2119 545.203 68.2119C551.517 68.2119 570.267 79.3161 571.06 79.8396C571.105 79.8656 571.144 79.9005 571.175 79.9422C571.206 79.9838 571.228 80.0314 571.24 80.0819C571.252 80.1324 571.253 80.1848 571.244 80.2359C571.235 80.287 571.216 80.3356 571.187 80.3789C571.142 80.4391 571.081 80.4848 571.01 80.5102C570.94 80.5356 570.863 80.5396 570.79 80.5217Z" fill="#EBEBEB"/>
<path d="M589.573 76.8732H505.783V165.945H589.573V76.8732Z" fill="#F5F5F5"/>
<path d="M582.561 158.918V83.8847H512.81V158.918H582.561Z" fill="white"/>
<path d="M522.789 92.1653H521.567C520.174 92.1653 519.045 93.2945 519.045 94.6875V160.964C519.045 162.357 520.174 163.486 521.567 163.486H522.789C524.182 163.486 525.311 162.357 525.311 160.964V94.6875C525.311 93.2945 524.182 92.1653 522.789 92.1653Z" fill="#F5F5F5"/>
<path d="M543.077 127.826H538.652H538.207V113.914C538.207 113.245 537.942 112.603 537.469 112.13C536.996 111.657 536.354 111.392 535.685 111.392H531.275C530.606 111.392 529.965 111.657 529.492 112.13C529.019 112.603 528.753 113.245 528.753 113.914V160.916C528.753 161.585 529.019 162.227 529.492 162.7C529.965 163.173 530.606 163.439 531.275 163.439H535.685C536.222 163.441 536.746 163.268 537.176 162.947C537.6 163.27 538.119 163.443 538.652 163.439H543.077C543.746 163.439 544.388 163.173 544.861 162.7C545.334 162.227 545.6 161.585 545.6 160.916V130.348C545.6 130.017 545.534 129.689 545.408 129.383C545.281 129.077 545.095 128.799 544.861 128.565C544.627 128.33 544.349 128.145 544.043 128.018C543.737 127.891 543.409 127.826 543.077 127.826Z" fill="#F5F5F5"/>
<path d="M567.316 108.901H550.977C549.584 108.901 548.455 110.03 548.455 111.423V160.948C548.455 162.341 549.584 163.47 550.977 163.47H567.316C568.709 163.47 569.839 162.341 569.839 160.948V111.423C569.839 110.03 568.709 108.901 567.316 108.901Z" fill="#F5F5F5"/>
<path d="M571.234 102.936C575.501 102.936 578.96 99.4776 578.96 95.211C578.96 90.9444 575.501 87.4857 571.234 87.4857C566.968 87.4857 563.509 90.9444 563.509 95.211C563.509 99.4776 566.968 102.936 571.234 102.936Z" fill="#F5F5F5"/>
<path d="M290.519 349.26C290.519 361.079 303.304 370.676 319.072 370.676C334.84 370.676 347.626 361.079 347.626 349.26H290.519Z" fill="#EBEBEB"/>
<path d="M396.581 591C566.448 591 704.153 582.96 704.153 573.043C704.153 563.125 566.448 555.086 396.581 555.086C226.713 555.086 89.0088 563.125 89.0088 573.043C89.0088 582.96 226.713 591 396.581 591Z" fill="#F5F5F5"/>
<path d="M543.521 574.804C559.352 574.804 572.186 574.015 572.186 573.043C572.186 572.07 559.352 571.282 543.521 571.282C527.69 571.282 514.856 572.07 514.856 573.043C514.856 574.015 527.69 574.804 543.521 574.804Z" fill="#E6E6E6"/>
<path d="M348.8 531.402H599.391C623.782 531.402 643.555 511.629 643.555 487.239V345.612C643.555 321.221 623.782 301.449 599.391 301.449H348.8C324.41 301.449 304.637 321.221 304.637 345.612V487.239C304.637 511.629 324.41 531.402 348.8 531.402Z" fill="#263238"/>
<path d="M555.688 573.043H531.973L483.78 458.859H520.075L555.688 573.043Z" fill="#263238"/>
<path d="M650.693 404.782H649.106V416.425H650.693V404.782Z" fill="#407BFF"/>
<path opacity="0.2" d="M650.693 404.782H649.106V416.425H650.693V404.782Z" fill="black"/>
<path d="M650.693 355.146H649.106V396.834H650.693V355.146Z" fill="#407BFF"/>
<path opacity="0.2" d="M650.693 355.146H649.106V396.834H650.693V355.146Z" fill="black"/>
<path d="M449.151 294.31H427.641V295.897H449.151V294.31Z" fill="#407BFF"/>
<path opacity="0.2" d="M449.151 294.31H427.641V295.897H449.151V294.31Z" fill="black"/>
<path d="M620.95 458.859L555.641 573.043L507.448 458.859H620.95Z" fill="#407BFF"/>
<path opacity="0.2" d="M620.965 458.859L555.656 573.043L507.464 458.859H620.965Z" fill="black"/>
<path d="M368.74 531.402H599.391C623.782 531.402 643.555 511.629 643.555 487.239V345.612C643.555 321.221 623.782 301.449 599.391 301.449H368.74C344.35 301.449 324.577 321.221 324.577 345.612V487.239C324.577 511.629 344.35 531.402 368.74 531.402Z" fill="#407BFF"/>
<path opacity="0.2" d="M368.74 531.402H599.391C623.782 531.402 643.555 511.629 643.555 487.239V345.612C643.555 321.221 623.782 301.449 599.391 301.449H368.74C344.35 301.449 324.577 321.221 324.577 345.612V487.239C324.577 511.629 344.35 531.402 368.74 531.402Z" fill="black"/>
<path opacity="0.7" d="M448.532 531.402H406.336L450.975 301.449H493.187L448.532 531.402Z" fill="#407BFF"/>
<path opacity="0.7" d="M486.651 531.402H462.65L507.305 301.449H531.291L486.651 531.402Z" fill="#407BFF"/>
<path d="M586.336 375.641H469.075C465.906 375.527 462.904 374.187 460.702 371.905C458.5 369.622 457.27 366.574 457.27 363.403C457.27 360.231 458.5 357.183 460.702 354.9C462.904 352.618 465.906 351.278 469.075 351.164H586.336C587.98 351.105 589.62 351.378 591.156 351.966C592.693 352.554 594.095 353.446 595.279 354.589C596.463 355.731 597.405 357.1 598.048 358.614C598.692 360.129 599.023 361.757 599.023 363.403C599.023 365.048 598.692 366.676 598.048 368.191C597.405 369.705 596.463 371.074 595.279 372.216C594.095 373.359 592.693 374.251 591.156 374.839C589.62 375.427 587.98 375.7 586.336 375.641Z" fill="white"/>
<path d="M428.893 375.641H375.783C372.614 375.527 369.612 374.187 367.41 371.905C365.208 369.622 363.978 366.574 363.978 363.403C363.978 360.231 365.208 357.183 367.41 354.9C369.612 352.618 372.614 351.278 375.783 351.164H428.893C430.538 351.105 432.177 351.378 433.713 351.966C435.25 352.554 436.652 353.446 437.836 354.589C439.02 355.731 439.962 357.1 440.606 358.614C441.249 360.129 441.58 361.757 441.58 363.403C441.58 365.048 441.249 366.676 440.606 368.191C439.962 369.705 439.02 371.074 437.836 372.216C436.652 373.359 435.25 374.251 433.713 374.839C432.177 375.427 430.538 375.7 428.893 375.641Z" fill="white"/>
<path d="M586.335 427.228H388.235C385.066 427.114 382.064 425.775 379.862 423.492C377.66 421.209 376.43 418.161 376.43 414.99C376.43 411.818 377.66 408.77 379.862 406.487C382.064 404.205 385.066 402.865 388.235 402.751H586.335C587.979 402.692 589.619 402.965 591.155 403.553C592.692 404.142 594.094 405.034 595.278 406.176C596.462 407.318 597.404 408.687 598.048 410.202C598.691 411.716 599.022 413.344 599.022 414.99C599.022 416.635 598.691 418.264 598.048 419.778C597.404 421.292 596.462 422.661 595.278 423.804C594.094 424.946 592.692 425.838 591.155 426.426C589.619 427.015 587.979 427.287 586.335 427.228Z" fill="white"/>
<path d="M586.336 478.799H494.567C491.398 478.685 488.396 477.346 486.194 475.063C483.992 472.781 482.762 469.733 482.762 466.561C482.762 463.389 483.992 460.341 486.194 458.059C488.396 455.776 491.398 454.437 494.567 454.323H586.336C587.98 454.263 589.62 454.536 591.156 455.124C592.693 455.713 594.095 456.605 595.279 457.747C596.463 458.889 597.405 460.259 598.048 461.773C598.692 463.287 599.023 464.916 599.023 466.561C599.023 468.206 598.692 469.835 598.048 471.349C597.405 472.863 596.463 474.233 595.279 475.375C594.095 476.517 592.693 477.409 591.156 477.998C589.62 478.586 587.98 478.859 586.336 478.799Z" fill="white"/>
<path opacity="0.1" d="M381.859 301.401C381.859 301.401 364.314 396.263 364.314 436.334C364.314 477.435 378.813 531.354 378.813 531.354H332.477L329.415 479.307C326.53 430.632 331.348 381.807 343.692 334.635L352.385 301.322L381.859 301.401Z" fill="black"/>
<path d="M357.7 573.043C357.7 574.915 331.685 576.438 299.593 576.438C267.502 576.438 241.486 574.851 241.486 573.043C241.486 571.234 267.502 569.648 299.593 569.648C331.685 569.648 357.7 571.171 357.7 573.043Z" fill="#E6E6E6"/>
<path d="M337.775 178.826C332.858 179.603 328.258 180 323.499 180.412C318.74 180.825 313.981 180.809 309.222 180.777C299.532 180.776 289.872 179.712 280.414 177.605C277.409 176.785 274.599 175.372 272.149 173.448C270.09 171.864 268.149 170.13 266.343 168.261C263.011 164.749 259.936 161 257.143 157.046C251.673 149.394 246.799 141.333 242.564 132.934L248.513 129.365C251.178 132.965 253.923 136.63 256.746 140.136C259.57 143.641 262.378 147.163 265.36 150.478C268.216 153.753 271.267 156.852 274.497 159.758C275.989 161.098 277.58 162.323 279.256 163.423C280.475 164.285 281.84 164.92 283.285 165.295C287.518 166.005 291.786 166.487 296.071 166.738C300.433 166.929 304.828 167.04 309.253 166.976C313.679 166.913 318.121 166.675 322.547 166.358C326.973 166.04 331.494 165.58 335.666 165.073L337.775 178.826Z" fill="#FF8B7B"/>
<path d="M352.052 165.945C339.98 158.632 323.609 163.946 323.609 163.946L331.89 192.5C331.89 192.5 344.961 188.82 350.085 183.252C355.447 177.494 359.333 170.339 352.052 165.945Z" fill="#263238"/>
<path d="M249.529 132.331L252.448 122.496L238.631 124.209C239.53 128.113 241.243 131.784 243.66 134.98L249.529 132.331Z" fill="#FF8B7B"/>
<path d="M251.448 111.027L239.948 113.089L238.631 124.209L252.448 122.496L251.448 111.027Z" fill="#FF8B7B"/>
<path d="M408.414 75.7469C420.629 76.0007 417.203 86.2007 417.203 86.2007C417.203 86.2007 430.512 77.7932 434.747 87.6126C438.983 97.4319 429.433 100.541 423.849 102.016C427.355 104.031 427.546 110.567 422.628 112.708C417.71 114.85 409.477 108.964 403.259 109.044L397.136 101.794C405.448 96.4008 396.184 75.493 408.414 75.7469Z" fill="#263238"/>
<path d="M406.511 114.088C411.841 115.024 415.711 114.358 414.664 108.473C413.998 105.205 412.517 102.159 410.36 99.6163C408.202 97.0735 405.438 95.1163 402.323 93.9261C395.597 91.4515 394.09 102.556 394.09 102.556L406.511 114.088Z" fill="#407BFF"/>
<path d="M250.639 525.184L237.028 523.613L239.741 492.014L253.352 493.568L250.639 525.184Z" fill="#FF8B7B"/>
<path d="M340.79 562.224L327.116 561.606L324.165 529.72L337.855 530.355L340.79 562.224Z" fill="#FF8B7B"/>
<path d="M326.592 557.465H341.979C342.244 557.462 342.501 557.556 342.702 557.728C342.903 557.9 343.035 558.139 343.074 558.401L344.819 570.584C344.852 570.891 344.821 571.201 344.726 571.495C344.631 571.789 344.475 572.059 344.268 572.288C344.061 572.517 343.808 572.7 343.526 572.825C343.244 572.949 342.938 573.013 342.63 573.011C337.268 572.916 334.698 572.615 327.908 572.615C323.752 572.615 317.661 573.043 311.918 573.043C306.176 573.043 305.874 567.364 308.254 566.84C318.993 564.54 320.691 561.352 324.308 558.322C324.943 557.773 325.753 557.469 326.592 557.465Z" fill="#263238"/>
<path d="M236.569 518.632L251.845 516.824C252.11 516.788 252.379 516.85 252.601 517C252.823 517.149 252.983 517.374 253.05 517.633L256.223 529.514C256.289 529.816 256.292 530.128 256.23 530.43C256.168 530.733 256.043 531.019 255.864 531.27C255.684 531.521 255.454 531.732 255.188 531.889C254.922 532.045 254.626 532.144 254.319 532.179C248.989 532.719 246.388 532.719 239.662 533.512C235.537 534.004 226.971 535.447 221.324 536.113C215.677 536.78 214.646 531.18 216.962 530.387C227.352 526.833 231.159 523.185 234.411 519.743C234.98 519.134 235.743 518.741 236.569 518.632Z" fill="#263238"/>
<path d="M239.757 492.014L238.345 508.305L251.955 509.876L253.367 493.584L239.757 492.014Z" fill="#EA7063"/>
<path d="M337.855 530.355L324.165 529.736L325.688 546.171L339.378 546.789L337.855 530.355Z" fill="#EA7063"/>
<path d="M338.791 162.312C338.791 162.312 331.89 162.741 322.547 243.611L376.054 258.777C381.336 236.743 385.111 223.307 408.192 181.57C401.141 177.872 393.83 174.691 386.317 172.052C378.39 169.184 370.268 166.883 362.015 165.168C351.307 163.248 338.791 162.312 338.791 162.312Z" fill="#263238"/>
<path d="M391.663 144.101C387.92 151.478 382.32 165.374 386.317 172.132C386.317 172.132 381.923 179.461 367.408 175.304C351.434 170.783 362.015 165.215 362.015 165.215C371.327 165.612 372.929 159.076 373.119 152.525L391.663 144.101Z" fill="#FF8B7B"/>
<path d="M347.055 163.106C351.434 163.582 356.938 164.295 362.014 165.247C370.269 166.959 378.391 169.259 386.317 172.132C390.87 173.718 395.28 175.463 398.912 177.097C398.167 179.746 392.916 193.531 361.681 185.6C332.62 178.112 343.74 165.802 347.055 163.106Z" fill="#FF8B7B"/>
<path d="M384.112 147.528L373.151 152.557C373.124 154.08 372.964 155.598 372.675 157.093C376.133 157.553 382.002 155.999 383.351 152.604C383.9 150.97 384.157 149.252 384.112 147.528Z" fill="#EA7063"/>
<path d="M398.627 126.731C395.344 139.914 394.249 145.577 386.254 151.176C374.23 159.616 358.731 152.763 358.002 138.819C357.335 126.303 362.76 106.839 376.831 103.92C379.923 103.264 383.132 103.409 386.153 104.341C389.173 105.274 391.905 106.964 394.089 109.249C396.273 111.535 397.836 114.341 398.63 117.4C399.425 120.46 399.424 123.672 398.627 126.731Z" fill="#FF8B7B"/>
<path d="M394.343 139.454C390.362 137.391 387.173 131.522 392.916 126.065C392.916 126.065 384.984 121.544 388.966 115.31C392.947 109.075 408.858 103.888 411.349 112.264C413.839 120.64 406.098 124.082 406.098 124.082C406.098 124.082 412.443 133.79 401.038 136.995C401.038 136.995 400.054 151.002 391.869 144.768L394.343 139.454Z" fill="#263238"/>
<path d="M398.484 139.152C397.729 141.661 396.02 143.774 393.725 145.037C390.647 146.624 388.363 144.101 388.585 140.818C388.791 137.851 390.647 133.426 394.026 133.156C394.767 133.11 395.507 133.249 396.181 133.562C396.854 133.874 397.438 134.35 397.881 134.945C398.324 135.541 398.611 136.238 398.716 136.972C398.821 137.707 398.741 138.456 398.484 139.152Z" fill="#FF8B7B"/>
<path d="M322.547 243.611C322.547 243.611 260.395 316.915 249.878 357.335C238.932 399.372 234.015 503.277 234.015 503.277L255.398 506.037C255.398 506.037 269.675 410.968 287.648 372.23C306.779 330.986 361.809 254.747 361.809 254.747L322.547 243.611Z" fill="#407BFF"/>
<path d="M258.254 506.386L231.048 502.832L230.572 495.377L260.506 501.452L258.254 506.386Z" fill="#407BFF"/>
<path opacity="0.3" d="M258.254 506.386L231.048 502.832L230.572 495.377L260.506 501.452L258.254 506.386Z" fill="black"/>
<path opacity="0.2" d="M321.484 276.94C316.399 294.948 312.572 313.288 310.031 331.827C315.71 322.626 321.691 313.314 327.481 304.494C329.591 299.831 331.748 295.214 333.826 290.709C333.826 290.709 333.826 290.614 333.826 290.551L321.484 276.94Z" fill="black"/>
<path d="M336.681 247.609C336.681 247.609 318.693 340.203 312.189 393.408C306.922 436.397 323.499 540.666 323.499 540.666L341.329 541.761C341.329 541.761 337.57 448.644 345.85 407.003C366.822 301.655 386.429 287.521 375.991 258.777L336.681 247.609Z" fill="#407BFF"/>
<path d="M343.534 541.888L320.453 540.476L319.374 533.908L344.374 536.51L343.534 541.888Z" fill="#407BFF"/>
<path opacity="0.3" d="M343.534 541.888L320.453 540.476L319.374 533.908L344.374 536.51L343.534 541.888Z" fill="black"/>
<path d="M377.751 255.858L378.798 261.331C378.877 261.759 378.338 262.013 377.719 261.838L321.611 245.975C321.119 245.848 320.786 245.499 320.85 245.182L321.722 240.264C321.722 239.915 322.277 239.757 322.801 239.899L376.989 255.255C377.155 255.289 377.31 255.361 377.442 255.466C377.574 255.571 377.68 255.705 377.751 255.858Z" fill="#407BFF"/>
<path opacity="0.4" d="M377.751 255.858L378.798 261.331C378.877 261.759 378.338 262.013 377.719 261.838L321.611 245.975C321.119 245.848 320.786 245.499 320.85 245.182L321.722 240.264C321.722 239.915 322.277 239.757 322.801 239.899L376.989 255.255C377.155 255.289 377.31 255.361 377.442 255.466C377.574 255.571 377.68 255.705 377.751 255.858Z" fill="black"/>
<path d="M368.756 259.855L370.2 260.268C370.485 260.347 370.755 260.268 370.787 260.077L371.865 253.732C371.865 253.542 371.691 253.32 371.405 253.24L369.946 252.828C369.66 252.749 369.407 252.828 369.375 253.018L368.28 259.364C368.249 259.554 368.471 259.776 368.756 259.855Z" fill="#407BFF"/>
<path d="M325.529 247.609L326.989 248.021C327.274 248.101 327.544 248.021 327.576 247.831L328.654 241.486C328.654 241.311 328.48 241.089 328.179 241.01L326.735 240.597C326.45 240.502 326.18 240.597 326.148 240.788L325.069 247.133C325.038 247.308 325.196 247.466 325.529 247.609Z" fill="#407BFF"/>
<path d="M347.151 253.811L348.595 254.224C348.88 254.224 349.15 254.224 349.181 254.034L350.26 247.688C350.26 247.498 350.086 247.276 349.8 247.197L348.341 246.784C348.055 246.689 347.786 246.784 347.754 246.974L346.675 253.32C346.643 253.431 346.85 253.653 347.151 253.811Z" fill="#407BFF"/>
<path d="M377.704 126.747C377.497 127.826 376.768 128.603 376.117 128.476C375.467 128.349 374.991 127.35 375.197 126.271C375.403 125.193 376.133 124.399 376.783 124.542C377.434 124.685 377.894 125.653 377.704 126.747Z" fill="#263238"/>
<path d="M365.425 124.479C365.219 125.573 364.489 126.351 363.839 126.208C363.188 126.065 362.713 125.097 362.919 124.019C363.125 122.94 363.855 122.147 364.505 122.274C365.156 122.401 365.616 123.4 365.425 124.479Z" fill="#263238"/>
<path d="M364.854 122.401L362.396 121.163C362.396 121.163 363.268 123.448 364.854 122.401Z" fill="#263238"/>
<path d="M368.328 126.906C366.9 129.203 365.166 131.295 363.173 133.124C363.656 133.62 364.241 134.005 364.887 134.251C365.534 134.498 366.226 134.6 366.917 134.552L368.328 126.906Z" fill="#FF5652"/>
<path d="M371.865 139.771C371.221 139.766 370.578 139.703 369.946 139.58C369.864 139.565 369.792 139.518 369.744 139.45C369.697 139.382 369.678 139.298 369.692 139.216C369.707 139.13 369.756 139.053 369.827 139.003C369.898 138.953 369.987 138.932 370.073 138.946C371.418 139.222 372.81 139.178 374.136 138.817C375.461 138.456 376.683 137.788 377.703 136.868C377.766 136.816 377.846 136.789 377.928 136.792C378.01 136.796 378.087 136.829 378.146 136.886C378.205 136.943 378.241 137.019 378.247 137.101C378.253 137.182 378.229 137.263 378.179 137.328C376.466 138.923 374.206 139.798 371.865 139.771Z" fill="#263238"/>
<path d="M382.303 123.463C382.185 123.464 382.069 123.432 381.968 123.37C381.867 123.309 381.785 123.22 381.732 123.114C381.386 122.377 380.871 121.731 380.229 121.229C379.587 120.728 378.836 120.384 378.036 120.227C377.945 120.227 377.854 120.208 377.771 120.171C377.687 120.133 377.613 120.079 377.552 120.011C377.491 119.943 377.445 119.862 377.417 119.775C377.389 119.688 377.38 119.596 377.39 119.505C377.4 119.414 377.429 119.326 377.475 119.248C377.522 119.169 377.584 119.1 377.659 119.047C377.733 118.994 377.818 118.957 377.908 118.939C377.997 118.921 378.09 118.922 378.179 118.942C379.202 119.113 380.169 119.527 380.998 120.152C381.826 120.776 382.492 121.591 382.938 122.528C383.015 122.681 383.029 122.859 382.975 123.023C382.922 123.186 382.806 123.322 382.652 123.4C382.544 123.452 382.423 123.473 382.303 123.463Z" fill="#263238"/>
<path d="M360.999 117.816C360.916 117.816 360.834 117.799 360.758 117.766C360.681 117.733 360.612 117.686 360.555 117.626C360.493 117.566 360.443 117.495 360.409 117.416C360.375 117.337 360.357 117.252 360.357 117.166C360.357 117.08 360.375 116.995 360.409 116.915C360.443 116.836 360.493 116.765 360.555 116.706C361.257 115.952 362.128 115.376 363.096 115.026C364.064 114.676 365.102 114.561 366.123 114.691C366.289 114.729 366.434 114.829 366.528 114.971C366.623 115.112 366.659 115.285 366.631 115.453C366.615 115.537 366.584 115.617 366.537 115.688C366.49 115.76 366.429 115.821 366.358 115.869C366.287 115.916 366.207 115.948 366.123 115.964C366.039 115.98 365.953 115.979 365.869 115.96C365.066 115.863 364.251 115.955 363.491 116.231C362.73 116.506 362.045 116.957 361.491 117.546C361.434 117.625 361.361 117.69 361.276 117.737C361.19 117.784 361.096 117.811 360.999 117.816Z" fill="#263238"/>
<path d="M409.858 196.593C410.937 201.447 411.619 206.016 412.253 210.743C412.888 215.47 413.221 220.261 413.491 224.925C414.052 234.6 413.557 244.307 412.015 253.875C411.384 256.926 410.143 259.818 408.367 262.378C406.931 264.527 405.341 266.568 403.608 268.485C400.307 272.04 396.761 275.358 392.995 278.415C385.679 284.342 377.914 289.693 369.772 294.421L365.854 288.711C369.28 285.823 372.77 282.857 376.101 279.843C379.432 276.829 382.78 273.783 385.889 270.611C388.991 267.56 391.905 264.323 394.614 260.918C395.856 259.354 396.98 257.7 397.977 255.969C398.753 254.697 399.291 253.294 399.563 251.829C400.021 247.561 400.244 243.271 400.229 238.979C400.229 234.601 399.991 230.207 399.658 225.797C399.325 221.387 398.817 216.977 398.23 212.567C397.643 208.157 396.914 203.684 396.152 199.559L409.858 196.593Z" fill="#FF8B7B"/>
<path d="M408.193 181.57C413.079 184.743 414.3 205 414.3 205L389.284 213.979C389.284 213.979 386.111 196.418 390.283 190.184C394.677 183.569 402.593 177.969 408.193 181.57Z" fill="#263238"/>
<path d="M321.896 559.861C320.971 559.942 320.048 559.689 319.295 559.147C319.066 558.931 318.896 558.66 318.802 558.36C318.707 558.061 318.691 557.741 318.755 557.434C318.772 557.236 318.841 557.047 318.955 556.885C319.069 556.723 319.225 556.595 319.406 556.513C320.992 555.784 325.148 558.48 325.624 558.782C325.676 558.819 325.717 558.87 325.742 558.928C325.767 558.987 325.776 559.052 325.767 559.115C325.751 559.176 325.72 559.232 325.675 559.277C325.63 559.322 325.574 559.353 325.513 559.369C324.33 559.67 323.117 559.835 321.896 559.861ZM320.088 557.037C319.952 557.009 319.811 557.009 319.675 557.037C319.595 557.071 319.526 557.129 319.478 557.202C319.43 557.276 319.405 557.362 319.406 557.449C319.354 557.653 319.357 557.867 319.412 558.07C319.468 558.273 319.575 558.458 319.723 558.607C320.421 559.242 322.213 559.321 324.609 558.845C323.24 557.943 321.702 557.328 320.088 557.037Z" fill="#407BFF"/>
<path d="M325.45 559.385C325.398 559.401 325.343 559.401 325.291 559.385C323.974 558.639 321.484 555.689 321.801 554.15C321.846 553.894 321.981 553.662 322.182 553.496C322.382 553.33 322.636 553.242 322.896 553.246C323.141 553.212 323.39 553.233 323.626 553.308C323.861 553.382 324.078 553.507 324.26 553.674C325.751 554.991 325.846 558.941 325.846 559.099C325.847 559.156 325.832 559.213 325.804 559.263C325.777 559.313 325.736 559.355 325.688 559.385C325.65 559.401 325.61 559.409 325.569 559.409C325.528 559.409 325.487 559.401 325.45 559.385ZM323.118 553.833H322.959C322.547 553.833 322.467 554.055 322.436 554.213C322.245 555.149 323.8 557.386 325.101 558.417C325.134 556.882 324.691 555.375 323.832 554.102C323.636 553.926 323.381 553.829 323.118 553.833Z" fill="#407BFF"/>
<path d="M230.541 521.694C229.775 521.742 229.013 521.559 228.352 521.17C228.113 521.002 227.919 520.779 227.786 520.519C227.653 520.259 227.586 519.971 227.59 519.679C227.578 519.498 227.613 519.317 227.691 519.153C227.768 518.989 227.887 518.848 228.034 518.743C229.621 517.633 235.331 519.758 235.966 520.012C236.03 520.036 236.084 520.08 236.122 520.137C236.159 520.194 236.176 520.261 236.172 520.329C236.172 520.397 236.15 520.462 236.11 520.516C236.07 520.571 236.014 520.611 235.95 520.631C234.206 521.238 232.385 521.596 230.541 521.694ZM229.399 519.076C229.053 519.049 228.706 519.121 228.399 519.282C228.342 519.323 228.296 519.378 228.268 519.442C228.24 519.507 228.231 519.578 228.241 519.647C228.233 519.842 228.275 520.035 228.36 520.209C228.446 520.383 228.574 520.534 228.732 520.647C229.637 521.281 231.905 521.154 234.84 520.298C233.092 519.639 231.26 519.228 229.399 519.076Z" fill="#407BFF"/>
<path d="M235.871 520.647H235.775C234.062 520.107 230.509 517.553 230.588 515.983C230.588 515.602 230.794 515.126 231.683 514.92C232 514.851 232.327 514.847 232.646 514.907C232.965 514.967 233.268 515.09 233.539 515.269C235.411 516.491 236.156 520.107 236.188 520.266C236.198 520.32 236.195 520.376 236.178 520.429C236.162 520.481 236.132 520.529 236.093 520.567C236.032 520.621 235.952 520.65 235.871 520.647ZM232.222 515.491C232.09 515.476 231.957 515.476 231.826 515.491C231.239 515.618 231.239 515.856 231.223 515.935C231.223 516.887 233.634 518.934 235.411 519.743C235.097 518.211 234.315 516.814 233.174 515.745C232.88 515.594 232.551 515.529 232.222 515.555V515.491Z" fill="#407BFF"/>
<path opacity="0.6" d="M294.295 119.736C275.835 115.441 256.56 116.185 238.487 121.891C220.413 127.598 204.205 138.056 191.559 152.172C178.912 166.288 170.29 183.543 166.596 202.132C162.903 220.722 164.272 239.962 170.561 257.841L139.739 290.646L186.361 287.029C196.667 300.522 210.068 311.337 225.434 318.559C240.799 325.782 257.678 329.2 274.643 328.525C291.608 327.85 308.161 323.102 322.904 314.681C337.647 306.261 350.147 294.416 359.348 280.146C368.549 265.877 374.18 249.603 375.766 232.699C377.352 215.795 374.846 198.757 368.46 183.025C362.074 167.294 351.995 153.33 339.075 142.314C326.156 131.299 310.775 123.554 294.231 119.736H294.295Z" fill="#407BFF"/>
<path opacity="0.1" d="M294.295 119.736C275.835 115.441 256.56 116.185 238.487 121.891C220.413 127.598 204.205 138.056 191.559 152.172C178.912 166.288 170.29 183.543 166.596 202.132C162.903 220.722 164.272 239.962 170.561 257.841L139.739 290.646L186.361 287.029C196.667 300.522 210.068 311.337 225.434 318.559C240.799 325.782 257.678 329.2 274.643 328.525C291.608 327.85 308.161 323.102 322.904 314.681C337.647 306.261 350.147 294.416 359.348 280.146C368.549 265.877 374.18 249.603 375.766 232.699C377.352 215.795 374.846 198.757 368.46 183.025C362.074 167.294 351.995 153.33 339.075 142.314C326.156 131.299 310.775 123.554 294.231 119.736H294.295Z" fill="black"/>
<path d="M270.532 323.467C255.047 323.464 239.771 319.898 225.885 313.046C212 306.194 199.877 296.239 190.454 283.952L188.773 281.667L153.207 284.428C153.163 284.425 153.12 284.412 153.081 284.39C153.043 284.368 153.01 284.338 152.985 284.301C152.963 284.262 152.951 284.218 152.951 284.174C152.951 284.129 152.963 284.085 152.985 284.047L176.479 259.094L175.447 256.128C170.117 240.959 168.499 224.733 170.729 208.811C172.959 192.888 178.972 177.731 188.265 164.611C197.558 151.49 209.86 140.787 224.14 133.399C238.42 126.011 254.263 122.152 270.341 122.147C285.494 122.14 300.453 125.553 314.103 132.132C327.753 138.711 339.742 148.286 349.176 160.143C358.61 172 365.246 185.834 368.59 200.613C371.934 215.392 371.899 230.736 368.487 245.499C363.448 267.691 351 287.505 333.195 301.677C315.39 315.849 293.288 323.534 270.532 323.467ZM188.868 281.207C188.902 281.208 188.936 281.218 188.966 281.234C188.997 281.251 189.023 281.274 189.042 281.302L190.819 283.634C200.189 295.88 212.254 305.803 226.077 312.634C239.901 319.464 255.112 323.019 270.532 323.023C295.127 322.993 318.852 313.918 337.19 297.527C355.528 281.136 367.197 258.574 369.975 234.136C372.754 209.698 366.448 185.092 352.258 165.002C338.069 144.913 316.986 130.744 293.026 125.193C285.587 123.469 277.977 122.596 270.341 122.591C254.338 122.605 238.572 126.454 224.362 133.813C210.151 141.173 197.911 151.83 188.666 164.892C179.42 177.954 173.439 193.041 171.222 208.889C169.005 224.738 170.617 240.887 175.923 255.985L177.002 259.078C177.025 259.11 177.038 259.149 177.038 259.189C177.038 259.229 177.025 259.268 177.002 259.3L153.762 283.952L188.852 281.223L188.868 281.207Z" fill="white"/>
<path d="M307.144 204.794C307.392 204.22 307.442 203.58 307.287 202.974C307.132 202.369 306.781 201.831 306.287 201.447C300.813 197.459 294.568 194.655 287.949 193.214C276.614 190.601 264.705 192.593 254.836 198.752C244.968 204.912 237.947 214.736 235.315 226.067C231.667 241.819 240.312 252.511 250.734 254.922C255.041 256.008 259.543 256.065 263.876 255.086C268.208 254.108 272.249 252.122 275.671 249.29C275.759 252.671 276.999 255.92 279.185 258.499C281.372 261.079 284.375 262.833 287.696 263.472C303.987 267.248 323.896 256.318 330.415 228.145C337.443 197.814 321.008 171.688 290.472 164.692C253.796 156.205 219.405 178.842 210.489 217.358C203.065 249.465 220.34 278.003 251.559 285.237C263.948 288.108 274.117 288.155 284.523 285.411C285.182 285.236 285.754 284.827 286.134 284.261C286.513 283.694 286.674 283.009 286.585 282.334L285.57 274.402C285.514 274.001 285.374 273.617 285.158 273.275C284.942 272.933 284.655 272.641 284.317 272.419C283.981 272.193 283.599 272.044 283.198 271.983C282.798 271.923 282.389 271.953 282.001 272.07C273.672 274.182 264.948 274.182 256.62 272.07C232.317 266.439 219.96 245.452 225.893 219.817C233.031 188.931 258.365 171.18 286.173 177.605C309.682 183.046 320.802 201.399 315.202 225.718C312.744 236.33 307.683 244.643 301.306 248.545C298.964 250.174 296.072 250.807 293.264 250.306C292.843 250.237 292.445 250.067 292.105 249.81C291.765 249.553 291.493 249.217 291.312 248.83C290.63 247.434 290.139 243.643 294.485 234.078L307.144 204.794ZM282.588 207.158C284.362 207.563 286.094 208.137 287.759 208.871L280.843 224.734C276.94 233.903 266.169 243.136 258.158 241.28C250.845 239.598 251.226 233.015 252.099 229.255C255.557 214.249 269.532 204.144 282.588 207.158Z" fill="white"/>
<path d="M368.82 287.505L356.796 280.684L359.35 294.374C359.35 294.374 367.694 297.134 371.818 293.2L368.82 287.505Z" fill="#FF8B7B"/>
<path d="M345.406 282.381L348.166 293.723L359.35 294.374L356.796 280.684L345.406 282.381Z" fill="#FF8B7B"/>
<path d="M377.085 124.653L374.61 123.416C374.61 123.416 375.578 125.7 377.085 124.653Z" fill="#263238"/>
<path d="M394.09 118.387C387.301 117.959 382.32 114.977 381.654 111.058C381.654 111.058 366.076 117.531 359.778 107.886C359.778 107.886 352.671 109.06 350.911 104.11C349.15 99.161 356.542 97.765 360.032 99.9859C360.032 99.9859 349.213 90.4679 360.317 87.8188C371.422 85.1696 373.801 94.1641 373.801 94.1641C373.801 94.1641 378.179 81.0293 388.078 86.867C397.977 92.7047 391.822 98.352 391.822 98.352C391.822 98.352 415.331 100.176 406.575 109.456C397.818 118.736 394.09 118.387 394.09 118.387Z" fill="#263238"/>
<path d="M385.587 163.978C386.919 164.105 386.333 168.737 385.73 169.054C384.35 169.8 367.725 166.389 368.28 163.819C368.854 162.585 369.65 161.467 370.628 160.52C371.358 159.981 373.896 163.01 385.587 163.978Z" fill="#263238"/>
<path d="M472.406 200.305C465.678 200.284 459.193 202.819 454.263 207.398C449.333 211.976 446.326 218.256 445.851 224.968C445.375 231.679 447.466 238.321 451.701 243.549C455.936 248.777 461.999 252.201 468.663 253.129C468.796 259.832 466.445 266.346 462.064 271.42C462.064 271.42 498.961 262.235 498.961 226.86C498.961 219.817 496.164 213.063 491.184 208.083C486.204 203.103 479.449 200.305 472.406 200.305Z" fill="#407BFF"/>
<path d="M532.163 200.305C525.435 200.284 518.95 202.819 514.02 207.398C509.09 211.976 506.083 218.256 505.607 224.968C505.132 231.679 507.223 238.321 511.458 243.549C515.693 248.777 521.756 252.201 528.42 253.129C528.575 259.821 526.253 266.335 521.9 271.42C521.9 271.42 558.798 262.235 558.798 226.86C558.8 223.365 558.112 219.905 556.773 216.677C555.434 213.449 553.471 210.517 550.996 208.05C548.522 205.583 545.584 203.628 542.352 202.299C539.12 200.97 535.658 200.292 532.163 200.305Z" fill="#407BFF"/>
</svg>
